<svg width="13" height="15" viewBox="0 0 13 15" fill="none" xmlns="http://www.w3.org/2000/svg">
<path fill-rule="evenodd" clip-rule="evenodd" d="M4.12078 1.19825C4.27919 1.41277 4.50195 1.5711 4.75662 1.65018C5.01129 1.72927 5.28455 1.72496 5.5366 1.6379C6.04725 1.55691 6.56883 1.57716 7.07165 1.69751C7.27824 1.76128 7.50001 1.75574 7.70316 1.68175C7.9063 1.60776 8.07968 1.46936 8.19686 1.28767C8.23083 1.24254 8.27096 1.20241 8.31608 1.16844C8.56944 0.922534 8.86751 0.810759 9.15067 1.08647C9.20963 1.13974 9.25523 1.20614 9.2838 1.28028C9.31236 1.35443 9.32309 1.43426 9.31511 1.51332C9.30713 1.59238 9.28067 1.66845 9.23787 1.7354C9.19507 1.80235 9.13712 1.85829 9.06871 1.89871C8.71103 2.18932 8.8228 2.37561 9.12087 2.64387C9.61619 3.07352 10.0076 3.6099 10.2658 4.21265C10.5239 4.8154 10.642 5.46884 10.6112 6.12381C10.6112 7.80044 10.6112 9.48453 10.6112 11.1612C10.6112 12.4056 10.3578 12.7037 9.12087 12.875C8.78554 12.9198 8.69612 13.0613 8.69612 13.3594C8.73407 13.6702 8.71895 13.9851 8.65141 14.2909C8.60497 14.401 8.5348 14.4994 8.44593 14.5793C8.35705 14.6592 8.25165 14.7184 8.13725 14.7529C7.85408 14.805 7.69014 14.5517 7.66779 14.2611C7.64543 13.9704 7.66779 13.6947 7.66779 13.4116C7.66779 13.1284 7.56346 12.875 7.17598 12.875C6.55003 12.875 5.91664 12.875 5.2907 12.875C4.91066 12.875 4.79144 13.0464 4.80634 13.3967C4.82124 13.7469 4.80634 13.9704 4.80634 14.2536C4.81036 14.3184 4.80131 14.3834 4.77971 14.4447C4.7581 14.5059 4.7244 14.5622 4.6806 14.6102C4.6368 14.6582 4.5838 14.6968 4.52475 14.7239C4.4657 14.751 4.40181 14.7659 4.33688 14.7678C4.2648 14.7757 4.19185 14.7676 4.12327 14.744C4.05468 14.7205 3.99216 14.682 3.94017 14.6315C3.88819 14.5809 3.84803 14.5195 3.82257 14.4516C3.79711 14.3837 3.78698 14.311 3.79291 14.2387C3.77427 13.926 3.77427 13.6125 3.79291 13.2998C3.79291 13.0166 3.68859 12.8676 3.39797 12.8825C3.2842 12.8975 3.16896 12.8975 3.05519 12.8825C2.88961 12.8792 2.7265 12.8417 2.57614 12.7722C2.42577 12.7028 2.29141 12.603 2.18151 12.4791C2.07162 12.3552 1.98856 12.2099 1.93758 12.0523C1.88659 11.8948 1.86879 11.7283 1.88528 11.5635C1.88528 10.5427 1.88528 9.52178 1.88528 8.49345C1.88528 7.69612 1.88528 6.89879 1.88528 6.10891C1.84952 5.46313 1.96573 4.81796 2.22456 4.22523C2.48339 3.63251 2.87764 3.10875 3.37562 2.69604C3.68113 2.42778 3.85252 2.22658 3.44268 1.95087C3.37209 1.91307 3.31196 1.85836 3.26769 1.79164C3.22342 1.72491 3.19639 1.64825 3.189 1.56852C3.18162 1.48878 3.19412 1.40846 3.22539 1.33474C3.25665 1.26102 3.30571 1.1962 3.36816 1.14609C3.41924 1.09651 3.48018 1.05826 3.54702 1.03381C3.61387 1.00936 3.68511 0.999268 3.75612 1.00419C3.82712 1.00911 3.89629 1.02893 3.95912 1.06237C4.02195 1.09581 4.07704 1.1421 4.12078 1.19825ZM6.25197 6.41443H3.50975C2.92106 6.41443 2.90616 6.41443 2.89871 6.96585C2.89871 8.39161 2.89871 9.81488 2.89871 11.2357C2.89871 11.7498 2.95087 11.802 3.50975 11.802C5.31305 11.802 7.11388 11.802 8.91222 11.802C9.50836 11.802 9.57542 11.7275 9.58287 11.1761C9.58287 9.78508 9.58287 8.39161 9.58287 6.99566C9.58287 6.43678 9.58287 6.42188 8.99419 6.41443C8.07763 6.41443 7.16853 6.42188 6.25197 6.42188V6.41443ZM6.14019 2.61407C5.43836 2.63024 4.75967 2.86824 4.20144 3.29393C3.64322 3.71963 3.23413 4.31116 3.03284 4.98371C2.95832 5.28177 3.03284 5.401 3.3309 5.39355C4.27727 5.42336 5.21618 5.42335 6.16255 5.42335H8.98674C9.44129 5.42335 9.5009 5.31903 9.39658 4.93154C9.17861 4.24433 8.74308 3.64662 8.15569 3.22859C7.56829 2.81056 6.86089 2.59488 6.14019 2.61407ZM1.01343 7.83025C1.01343 8.42638 1.01343 9.02252 1.01343 9.61866C1.01343 9.98379 0.894203 10.267 0.499263 10.267C0.104324 10.267 0 9.99869 0 9.64846C0 8.40403 0 7.19686 0 5.97478C0 5.65436 0.104324 5.42335 0.462005 5.42335C0.819686 5.42335 0.991075 5.58729 1.00598 6.01949C1.00598 6.64543 1.00598 7.27137 1.00598 7.89732L1.01343 7.83025ZM12.5039 7.83025C12.5039 8.42638 12.5039 9.02252 12.5039 9.61866C12.5039 9.98379 12.3922 10.267 11.9972 10.267C11.6023 10.267 11.4905 9.96889 11.4905 9.61866C11.4905 8.38913 11.4905 7.16705 11.4905 5.94497C11.4905 5.62455 11.5948 5.3861 11.9525 5.35629C12.3102 5.32648 12.4741 5.52023 12.489 5.95243C12.489 6.57837 12.489 7.20431 12.489 7.83025H12.5039Z" fill="#182346"/>
</svg>
