<svg width="11" height="16" viewBox="0 0 11 16" fill="none" xmlns="http://www.w3.org/2000/svg">
<path fill-rule="evenodd" clip-rule="evenodd" d="M0.0314839 8.67966C0.0314839 7.31499 0.0314839 5.95033 0.0314839 4.593C0.0314839 3.12561 0.765175 2.39192 2.23256 2.3479C2.81951 2.3479 3.40646 2.3479 3.99341 2.3479C4.34559 2.3479 4.60972 2.47263 4.59505 2.89083C4.58037 3.30904 4.31624 3.42643 3.9714 3.42643C3.38445 3.42643 2.79016 3.42643 2.2032 3.42643C1.46951 3.42643 1.17603 3.71257 1.1687 4.48294C1.1687 7.26119 1.1687 10.0443 1.1687 12.8324C1.1687 13.6101 1.42549 13.8889 2.18119 13.9109C3.44314 13.9109 4.70509 13.9109 5.9597 13.9109C6.81812 13.9109 7.08226 13.5881 7.08959 12.6563C7.08959 11.0275 7.08959 9.40601 7.08959 7.78455C7.0447 7.55686 7.0447 7.32258 7.08959 7.09488C7.13576 7.00135 7.20275 6.91965 7.28542 6.85606C7.36809 6.79246 7.46425 6.74867 7.56649 6.72804C7.7279 6.72804 7.93333 6.92614 8.04338 7.08755C8.15344 7.24896 8.08008 7.42505 8.08008 7.60113C8.08008 9.36933 8.08008 11.1375 8.08008 12.9057C8.11092 13.1838 8.08024 13.4652 7.99018 13.7301C7.90013 13.9949 7.75292 14.2368 7.55899 14.4384C7.36506 14.64 7.12913 14.7965 6.86797 14.8968C6.60681 14.9971 6.32678 15.0388 6.04774 15.0188C4.7271 15.0188 3.4138 15.0188 2.09316 15.0188C1.80419 15.0397 1.51419 14.9961 1.24418 14.8911C0.974163 14.7861 0.730921 14.6222 0.532113 14.4115C0.333305 14.2007 0.183913 13.9483 0.0947818 13.6727C0.00565048 13.397 -0.0209983 13.1049 0.0167957 12.8177C0.0167957 11.4237 0.0167957 10.037 0.0167957 8.64297" fill="#182346"/>
<path fill-rule="evenodd" clip-rule="evenodd" d="M11.0001 3.30161C11.0001 3.69047 10.9341 4.0353 10.5306 4.0353C10.127 4.0353 9.89959 3.78585 9.85556 3.40433C9.83343 2.81023 9.58605 2.24682 9.16363 1.82849C8.74121 1.41016 8.17542 1.16826 7.58114 1.1519C7.18494 1.10054 6.89879 0.909778 6.96482 0.462226C7.03085 0.0146738 7.36101 0 7.69851 0C8.54884 0.0559691 9.35038 0.41711 9.95565 1.01699C10.5609 1.61686 10.9292 2.41513 10.9928 3.26493" fill="#182346"/>
<path fill-rule="evenodd" clip-rule="evenodd" d="M6.26055 2.34791C6.72831 2.33564 7.18256 2.50551 7.52749 2.8217C7.87242 3.13788 8.08109 3.57568 8.10947 4.04274C8.10947 4.33622 8.05809 4.58567 7.72793 4.64437C7.66356 4.66571 7.59518 4.67214 7.52796 4.66319C7.46074 4.65423 7.39644 4.63011 7.3399 4.59266C7.28337 4.5552 7.23608 4.50539 7.20162 4.44699C7.16716 4.38858 7.14643 4.32311 7.14099 4.25551C7.12717 4.01413 7.02555 3.78614 6.85526 3.6145C6.68498 3.44287 6.45779 3.33944 6.21653 3.32372C6.14864 3.32132 6.08232 3.3027 6.0231 3.26942C5.96388 3.23613 5.91348 3.18916 5.87613 3.13241C5.83878 3.07567 5.81555 3.01081 5.80839 2.94325C5.80124 2.8757 5.81038 2.80741 5.83502 2.74411C5.91572 2.54601 6.17984 2.42128 6.26055 2.34791Z" fill="#182346"/>
<path fill-rule="evenodd" clip-rule="evenodd" d="M4.31605 13.2946C4.00951 13.3391 3.69813 13.3391 3.39159 13.2946C3.17882 13.2212 2.90736 12.9424 2.9147 12.759C2.94529 12.6374 3.00655 12.5257 3.09261 12.4345C3.17867 12.3433 3.28666 12.2757 3.40628 12.2381C4.02345 12.1757 4.64534 12.1757 5.26252 12.2381C5.38342 12.2748 5.49379 12.3399 5.5844 12.428C5.67502 12.516 5.74326 12.6245 5.78343 12.7443C5.87148 13.0891 5.6 13.2946 5.24783 13.3239C4.89566 13.3533 4.6242 13.3239 4.31605 13.3239" fill="#182346"/>
</svg>
