<svg width="14" height="10" viewBox="0 0 14 10" fill="none" xmlns="http://www.w3.org/2000/svg">
<path d="M9.84334 9.66437H1.96867C1.44655 9.66437 0.945803 9.45696 0.576605 9.08776C0.207409 8.71857 0 8.21783 0 7.69571V1.96867C0.00188625 1.44713 0.209903 0.947483 0.578692 0.578694C0.947481 0.209905 1.44713 0.00188625 1.96867 0H9.84334C10.3655 0 10.8662 0.207413 11.2354 0.57661C11.6046 0.945807 11.812 1.44655 11.812 1.96867V7.69571C11.812 8.21783 11.6046 8.71857 11.2354 9.08776C10.8662 9.45696 10.3655 9.66437 9.84334 9.66437ZM1.96867 1.07382C1.73134 1.07382 1.50372 1.1681 1.33591 1.33591C1.16809 1.50373 1.07382 1.73134 1.07382 1.96867V7.69571C1.07382 7.93303 1.16809 8.16064 1.33591 8.32846C1.50372 8.49628 1.73134 8.59056 1.96867 8.59056H9.84334C10.0807 8.59056 10.3083 8.49628 10.4761 8.32846C10.6439 8.16064 10.7382 7.93303 10.7382 7.69571V1.96867C10.7382 1.73134 10.6439 1.50373 10.4761 1.33591C10.3083 1.1681 10.0807 1.07382 9.84334 1.07382H1.96867Z" fill="#182346"/>
<path d="M11.991 7.14451H11.2751V6.08501H11.991C12.2284 6.08501 12.456 5.99073 12.6238 5.82292C12.7916 5.6551 12.8859 5.42749 12.8859 5.19016V4.47428C12.8859 4.23696 12.7916 4.00935 12.6238 3.84153C12.456 3.67371 12.2284 3.57943 11.991 3.57943H11.2751V2.50562H11.991C12.5131 2.50562 13.0139 2.71303 13.3831 3.08222C13.7523 3.45142 13.9597 3.95216 13.9597 4.47428V5.19016C13.9559 5.7098 13.7468 6.20687 13.378 6.57298C13.0093 6.93908 12.5107 7.14453 11.991 7.14451Z" fill="#182346"/>
<path d="M5.54779 7.51695C5.45056 7.51836 5.35481 7.49299 5.27104 7.4436C5.18726 7.39422 5.1187 7.32273 5.07286 7.23696C5.02702 7.1512 5.00567 7.05447 5.01116 6.95738C5.01664 6.86029 5.04874 6.76658 5.10394 6.68653L5.97731 5.36931H4.83191C4.73468 5.37072 4.63893 5.34535 4.55516 5.29597C4.47138 5.24658 4.40282 5.17509 4.35698 5.08932C4.31114 5.00356 4.28979 4.90683 4.29528 4.80974C4.30076 4.71265 4.33286 4.61894 4.38806 4.53889L5.81982 2.39125C5.89693 2.27896 6.01434 2.20068 6.14765 2.17269C6.28097 2.14469 6.41993 2.16913 6.5357 2.24091C6.64659 2.31915 6.72375 2.43647 6.75164 2.56929C6.77954 2.70211 6.7561 2.84056 6.68604 2.95679L5.80551 4.26685H6.95091C7.04839 4.26649 7.14408 4.29303 7.22744 4.34356C7.3108 4.39408 7.37861 4.46662 7.42339 4.5532C7.47249 4.63676 7.49837 4.73191 7.49837 4.82882C7.49837 4.92573 7.47249 5.02088 7.42339 5.10443L5.99163 7.25207C5.94447 7.32872 5.87948 7.39284 5.8022 7.43895C5.72492 7.48507 5.63764 7.51183 5.54779 7.51695Z" fill="#182346"/>
</svg>
