<svg width="13" height="13" viewBox="0 0 13 13" fill="none" xmlns="http://www.w3.org/2000/svg">
<path fill-rule="evenodd" clip-rule="evenodd" d="M5.47214 9.81421C5.47214 9.01869 5.47214 8.26362 5.47214 7.50854C5.47098 7.42571 5.45166 7.34415 5.41555 7.2696C5.37944 7.19505 5.32742 7.12933 5.26315 7.07707C4.64965 6.69953 4.01593 6.35571 3.28108 5.93098C3.28108 6.84785 3.28108 7.62315 3.28108 8.40519C3.28108 8.64115 3.4631 8.67486 3.60468 8.75576L5.49236 9.81421H5.47214ZM8.26995 5.095C7.46769 4.65005 6.78003 4.25903 6.07215 3.89497C6.00633 3.87748 5.93759 3.87384 5.87028 3.88428C5.80297 3.89473 5.73856 3.91903 5.68113 3.95565C5.04741 4.3197 4.41368 4.70398 3.72603 5.10849L5.74855 6.28155C5.83663 6.34273 5.94131 6.37552 6.04855 6.37552C6.1558 6.37552 6.26049 6.34273 6.34857 6.28155L8.30366 5.10849L8.26995 5.095ZM8.76211 5.92423C8.05422 6.322 7.41376 6.69279 6.78004 7.03662C6.5643 7.14449 6.41598 7.25236 6.42273 7.52202C6.42273 8.2771 6.42273 9.03891 6.42273 9.89511C7.17106 9.4569 7.83174 9.05914 8.50592 8.67486C8.59207 8.6304 8.66269 8.56084 8.70844 8.47536C8.75418 8.38989 8.7729 8.29254 8.76211 8.1962C8.76211 7.46135 8.76211 6.7265 8.76211 5.92423ZM2.41814 6.91527C2.41814 6.42312 2.41814 5.93772 2.41814 5.44557C2.39952 5.2438 2.44154 5.04105 2.53882 4.8633C2.63611 4.68555 2.78422 4.54087 2.96421 4.4478C3.75974 4.03655 4.54852 3.59834 5.3036 3.09945C5.47231 2.97892 5.67254 2.91025 5.87971 2.90187C6.08689 2.89349 6.29201 2.94575 6.46991 3.05226C6.96206 3.30844 7.44747 3.58485 7.93961 3.86127C8.23625 4.02307 8.52614 4.19835 8.81603 4.37364C9.0621 4.48106 9.26916 4.66161 9.40907 4.89077C9.54898 5.11993 9.61496 5.3866 9.59807 5.65457C9.54414 6.55796 9.59807 7.46809 9.59807 8.35126C9.6124 8.54825 9.57061 8.74527 9.47754 8.91948C9.38447 9.09369 9.24393 9.23795 9.07222 9.33555C8.20928 9.84118 7.31937 10.2929 6.46991 10.8052C6.30624 10.9112 6.11542 10.9675 5.92046 10.9675C5.72549 10.9675 5.53469 10.9112 5.37102 10.8052C4.56201 10.367 3.7867 9.8614 2.98444 9.40971C2.77157 9.31351 2.59515 9.1516 2.48109 8.94775C2.36703 8.74389 2.32134 8.50884 2.35071 8.2771C2.39116 7.81866 2.35071 7.34674 2.35071 6.88156" fill="#182346"/>
<path fill-rule="evenodd" clip-rule="evenodd" d="M0.0112417 3.24778C0.0112417 3.00508 0.0112417 2.76238 0.0112417 2.51967C0.00096775 2.32031 0.031987 2.12097 0.102354 1.93416C0.172721 1.74734 0.280915 1.57707 0.420163 1.43403C0.559411 1.29098 0.726709 1.17824 0.911565 1.10287C1.09642 1.02751 1.29485 0.991136 1.49442 0.996043C2.05398 0.996043 2.61355 0.996043 3.17985 0.996043C3.51694 0.996043 3.70571 1.14436 3.70571 1.36684C3.69711 1.50933 3.63438 1.64314 3.53036 1.74089C3.42634 1.83865 3.28889 1.89295 3.14614 1.89269C3.05176 1.89269 2.95063 1.89269 2.85625 1.89269C0.921371 1.83876 0.833729 1.89269 0.907888 3.87476C0.91462 3.97128 0.91462 4.06814 0.907888 4.16466C0.908166 4.29669 0.85813 4.42386 0.767953 4.5203C0.677776 4.61674 0.554241 4.6752 0.422488 4.68377C0.179785 4.68377 0.0247251 4.52871 0.0112417 4.19837C-0.00224179 3.86802 0.0112417 3.52419 0.0112417 3.24104" fill="#182346"/>
<path fill-rule="evenodd" clip-rule="evenodd" d="M9.70587 0.995906H10.2924C10.5191 0.975768 10.7475 1.00514 10.9618 1.082C11.176 1.15885 11.371 1.28135 11.5332 1.44101C11.6955 1.60068 11.8211 1.79369 11.9013 2.00669C11.9816 2.21968 12.0146 2.44758 11.9981 2.6746C11.9981 3.16674 11.9981 3.65889 11.9981 4.14429C12.0115 4.25413 11.9849 4.36514 11.9229 4.45683C11.8609 4.54853 11.7679 4.61471 11.661 4.64318C11.6018 4.67752 11.5345 4.69514 11.4661 4.69417C11.3977 4.6932 11.3309 4.67367 11.2727 4.63768C11.2146 4.60168 11.1673 4.55056 11.1359 4.48979C11.1046 4.42901 11.0903 4.36086 11.0947 4.29261C11.0947 4.00272 11.0947 3.70608 11.0947 3.40945C11.0947 3.21394 11.0947 3.01843 11.0947 2.82292C11.0974 2.70087 11.0754 2.57953 11.03 2.46622C10.9846 2.35291 10.9166 2.24999 10.8303 2.16366C10.744 2.07734 10.6411 2.00941 10.5277 1.96397C10.4144 1.91853 10.2931 1.89653 10.1711 1.8993C9.69913 1.8993 9.23395 1.8993 8.76877 1.8993C8.43843 1.8993 8.30359 1.75098 8.30359 1.46783C8.30359 1.18467 8.41146 1.02962 8.67439 1.01613C8.93731 1.00265 9.34856 1.01613 9.70587 1.01613V0.995906Z" fill="#182346"/>
<path fill-rule="evenodd" clip-rule="evenodd" d="M2.29001 12.956H1.69674C1.47048 12.9742 1.24296 12.9431 1.02986 12.8649C0.816757 12.7868 0.623128 12.6633 0.462303 12.5032C0.301478 12.343 0.17728 12.1498 0.0982593 11.9371C0.0192388 11.7243 -0.0127272 11.4969 0.00456468 11.2705C0.00456468 10.7582 0.00456468 10.2391 0.00456468 9.72669C0.00456468 9.39634 0.159626 9.26151 0.442778 9.25477C0.725931 9.24803 0.887733 9.37612 0.901216 9.69972C0.914699 10.0233 0.901216 10.5357 0.901216 10.9537C0.901216 11.7492 1.20459 12.0391 2.02034 12.0526C2.41136 12.0526 2.80912 12.0526 3.20014 12.0526C3.59116 12.0526 3.70577 12.2279 3.68555 12.4638C3.67859 12.5962 3.62063 12.7207 3.52383 12.8112C3.42704 12.9017 3.29894 12.9512 3.16644 12.9492C2.8698 12.9492 2.5799 12.9492 2.28327 12.9492" fill="#182346"/>
<path fill-rule="evenodd" clip-rule="evenodd" d="M11.9644 10.7446C12.0115 11.2261 11.9252 11.7112 11.715 12.1469C11.5873 12.3688 11.4078 12.5565 11.1918 12.6938C10.9757 12.8312 10.7296 12.9142 10.4745 12.9357C9.88642 12.9761 9.29625 12.9761 8.70817 12.9357C8.64683 12.9442 8.58435 12.938 8.52587 12.9176C8.46739 12.8973 8.41458 12.8633 8.37179 12.8185C8.329 12.7738 8.29746 12.7195 8.27975 12.6601C8.26205 12.6008 8.25869 12.5381 8.26995 12.4772C8.26314 12.4224 8.26826 12.3667 8.28493 12.314C8.3016 12.2613 8.32945 12.2128 8.36657 12.1719C8.40368 12.1309 8.44919 12.0984 8.5 12.0767C8.55081 12.0549 8.60572 12.0444 8.66097 12.0458C8.95761 12.0458 9.25424 12.0458 9.54414 12.0458C9.66764 12.0526 9.79143 12.0526 9.91493 12.0458C10.8925 11.9177 10.9464 11.8233 11.0543 10.8929C11.1015 10.5019 11.0543 10.1041 11.0543 9.71311C11.0543 9.32209 11.2093 9.25467 11.4925 9.24793C11.7756 9.24119 11.9307 9.36928 11.9442 9.69289C11.9577 10.0165 11.9442 10.3671 11.9442 10.7379" fill="#182346"/>
</svg>
