<svg width="17" height="18" viewBox="0 0 17 18" fill="none" xmlns="http://www.w3.org/2000/svg">
<path d="M13.8877 0.0800781H2.9487C1.32277 0.0800781 0 1.41466 0 3.05513V14.3001C0 15.9406 1.32277 17.2752 2.9487 17.2752H13.8877C15.5136 17.2752 16.8363 15.9406 16.8363 14.3002V3.05513C16.8363 1.41466 15.5136 0.0800781 13.8877 0.0800781ZM7.87748 16.1841H2.9487C1.91908 16.1841 1.08146 15.339 1.08146 14.3002V9.22323H7.87748V16.1841ZM7.87748 8.13211H1.08146V3.05513C1.08146 2.01631 1.91908 1.1712 2.9487 1.1712H7.87748V8.13211ZM15.7549 14.3002C15.7549 15.339 14.9173 16.1841 13.8877 16.1841H8.95893V9.22323H15.755V14.3002H15.7549ZM15.7549 8.13211H8.95886V1.1712H13.8876C14.9172 1.1712 15.7548 2.01638 15.7548 3.05513V8.13211H15.7549ZM2.72448 5.16666H4.11768V6.55937H5.04644V5.16666H6.44397V4.20364H5.04644V2.81101H4.11768V4.20357H2.72448V5.16666ZM10.8491 5.19387H14.0827V4.24823H10.8491V5.19387ZM2.912 13.7989L3.56881 14.4615L4.54486 13.4767L5.53288 14.4738L6.20792 13.7928L5.21969 12.7958L6.19574 11.811L5.53901 11.1485L4.56296 12.1332L3.57782 11.1394L2.90285 11.8203L3.88798 12.8142L2.912 13.7989ZM14.0827 11.3284H10.849V12.2741H14.0827V11.3284ZM14.0827 13.3414H10.849V14.287H14.0827V13.3414Z" fill="white"/>
</svg>
