<svg width="12" height="12" viewBox="0 0 12 12" fill="none" xmlns="http://www.w3.org/2000/svg">
<path fill-rule="evenodd" clip-rule="evenodd" d="M8.50303 9.68714C8.52737 9.93719 8.45826 10.1874 8.30904 10.3895C8.09261 10.5593 7.82088 10.6428 7.54646 10.6237C6.39588 10.6237 5.24531 10.6237 4.09473 10.6237C3.42579 10.6237 3.17828 10.3561 3.17159 9.64031C3.17159 8.40946 3.17159 7.17862 3.17159 5.94777C3.17159 5.81294 3.11803 5.68362 3.02269 5.58828C2.92735 5.49294 2.79803 5.43938 2.66319 5.43938C2.59706 5.43848 2.53141 5.45084 2.47013 5.47573C2.40886 5.50063 2.3532 5.53755 2.30643 5.58432C2.25966 5.63109 2.22274 5.68675 2.19785 5.74803C2.17295 5.8093 2.16059 5.87495 2.16149 5.94108V7.01138C2.15504 7.0647 2.15504 7.11861 2.16149 7.17193C2.16149 8.00141 2.16149 8.82421 2.16149 9.65369C2.12813 9.91596 2.15341 10.1824 2.23551 10.4337C2.31761 10.685 2.45447 10.9149 2.63623 11.1069C2.81798 11.2989 3.04009 11.4482 3.28653 11.5439C3.53296 11.6396 3.79757 11.6795 4.06127 11.6605H7.53307C7.7106 11.661 7.8877 11.643 8.06153 11.607C8.09267 11.6101 8.12403 11.6101 8.15517 11.607C8.25311 11.5882 8.34933 11.5614 8.44283 11.5267C8.63786 11.4529 8.81534 11.3393 8.96393 11.193C9.11252 11.0467 9.22894 10.871 9.30575 10.6772L9.36595 10.5434C9.36291 10.5167 9.36291 10.4898 9.36595 10.4631C9.3953 10.3577 9.41765 10.2504 9.43285 10.142C9.46059 9.97624 9.47402 9.80839 9.47298 9.64031V9.0182H8.4562C8.50303 9.24564 8.50972 9.45301 8.50303 9.68714Z" fill="#182346"/>
<path fill-rule="evenodd" clip-rule="evenodd" d="M9.51974 4.67667C9.52619 4.62335 9.52619 4.56944 9.51974 4.51612C9.51974 3.69333 9.51974 2.86384 9.51974 2.04105C9.55436 1.77855 9.52995 1.51164 9.44832 1.25977C9.36668 1.0079 9.22987 0.777428 9.04785 0.585151C8.86582 0.392874 8.64318 0.243641 8.39616 0.148333C8.14914 0.053025 7.88396 0.0140444 7.61996 0.0342334C7.02461 0.0342334 6.42925 0.0342334 5.84058 0.0342334H5.75362C5.21847 0.0342334 4.67662 0.0342334 4.14147 0.0342334C3.96435 0.0356535 3.78764 0.0513126 3.61303 0.0810592H3.52606C3.42813 0.0998306 3.33192 0.12668 3.23842 0.161332C3.04234 0.233244 2.86389 0.34625 2.71506 0.492773C2.56623 0.639297 2.45045 0.815949 2.37549 1.01088L2.31528 1.13798V1.22494C2.31528 1.32528 2.26176 1.43231 2.24169 1.53935C2.21989 1.7057 2.20873 1.87327 2.20825 2.04105C2.20825 2.28856 2.20825 2.53606 2.20825 2.77688H3.21836V1.99422C3.20913 1.75615 3.27717 1.52148 3.41233 1.32528C3.63085 1.15508 3.90566 1.07383 4.18161 1.09785C5.33218 1.09785 6.48277 1.09785 7.62666 1.09785C8.2956 1.09785 8.5498 1.36542 8.5498 2.08119C8.5498 3.37224 8.5498 4.66329 8.5498 5.95434C8.54799 6.02103 8.55967 6.0874 8.58415 6.14946C8.60864 6.21151 8.64543 6.26798 8.69229 6.31547C8.73915 6.36295 8.79512 6.40048 8.85685 6.42578C8.91858 6.45109 8.98479 6.46366 9.0515 6.46273C9.18633 6.46273 9.31564 6.40917 9.41098 6.31383C9.50632 6.21849 9.55988 6.08917 9.55988 5.95434L9.51974 4.67667Z" fill="#182346"/>
<path d="M11.1922 11.6939C11.1262 11.6946 11.0608 11.6819 10.9999 11.6566C10.9389 11.6313 10.8838 11.594 10.8377 11.5467L0.13465 0.843727C0.0460288 0.74862 -0.0022151 0.622829 7.81666e-05 0.492853C0.00237143 0.362878 0.0550286 0.238867 0.146949 0.146946C0.23887 0.0550249 0.362875 0.00237143 0.492851 7.81635e-05C0.622826 -0.0022151 0.748617 0.0460309 0.843723 0.134652L11.5467 10.8377C11.6407 10.9317 11.6935 11.0593 11.6935 11.1922C11.6935 11.3252 11.6407 11.4527 11.5467 11.5467C11.5004 11.5936 11.4452 11.6308 11.3843 11.6561C11.3234 11.6814 11.2581 11.6942 11.1922 11.6939Z" fill="#182346"/>
</svg>
