<svg width="42" height="44" viewBox="0 0 42 44" fill="none" xmlns="http://www.w3.org/2000/svg">
<path d="M39.8956 22.1553C38.5753 21.5709 37.2113 21.0905 35.8162 20.7184C32.8939 19.8702 32.9238 18.2137 33.0734 17.5452C33.1607 17.2113 33.319 16.9002 33.5377 16.6332C33.7563 16.3663 34.03 16.1498 34.3401 15.9985C34.7957 15.7551 35.2965 15.6083 35.8113 15.5671C36.3261 15.5259 36.8438 15.5912 37.3323 15.759C38.0358 16.0756 38.6545 16.5543 39.1376 17.156C39.3404 17.4192 39.5081 17.7076 39.6363 18.0142C39.7128 18.2242 39.8241 18.4198 39.9654 18.5929C40.2448 18.8261 40.5991 18.9501 40.9628 18.9422C41.2397 18.7894 41.447 18.5356 41.5413 18.2337C41.6522 17.5242 41.5267 16.7979 41.1842 16.1668C40.8418 15.5356 40.3014 15.0347 39.6463 14.7412C38.4693 14.1724 37.3024 13.4839 37.1428 11.7476C37.0166 11.5215 36.8302 11.3349 36.6042 11.2087C36.2316 11.2842 35.8867 11.4602 35.6068 11.7176C35.4818 12.2651 35.2285 12.775 34.8678 13.2053C34.5071 13.6356 34.0493 13.9739 33.5322 14.1923L33.0634 14.4817C32.3569 14.8553 31.7648 15.4136 31.3503 16.0971C30.9358 16.7807 30.7144 17.5639 30.7095 18.3634C30.824 19.1663 31.1545 19.9228 31.6658 20.5521C32.1771 21.1814 32.8498 21.6597 33.612 21.9358C34.2029 22.1878 34.8134 22.3913 35.4372 22.5445C36.1509 22.7254 36.8482 22.9658 37.5218 23.263C38.5352 23.6764 39.3524 24.4617 39.8059 25.4583C40.1749 26.7655 39.3471 27.8532 37.5418 28.4519C36.6956 28.6789 35.8046 28.6789 34.9585 28.4519C34.275 28.3063 33.6465 27.9705 33.1454 27.4833C32.6443 26.996 32.2909 26.3771 32.1259 25.6978C32.0618 25.3723 31.8718 25.0854 31.5972 24.8995C31.4993 24.8463 31.3895 24.8188 31.2781 24.8196C31.1482 24.8251 31.0201 24.8521 30.899 24.8995C30.3605 25.0691 30.2607 25.3585 30.3605 26.4462C30.4419 27.1319 30.6997 27.7847 31.1088 28.3409C31.5179 28.8971 32.0642 29.3376 32.6944 29.6194L32.8739 29.7192C33.4418 29.9555 33.9536 30.3086 34.3763 30.7555C34.799 31.2025 35.1231 31.7333 35.3275 32.3136C35.3687 32.5035 35.471 32.6747 35.6187 32.8009C35.7664 32.9271 35.9515 33.0013 36.1454 33.0121C36.2951 33.0101 36.4394 32.9563 36.5539 32.8599C36.6685 32.7635 36.7461 32.6304 36.7738 32.4833C37.2824 30.7869 38.4095 30.2381 39.6164 29.6493C40.2339 29.3893 40.7711 28.9694 41.1725 28.4327C41.574 27.896 41.8252 27.2619 41.9004 26.5958C41.9902 24.161 41.4017 22.8738 39.8956 22.1553Z" fill="#C4AD6C"/>
<path d="M25.7325 31.1363C25.5979 31.1328 25.464 31.1567 25.3389 31.2064C25.2137 31.2562 25.1 31.3307 25.0044 31.4257C24.906 31.5196 24.8277 31.6326 24.7746 31.7579C24.7214 31.8832 24.6944 32.018 24.6952 32.1541V34.6587C24.6821 36.3952 23.9862 38.0566 22.7579 39.2836C21.5297 40.5105 19.868 41.2043 18.1323 41.2147H18.0525L9.1856 41.115C7.43696 41.0835 5.772 40.3602 4.5551 39.1035C3.33821 37.8467 2.66849 36.1589 2.69251 34.4093L2.98176 9.0734C2.99747 7.33697 3.69596 5.67657 4.92607 4.45149C6.15618 3.2264 7.81898 2.53518 9.55464 2.52738H9.62446L18.4914 2.62717C20.2391 2.65606 21.9041 3.37713 23.1213 4.63228C24.3384 5.88743 25.0085 7.57423 24.9845 9.32286V11.8275C24.9845 12.0922 25.0896 12.346 25.2766 12.5331C25.4636 12.7203 25.7173 12.8254 25.9819 12.8254C26.1158 12.8361 26.2504 12.8155 26.375 12.7653C26.4996 12.715 26.6109 12.6366 26.7 12.536C26.7997 12.4409 26.8787 12.3263 26.9319 12.1992C26.9851 12.0721 27.0114 11.9353 27.0092 11.7976V9.3029C27.0277 8.16542 26.822 7.03543 26.4039 5.97749C25.9858 4.91954 25.3635 3.95435 24.5726 3.13706C23.7816 2.31976 22.8374 1.66636 21.794 1.21418C20.7506 0.762005 19.6283 0.5199 18.4914 0.501702L9.62446 0.401917H9.52472C7.28043 0.40804 5.12946 1.30111 3.5403 2.88661C2.71283 3.68714 2.05363 4.64505 1.60144 5.70407C1.14926 6.76309 0.913204 7.90185 0.907159 9.05343L0.617912 34.3893C0.585875 36.685 1.46412 38.9 3.06047 40.5494C4.65681 42.1989 6.84124 43.1485 9.13573 43.1905L18.0026 43.2903C20.2981 43.2983 22.5034 42.3971 24.1368 40.7835C25.7702 39.1699 26.6989 36.9751 26.72 34.6787V32.184C26.7267 32.0497 26.7062 31.9154 26.6597 31.7891C26.6132 31.6629 26.5417 31.5474 26.4495 31.4495C26.3573 31.3517 26.2462 31.2735 26.123 31.2196C25.9998 31.1658 25.867 31.1374 25.7325 31.1363Z" fill="#C4AD6C"/>
<path d="M23.3785 17.6949C23.3058 17.6173 23.2176 17.5559 23.1197 17.5147C23.0217 17.4734 22.9162 17.4532 22.81 17.4554C22.5987 17.4654 22.3962 17.5422 22.2315 17.6749C22.1584 17.7484 22.1005 17.8356 22.0611 17.9315C22.0218 18.0273 22.0017 18.1301 22.0021 18.2337C21.9976 18.3355 22.0149 18.4371 22.0528 18.5318C22.0906 18.6264 22.1481 18.7119 22.2215 18.7825L25.2137 21.846L14.5714 21.7263C14.3624 21.7263 14.162 21.8093 14.0143 21.9572C13.8665 22.105 13.7835 22.3055 13.7835 22.5146C13.7835 22.7237 13.8665 22.9242 14.0143 23.072C14.162 23.2198 14.3624 23.3029 14.5714 23.3029L25.2536 23.4226L22.1617 26.4162C22.0854 26.4878 22.0247 26.5744 21.9835 26.6706C21.9423 26.7668 21.9215 26.8704 21.9223 26.9751C21.9179 27.0769 21.9351 27.1785 21.973 27.2731C22.0108 27.3677 22.0683 27.4532 22.1417 27.5239C22.2959 27.6721 22.5014 27.7548 22.7152 27.7548C22.929 27.7548 23.1345 27.6721 23.2887 27.5239L27.6873 23.263C27.7671 23.1816 27.8296 23.0847 27.8707 22.9783C27.9119 22.872 27.9309 22.7583 27.9266 22.6443C27.9347 22.5316 27.9194 22.4185 27.8817 22.312C27.8439 22.2055 27.7845 22.108 27.7072 22.0256L23.3785 17.6949Z" fill="#C4AD6C"/>
</svg>
