<svg width="54" height="54" viewBox="0 0 54 54" fill="none" xmlns="http://www.w3.org/2000/svg">
<path d="M15.3747 8.58496H8.26688V15.6928H15.3747V8.58496Z" fill="#C4AD6C"/>
<path d="M15.3747 38.1504H8.26688V45.2582H15.3747V38.1504Z" fill="#C4AD6C"/>
<path d="M45.1052 37.9976H37.6789V45.4239H45.1052V37.9976Z" fill="#C4AD6C"/>
<path d="M53.2069 29.8706H29.5523V53.5252H53.2069V29.8706ZM50.2898 50.6082H32.4566V32.7749H50.2898V50.6082Z" fill="#C4AD6C"/>
<path d="M35.3096 0H29.7176V5.57928H35.3096V0Z" fill="#C4AD6C"/>
<path d="M41.2203 23.8074V18.2154H35.641H47.4619H48.2007H53.0539V0H47.4619V11.9738H41.2203V6.39451H35.641V11.9738H35.3098V11.9865H29.2338V23.8074H35.641H41.2203Z" fill="#C4AD6C"/>
<path d="M0 23.9602H23.6546V0.318359H0V23.9602ZM2.91701 3.23537H20.7503V21.0687H2.91701V3.23537Z" fill="#C4AD6C"/>
<path d="M0 53.5252H23.6546V29.8706H0V53.5252ZM2.91701 32.8004H20.7503V50.6337H2.91701V32.8004Z" fill="#C4AD6C"/>
</svg>
