<svg width="54" height="54" viewBox="0 0 54 54" fill="none" xmlns="http://www.w3.org/2000/svg">
<path d="M53.2565 50.4284C53.0272 49.3329 52.7979 48.2375 52.5559 47.142C52.0209 44.6836 51.4731 42.1232 51.0273 39.5756C50.8852 38.593 50.9903 37.5904 51.333 36.6586C52.673 33.2839 53.3352 29.6784 53.282 26.0478C53.1888 22.4371 52.3654 18.8827 50.8614 15.5988C49.3574 12.315 47.204 9.36975 44.5309 6.94067C41.8606 4.54123 38.74 2.6964 35.3506 1.51337C31.9611 0.330342 28.3703 -0.167278 24.7869 0.0493954C11.6794 0.902846 0.342562 12.5964 0.0113722 25.5255C-0.119559 30.0147 0.881885 34.4646 2.92337 38.4649C4.96485 42.4652 7.98065 45.8871 11.6927 48.415C15.4047 50.943 19.6935 52.4957 24.1635 52.93C28.6336 53.3642 33.141 52.666 37.2702 50.8997C37.6517 50.7513 38.0583 50.6777 38.4676 50.6832C38.6667 50.6638 38.8672 50.6638 39.0663 50.6832C42.3017 51.3074 45.6136 51.957 48.5434 52.6321L53.6386 53.7148L53.3584 51.3456C53.3404 51.0383 53.3064 50.7322 53.2565 50.4284ZM48.4415 40.0469C48.9 42.7092 49.4733 45.3714 49.9828 47.6897L50.5815 50.4794L49.0911 50.2374C46.1486 49.6132 42.7985 48.9636 39.5503 48.2757C38.4427 48.0664 37.2984 48.1769 36.2512 48.5942C32.5246 50.2067 28.4505 50.8499 24.4083 50.4639C20.3662 50.078 16.4875 48.6754 13.1334 46.3868C9.77926 44.0981 7.05887 40.9979 5.22553 37.3748C3.39219 33.7518 2.50554 29.7237 2.64814 25.6656C2.94112 13.9976 13.157 3.48867 24.9652 2.73713C28.2057 2.52511 31.4556 2.96944 34.5201 4.04351C37.5847 5.11758 40.4009 6.79928 42.8 8.98783C45.1991 11.1764 47.1317 13.8267 48.4819 16.7801C49.8321 19.7334 50.5723 22.9289 50.6579 26.1752C50.6924 29.4674 50.0822 32.7345 48.8618 35.7924C48.3619 37.1517 48.2172 38.6161 48.4415 40.0469Z" fill="#C4AD6C"/>
<path d="M37.321 20.9395H16.1503C15.9525 20.9207 15.7529 20.9435 15.5644 21.0063C15.3759 21.0692 15.2026 21.1707 15.0556 21.3044C14.9086 21.4382 14.7912 21.6011 14.7109 21.7828C14.6305 21.9645 14.589 22.1611 14.589 22.3598C14.589 22.5585 14.6305 22.755 14.7109 22.9367C14.7912 23.1184 14.9086 23.2814 15.0556 23.4151C15.2026 23.5488 15.3759 23.6503 15.5644 23.7132C15.7529 23.776 15.9525 23.7988 16.1503 23.7801H37.321C37.5188 23.7988 37.7183 23.776 37.9068 23.7132C38.0953 23.6503 38.2687 23.5488 38.4157 23.4151C38.5626 23.2814 38.6801 23.1184 38.7604 22.9367C38.8408 22.755 38.8823 22.5585 38.8823 22.3598C38.8823 22.1611 38.8408 21.9645 38.7604 21.7828C38.6801 21.6011 38.5626 21.4382 38.4157 21.3044C38.2687 21.1707 38.0953 21.0692 37.9068 21.0063C37.7183 20.9435 37.5188 20.9207 37.321 20.9395Z" fill="#C4AD6C"/>
<path d="M33.092 29.4614H16.1504C15.9525 29.4427 15.753 29.4655 15.5645 29.5283C15.376 29.5912 15.2027 29.6927 15.0557 29.8264C14.9087 29.9601 14.7913 30.1231 14.7109 30.3048C14.6306 30.4865 14.5891 30.683 14.5891 30.8817C14.5891 31.0804 14.6306 31.277 14.7109 31.4587C14.7913 31.6404 14.9087 31.8034 15.0557 31.9371C15.2027 32.0708 15.376 32.1723 15.5645 32.2352C15.753 32.298 15.9525 32.3208 16.1504 32.302H33.092C33.4455 32.2685 33.7737 32.1044 34.0127 31.8417C34.2516 31.5791 34.384 31.2368 34.384 30.8817C34.384 30.5267 34.2516 30.1844 34.0127 29.9217C33.7737 29.6591 33.4455 29.495 33.092 29.4614Z" fill="#C4AD6C"/>
</svg>
