<svg width="51" height="59" viewBox="0 0 51 59" fill="none" xmlns="http://www.w3.org/2000/svg">
<path d="M50.6783 26.8395C50.7181 25.6737 50.5163 24.5122 50.0856 23.4281C49.6549 22.344 49.0046 21.3606 48.1755 20.54C47.3465 19.7193 46.3566 19.079 45.2682 18.6593C44.1797 18.2396 43.0163 18.0496 41.8509 18.1012H8.92296C7.74377 18.0457 6.56591 18.2357 5.46403 18.6593C4.36215 19.0829 3.36029 19.7307 2.52197 20.5619C1.68365 21.393 1.02715 22.3892 0.594098 23.4874C0.161048 24.5856 -0.0391119 25.7618 0.00631115 26.9414C0.00631115 34.3677 0.00631115 41.9087 0.00631115 49.335C-0.0371743 50.5141 0.164312 51.6894 0.598043 52.7867C1.03177 53.884 1.68833 54.8795 2.52625 55.7102C3.36416 56.541 4.36522 57.1889 5.46623 57.6132C6.56723 58.0375 7.74425 58.2288 8.92296 58.1752H41.7235C42.9006 58.2401 44.0783 58.0582 45.181 57.6411C46.2837 57.2241 47.287 56.5812 48.1266 55.7536C48.9662 54.926 49.6235 53.932 50.0564 52.8354C50.4892 51.7388 50.6881 50.5639 50.6401 49.3859C50.6401 47.2714 50.6401 45.1569 50.6401 43.0169V36.0874C50.7038 33.0302 50.7165 29.9349 50.6783 26.8395ZM4.31178 23.0181C4.86013 22.3531 5.54874 21.8175 6.32831 21.4497C7.10787 21.082 7.95909 20.8911 8.82105 20.8909H8.91022C16.7187 21.0182 24.6545 20.9928 32.3355 20.98H41.4178C42.3289 20.9115 43.2442 21.0399 44.1014 21.3564C44.9585 21.6729 45.7376 22.1701 46.3856 22.8143C46.9781 23.5513 47.4054 24.4069 47.6383 25.3234C47.8713 26.2398 47.9045 27.1957 47.7358 28.1261V28.5847H3.15261L3.07619 28.177C2.89626 27.2931 2.9137 26.3804 3.12729 25.5041C3.34088 24.6277 3.74534 23.8093 4.31178 23.1073V23.0181ZM47.8377 49.0165C47.8377 52.9016 45.5194 55.22 41.6725 55.22H32.2718C24.7054 55.22 16.8843 55.22 9.19046 55.22H9.12677C8.31783 55.264 7.50851 55.1405 6.7495 54.8573C5.99049 54.574 5.29812 54.1371 4.71578 53.5739C4.13343 53.0107 3.67367 52.3333 3.36523 51.5842C3.0568 50.835 2.90636 50.0303 2.92334 49.2203C2.92334 45.9976 2.92334 42.7621 2.92334 39.5394C2.92334 37.3484 2.92334 35.1575 2.92334 32.9666C2.90448 32.7614 2.92872 32.5545 2.99454 32.3593C3.06035 32.1641 3.16625 31.9848 3.30546 31.8329C3.66789 31.5518 4.12195 31.4155 4.57927 31.4507H47.8887V40.6476C47.8377 43.4882 47.8505 46.2906 47.8377 49.0675V49.0165Z" fill="#C4AD6C"/>
<path d="M18.8079 39.3743H15.7252H12.1586C11.9751 39.3446 11.7873 39.3553 11.6084 39.4059C11.4295 39.4564 11.2638 39.5455 11.123 39.6669C10.9821 39.7883 10.8696 39.9391 10.7933 40.1086C10.7169 40.2781 10.6786 40.4622 10.681 40.6481C10.6558 40.8212 10.6666 40.9977 10.7126 41.1664C10.7587 41.3352 10.8389 41.4926 10.9485 41.629C11.0915 41.783 11.2651 41.9055 11.4581 41.9889C11.651 42.0722 11.8592 42.1145 12.0694 42.113C12.9356 42.113 14.4769 42.113 15.1393 42.113H18.7951C19.8142 42.0238 20.3237 41.5525 20.3237 40.6736C20.3237 39.7947 19.776 39.3871 18.8079 39.3743Z" fill="#C4AD6C"/>
<path d="M13.8782 8.07686C14.3072 8.07544 14.7186 7.90629 15.0246 7.60556C16.3659 6.22659 17.9701 5.1305 19.7423 4.38205C21.5145 3.6336 23.4187 3.24798 25.3424 3.24798C27.2661 3.24798 29.1704 3.6336 30.9425 4.38205C32.7147 5.1305 34.3189 6.22659 35.6602 7.60556C35.9662 7.90629 36.3777 8.07544 36.8067 8.07686C37.1293 8.07966 37.4454 7.98513 37.7135 7.80562C37.9816 7.62611 38.1894 7.36995 38.3098 7.07056C38.44 6.78385 38.4793 6.46411 38.4224 6.15439C38.3654 5.84467 38.215 5.55983 37.9913 5.33818C36.3463 3.64879 34.3795 2.30604 32.207 1.3892C30.0346 0.472361 27.7004 0 25.3424 0C22.9844 0 20.6503 0.472361 18.4778 1.3892C16.3054 2.30604 14.3386 3.64879 12.6935 5.33818C12.4714 5.56081 12.322 5.84559 12.2652 6.1549C12.2083 6.46421 12.2466 6.78349 12.3751 7.07056C12.4954 7.36995 12.7032 7.62611 12.9714 7.80562C13.2395 7.98513 13.5555 8.07966 13.8782 8.07686Z" fill="#C4AD6C"/>
<path d="M21.2025 9.60477C20.8658 9.76017 20.5944 10.0291 20.4361 10.3645C20.2777 10.6999 20.2424 11.0803 20.3363 11.4391C20.4054 11.802 20.6005 12.1289 20.8872 12.362C21.1738 12.5951 21.5337 12.7194 21.9031 12.7129C22.1481 12.7171 22.3912 12.6694 22.6164 12.5727C23.4615 12.1452 24.3953 11.9224 25.3424 11.9224C26.2895 11.9224 27.2233 12.1452 28.0683 12.5727C28.2935 12.6694 28.5366 12.7171 28.7817 12.7129C29.1517 12.7219 29.5129 12.5986 29.8001 12.3651C30.0874 12.1316 30.2818 11.8032 30.3485 11.4391C30.4424 11.0803 30.4071 10.6999 30.2487 10.3645C30.0904 10.0291 29.819 9.76017 29.4823 9.60477C28.1926 8.97644 26.7769 8.6499 25.3424 8.6499C23.9078 8.6499 22.4921 8.97644 21.2025 9.60477Z" fill="#C4AD6C"/>
</svg>
