<svg width="43" height="59" viewBox="0 0 43 59" fill="none" xmlns="http://www.w3.org/2000/svg">
<path d="M29.5778 26.9286C29.0612 27.0994 28.6316 27.465 28.3804 27.9477C28.2271 28.4812 28.188 29.0412 28.2658 29.5909C28.2658 29.8584 28.2658 30.1259 28.2658 30.3934C28.2658 32.5334 28.2658 34.6734 28.2658 36.7624C28.2658 41.1443 28.2658 45.5262 28.2658 49.9081C28.2658 54.0989 26.8518 55.6147 22.9922 55.7039C17.7823 55.8313 12.6744 55.8185 7.77023 55.7039C4.33095 55.6147 2.98072 54.1881 2.95524 50.6087C2.95524 39.2973 2.95524 28.0113 2.95524 17.0693C2.95524 13.6428 4.3819 12.2034 7.84665 12.1015C9.36248 12.1015 10.8783 12.1015 12.3941 12.1015H14.9418C16.3684 12.1015 16.6741 11.5283 16.6996 10.6876C16.7248 10.5085 16.7142 10.3261 16.6683 10.1512C16.6224 9.97621 16.5421 9.81214 16.4321 9.66853C16.0401 9.36816 15.5471 9.23121 15.0564 9.28639H7.97404C2.56036 9.28639 0.0254761 11.9486 0 17.5279C0 21.3493 0 25.0943 0 28.8775V39.068C0 42.9531 0 46.8255 0 50.7106C0.0636903 55.8058 2.68773 58.6209 7.64284 58.7101C12.5979 58.7992 17.8333 58.7992 23.4762 58.7101C28.2275 58.6464 30.8516 55.895 30.8771 50.9908C30.8771 45.5134 30.8771 40.0361 30.8771 34.5587V29.6928C30.8771 29.489 30.8771 29.2724 30.8771 29.0559C30.944 28.7238 30.944 28.3817 30.8771 28.0496C30.5927 27.532 30.1315 27.1341 29.5778 26.9286Z" fill="#C4AD6C"/>
<path d="M42.5199 12.3432C42.5199 6.24165 36.1509 0 30.0494 0C28.5463 0 28.024 0.292979 27.8839 1.19738C27.8354 1.40248 27.8285 1.6152 27.8635 1.82303C27.8985 2.03086 27.9747 2.22958 28.0877 2.40749C28.5144 2.82513 29.0831 3.06624 29.68 3.08261C35.514 3.7832 38.8132 7.0569 39.4628 12.8272C39.4904 13.4416 39.7392 14.0252 40.1634 14.4704C40.5091 14.6852 40.9244 14.7582 41.3226 14.6743C42.1505 14.5469 42.5964 14.1265 42.5964 12.3687L42.5199 12.3432Z" fill="#C4AD6C"/>
<path d="M24.4955 9.27295L24.3044 9.40034C23.8854 9.6379 23.5311 9.97469 23.2726 10.3812C23.2122 10.4995 23.1807 10.6305 23.1807 10.7633C23.1807 10.8962 23.2122 11.0271 23.2726 11.1454C23.3752 11.2923 23.5077 11.4159 23.6614 11.5081C23.815 11.6003 23.9864 11.659 24.1643 11.6804C25.298 11.7601 26.365 12.2457 27.1697 13.0481C27.9745 13.8506 28.4632 14.9162 28.5462 16.0496C28.5552 16.2024 28.5961 16.3516 28.6663 16.4877C28.7365 16.6237 28.8345 16.7435 28.9538 16.8394C29.2713 17.0177 29.645 17.0678 29.9983 16.9795C30.6225 16.8776 30.9282 16.5973 30.9154 15.3235C30.8705 13.7675 30.211 12.2927 29.0812 11.2219C27.8577 10.0102 26.2169 9.31283 24.4955 9.27295Z" fill="#C4AD6C"/>
<path d="M11.5918 50.2515C11.8597 50.875 12.3566 51.372 12.9802 51.6399C13.7225 51.8188 14.4922 51.8534 15.2476 51.7418C15.6424 51.7418 16.0501 51.7418 16.445 51.7418H17.2092H17.5914C18.44 51.7876 19.2904 51.7876 20.139 51.7418C20.4003 51.7424 20.6588 51.6883 20.8979 51.583C21.137 51.4777 21.3515 51.3235 21.5274 51.1304C21.6023 51.0195 21.6504 50.8928 21.6681 50.7602C21.6858 50.6276 21.6725 50.4927 21.6294 50.3661C21.5032 50.0234 21.3048 49.7118 21.0476 49.4525C20.7905 49.1931 20.4806 48.9921 20.139 48.863C18.9458 48.7362 17.7467 48.6724 16.5468 48.672C15.3084 48.6693 14.0708 48.7373 12.8401 48.8757C12.5512 49.0109 12.2922 49.2022 12.0779 49.4384C11.8636 49.6745 11.6983 49.9509 11.5918 50.2515Z" fill="#C4AD6C"/>
</svg>
