<svg width="61" height="40" viewBox="0 0 61 40" fill="none" xmlns="http://www.w3.org/2000/svg">
<path d="M34.835 19.8399C33.3027 19.162 31.7199 18.6047 30.1009 18.1731C26.7094 17.1893 26.7441 15.2678 26.9177 14.4923C27.019 14.105 27.2028 13.7441 27.4565 13.4345C27.7103 13.1248 28.0279 12.8736 28.3878 12.6982C28.9165 12.4159 29.4976 12.2455 30.0951 12.1977C30.6925 12.1499 31.2934 12.2257 31.8603 12.4204C32.6767 12.7876 33.3947 13.3429 33.9553 14.0409C34.1907 14.3461 34.3853 14.6807 34.5341 15.0363C34.6229 15.2799 34.752 15.5069 34.9161 15.7077C35.2403 15.9781 35.6515 16.122 36.0736 16.1128C36.3949 15.9356 36.6354 15.6412 36.7449 15.291C36.8736 14.4679 36.7279 13.6255 36.3305 12.8934C35.9331 12.1613 35.3059 11.5802 34.5457 11.2397C33.1798 10.5799 31.8255 9.78126 31.6403 7.7672C31.4939 7.50495 31.2775 7.28855 31.0153 7.14215C30.5828 7.22969 30.1826 7.43383 29.8578 7.73248C29.7127 8.36755 29.4188 8.95903 29.0002 9.45814C28.5816 9.95726 28.0503 10.3497 27.4502 10.6031L26.9061 10.9388C26.0862 11.3721 25.3991 12.0197 24.9181 12.8126C24.437 13.6055 24.18 14.514 24.1744 15.4414C24.3072 16.3727 24.6908 17.2503 25.2842 17.9803C25.8775 18.7102 26.6583 19.2651 27.5428 19.5853C28.2286 19.8776 28.937 20.1137 29.661 20.2914C30.4892 20.5013 31.2984 20.78 32.0802 21.1248C33.2563 21.6043 34.2046 22.5153 34.7309 23.6713C35.1591 25.1876 34.1984 26.4493 32.1033 27.1438C31.1214 27.4071 30.0874 27.4071 29.1054 27.1438C28.3122 26.9749 27.5829 26.5854 27.0013 26.0202C26.4197 25.455 26.0096 24.7371 25.8181 23.9491C25.7438 23.5716 25.5233 23.2387 25.2046 23.0231C25.091 22.9614 24.9635 22.9295 24.8342 22.9305C24.6835 22.9368 24.5349 22.9681 24.3944 23.0231C23.7693 23.2199 23.6536 23.5555 23.7693 24.8172C23.8638 25.6126 24.1631 26.3699 24.6378 27.0151C25.1126 27.6603 25.7466 28.1712 26.4779 28.4981L26.6862 28.6138C27.3452 28.8879 27.9393 29.2975 28.4298 29.8159C28.9203 30.3344 29.2964 30.9502 29.5337 31.6233C29.5814 31.8436 29.7002 32.0422 29.8716 32.1885C30.043 32.3349 30.2578 32.421 30.4828 32.4336C30.6565 32.4312 30.824 32.3688 30.9569 32.257C31.0899 32.1452 31.18 31.9908 31.2121 31.8201C31.8024 29.8523 33.1104 29.2157 34.5109 28.5328C35.2276 28.2312 35.851 27.7441 36.3169 27.1215C36.7828 26.499 37.0744 25.7635 37.1616 24.9908C37.2658 22.1665 36.5829 20.6734 34.835 19.8399Z" fill="#C4AD6C"/>
<path d="M1.6499 7.03446C1.6499 4.09022 4.61751 1.32568 8.78968 1.32568H52.1114C56.2836 1.32568 59.2512 4.09022 59.2512 7.03447V32.5412C59.2512 35.4855 56.2836 38.25 52.1114 38.25H8.78968C4.61751 38.25 1.6499 35.4855 1.6499 32.5412V7.03446Z" stroke="#C4AD6C" stroke-width="2.5"/>
</svg>
