<svg width="46" height="47" viewBox="0 0 46 47" fill="none" xmlns="http://www.w3.org/2000/svg">
<path d="M45.0226 24.1409C44.3125 22.2239 43.5348 20.2844 42.7683 18.4125L41.799 15.9881C41.6047 15.362 41.2108 14.8169 40.6775 14.4361C40.1442 14.0553 39.5009 13.8597 38.846 13.8794C38.2599 13.8794 37.6625 13.8794 37.0764 13.8794H30.6405V13.4734C30.5053 10.5528 28.9837 9.28984 25.5685 9.27856H25.2754L24.3737 7.02327C23.7458 5.42274 22.7023 4.01882 21.3511 2.95634C19.9998 1.89386 18.3897 1.21131 16.6868 0.979097C14.9768 0.689639 13.2209 0.849206 11.591 1.44218C9.96103 2.03516 8.51285 3.04125 7.38807 4.36203C6.69651 5.29007 6.12468 6.30166 5.68613 7.37285L5.40435 7.98177C5.1113 8.61325 4.78443 9.32367 3.72494 9.39132C1.22273 9.53792 0.129428 10.9249 0.185784 13.9019C0.275953 19.5401 0.264686 25.3701 0.242143 30.9632C0.242143 33.2974 0.242143 35.6429 0.242143 37.9884C0.242143 42.1832 0.568995 42.499 4.64916 42.6456C5.1786 42.6311 5.70311 42.7506 6.17403 42.9931C6.64496 43.2356 7.04705 43.5931 7.34299 44.0326C7.75496 44.6802 8.31343 45.2218 8.97327 45.6135C9.63311 46.0053 10.3758 46.2363 11.1414 46.2879C11.9163 46.2297 12.6664 45.9888 13.3305 45.5851C13.9945 45.1814 14.5537 44.6262 14.9623 43.9649C15.2573 43.525 15.6651 43.1725 16.143 42.9443C16.6209 42.7162 17.1513 42.6208 17.6787 42.6681C21.06 42.6681 24.4414 42.6681 27.8227 42.6681H27.9918C28.6601 42.6217 29.3284 42.7589 29.9243 43.065C30.5203 43.3711 31.0213 43.8343 31.3732 44.4047C31.7739 44.9894 32.3104 45.4682 32.9366 45.8001C33.5628 46.132 34.26 46.3071 34.9687 46.3104C35.6778 46.3012 36.3737 46.1174 36.9949 45.7752C37.6161 45.4329 38.1434 44.9429 38.5304 44.3483C38.8951 43.755 39.4194 43.2764 40.0433 42.9673C40.6672 42.6582 41.3655 42.5311 42.0582 42.6005C44.3914 42.6005 45.5298 41.3713 45.541 38.9582C45.541 35.0001 45.541 30.9068 45.541 26.8022C45.5216 25.8919 45.3462 24.9918 45.0226 24.1409ZM43.377 26.9375C43.4094 27.2524 43.4094 27.5698 43.377 27.8847C43.377 28.0651 43.377 28.2681 43.377 28.5049V28.8883H42.0357H40.1985H37.0989V22.6299L37.4371 22.5622L37.8203 22.4946C38.061 22.4369 38.306 22.3992 38.5529 22.3818C42.0131 22.2239 43.1853 23.2839 43.377 26.9375ZM15.0637 3.07652H15.1201C16.215 3.09068 17.2958 3.32453 18.2987 3.76423C19.3016 4.20392 20.2061 4.8405 20.9586 5.63627C21.6399 6.32826 22.1724 7.15248 22.5232 8.05815C22.8741 8.96382 23.0359 9.93177 22.9987 10.9024C22.9782 12.9647 22.1518 14.9371 20.6962 16.3976C19.2407 17.858 17.2716 18.6905 15.2103 18.7169H15.1201C14.0689 18.7605 13.0197 18.5915 12.0353 18.2199C11.051 17.8484 10.1516 17.282 9.39111 16.5546C8.63061 15.8272 8.02459 14.9539 7.60931 13.9867C7.19404 13.0196 6.97803 11.9786 6.97424 10.926C6.97045 9.87343 7.17893 8.83088 7.58723 7.86078C7.99552 6.89068 8.59525 6.01296 9.35048 5.28013C10.1057 4.5473 11.001 3.97442 11.9826 3.59579C12.9643 3.21716 14.0123 3.04054 15.0637 3.07652ZM2.38366 14.0936C2.38366 13.744 2.38366 13.3832 2.38366 13.0336C2.38103 12.8232 2.4217 12.6145 2.50314 12.4205C2.58458 12.2265 2.70504 12.0514 2.85705 11.906C2.97682 11.807 3.11573 11.7339 3.26508 11.6912C3.41443 11.6485 3.571 11.6372 3.72494 11.6579C3.97966 11.7224 4.21784 11.8401 4.42378 12.0034C4.62971 12.1667 4.79872 12.3718 4.91968 12.6051C5.09957 12.9634 5.23581 13.342 5.32544 13.7328C5.32544 13.8681 5.40435 14.0034 5.43816 14.1387C6.15305 16.1759 7.49867 17.9318 9.27947 19.1514C11.0603 20.371 13.1834 20.9906 15.3403 20.9202C17.4972 20.8498 19.5755 20.093 21.273 18.7598C22.9706 17.4267 24.1989 15.5867 24.7795 13.5072C24.8047 13.407 24.8235 13.3053 24.8359 13.2028C24.8327 12.8806 24.9538 12.5696 25.174 12.3345C25.6061 11.9058 26.1885 11.663 26.7971 11.6579C27.3634 11.8347 27.8372 12.2277 28.1158 12.7517C28.2696 13.0582 28.321 13.4061 28.2623 13.744C28.2623 13.8342 28.2623 13.9245 28.2623 14.0034C28.2623 19.1906 28.2623 24.374 28.2623 29.5536C28.2541 29.7585 28.2277 29.9623 28.1834 30.1625C28.1834 30.2979 28.1271 30.4445 28.1045 30.6362V30.9857H2.66544V30.6249C2.66544 30.4445 2.66544 30.264 2.57527 30.0836C2.49565 29.6822 2.45041 29.2748 2.44002 28.8657C2.44002 24.9528 2.44002 21.0512 2.44002 17.1495L2.38366 14.0936ZM11.2766 43.9536H11.1076C10.5213 43.9272 9.96628 43.6817 9.55214 43.2658C9.31179 43.0603 9.11735 42.8065 8.98142 42.5209C8.8455 42.2353 8.77113 41.9243 8.76316 41.6081C8.84966 41.0372 9.12576 40.512 9.54696 40.1172C9.96816 39.7224 10.5099 39.481 11.085 39.4318C11.3646 39.4136 11.6451 39.4511 11.9102 39.542C12.1752 39.633 12.4196 39.7757 12.6292 39.9618C13.07 40.3886 13.3252 40.972 13.3393 41.5856C13.3706 42.1711 13.1728 42.7458 12.7877 43.1879C12.4027 43.63 11.8607 43.9046 11.2766 43.9536ZM36.4114 43.2996C36.0121 43.7139 35.4649 43.9532 34.8898 43.9649H34.8785C34.3078 43.9017 33.7767 43.6423 33.3759 43.231C32.9751 42.8197 32.7293 42.282 32.6806 41.7096C32.7178 41.1237 32.9673 40.5714 33.3822 40.1563C33.7972 39.7411 34.3492 39.4916 34.9349 39.4543C35.2281 39.4267 35.5239 39.4606 35.8034 39.5538C36.0829 39.647 36.3398 39.7975 36.5579 39.9956C36.7674 40.193 36.9351 40.4305 37.0513 40.6939C37.1674 40.9573 37.2296 41.2413 37.2342 41.5292C37.2272 41.8652 37.1504 42.1961 37.0088 42.5009C36.8671 42.8057 36.6637 43.0777 36.4114 43.2996ZM43.377 37.2667C43.377 37.8756 43.377 38.4846 43.377 39.0935C43.3453 39.3497 43.2416 39.5916 43.078 39.7912C42.9145 39.9908 42.6976 40.1399 42.4527 40.2211C41.6435 40.3622 40.8161 40.3622 40.0069 40.2211C39.4475 40.0137 38.98 39.614 38.6882 39.0935C38.2696 38.469 37.6968 37.9633 37.0253 37.6255C36.3539 37.2876 35.6066 37.1291 34.8559 37.1652C34.1426 37.1526 33.4374 37.3195 32.8053 37.6505C32.1731 37.9815 31.6342 38.466 31.2379 39.0597C30.9883 39.5177 30.6122 39.8941 30.1545 40.1441C29.6968 40.394 29.1769 40.5069 28.6568 40.4692H28.5666C25.0387 40.4692 21.3869 40.4692 17.6899 40.4692C17.1151 40.5066 16.5406 40.3918 16.0241 40.1364C15.5077 39.881 15.0676 39.4941 14.7482 39.0145C14.3979 38.4896 13.9305 38.0534 13.3828 37.7403C12.835 37.4271 12.2221 37.2457 11.5922 37.2103C10.7582 37.1203 9.91549 37.2596 9.1548 37.6133C8.39411 37.967 7.74428 38.5217 7.27535 39.2175C6.88575 39.7549 6.33184 40.1507 5.69739 40.3452C4.8799 40.4687 4.04651 40.4381 3.24027 40.255C2.74433 40.1647 2.46256 39.3979 2.45129 39.0033C2.45129 37.7403 2.45129 36.4661 2.45129 35.0791V33.2072H28.375C30.4264 33.2072 30.5053 33.1282 30.5278 31.121C30.5278 28.3245 30.5278 25.4828 30.5278 22.7314V16.0444H38.1697C38.5472 16.0346 38.9176 16.1482 39.2247 16.3679C39.5318 16.5877 39.759 16.9017 39.8716 17.2623C40.0294 17.6795 40.221 18.0967 40.4239 18.5591L40.8973 19.6191L40.5479 19.8108C39.6927 20.2059 38.742 20.3468 37.809 20.2167C37.4825 20.1944 37.1549 20.1944 36.8284 20.2167C34.9123 20.3069 34.6756 20.555 34.6531 22.472C34.6531 24.9077 34.6531 27.1066 34.6531 29.2379C34.6531 30.9293 34.9912 31.2338 36.7157 31.2564C38.0682 31.2564 39.4208 31.2564 40.8184 31.2564H43.0727L43.129 31.6172C43.3821 33.489 43.4651 35.3799 43.377 37.2667Z" fill="#C4AD6C"/>
<path d="M14.0267 11.5452C15.5934 11.5452 17.2616 11.5452 18.9072 11.4776C19.1942 11.3306 19.4154 11.081 19.5271 10.7784C19.5436 10.5881 19.5222 10.3965 19.4642 10.2145C19.4062 10.0326 19.3126 9.86394 19.1889 9.71843C18.8759 9.44023 18.4795 9.27367 18.0618 9.24482C17.607 9.17359 17.1471 9.13965 16.6867 9.14334H15.8865H15.5258V8.78249C15.5258 8.42164 15.4694 8.08335 15.4469 7.76761C15.4237 7.21111 15.3596 6.65708 15.2553 6.10997C15.1275 5.52359 14.812 5.23041 14.3085 5.23041H14.1958C13.3617 5.29807 13.249 5.79423 13.2378 6.17763C13.2378 7.56463 13.1814 9.03057 13.2378 10.5416C13.1927 10.9701 13.3392 11.5339 14.0267 11.5452Z" fill="#C4AD6C"/>
</svg>
