<svg width="12" height="15" viewBox="0 0 12 15" fill="none" xmlns="http://www.w3.org/2000/svg">
<path d="M9.75431 13.9951H1.62451V8.62241C1.62648 8.40829 1.71291 8.2036 1.86502 8.05288C2.01713 7.90217 2.22261 7.81762 2.43674 7.81763H8.94951C9.16295 7.81763 9.36765 7.90242 9.51858 8.05334C9.6695 8.20427 9.75431 8.40897 9.75431 8.62241V13.9951ZM2.58579 13.0338H8.79303V8.77889H2.58579V13.0338Z" fill="#182346"/>
<path d="M11.3862 14.077H0V6.62531C0 6.15298 0.187634 5.69998 0.521627 5.36599C0.855621 5.032 1.3086 4.84436 1.78094 4.84436H9.60522C10.0776 4.84436 10.5306 5.032 10.8646 5.36599C11.1985 5.69998 11.3862 6.15298 11.3862 6.62531V14.077ZM0.953815 13.1157H10.4174V6.60296C10.4174 6.38556 10.3311 6.17707 10.1774 6.02335C10.0237 5.86963 9.81515 5.78327 9.59776 5.78327H1.77348C1.55609 5.78327 1.34761 5.86963 1.19389 6.02335C1.04017 6.17707 0.953815 6.38556 0.953815 6.60296V13.1157Z" fill="#182346"/>
<path d="M9.27739 5.78335H2.10887C1.98041 5.78335 1.8572 5.73232 1.76637 5.64149C1.67553 5.55065 1.62451 5.42745 1.62451 5.29899V0.477748C1.62595 0.40203 1.64485 0.327666 1.67975 0.260454C1.71465 0.193242 1.76459 0.134998 1.8257 0.0902604C1.88906 0.0463843 1.96159 0.0175381 2.03778 0.0059166C2.11396 -0.00570491 2.19179 0.000204518 2.26535 0.0231952L3.1521 0.328714L4.06866 0.0231952C4.15618 -0.00289726 4.2494 -0.00289726 4.33691 0.0231952L5.5739 0.343618L6.69165 0.0231952C6.77714 0.00077968 6.86697 0.00077968 6.95246 0.0231952L8.07768 0.343618L9.1358 0.0306469C9.20748 0.00883103 9.2833 0.00420899 9.35709 0.0171554C9.43089 0.0301019 9.50059 0.0602524 9.56056 0.105164C9.62101 0.148277 9.67019 0.205328 9.70391 0.271483C9.73764 0.337638 9.75493 0.410947 9.75431 0.4852V5.29899C9.75432 5.42617 9.70432 5.54825 9.61509 5.63888C9.52586 5.7295 9.40455 5.78139 9.27739 5.78335ZM2.57087 4.82208H8.77814V1.09624L8.20434 1.26763C8.11632 1.29002 8.02411 1.29002 7.93609 1.26763L6.81088 0.947205L5.70059 1.26763C5.61763 1.29011 5.53019 1.29011 5.44723 1.26763L4.21768 0.947205L3.28622 1.26018C3.18778 1.29737 3.07917 1.29737 2.98072 1.26018L2.57087 1.11859V4.82208Z" fill="#182346"/>
<path fill-rule="evenodd" clip-rule="evenodd" d="M4.13569 3.08576H7.19832C7.25438 3.08475 7.31007 3.09505 7.36206 3.11604C7.41404 3.13702 7.46129 3.16827 7.50093 3.20792C7.54058 3.24756 7.57182 3.29479 7.59281 3.34678C7.61379 3.39877 7.62408 3.45445 7.62307 3.51051C7.62307 3.62316 7.57834 3.73119 7.49868 3.81085C7.41903 3.8905 7.31097 3.93525 7.19832 3.93525H4.13569C4.02364 3.93334 3.91671 3.88797 3.83747 3.80873C3.75822 3.72949 3.71285 3.62256 3.71094 3.51051C3.71094 3.39786 3.7557 3.28982 3.83535 3.21017C3.91501 3.13051 4.02304 3.08576 4.13569 3.08576Z" fill="#182346"/>
</svg>
