<svg width="26" height="44" viewBox="0 0 26 44" fill="none" xmlns="http://www.w3.org/2000/svg">
<path d="M21.3926 0H4.27507C3.71366 0 3.15775 0.110578 2.63908 0.325419C2.12041 0.540261 1.64911 0.855157 1.25214 1.25213C0.855163 1.64911 0.540261 2.12038 0.325419 2.63905C0.110578 3.15773 0 3.71364 0 4.27505V34.3391C0 35.4729 0.450411 36.5603 1.25214 37.362C2.05387 38.1638 3.14126 38.6142 4.27507 38.6142H5.00347C4.90269 38.8712 4.84979 39.1445 4.84739 39.4206V41.233C4.84968 41.8248 5.0864 42.3917 5.50572 42.8093C5.92504 43.227 6.49277 43.4615 7.08463 43.4615H17.7853C18.3771 43.4615 18.9448 43.227 19.3642 42.8093C19.7835 42.3917 20.0202 41.8248 20.0225 41.233V39.4206C20.0201 39.1445 19.9672 38.8712 19.8664 38.6142H21.3926C22.5264 38.6142 23.6138 38.1638 24.4155 37.362C25.2172 36.5603 25.6676 35.4729 25.6676 34.3391V4.27505C25.6676 3.71364 25.5571 3.15773 25.3422 2.63905C25.1274 2.12038 24.8125 1.64911 24.4155 1.25213C24.0185 0.855157 23.5473 0.540261 23.0286 0.325419C22.5099 0.110578 21.954 0 21.3926 0ZM18.4443 41.233C18.442 41.4109 18.3697 41.5807 18.2431 41.7056C18.1165 41.8306 17.9458 41.9007 17.7679 41.9007H7.08463C6.90673 41.9007 6.736 41.8306 6.6094 41.7056C6.4828 41.5807 6.41053 41.4109 6.40825 41.233V39.4206C6.40825 39.2412 6.47951 39.0692 6.60635 38.9424C6.7332 38.8155 6.90524 38.7443 7.08463 38.7443H17.7853C17.9646 38.7443 18.1367 38.8155 18.2635 38.9424C18.3904 39.0692 18.4616 39.2412 18.4616 39.4206L18.4443 41.233ZM24.1068 34.3391C24.1068 35.059 23.8208 35.7493 23.3118 36.2583C22.8028 36.7674 22.1124 37.0533 21.3926 37.0533H4.27507C3.55522 37.0533 2.86485 36.7674 2.35584 36.2583C1.84684 35.7493 1.56089 35.059 1.56089 34.3391V4.27505C1.56318 3.55671 1.85015 2.86857 2.35891 2.36143C2.86767 1.8543 3.55672 1.56954 4.27507 1.56954H21.3926C22.1124 1.56954 22.8028 1.8555 23.3118 2.3645C23.8208 2.87351 24.1068 3.56387 24.1068 4.28372V34.3391Z" fill="#C4AD6C"/>
<path d="M20.5254 3.23462H5.17681C4.66235 3.2369 4.16963 3.44228 3.80585 3.80606C3.44207 4.16984 3.23669 4.66258 3.23441 5.17704V21.3147C3.23896 21.8276 3.44534 22.3182 3.80887 22.6801C4.17241 23.042 4.66385 23.2462 5.17681 23.2484H20.5254C21.0398 23.2462 21.5326 23.0408 21.8964 22.677C22.2601 22.3132 22.4655 21.8205 22.4678 21.306V5.17704C22.4655 4.66258 22.2601 4.16984 21.8964 3.80606C21.5326 3.44228 21.0398 3.2369 20.5254 3.23462ZM20.9069 21.3147C20.9069 21.4159 20.8667 21.5129 20.7952 21.5845C20.7236 21.656 20.6266 21.6962 20.5254 21.6962H5.17681C5.07562 21.6962 4.97857 21.656 4.90702 21.5845C4.83547 21.5129 4.79526 21.4159 4.79526 21.3147V5.17704C4.79526 5.07585 4.83547 4.97879 4.90702 4.90724C4.97857 4.83569 5.07562 4.79549 5.17681 4.79549H20.5254C20.6266 4.79549 20.7236 4.83569 20.7952 4.90724C20.8667 4.97879 20.9069 5.07585 20.9069 5.17704V21.3147Z" fill="#C4AD6C"/>
<path d="M13.7875 27.1331H12.1659C11.8831 27.1331 11.6118 27.2454 11.4118 27.4454C11.2117 27.6455 11.0994 27.9168 11.0994 28.1996C11.0994 28.4825 11.2117 28.7538 11.4118 28.9538C11.6118 29.1539 11.8831 29.2662 12.1659 29.2662H13.7875C14.0704 29.2662 14.3417 29.1539 14.5417 28.9538C14.7417 28.7538 14.8541 28.4825 14.8541 28.1996C14.8541 27.9168 14.7417 27.6455 14.5417 27.4454C14.3417 27.2454 14.0704 27.1331 13.7875 27.1331Z" fill="#C4AD6C"/>
<path d="M13.7876 31.9805H12.166C11.8986 32.0046 11.6499 32.1278 11.4688 32.326C11.2876 32.5242 11.1872 32.7829 11.1872 33.0514C11.1872 33.3199 11.2876 33.5786 11.4688 33.7768C11.6499 33.975 11.8986 34.0982 12.166 34.1223H13.7876C14.055 34.0982 14.3037 33.975 14.4848 33.7768C14.6659 33.5786 14.7664 33.3199 14.7664 33.0514C14.7664 32.7829 14.6659 32.5242 14.4848 32.326C14.3037 32.1278 14.055 32.0046 13.7876 31.9805Z" fill="#C4AD6C"/>
<path d="M7.77828 27.1331H6.16539C5.88251 27.1331 5.61121 27.2454 5.41118 27.4454C5.21116 27.6455 5.09879 27.9168 5.09879 28.1996C5.09879 28.4825 5.21116 28.7538 5.41118 28.9538C5.61121 29.1539 5.88251 29.2662 6.16539 29.2662H7.77828C8.06115 29.2662 8.33245 29.1539 8.53248 28.9538C8.7325 28.7538 8.84488 28.4825 8.84488 28.1996C8.84488 27.9168 8.7325 27.6455 8.53248 27.4454C8.33245 27.2454 8.06115 27.1331 7.77828 27.1331Z" fill="#C4AD6C"/>
<path d="M7.7783 31.9807H6.16541C5.89802 32.0047 5.64931 32.128 5.46818 32.3262C5.28706 32.5243 5.18661 32.7831 5.18661 33.0516C5.18661 33.3201 5.28706 33.5788 5.46818 33.777C5.64931 33.9752 5.89802 34.0984 6.16541 34.1225H7.7783C7.92704 34.1359 8.07693 34.1182 8.21844 34.0704C8.35994 34.0227 8.48996 33.946 8.6002 33.8453C8.71043 33.7445 8.79846 33.6219 8.85869 33.4853C8.91892 33.3486 8.95004 33.2009 8.95004 33.0516C8.95004 32.9022 8.91892 32.7545 8.85869 32.6179C8.79846 32.4812 8.71043 32.3586 8.6002 32.2579C8.48996 32.1571 8.35994 32.0805 8.21844 32.0327C8.07693 31.985 7.92704 31.9673 7.7783 31.9807Z" fill="#C4AD6C"/>
<path d="M19.7883 27.1331H18.1754C17.8925 27.1331 17.6212 27.2454 17.4212 27.4454C17.2212 27.6455 17.1088 27.9168 17.1088 28.1996C17.1088 28.4825 17.2212 28.7538 17.4212 28.9538C17.6212 29.1539 17.8925 29.2662 18.1754 29.2662H19.7883C20.0712 29.2662 20.3425 29.1539 20.5425 28.9538C20.7425 28.7538 20.8549 28.4825 20.8549 28.1996C20.8549 27.9168 20.7425 27.6455 20.5425 27.4454C20.3425 27.2454 20.0712 27.1331 19.7883 27.1331Z" fill="#C4AD6C"/>
<path d="M19.7882 31.9807H18.1753C18.0266 31.9673 17.8767 31.985 17.7352 32.0327C17.5937 32.0805 17.4637 32.1571 17.3534 32.2579C17.2432 32.3586 17.1552 32.4812 17.095 32.6179C17.0347 32.7545 17.0036 32.9022 17.0036 33.0516C17.0036 33.2009 17.0347 33.3486 17.095 33.4853C17.1552 33.6219 17.2432 33.7445 17.3534 33.8453C17.4637 33.946 17.5937 34.0227 17.7352 34.0704C17.8767 34.1182 18.0266 34.1359 18.1753 34.1225H19.7882C20.0556 34.0984 20.3043 33.9752 20.4855 33.777C20.6666 33.5788 20.767 33.3201 20.767 33.0516C20.767 32.7831 20.6666 32.5243 20.4855 32.3262C20.3043 32.128 20.0556 32.0047 19.7882 31.9807Z" fill="#C4AD6C"/>
</svg>
