<svg width="41" height="45" viewBox="0 0 41 45" fill="none" xmlns="http://www.w3.org/2000/svg">
<path d="M40.6051 32.7509V27.6907C40.6051 25.7506 40.6051 23.7992 40.6051 21.859C40.6584 21.0102 40.4513 20.1652 40.0116 19.4373C39.5718 18.7094 38.9203 18.1333 38.1442 17.7859C35.1976 16.296 31.9306 15.5519 28.6296 15.6189C27.4956 15.6189 26.2822 15.687 25.2275 15.7777C22.9896 15.9271 20.8074 16.5414 18.8202 17.5817C17.9226 17.9797 17.1703 18.6461 16.6667 19.4892C16.1631 20.3323 15.9329 21.3108 16.0078 22.2902C16.0985 27.4525 16.1665 32.5013 16.0078 37.6296C15.917 40.4887 17.0397 42.1678 19.7728 43.3024C22.7414 44.4305 25.9063 44.9505 29.0797 44.8316C32.2531 44.7127 35.3703 43.9574 38.2463 42.6103C39.0253 42.2743 39.6783 41.7006 40.1121 40.9712C40.5459 40.2417 40.7383 39.3939 40.6618 38.5486C40.5824 36.5971 40.5937 34.6116 40.6051 32.7509ZM38.4618 36.4609C38.4618 40.1483 38.0648 40.6929 34.4699 41.7821C32.4849 42.3868 30.4211 42.6927 28.3461 42.6897C26.2502 42.6854 24.1655 42.3837 22.1543 41.7934C18.616 40.761 18.1397 40.1143 18.1624 36.4496V33.8855L18.8429 34.1124C24.9767 36.2623 31.6588 36.2623 37.7927 34.1124L38.4618 33.8855V36.4609ZM38.3257 29.8464C37.9271 30.8755 37.1529 31.7148 36.1597 32.195C35.0926 32.7972 33.9171 33.1827 32.7008 33.3295C31.1275 33.5182 29.545 33.6204 27.9605 33.6359C26.0182 33.6612 24.0821 33.4091 22.2109 32.8871C18.7521 31.8886 18.0377 30.8902 18.1738 27.2142C18.1966 26.8862 18.2421 26.5602 18.3099 26.2385C18.3099 26.0645 18.3439 25.8716 18.4119 25.6598L18.514 25.0585L19.0923 25.2627C24.9913 27.4418 31.4741 27.4418 37.3731 25.2627L37.804 25.1039L38.0081 25.5124C38.5981 26.8643 38.7101 28.3769 38.3257 29.801V29.8464ZM38.3257 21.6321C35.3605 23.7708 31.7731 24.8715 28.1193 24.7635C24.3656 24.7635 20.6913 23.7197 18.3665 21.6435L17.981 21.3031L18.3212 20.9173C20.5099 18.5234 23.5151 18.1376 26.1574 17.9675C30.1946 17.6952 34.4699 17.7065 38.2916 20.8379L38.7793 21.2464L38.3257 21.6321Z" fill="#C4AD6C"/>
<path d="M12.8204 18.8141C12.5681 18.7838 12.313 18.7838 12.0606 18.8141C11.8003 18.8367 11.5385 18.8367 11.2781 18.8141L10.0534 18.5759C8.83443 18.4526 7.62561 18.2441 6.43579 17.9519C3.03367 17.0102 2.56872 16.4315 2.61408 12.7328C2.61408 12.3017 2.63676 11.8706 2.68212 11.4394L2.75016 10.146L3.38524 10.3616C9.30493 12.3698 15.338 12.3811 22.3464 10.3616L22.9474 10.1914V10.8154C22.9474 11.2012 22.9474 11.5529 23.0155 11.8819C23.0155 12.5286 23.0835 13.0165 23.1629 13.5497C23.1873 13.7804 23.3014 13.9923 23.4804 14.1397C23.5375 14.1654 23.5993 14.1787 23.6619 14.1787C23.7244 14.1787 23.7863 14.1654 23.8433 14.1397C24.3081 13.9831 24.7072 13.6756 24.9774 13.2661C25.0141 13.0597 25.0141 12.8485 24.9774 12.6421C24.9774 12.5059 24.9774 12.3584 24.9774 12.2336C24.9774 11.7117 24.9774 11.1785 24.9774 10.6566C24.9246 9.52174 24.9473 8.38466 25.0454 7.25286C25.2949 4.89295 24.2969 3.30456 21.9155 2.28345C20.9701 1.84034 19.9822 1.49442 18.9669 1.25099C16.872 0.80011 14.7365 0.564407 12.5936 0.547556C10.6598 0.542844 8.7327 0.775273 6.8554 1.23964C5.25113 1.68163 3.70543 2.31391 2.2512 3.12303C1.64302 3.4452 1.1439 3.94047 0.816911 4.54628C0.489927 5.15208 0.349737 5.84125 0.414037 6.52674C0.414037 14.6616 0.414037 23.3638 0.414037 33.1437C0.384026 33.8243 0.539031 34.5002 0.862542 35.0996C1.18605 35.6989 1.66597 36.1993 2.2512 36.5475C5.7894 38.8166 9.73585 38.9641 13.1493 38.8166C13.3786 38.8082 13.5967 38.7152 13.7617 38.5556C13.8052 38.502 13.8376 38.4403 13.857 38.3741C13.8765 38.3079 13.8826 38.2385 13.8751 38.1699C13.8464 37.7357 13.6514 37.3293 13.3308 37.0353C12.5624 36.7327 11.7406 36.5899 10.9153 36.6155C8.77031 36.5776 6.65271 36.1269 4.67804 35.2881C4.1438 35.1445 3.66483 34.844 3.30299 34.4253C2.94115 34.0067 2.71304 33.4892 2.6481 32.9395C2.6481 31.9978 2.6481 31.0448 2.6481 30.1598V28.6395L5.66465 29.1501C7.76263 29.5018 9.74719 29.8308 11.7318 30.1144C12.2381 30.223 12.7664 30.1549 13.2287 29.9216C13.399 29.7964 13.5428 29.6387 13.6518 29.4576C13.7608 29.2765 13.8328 29.0756 13.8638 28.8664C13.8699 28.7494 13.8522 28.6324 13.8117 28.5225C13.7711 28.4126 13.7086 28.3121 13.6279 28.2271C13.5473 28.1422 13.4502 28.0746 13.3425 28.0285C13.2349 27.9823 13.119 27.9586 13.0019 27.9588H12.6277C12.2513 28.0085 11.87 28.0085 11.4936 27.9588L10.1895 27.6524C8.53378 27.3234 6.78735 26.9944 5.15434 26.5179C4.73298 26.4463 4.33048 26.29 3.97114 26.0586C3.61179 25.8271 3.30303 25.5252 3.06352 25.171C2.824 24.8169 2.65869 24.4179 2.57755 23.9981C2.49641 23.5782 2.50111 23.1463 2.59139 22.7284C2.67041 22.0887 2.69697 21.4436 2.67078 20.7996C2.67078 20.4593 2.67078 20.1189 2.67078 19.7558V19.041L4.13369 19.5629L5.15434 19.926C7.58958 20.7208 10.1479 21.0706 12.707 20.9585C12.8477 20.9709 12.9895 20.9546 13.1237 20.9105C13.2579 20.8665 13.3818 20.7956 13.4878 20.7023C13.5939 20.6089 13.6799 20.495 13.7406 20.3674C13.8013 20.2398 13.8355 20.1012 13.8411 19.96C13.9658 19.2906 13.3534 18.9616 12.8204 18.8141ZM2.37592 6.33386L2.7048 5.95945C4.63267 3.75838 7.24096 3.36129 9.80389 3.13437C14.0792 2.75997 18.604 2.65786 22.7206 5.6985L23.1629 6.03887L22.7887 6.44732C21.0763 8.36474 17.7649 9.56738 13.7163 9.73757H12.7637C8.56779 9.73757 4.82545 8.603 2.75016 6.66289L2.37592 6.33386Z" fill="#C4AD6C"/>
</svg>
