<svg width="13" height="15" viewBox="0 0 13 15" fill="none" xmlns="http://www.w3.org/2000/svg">
<path fill-rule="evenodd" clip-rule="evenodd" d="M0.984676 7.0234H11.73C11.7829 6.81705 11.7844 6.60089 11.7345 6.39381C11.6845 6.18673 11.5846 5.99504 11.4434 5.8355C11.3023 5.67597 11.1242 5.55344 10.9247 5.47863C10.7253 5.40383 10.5105 5.37902 10.2993 5.40639C7.63903 5.40639 4.97133 5.40639 2.31108 5.40639C2.10927 5.40523 1.90977 5.44938 1.7273 5.53558C1.54482 5.62177 1.38401 5.74782 1.25672 5.90442C1.12944 6.06103 1.03892 6.2442 0.991833 6.44045C0.94475 6.63669 0.942303 6.84099 0.984676 7.03831V7.0234ZM11.7524 7.99957H1.23804C1.0592 7.99957 0.939967 7.99957 0.939967 8.24548C0.939967 9.57933 0.939967 10.9132 0.939967 12.2396C0.935307 12.4247 0.969467 12.6088 1.04025 12.7799C1.11103 12.9511 1.21687 13.1055 1.35094 13.2332C1.48501 13.361 1.64435 13.4592 1.8187 13.5217C1.99305 13.5841 2.17854 13.6094 2.36324 13.5958C5.02349 13.5958 7.68374 13.5958 10.3514 13.5958C10.5391 13.6133 10.7284 13.589 10.9055 13.5246C11.0827 13.4602 11.2434 13.3573 11.3759 13.2233C11.5085 13.0893 11.6097 12.9275 11.6722 12.7497C11.7347 12.5719 11.757 12.3824 11.7375 12.1949C11.7375 11.2113 11.7375 10.2276 11.7375 9.2142L11.7524 7.99957ZM10.4111 4.44512C10.7128 4.43703 11.013 4.49011 11.2936 4.60118C11.5743 4.71224 11.8295 4.87899 12.044 5.09136C12.2584 5.30373 12.4277 5.55733 12.5415 5.83687C12.6553 6.11642 12.7113 6.41611 12.7062 6.71788C12.7062 7.81328 12.7062 8.90868 12.7062 10.0115C12.7062 10.7567 12.7062 11.5019 12.7062 12.247C12.7156 12.5539 12.6618 12.8594 12.548 13.1445C12.4342 13.4296 12.2629 13.6883 12.0448 13.9043C11.8267 14.1203 11.5664 14.2891 11.2802 14.4001C10.994 14.5111 10.688 14.562 10.3813 14.5496H2.31853C2.0124 14.561 1.70721 14.5093 1.42188 14.3978C1.13655 14.2863 0.87718 14.1174 0.65987 13.9015C0.442559 13.6856 0.271945 13.4273 0.158612 13.1427C0.0452803 12.8581 -0.00834833 12.5532 0.00105311 12.247C0.00105311 10.4139 0.00105311 8.57335 0.00105311 6.74024C-0.00725459 6.43531 0.0469293 6.13191 0.160272 5.84871C0.273616 5.56551 0.443722 5.3085 0.660114 5.09351C0.876507 4.87851 1.13461 4.71007 1.41854 4.59856C1.70246 4.48706 2.00621 4.43484 2.31108 4.44512H10.4111Z" fill="#182346"/>
<path fill-rule="evenodd" clip-rule="evenodd" d="M3.07864 10.6151C3.01152 10.6236 2.94337 10.6176 2.87871 10.5977C2.81406 10.5778 2.75439 10.5443 2.70366 10.4996C2.65292 10.4548 2.61229 10.3998 2.58446 10.3381C2.55663 10.2765 2.54224 10.2096 2.54224 10.1419C2.54224 10.0743 2.55663 10.0074 2.58446 9.94576C2.61229 9.88409 2.65292 9.82906 2.70366 9.78431C2.75439 9.73955 2.81406 9.7061 2.87871 9.68618C2.94337 9.66626 3.01152 9.66033 3.07864 9.66876H4.71801C4.78165 9.66232 4.84593 9.66961 4.90651 9.69013C4.96709 9.71065 5.02255 9.74393 5.06917 9.78772C5.11579 9.83152 5.15247 9.8848 5.17674 9.94398C5.201 10.0032 5.21228 10.0669 5.20982 10.1308C5.20982 10.4139 5.03844 10.5853 4.71801 10.6151H3.91323C3.91323 10.6151 3.35435 10.6151 3.07864 10.6151Z" fill="#182346"/>
<path fill-rule="evenodd" clip-rule="evenodd" d="M6.34988 1.0397C6.806 1.03906 7.25757 1.13047 7.67754 1.30845C8.09751 1.48642 8.47726 1.74731 8.79404 2.07548C8.89263 2.17489 9.02661 2.23116 9.16662 2.23197C9.26999 2.23347 9.37146 2.20423 9.45818 2.14795C9.54489 2.09167 9.61292 2.0109 9.65364 1.91588C9.69437 1.82087 9.70593 1.71589 9.68689 1.61429C9.66784 1.51269 9.61903 1.41903 9.54665 1.34522C9.13026 0.919372 8.63299 0.581012 8.08402 0.350004C7.53506 0.118997 6.94547 0 6.34988 0C5.75429 0 5.16471 0.118997 4.61574 0.350004C4.06678 0.581012 3.5695 0.919372 3.15311 1.34522C3.10418 1.39415 3.06537 1.45223 3.03889 1.51616C3.01241 1.58009 2.99878 1.64861 2.99878 1.7178C2.99878 1.787 3.01241 1.85552 3.03889 1.91944C3.06537 1.98337 3.10418 2.04146 3.15311 2.09039C3.20204 2.13932 3.26012 2.17813 3.32405 2.20461C3.38798 2.23109 3.4565 2.24472 3.52569 2.24472C3.59489 2.24472 3.6634 2.23109 3.72733 2.20461C3.79126 2.17813 3.84935 2.13932 3.89828 2.09039C4.21671 1.76233 4.59781 1.5016 5.01895 1.32367C5.4401 1.14574 5.89269 1.05424 6.34988 1.0546" fill="#182346"/>
<path fill-rule="evenodd" clip-rule="evenodd" d="M6.35002 3.16348C6.56291 3.16164 6.77292 3.21286 6.96106 3.31251C7.03357 3.34507 7.11264 3.36038 7.19206 3.35722C7.31044 3.35805 7.42559 3.31859 7.51857 3.24532C7.61156 3.17204 7.67685 3.06932 7.70372 2.95402C7.73059 2.83873 7.71745 2.71772 7.66644 2.61089C7.61544 2.50405 7.52961 2.41775 7.42306 2.36615C7.08822 2.20511 6.72157 2.12109 6.35002 2.12024C5.97829 2.11955 5.6113 2.20365 5.27698 2.36615C5.15406 2.40981 5.05195 2.49793 4.9908 2.61315C4.92965 2.72837 4.91389 2.86233 4.94663 2.98859C4.97936 3.11486 5.05822 3.22428 5.16765 3.29528C5.27708 3.36627 5.40914 3.39369 5.53778 3.37213C5.61731 3.37675 5.69673 3.36138 5.76878 3.32742C5.9598 3.2283 6.17207 3.17715 6.38728 3.17838" fill="#182346"/>
</svg>
