<svg width="42" height="39" viewBox="0 0 42 39" fill="none" xmlns="http://www.w3.org/2000/svg">
<path d="M40.929 19.8874C40.1706 18.1772 39.0316 16.6629 37.5988 15.46C37.1753 15.1135 36.7422 14.767 36.2994 14.4301L35.6738 13.9392L35.5006 13.8045L35.7027 13.6986L36.0684 13.5158C36.3173 13.3999 36.5584 13.2681 36.7903 13.1211C37.3701 12.7752 37.8409 12.2731 38.1489 11.6724C38.457 11.0716 38.5899 10.3963 38.5324 9.72357C38.4825 8.91066 38.1761 8.1345 37.6573 7.50671C37.1385 6.87892 36.4339 6.43184 35.6449 6.22976C35.2024 6.13268 34.7505 6.08427 34.2975 6.08538C33.797 6.08538 33.335 6.08538 32.7767 6.08538H31.872L31.9297 5.89288C31.9297 5.76776 32.0164 5.66189 32.0453 5.55602C32.1086 5.39641 32.1601 5.23234 32.1992 5.06515C32.1992 4.92077 32.2474 4.78603 32.2762 4.64166C32.3832 4.26986 32.4256 3.88244 32.4014 3.4963C32.3084 2.48797 31.8218 1.55688 31.0472 0.904731C30.2725 0.252582 29.2721 -0.0681162 28.2627 0.0121109C20.2356 0.0121109 12.2085 0.0121109 4.20061 0.0121109C3.58208 0.00062538 2.96831 0.122071 2.40077 0.368232C1.73463 0.621553 1.15542 1.06113 0.732195 1.63453C0.308968 2.20793 0.0596031 2.89097 0.0138279 3.60218C-0.042004 4.2416 0.0718686 4.88443 0.343947 5.46577C0.616026 6.0471 1.03666 6.54636 1.56341 6.91312C2.27657 7.42983 3.13713 7.70318 4.01773 7.69273H6.8282L6.72231 7.90448C6.38366 8.53128 6.20635 9.2325 6.20635 9.94494C6.20635 10.6574 6.38366 11.3586 6.72231 11.9854L6.80896 12.1683H6.61645C5.86494 12.2378 5.15043 12.5267 4.56177 12.999C3.97311 13.4713 3.53626 14.1062 3.3055 14.8247C3.04712 15.5547 3.01839 16.3462 3.22314 17.0929C3.4279 17.8397 3.85632 18.5058 4.45086 19.0019L4.54712 19.0982L4.4605 19.1944C3.64423 19.9728 3.1671 21.0411 3.13226 22.1685C3.14142 22.7174 3.26616 23.2583 3.49834 23.7558C3.73051 24.2533 4.0649 24.6963 4.47973 25.0559L4.58562 25.1522L4.49897 25.258C2.67026 27.5006 2.67026 29.108 4.49897 31.2062L4.57599 31.3024L4.3161 31.5912L4.00813 31.9377C3.60656 32.4253 3.33349 33.0057 3.21386 33.6259C3.09423 34.2462 3.13184 34.8865 3.32324 35.4885C3.51465 36.0905 3.85376 36.6349 4.30964 37.0722C4.76552 37.5094 5.32366 37.8256 5.93309 37.9917C6.45396 38.1326 6.99123 38.2038 7.53082 38.2034C15.6157 38.2034 23.6428 38.2034 31.179 38.2034C32.2825 38.2665 33.3709 37.9242 34.2397 37.241C34.3821 37.1219 34.537 37.0186 34.7017 36.933C36.4108 36.0694 37.9117 34.8444 39.1003 33.3429C40.9149 31.1072 41.9312 28.3295 41.9877 25.4505C42.0733 23.539 41.7108 21.6339 40.929 19.8874ZM34.413 7.6831C34.7691 7.66078 35.1258 7.71638 35.4583 7.84604C35.7907 7.9757 36.0909 8.17629 36.3379 8.43384C36.629 8.71734 36.8306 9.07994 36.9179 9.47679C37.0051 9.87364 36.9742 10.2874 36.8288 10.6668C36.719 11.0618 36.49 11.4134 36.1731 11.6735C35.8561 11.9336 35.4667 12.0896 35.0578 12.1201C34.6795 12.1394 34.3004 12.1394 33.9221 12.1201H9.90815C9.34754 12.0859 8.81881 11.8478 8.42166 11.4507C8.02451 11.0535 7.78638 10.5248 7.75217 9.96419C7.76147 9.40225 7.9728 8.86244 8.3475 8.44356C8.72219 8.02468 9.2352 7.75472 9.79263 7.6831C9.99449 7.66868 10.1971 7.66868 10.399 7.6831H25.4907C28.5129 7.69273 31.4004 7.70235 34.413 7.6831ZM4.04661 6.08538C3.52423 6.12048 3.00596 5.97248 2.58088 5.66685C2.1558 5.36121 1.85048 4.91702 1.71741 4.41066C1.62794 4.10072 1.60915 3.77465 1.66246 3.45649C1.71576 3.13832 1.83981 2.83618 2.02541 2.57232C2.21119 2.29771 2.45654 2.06855 2.74316 1.9019C3.02979 1.73526 3.35032 1.63542 3.68089 1.60984H28.128C28.3555 1.59556 28.5837 1.59556 28.8113 1.60984C29.3568 1.66248 29.8631 1.91644 30.2314 2.32217C30.5998 2.7279 30.8038 3.2563 30.8037 3.8043C30.7968 4.36616 30.5828 4.90573 30.2027 5.31957C29.8227 5.73341 29.3032 5.99239 28.7439 6.04688H12.863C9.9755 6.06613 6.98218 6.06613 4.04661 6.08538ZM4.7781 15.4696C4.90058 15.0201 5.15663 14.6184 5.51239 14.3177C5.86815 14.0169 6.30686 13.8312 6.77045 13.7852H7.08806H21.6793H21.8814L22.3627 13.843L22.0932 14.0644L21.9103 14.2087C21.7852 14.305 21.6793 14.3916 21.5734 14.459C20.2016 15.362 19.0209 16.5263 18.0989 17.8854C18.0152 18.0335 17.8912 18.1547 17.7412 18.2348C17.5912 18.3149 17.4214 18.3506 17.2519 18.3378H7.43456C6.82594 18.3654 6.22285 18.2113 5.70208 17.895C5.31345 17.6385 5.01523 17.2663 4.84945 16.8311C4.68367 16.396 4.6587 15.9197 4.7781 15.4696ZM5.07647 20.898C5.26968 20.6088 5.52421 20.3658 5.82198 20.1861C6.11974 20.0065 6.45344 19.8946 6.79932 19.8585H16.8284L15.7215 24.3629H15.5868C15.4843 24.3712 15.3813 24.3712 15.2788 24.3629H7.1458C6.64689 24.381 6.15443 24.2459 5.73459 23.9757C5.31476 23.7056 4.98767 23.3134 4.79734 22.8518C4.69566 22.5307 4.66796 22.1907 4.7163 21.8574C4.76464 21.524 4.88776 21.2059 5.07647 20.9269V20.898ZM16.8091 30.5228H7.08806C6.52857 30.5462 5.98006 30.3629 5.54699 30.0079C5.11391 29.6529 4.82653 29.151 4.73959 28.5979C4.65504 28.0907 4.74888 27.57 5.00509 27.1242C5.26131 26.6785 5.66407 26.3353 6.14484 26.1532C6.45354 26.0401 6.77867 25.9783 7.10732 25.9703H15.5098H15.6157H15.6831V26.0569L16.8091 30.5228ZM16.3953 36.5961H7.1362C6.63923 36.6296 6.14487 36.5002 5.72804 36.2276C5.31121 35.9549 4.99463 35.5538 4.82624 35.085C4.71721 34.8042 4.67021 34.5031 4.68849 34.2024C4.70676 33.9017 4.78986 33.6085 4.9321 33.3429C5.06508 33.0684 5.2548 32.8252 5.48874 32.6294C5.72268 32.4336 5.99553 32.2897 6.28921 32.2072C6.69518 32.1039 7.11195 32.049 7.53082 32.0436C10.6781 32.0436 13.8254 32.0436 16.9824 32.0436C17.2293 32.0291 17.4755 32.0825 17.6944 32.1978C17.9132 32.3132 18.0963 32.4862 18.224 32.698C19.1274 33.9974 20.2748 35.1088 21.6023 35.9705L21.9199 36.2015L22.4782 36.6154L16.3953 36.5961ZM37.1753 33.1408C35.0096 35.3294 32.0635 36.5687 28.9845 36.5865H28.8691C27.3722 36.5928 25.8887 36.3039 24.5036 35.7364C23.1185 35.1688 21.8589 34.3337 20.7969 33.2788C19.7349 32.2239 18.8913 30.97 18.3143 29.5887C17.7374 28.2075 17.4385 26.7261 17.4347 25.2292C17.4192 23.7311 17.7032 22.245 18.2701 20.8583C18.8371 19.4715 19.6755 18.2121 20.7361 17.1539C21.8253 16.0709 23.1184 15.2145 24.5408 14.6345C25.9631 14.0545 27.4863 13.7623 29.0223 13.7748C30.5583 13.7873 32.0766 14.1043 33.4892 14.7075C34.9019 15.3107 36.1809 16.188 37.2523 17.2887C39.304 19.4219 40.4437 22.2707 40.4293 25.2304C40.4149 28.1901 39.2477 31.0276 37.1753 33.1408Z" fill="#C4AD6C"/>
<path d="M28.1856 17.3176C27.9952 17.3457 27.8216 17.4424 27.6975 17.5896C27.5735 17.7367 27.5074 17.9241 27.5118 18.1165C27.5019 18.3088 27.5019 18.5016 27.5118 18.694V19.1271H27.4156C26.6169 19.319 25.8872 19.7288 25.3077 20.3109C24.7667 20.8354 24.4456 21.5462 24.4099 22.2989C24.3741 23.0516 24.6263 23.7896 25.1152 24.363C25.6878 25.0643 26.4821 25.5497 27.3674 25.7393L27.9835 25.8645C28.3287 25.9251 28.6695 26.0087 29.0037 26.1147C29.4681 26.2681 29.9015 26.5027 30.2838 26.8077C30.4503 26.9368 30.5877 27.0995 30.6872 27.2852C30.7867 27.471 30.846 27.6755 30.8613 27.8857C30.8692 28.1124 30.8296 28.3383 30.7451 28.5488C30.6606 28.7593 30.5329 28.9498 30.3704 29.108C30.0095 29.4757 29.5567 29.7401 29.0592 29.8738C28.5616 30.0075 28.0373 30.0056 27.5407 29.8684C27.0445 29.8003 26.5854 29.5681 26.2365 29.2088C25.8877 28.8494 25.6691 28.3837 25.6157 27.8857C25.6157 27.8183 25.6157 27.7509 25.6157 27.7028C25.5731 27.5673 25.4887 27.4486 25.3746 27.3639C25.2605 27.2792 25.1226 27.2328 24.9805 27.2312H24.9227C24.806 27.2305 24.6905 27.2551 24.5842 27.3033C24.4778 27.3514 24.3832 27.4221 24.3068 27.5103C24.2177 27.621 24.1543 27.75 24.121 27.8882C24.0877 28.0263 24.0854 28.1701 24.1142 28.3092C24.2275 29.1814 24.6553 29.9823 25.3174 30.5614C25.9362 31.0167 26.6397 31.3439 27.3867 31.5239H27.4829V31.6297C27.4778 31.7227 27.4778 31.8159 27.4829 31.9089C27.4829 32.111 27.4829 32.3035 27.4829 32.496C27.475 32.6061 27.4898 32.7167 27.5263 32.8209C27.5627 32.9251 27.6202 33.0207 27.695 33.1019C27.7699 33.183 27.8606 33.248 27.9615 33.2928C28.0624 33.3375 28.1714 33.3612 28.2818 33.3622C28.4855 33.3503 28.6773 33.2628 28.8197 33.1168C28.9622 32.9708 29.0449 32.7768 29.0518 32.573C29.0518 32.3708 29.0518 32.1687 29.0999 31.9474C29.148 31.726 29.0999 31.7452 29.0999 31.6394V31.5431L29.4753 31.4084L29.995 31.2159C30.6285 30.9739 31.1911 30.5767 31.6312 30.0609C32.0345 29.5815 32.2908 28.996 32.3693 28.3745C32.4479 27.753 32.3453 27.1221 32.074 26.5575C31.7825 26.0095 31.3717 25.5339 30.872 25.1658C30.3723 24.7976 29.7963 24.5463 29.1866 24.4304L28.9074 24.363C28.2818 24.209 27.6369 24.0454 26.9825 23.8336C26.6976 23.7391 26.4478 23.5609 26.2657 23.3222C26.0837 23.0836 25.978 22.7955 25.9622 22.4958C25.9536 22.1963 26.0365 21.9014 26.1999 21.6503C26.3633 21.3993 26.5993 21.204 26.8766 21.0905C27.2302 20.8786 27.6286 20.7525 28.0398 20.7224C28.451 20.6923 28.8636 20.7591 29.2443 20.9173C29.6091 21.0296 29.9305 21.2515 30.1647 21.5528C30.3989 21.8542 30.5346 22.2204 30.5533 22.6016C30.5785 22.8031 30.6823 22.9864 30.842 23.1118C30.9097 23.168 30.9881 23.2099 31.0725 23.2347C31.1569 23.2595 31.2455 23.2668 31.3329 23.2561C31.4422 23.2478 31.5488 23.2175 31.6462 23.1671C31.7436 23.1167 31.8299 23.0472 31.8999 22.9628C31.97 22.8784 32.0223 22.7808 32.0539 22.6758C32.0854 22.5707 32.0955 22.4604 32.0836 22.3514C32.0756 21.8084 31.9222 21.2774 31.6396 20.8136C31.3569 20.3498 30.9553 19.9702 30.4763 19.7142C30.2057 19.5534 29.9224 19.415 29.6293 19.3003L29.1866 19.1078H29.1095V19.002C29.1095 18.8961 29.1095 18.7902 29.1095 18.6843C29.1101 18.4585 29.0908 18.2331 29.0518 18.0106C29.023 17.8064 28.9173 17.6209 28.7563 17.4921C28.5952 17.3633 28.3911 17.3009 28.1856 17.3176Z" fill="#C4AD6C"/>
</svg>
