<svg width="17" height="17" viewBox="0 0 17 17" fill="none" xmlns="http://www.w3.org/2000/svg">
<path d="M8.49999 15.3084C12.412 15.3084 15.5833 12.2495 15.5833 8.47622C15.5833 4.70291 12.412 1.64404 8.49999 1.64404C4.58797 1.64404 1.41666 4.70291 1.41666 8.47622C1.41666 12.2495 4.58797 15.3084 8.49999 15.3084Z" stroke="#C4AD6C" stroke-width="1.14988" stroke-linecap="round" stroke-linejoin="round"/>
<path d="M6.43875 6.42613C6.60528 5.96952 6.93398 5.58448 7.36664 5.33923C7.79929 5.09397 8.30797 5.00432 8.80258 5.08615C9.2972 5.16798 9.74583 5.41601 10.069 5.78632C10.3922 6.15663 10.5691 6.62531 10.5683 7.10935C10.5683 8.47579 8.44333 9.159 8.44333 9.159" stroke="#C4AD6C" stroke-width="1.14988" stroke-linecap="round" stroke-linejoin="round"/>
<path d="M8.4903 9.32861V10.1766" stroke="#C4AD6C" stroke-width="1.15" stroke-linecap="round"/>
<path d="M8.5 11.8926H8.50778" stroke="#C4AD6C" stroke-width="1.14988" stroke-linecap="round" stroke-linejoin="round"/>
</svg>
