<svg width="12" height="13" viewBox="0 0 12 13" fill="none" xmlns="http://www.w3.org/2000/svg">
<path fill-rule="evenodd" clip-rule="evenodd" d="M8.3833 10.2846H10.1791V8.49622H8.3833V10.2846Z" fill="#182346"/>
<path fill-rule="evenodd" clip-rule="evenodd" d="M6.57983 12.0954H11.9898V6.67053H6.57983V12.0954ZM7.36972 11.298H11.1999V7.47531H7.36972V11.298Z" fill="#182346"/>
<path fill-rule="evenodd" clip-rule="evenodd" d="M1.84058 3.66739H3.56191V1.94604H1.84058V3.66739Z" fill="#182346"/>
<path fill-rule="evenodd" clip-rule="evenodd" d="M6.68408 1.35002H7.92851V0.105591H6.68408V1.35002Z" fill="#182346"/>
<path fill-rule="evenodd" clip-rule="evenodd" d="M8.00317 2.77324H9.2476V1.52881H8.00317V2.77324Z" fill="#182346"/>
<path fill-rule="evenodd" clip-rule="evenodd" d="M10.6335 4.15931H11.878V0.105591H10.6335V4.15931Z" fill="#182346"/>
<path fill-rule="evenodd" clip-rule="evenodd" d="M7.92847 4.15921H10.8048V2.77319H7.92847V4.15921Z" fill="#182346"/>
<path fill-rule="evenodd" clip-rule="evenodd" d="M6.57983 5.40364H8.00311V2.77319H6.57983V5.40364Z" fill="#182346"/>
<path fill-rule="evenodd" clip-rule="evenodd" d="M8.00317 5.40373H9.2476V4.1593H8.00317V5.40373Z" fill="#182346"/>
<path fill-rule="evenodd" clip-rule="evenodd" d="M0 5.50794H5.40247V0.105469H0V5.50794ZM0.789877 4.71806H4.61259V0.895348H0.789877V4.71806Z" fill="#182346"/>
<path fill-rule="evenodd" clip-rule="evenodd" d="M1.84058 10.2547H3.56191V8.52588H1.84058V10.2547Z" fill="#182346"/>
<path fill-rule="evenodd" clip-rule="evenodd" d="M0 12.0954H5.40247V6.67053H0V12.0954ZM0.789877 11.298H4.61259V7.47531H0.789877V11.298Z" fill="#182346"/>
</svg>
