<svg width="21" height="17" viewBox="0 0 21 17" fill="none" xmlns="http://www.w3.org/2000/svg">
<path d="M2.582 15H0.548V2.436H5.966C7.094 2.436 7.982 2.778 8.63 3.462C9.278 4.134 9.602 5.052 9.602 6.216C9.602 7.116 9.392 7.866 8.972 8.466C8.564 9.054 7.958 9.468 7.154 9.708L9.872 15H7.604L5.084 9.924H2.582V15ZM5.822 8.214C6.338 8.214 6.74 8.082 7.028 7.818C7.316 7.542 7.46 7.152 7.46 6.648V5.784C7.46 5.28 7.316 4.896 7.028 4.632C6.74 4.356 6.338 4.218 5.822 4.218H2.582V8.214H5.822ZM15.4929 16.476V14.928C14.5809 14.856 13.8129 14.634 13.1889 14.262C12.5649 13.89 12.0249 13.434 11.5689 12.894L12.8829 11.706C13.2549 12.162 13.6569 12.528 14.0889 12.804C14.5329 13.08 15.0429 13.254 15.6189 13.326V9.294C14.3229 9.018 13.3869 8.604 12.8109 8.052C12.2349 7.488 11.9469 6.75 11.9469 5.838C11.9469 4.878 12.2649 4.116 12.9009 3.552C13.5369 2.988 14.4009 2.646 15.4929 2.526V0.959999H17.0229V2.526C17.7909 2.598 18.4569 2.79 19.0209 3.102C19.5969 3.414 20.0949 3.84 20.5149 4.38L19.1829 5.478C18.9189 5.13 18.6009 4.842 18.2289 4.614C17.8689 4.374 17.4309 4.212 16.9149 4.128V7.818C17.6229 7.974 18.2109 8.16 18.6789 8.376C19.1469 8.592 19.5249 8.838 19.8129 9.114C20.1129 9.378 20.3289 9.69 20.4609 10.05C20.5929 10.398 20.6589 10.806 20.6589 11.274C20.6589 12.246 20.3409 13.056 19.7049 13.704C19.0809 14.352 18.1869 14.748 17.0229 14.892V16.476H15.4929ZM18.7689 11.4C18.7689 10.944 18.6369 10.572 18.3729 10.284C18.1089 9.984 17.6229 9.744 16.9149 9.564V13.308C17.5029 13.212 17.9589 12.996 18.2829 12.66C18.6069 12.324 18.7689 11.904 18.7689 11.4ZM13.8189 5.748C13.8189 6.252 13.9629 6.636 14.2509 6.9C14.5509 7.152 15.0069 7.362 15.6189 7.53V4.11C15.0429 4.194 14.5989 4.374 14.2869 4.65C13.9749 4.926 13.8189 5.292 13.8189 5.748Z" fill="#182346"/>
</svg>
