<svg width="29" height="32" viewBox="0 0 29 32" fill="none" xmlns="http://www.w3.org/2000/svg">
<path fill-rule="evenodd" clip-rule="evenodd" d="M27.0588 19.462C26.8289 21.3542 26.0213 23.1349 24.7414 24.5719C23.7524 25.6958 22.5923 26.6642 21.3018 27.443C18.3208 29.057 15.681 30.133 14.1466 31.2996C12.6093 30.133 9.97241 29.057 6.99041 27.443C5.70009 26.6637 4.53974 25.6954 3.54987 24.5719C2.27064 23.1345 1.46351 21.354 1.23349 19.462C0.990699 17.286 1.79557 15.1233 3.41181 13.6087C3.89303 13.0707 3.57156 12.8017 3.34278 12.3756C2.93158 11.613 2.8379 11.2775 2.14959 9.95466C1.81253 9.45808 1.65176 8.86694 1.69203 8.27225C2.0352 7.06034 3.34278 6.59659 3.80231 6.05475C3.88317 5.95834 4.04983 5.90242 4.09815 5.80793C4.14689 5.7021 4.15494 5.58262 4.12083 5.47145C3.91936 5.1186 3.76556 4.7417 3.66327 4.35016C4.62825 3.56506 5.73079 2.95747 6.91744 2.55688C8.29138 2.06746 9.69299 1.65574 11.1153 1.32375C12.2005 1.0724 13.2276 0.623306 14.1427 0C15.0575 0.623096 16.0842 1.07217 17.169 1.32375C18.5911 1.65564 19.9924 2.06736 21.3659 2.55688C22.5526 2.95738 23.6552 3.56497 24.6201 4.35016C24.5179 4.74186 24.3637 5.11882 24.1616 5.47145C24.1272 5.58268 24.1356 5.70235 24.1852 5.80793C24.2345 5.90434 24.4022 5.95834 24.4811 6.05475C24.9396 6.59852 26.2472 7.06323 26.5904 8.27225C26.6309 8.86709 26.4697 9.4584 26.1318 9.95466C25.4415 11.2775 25.3508 11.613 24.9396 12.3756C24.7098 12.8027 24.3894 13.0707 24.8716 13.6087C26.491 15.1217 27.2993 17.2846 27.0588 19.462ZM26.2324 18.9683C26.2536 17.0906 25.492 15.2854 24.1231 13.9683C23.2741 13.2057 23.6409 13.0408 23.916 12.5337C24.3292 11.7711 24.2582 11.7749 24.9485 10.3577C25.2601 9.71652 25.8192 8.81506 25.6131 8.20476C25.1762 7.64547 24.6401 7.16739 24.0304 6.79327C23.6761 6.57595 23.3404 6.3309 23.0265 6.06053C22.8806 5.82432 23.0502 5.70188 23.0502 5.70188C23.0502 5.70188 23.5857 4.8573 23.5078 4.71461C23.0946 3.95294 19.1689 2.69668 16.9994 2.20304C16.012 1.89451 15.0591 1.48878 14.1555 0.992092C13.2508 1.48902 12.297 1.89507 11.3086 2.20401C9.12928 2.69764 5.20653 3.95391 4.79533 4.71557C4.71742 4.85826 5.25288 5.70284 5.25288 5.70284C5.25288 5.70284 5.42249 5.82625 5.27655 6.0615C4.9612 6.33486 4.62348 6.58251 4.26677 6.80195C3.65737 7.17645 3.12136 7.65447 2.68406 8.21344C2.47797 8.81988 3.03709 9.7252 3.35067 10.3663C4.04095 11.7836 3.96995 11.7798 4.38215 12.5424C4.65727 13.0495 5.0241 13.2173 4.17605 13.977C2.80721 15.2942 2.04568 17.0993 2.06676 18.977C2.21446 21.1936 3.22344 23.2711 4.88703 24.784C6.00702 25.8851 7.31951 26.7814 8.76245 27.4305C10.6279 28.2519 12.4226 29.2192 14.1289 30.3229C15.8521 29.2199 17.6624 28.2527 19.5426 27.4305C20.9857 26.7812 22.2985 25.8849 23.419 24.784C25.0812 23.2702 26.0896 21.1932 26.2383 18.977L26.2324 18.9683Z" fill="white"/>
<path fill-rule="evenodd" clip-rule="evenodd" d="M24.54 19.5324C24.3339 19.3309 23.7649 19.4909 23.6949 19.5998C23.4842 18.8914 23.0505 18.2659 22.4554 17.8123C22.4537 17.7379 22.4772 17.665 22.5224 17.6051C22.7934 17.5697 23.0619 17.5175 23.3261 17.4489C23.5549 17.3457 23.6003 18.0273 24.2195 17.9415C24.6593 17.8779 24.6564 17.4257 24.403 17.471C24.3251 17.4469 24.2215 17.6321 24.1288 17.6504C23.8064 17.7179 23.762 17.2464 23.762 17.0449C23.855 16.7082 23.8702 16.3555 23.8064 16.0123C23.6348 15.537 23.0865 15.2748 22.8439 15.1157C22.7759 15.0704 22.6546 14.7936 22.7976 14.6886C23.1407 14.4427 22.4761 14.2181 22.3617 14.7782C22.2986 15.0877 22.4268 15.1697 22.4071 15.3393C22.3834 15.5409 21.7602 15.9525 22.27 16.3266C22.5451 16.5281 22.6299 16.1974 22.4998 16.0374C22.2483 15.7231 23.3942 15.2526 23.4405 16.4414C23.4583 16.935 22.626 17.1587 22.4426 17.2262C20.922 17.0918 19.7936 15.7885 19.9092 14.3C19.8724 13.15 20.514 12.0813 21.559 11.5522C21.9535 11.1271 23.5549 11.1945 23.4869 10.5216C23.4385 10.0627 22.982 9.82548 22.7285 10.0723C22.6141 10.2969 23.0037 10.3201 22.981 10.5428C22.9603 10.7501 22.5786 10.806 22.3163 10.6325C22.1779 10.524 22.1009 10.3574 22.1093 10.1841C22.0175 9.28749 23.8527 8.64152 23.8527 8.64152C23.8527 8.64152 22.338 8.1932 22.2927 7.76705C22.2542 7.40936 22.4307 7.36308 22.5885 7.56459C22.6871 7.68414 22.9553 7.42961 22.6339 7.13844C22.4898 7.0653 22.3187 7.06401 22.1736 7.13497C22.0284 7.20593 21.9268 7.34056 21.9002 7.4971C21.7858 7.88275 20.3629 6.19552 20.1794 5.70381C20.0907 5.46471 20.1794 4.93251 20.4753 5.02892C20.6824 5.09641 20.637 5.23042 20.567 5.31816C20.5285 5.37587 20.5222 5.4486 20.5502 5.51183C20.5781 5.57505 20.6367 5.62036 20.706 5.63247C20.9331 5.61753 21.1073 5.42967 21.1005 5.20728C21.0648 4.89771 20.8109 4.65561 20.4935 4.62846C20.176 4.60131 19.883 4.79663 19.7929 5.09545C19.7347 5.26706 19.5858 5.02796 19.4714 4.93829C19.217 4.73872 17.6372 2.89819 15.527 2.87505C14.7213 2.86637 15.0901 3.06788 14.7006 3.03317C14.4265 3.01003 14.2431 2.6292 14.1277 2.49422C14.0596 2.60606 13.8318 3.01003 13.5547 3.03317C13.1652 3.06402 13.536 2.86734 12.7294 2.87505C10.6181 2.89819 9.03836 4.73872 8.78493 4.93829C8.66955 5.02796 8.52065 5.26802 8.46345 5.09545C8.37333 4.79663 8.0803 4.60131 7.76287 4.62846C7.44545 4.65561 7.19156 4.89771 7.15587 5.20728C7.14834 5.42811 7.32006 5.61555 7.54538 5.63247C7.61457 5.62009 7.67283 5.57468 7.70058 5.51149C7.72834 5.44831 7.7219 5.37573 7.68344 5.31816C7.61441 5.2285 7.56905 5.09448 7.77515 5.02892C8.07098 4.93251 8.16269 5.46278 8.07098 5.70381C7.88756 6.19648 6.46559 7.87889 6.3512 7.4971C6.32434 7.34051 6.22251 7.20592 6.07722 7.13499C5.93193 7.06406 5.76071 7.06534 5.61655 7.13844C5.29508 7.42768 5.56725 7.68414 5.6629 7.56459C5.82265 7.36308 5.99916 7.40936 5.95873 7.76705C5.9114 8.1932 4.39772 8.64152 4.39772 8.64152C4.85198 8.81856 5.27699 9.06027 5.65895 9.35884C5.94564 9.54462 6.12443 9.85303 6.14018 10.189C6.14923 10.3621 6.07253 10.5289 5.93408 10.6373C5.67079 10.8108 5.29015 10.7549 5.26944 10.5476C5.24577 10.3239 5.63529 10.3018 5.5209 10.0771C5.26944 9.8303 4.8109 10.0675 4.76455 10.5264C4.69651 11.2013 6.3019 11.1319 6.69141 11.5571C7.73787 12.0848 8.38032 13.1542 8.34216 14.3048C8.4578 15.7933 7.32942 17.0966 5.80884 17.231C5.62543 17.1635 4.79118 16.9417 4.8109 16.4462C4.85725 15.2574 6.00311 15.7279 5.75165 16.0422C5.62148 16.2051 5.7053 16.5358 5.98141 16.3314C6.49025 15.9574 5.86702 15.5457 5.84336 15.3442C5.82462 15.1745 5.95183 15.0916 5.8897 14.783C5.77531 14.2229 5.10969 14.4475 5.45286 14.6934C5.59781 14.7975 5.47652 15.079 5.4075 15.1205C5.16393 15.2796 4.61861 15.5409 4.44406 16.0171C4.38143 16.3605 4.39725 16.7131 4.49041 17.0497C4.49041 17.2512 4.44406 17.7246 4.12358 17.6552C4.03088 17.6369 3.92636 17.4518 3.84845 17.4759C3.597 17.4306 3.59305 17.8827 4.03187 17.9464C4.65115 18.036 4.7892 17.3409 4.94994 17.4093C5.20443 17.4944 5.46476 17.5617 5.72897 17.6108C5.77453 17.6707 5.79878 17.7435 5.798 17.8181C5.20205 18.2712 4.76786 18.8968 4.55747 19.6056C4.48647 19.4976 3.91847 19.3376 3.71237 19.5381C3.54867 19.6959 3.48691 19.9289 3.55163 20.1446C3.57431 20.3229 3.96777 20.3683 3.91847 20.0086C3.87212 19.6731 4.33165 19.7859 4.39969 20.1214C4.43173 20.4204 4.42377 20.7221 4.37602 21.019C4.48612 22.3074 5.56694 23.3102 6.88863 23.3503C7.08567 23.352 7.28223 23.3313 7.47438 23.2886C7.6933 23.2385 7.81656 23.6193 8.00097 23.9336C8.00097 23.9336 7.24363 24.2229 7.33633 24.7849C7.42902 25.347 7.95561 25.6372 8.34512 25.1436C8.50487 24.9421 8.23073 24.919 7.93293 24.919C7.70711 24.7628 7.7288 24.4919 8.27609 24.381C8.94172 24.247 9.53634 25.6343 9.76709 26.2196C9.99784 26.8048 11.2571 28.4178 12.9779 28.035C13.402 28.504 13.7853 29.0067 14.1237 29.5381C14.4627 29.0066 14.8467 28.5038 15.2716 28.035C16.9923 28.4207 18.2536 26.8019 18.4823 26.2196C18.7111 25.6372 19.3077 24.246 19.9733 24.381C20.5206 24.4919 20.5433 24.7666 20.3175 24.919C20.0217 24.919 19.7455 24.9421 19.9053 25.1436C20.2938 25.6372 20.8224 25.3461 20.9141 24.7849C21.0058 24.2238 20.2495 23.9336 20.2495 23.9336C20.4329 23.6193 20.5571 23.2385 20.776 23.2886C20.9682 23.3313 21.1648 23.352 21.3618 23.3503C22.7187 23.3503 23.8206 22.2782 23.8271 20.9516C23.8054 20.6748 23.8134 20.3966 23.8507 20.1214C23.9188 19.7859 24.3783 19.6731 24.332 20.0086C24.2826 20.3673 24.6751 20.3229 24.6988 20.1446C24.7619 19.9287 24.7 19.6964 24.5371 19.5381L24.54 19.5324ZM13.8526 4.68472C14.0586 4.39549 14.1267 4.03394 14.173 4.2123C14.2519 4.52082 14.5182 4.66159 14.4028 4.75125C14.2273 4.88912 13.7766 4.79174 13.8535 4.68472H13.8526ZM14.1267 28.788L13.535 27.9357L14.1267 27.1288L14.7233 27.9357L14.1267 28.788ZM23.4612 20.8725C23.467 21.4276 23.2468 21.9622 22.8491 22.3585C22.4514 22.7547 21.9089 22.9801 21.3411 22.9849C20.8413 22.9853 20.358 22.8109 19.9783 22.4932C19.6871 22.184 19.5227 21.7806 19.5168 21.3604C19.4815 20.6 20.0699 19.9496 20.846 19.891C20.9378 19.9546 21.0531 19.8457 21.2139 20.3384C21.421 20.428 21.4436 20.2632 21.4436 20.0703C21.4436 19.756 21.1005 19.6211 20.6873 19.4649C20.3846 19.3492 20.6449 18.7148 20.1824 18.6791C19.8866 18.6569 19.7692 18.7919 19.8392 18.9924C19.8856 19.1679 20.0483 19.0059 20.1351 19.0599C20.4309 19.2393 20.0157 19.7483 20.0157 19.7483C19.5387 20.1499 19.2584 20.7306 19.2446 21.3459C19.2517 21.7179 19.3534 22.0824 19.5404 22.4064C19.7098 22.6425 19.9154 22.8515 20.1499 23.0264C20.2646 23.3804 20.1289 23.7661 19.8156 23.976C19.5404 24.2007 19.2643 23.9086 18.3463 25.4782C18.2999 25.5601 18.1421 25.2371 17.797 25.1205C17.5893 25.046 17.3581 25.069 17.1701 25.1828C16.982 25.2967 16.8579 25.4888 16.8336 25.7038C16.7912 26.2408 17.3385 25.9728 17.4765 25.5244C17.652 25.4116 17.8138 25.6209 17.9341 25.8378C18.1007 26.1434 17.7506 26.8694 16.8109 27.4537C15.9609 27.9695 14.4442 27.7227 14.4935 26.7354C14.528 26.0055 15.5496 25.8378 15.4106 26.4211C15.3278 26.774 16.2823 26.8251 15.8248 26.0624C15.3672 25.2998 14.3101 25.9737 14.1267 26.4211C13.9433 25.9737 12.8891 25.2998 12.4296 26.0624C11.9701 26.8251 12.9226 26.774 12.8428 26.4211C12.7047 25.8426 13.7303 26.0055 13.7599 26.7354C13.8062 27.7227 12.2925 27.9685 11.4435 27.4537C10.5037 26.8704 10.1536 26.1444 10.3203 25.8378C10.4416 25.616 10.6023 25.4116 10.7788 25.5244C10.9169 25.9737 11.4642 26.2418 11.4198 25.7038C11.3958 25.4889 11.2719 25.2967 11.084 25.1828C10.896 25.0689 10.6649 25.0459 10.4574 25.1205C10.1112 25.2371 9.95445 25.5611 9.90613 25.4782C8.98905 23.9086 8.71393 24.2007 8.4388 23.976C8.12551 23.7661 7.98974 23.3804 8.10451 23.0264C8.30173 22.8094 8.53248 22.7005 8.73661 22.4479C8.91622 22.1081 9.01053 21.7313 9.01173 21.3488C8.99742 20.7329 8.71642 20.1519 8.23862 19.7503C8.23862 19.7503 7.82051 19.2412 8.11831 19.0619C8.20805 19.0079 8.36977 19.1689 8.41415 18.9944C8.48219 18.7929 8.45556 18.735 8.06901 18.7051C7.51974 18.6598 7.87179 19.3521 7.56511 19.4678C7.15193 19.624 6.80777 19.757 6.80777 20.0732C6.80777 20.2661 6.83144 20.4309 7.03754 20.3413C7.19827 19.8486 7.31266 19.9556 7.40437 19.8939C8.18118 19.9515 8.77046 20.6024 8.73463 21.3632C8.7292 21.7833 8.56559 22.1866 8.27511 22.4961C7.89529 22.8136 7.41199 22.9879 6.9123 22.9878C5.7314 22.9783 4.78188 22.0348 4.79118 20.8802C4.67716 19.4629 5.45647 18.1204 6.75945 17.4894C7.98161 16.9048 8.7385 15.6729 8.69223 14.3434C8.74725 12.9204 7.88454 11.6163 6.53462 11.0817C6.17666 10.8475 6.35416 10.7925 6.46658 10.5428C6.49882 10.4259 6.51441 10.3052 6.51293 10.1841C6.54744 9.7657 6.50405 9.96431 6.46658 9.75799C6.39987 9.65015 6.36792 9.52517 6.37487 9.39933C6.46658 8.548 7.38563 8.91726 7.45269 9.24314C7.51975 9.56902 7.39944 9.54588 7.31463 9.62879C6.92019 9.49381 7.0612 9.7387 7.08487 9.80812C7.1539 10.0096 7.3807 10.081 7.65879 9.89779C7.88756 9.8303 7.98125 9.49767 8.05323 9.51213C8.49304 9.63554 8.69519 9.15348 8.51177 9.12648C8.32836 9.09949 8.09859 9.32895 7.93884 9.12648C7.38662 8.4352 6.47348 8.47184 6.30979 8.76782C6.01395 9.30581 5.75855 9.01464 5.75855 9.01464C5.75855 9.01464 5.34734 8.7254 5.39172 8.7013C6.19544 8.27246 6.91737 7.71112 7.52566 7.04203C8.00688 6.50308 9.16655 4.99421 9.47422 4.75414C10.484 3.96934 12.3862 2.60124 13.4887 3.45449C13.6412 3.53599 13.7447 3.68377 13.7673 3.85223C13.7899 4.02069 13.7289 4.18958 13.6031 4.30679C13.4196 4.48515 13.2934 3.8681 13.2136 3.90185C12.9601 3.94716 13.3516 4.35017 13.1672 4.53046C12.9828 4.71076 12.688 4.49286 12.7077 4.30679C12.754 3.87967 11.7452 4.69244 12.9591 5.0241C13.2185 5.09448 13.2126 4.93443 13.396 4.95661C13.5794 4.97878 13.8082 5.20439 14.1296 5.15908C14.4511 5.20439 14.6809 4.97975 14.8643 4.95661C15.0477 4.93347 15.0408 5.09544 15.2992 5.0241C16.5151 4.68858 15.5053 3.88064 15.5526 4.30679C15.5723 4.4919 15.2637 4.71076 15.0941 4.53046C14.9245 4.35017 15.3002 3.95198 15.0477 3.90185C14.9669 3.8681 14.8416 4.48033 14.6582 4.30679C14.5324 4.18958 14.4714 4.02069 14.494 3.85223C14.5166 3.68377 14.6201 3.53599 14.7726 3.45449C15.8731 2.6022 17.7773 3.9703 18.7871 4.75414C19.0957 4.99421 20.2544 6.50308 20.7356 7.04203C21.3389 7.7163 22.0618 8.27843 22.8695 8.7013C22.9139 8.7254 22.4751 9.03682 22.4751 9.03682C22.4751 9.03682 22.269 9.19397 21.9475 8.76782C21.6836 8.60145 21.3624 8.54573 21.0561 8.61317C20.7498 8.68062 20.484 8.86557 20.3185 9.12648C20.1577 9.32895 19.924 9.10431 19.7455 9.12648C19.5671 9.14866 19.7643 9.63169 20.2041 9.51213C20.2711 9.49382 20.3638 9.82548 20.5985 9.89779C20.8737 10.08 21.1034 10.0096 21.1725 9.80812C21.1961 9.7387 21.3332 9.49381 20.9417 9.62879C20.8579 9.5507 20.7356 9.58348 20.8046 9.24314C20.8737 8.9028 21.7907 8.548 21.8825 9.39933C21.8889 9.52512 21.8569 9.64994 21.7907 9.75799C21.7533 9.96335 21.7109 9.7657 21.7444 10.1841C21.7431 10.3052 21.7587 10.4258 21.7907 10.5428C21.9022 10.7954 22.0797 10.8475 21.7217 11.0817C20.3726 11.6169 19.5107 12.9209 19.5661 14.3434C19.5177 15.6726 20.2738 16.9051 21.4959 17.4894C22.7971 18.1218 23.5749 19.4638 23.4612 20.8802V20.8725Z" fill="white"/>
<path fill-rule="evenodd" clip-rule="evenodd" d="M18.2825 15.1735C17.8837 14.3876 17.1697 13.7983 16.3102 13.546L16.3556 13.3899C16.7781 12.7146 17.0007 11.9379 16.9986 11.1463C16.999 11.003 16.9854 10.86 16.9581 10.7192C17.0498 10.6527 17.3743 10.8339 17.6405 11.2138C17.9363 11.639 18.2825 11.2813 17.9837 11.0567C17.7387 10.7069 17.5745 10.3091 17.5025 9.89102C17.4751 9.61475 17.4831 9.33622 17.5261 9.06187C17.6247 8.86133 17.5261 8.29924 17.251 8.83723C16.9759 9.37522 16.5854 9.2412 16.5854 9.2412C16.2562 8.51024 15.6192 7.9546 14.839 7.71787C15.1486 7.20847 15.6361 6.82565 16.2116 6.63997C16.5235 6.49954 16.8565 6.40904 17.1977 6.37194C17.3121 6.17044 17.3358 6.03546 17.2431 6.03546C16.6432 6.07258 16.0546 6.21292 15.5046 6.45004C15.1547 6.5988 14.7816 6.68876 14.4011 6.71614C14.0858 6.74549 13.7678 6.73414 13.4555 6.68239C12.9441 6.59819 12.4394 6.47964 11.9447 6.32759C11.4398 5.99015 11.3945 6.50596 11.4793 6.57345C11.8108 6.66916 12.1303 6.80077 12.4319 6.96585C12.6941 7.16684 12.9241 7.40504 13.1143 7.67256C12.6597 7.82706 12.2664 8.11748 11.9901 8.50267C11.7718 8.16543 11.4094 7.94258 11.004 7.89624C10.6996 7.83116 10.3814 7.90304 10.137 8.09207C9.89269 8.2811 9.74797 8.56734 9.74275 8.87194C9.74732 9.12154 9.86422 9.35647 10.0622 9.51405C10.0622 9.51405 10.3581 9.66831 10.5553 9.51405C10.6312 9.45235 10.5652 9.34822 10.5652 9.2682C10.4594 9.16735 10.43 9.01232 10.4918 8.88112C10.5536 8.74991 10.6932 8.67094 10.8403 8.68393C11.2485 8.70971 11.5627 9.04673 11.5513 9.44656C10.6896 9.82398 10.1023 10.6255 10.0139 11.5445C10.0378 12.5526 10.7386 13.4246 11.7347 13.6858V18.17C11.7347 18.17 11.7801 18.6637 11.2525 18.035C11.0865 17.883 10.9332 17.7182 10.7939 17.5424C10.4619 16.8878 10.0486 16.2758 9.56328 15.7202C9.35718 15.7202 9.17376 15.7423 9.40254 16.1058C9.61307 16.4357 9.72416 16.817 9.72303 17.2059C9.79144 17.7723 9.51297 18.3251 9.01204 18.6174C8.66887 18.8864 8.98936 19.1563 9.28716 18.8864C9.46322 18.7175 9.70766 18.635 9.95279 18.6617C10.501 18.6665 11.0202 18.9035 11.3757 19.3116C11.5742 19.3795 11.7042 19.566 11.6962 19.7714C11.6981 19.9037 11.646 20.0313 11.5514 20.1259C11.4568 20.2205 11.3276 20.2744 11.1923 20.2757C11.0569 20.2744 10.9276 20.2205 10.8329 20.126C10.7382 20.0314 10.6859 19.9038 10.6874 19.7714C10.6874 19.6423 10.7446 19.6249 10.8255 19.5352C10.8255 19.5352 10.7338 19.246 10.3906 19.4899C10.2654 19.5786 9.97744 19.8939 10.0692 20.1176C10.0918 20.6777 10.8432 21.29 11.926 20.7452C12.145 21.0903 12.434 21.3879 12.775 21.6197C13.1261 21.8347 13.4821 21.8704 13.4525 21.9639C13.2894 22.4535 12.916 22.8493 12.4299 23.0476C11.9053 23.1324 11.4438 23.1199 11.3757 22.6928C11.0326 21.9976 11.8797 22.177 11.6272 21.7065C11.4346 21.6473 11.2281 21.6473 11.0355 21.7065C10.6768 21.9031 10.4494 22.2688 10.436 22.6706C10.5273 23.4153 11.2096 23.9528 11.9733 23.8815C12.3188 23.8847 12.6578 23.7892 12.9486 23.6068C13.3104 23.4329 13.6335 23.1907 13.8992 22.8943C14.2457 23.2316 14.6399 23.5186 15.0697 23.7466C15.4366 23.9712 16.5824 24.1052 15.76 23.5672C14.4366 22.7053 14.6368 21.8183 14.6368 21.8183C15.9991 21.5142 17.0417 20.4405 17.2816 19.0946C18.6227 18.2505 19.0626 16.533 18.2864 15.1706L18.2825 15.1735ZM11.7436 12.6928C11.2739 12.4974 10.9676 12.0483 10.9636 11.5493C11.0181 11.0497 11.3061 10.6029 11.7436 10.3393V12.6928ZM13.6004 8.36577V8.99342C13.2612 8.97868 12.9215 9.01114 12.5916 9.08983C12.7411 8.66684 13.1429 8.37851 13.6004 8.36577ZM13.6004 9.74351V13.0302C13.3474 13.0546 13.092 13.039 12.8441 12.984C12.7463 12.953 12.6696 12.878 12.638 12.7825V9.9132C12.9509 9.82012 13.2739 9.76317 13.6004 9.74351ZM13.6004 21.0181C13.1054 20.8562 12.7565 20.4217 12.7129 19.9132C13.001 19.9977 13.2997 20.0428 13.6004 20.0472V21.0181ZM13.6004 19.0387C13.6004 19.1766 13.1468 19.1351 12.8658 18.9269C12.7563 18.8404 12.6765 18.7234 12.637 18.5914V15.0703H13.5994L13.6004 19.0387ZM13.6241 14.3077H12.6607V13.815C12.9796 13.8612 13.3017 13.8834 13.6241 13.8816V14.3077ZM14.6329 8.47568C15.0597 8.56654 15.417 8.85034 15.5953 9.24024C15.2834 9.13727 14.9605 9.06934 14.6329 9.03777V8.47568ZM14.6329 9.75798C14.908 9.75798 14.8656 9.84571 15.2551 9.86885C15.4375 9.93441 15.8606 9.98455 15.9661 10.1378C16.1027 10.4561 16.1503 10.8041 16.1041 11.1463C16.1412 11.8686 15.9224 12.5812 15.4849 13.1643C15.4247 13.3301 15.2364 13.2915 15.049 13.2539C14.9123 13.2282 14.7745 13.206 14.6358 13.1874L14.6329 9.75798ZM14.6595 20.967V20.0472C15.1382 20.0399 15.6117 19.9491 16.0578 19.7792C16.0351 20.1147 15.4158 20.725 14.6595 20.967ZM16.1968 18.7495C15.8977 18.9358 15.5616 19.058 15.2107 19.1081C14.6615 19.085 14.6378 19.1583 14.6378 19.0628V15.3846C15.7316 15.7653 16.4571 16.7834 16.4434 17.9184C16.4483 18.0948 16.4887 18.6135 16.1919 18.7475L16.1968 18.7495ZM17.2747 17.6764L17.2559 17.6272C17.2166 17.0841 17.0521 16.5567 16.7747 16.0846C16.4114 15.3923 15.8081 14.8489 15.0727 14.5516C15.1082 14.5091 15.1522 14.4741 15.2019 14.4485C15.6949 14.0628 16.8112 14.5555 17.3358 15.4791C17.8267 16.1387 17.802 17.0387 17.2757 17.6716L17.2747 17.6764Z" fill="white"/>
</svg>
