<svg width="19" height="22" viewBox="0 0 19 22" fill="none" xmlns="http://www.w3.org/2000/svg">
<path fill-rule="evenodd" clip-rule="evenodd" d="M18.025 7.6C18.025 6.4 18.025 5.2 18.025 4C18.025 3.7 17.925 3.6 17.725 3.4C14.925 2.3 12.125 1.1 9.425 0C9.125 0 8.925 0 8.725 0C5.925 1.2 3.125 2.3 0.325 3.5C0.225 3.5 0.025 3.8 0.025 3.9C0.025 6.3 -0.075 8.8 0.125 11.2C0.425 16.2 3.925 20.4 8.525 21.9C8.825 22 9.225 22 9.525 21.9C13.925 20.3 16.725 17.2 17.725 12.6C18.025 11 18.025 7.6 18.025 7.6Z" fill="#C4AD6C"/>
<path fill-rule="evenodd" clip-rule="evenodd" d="M12.425 10.0392C12.425 9.33916 12.125 9.03916 11.525 8.83916C11.325 8.83916 11.225 8.73916 11.225 8.43916C11.125 7.03916 10.225 6.13916 8.925 6.13916C7.625 6.13916 6.625 7.03916 6.625 8.43916C6.625 8.63916 6.525 8.73916 6.325 8.83916C5.725 9.03916 5.425 9.43916 5.425 10.0392C5.425 11.0392 5.425 11.9392 5.425 12.9392C5.425 13.8392 5.825 14.2392 6.725 14.2392C7.425 14.2392 8.225 14.2392 8.925 14.2392C9.725 14.2392 10.525 14.2392 11.325 14.2392C12.025 14.2392 12.425 13.8392 12.425 13.0392C12.425 12.0392 12.425 11.0392 12.425 10.0392ZM10.125 9.03916C9.725 9.03916 9.325 9.03916 8.925 9.03916C8.525 9.03916 8.125 9.03916 7.725 9.03916C7.525 9.03916 7.425 8.93916 7.425 8.73916C7.425 7.83916 8.125 7.03916 8.925 7.03916C9.725 7.03916 10.425 7.73916 10.425 8.63916C10.425 8.93916 10.325 9.03916 10.125 9.03916Z" fill="white"/>
</svg>
