<svg width="12" height="12" viewBox="0 0 12 12" fill="none" xmlns="http://www.w3.org/2000/svg">
<path fill-rule="evenodd" clip-rule="evenodd" d="M10.1119 8.4484C10.2535 5.93669 10.2535 3.419 10.1119 0.907294H0.976169C0.8611 3.42001 0.873549 5.93695 1.01344 8.4484H2.8242C3.40342 8.38643 3.98867 8.41155 4.56045 8.52292C5.10062 8.78287 5.60216 9.1164 6.05079 9.51399L6.79596 10.0207C6.79596 9.59596 6.79596 9.3128 6.79596 9.02218C6.79596 8.56018 6.90028 8.47076 7.35484 8.4484H10.0747H10.1119ZM7.64544 9.37241C7.62267 9.80928 7.62267 10.247 7.64544 10.6839C7.71996 11.2353 7.24305 11.4887 6.75869 11.131C6.08804 10.6392 5.39502 10.1772 4.72437 9.67793C4.43729 9.45727 4.07971 9.34867 3.71841 9.37241C2.97324 9.37241 2.18336 9.37241 1.41584 9.37241C1.16436 9.37169 0.913979 9.33914 0.67067 9.27554C0.481342 9.23477 0.311608 9.13053 0.189635 8.9801C0.0676625 8.82966 0.000756395 8.64207 0 8.4484C0 8.32918 0 8.2174 0 8.10563V1.18301C0 1.07123 0 0.959456 0 0.847681C0.00521257 0.631068 0.0916025 0.424313 0.24203 0.268365C0.392457 0.112418 0.595948 0.0186521 0.812231 0.00563961C0.948742 -0.00187987 1.08558 -0.00187987 1.22209 0.00563961H9.75426C9.88829 -0.0018025 10.0226 -0.0018025 10.1567 0.00563961C10.373 0.019265 10.5772 0.110374 10.7318 0.262278C10.8865 0.414183 10.9812 0.616714 10.9987 0.832777C11.0099 0.969163 11.0099 1.10623 10.9987 1.24262V8.2174C11.0139 8.36479 10.9971 8.51373 10.9494 8.65401C10.9017 8.79429 10.8242 8.92261 10.7223 9.03018C10.6204 9.13774 10.4965 9.22202 10.359 9.27723C10.2215 9.33244 10.0737 9.35728 9.92566 9.35006C9.42639 9.35006 8.92713 9.35006 8.43532 9.35006H7.60819" fill="#182346"/>
<path fill-rule="evenodd" clip-rule="evenodd" d="M5.57384 3.68687H3.00299C2.52609 3.68687 2.30254 3.53784 2.25783 3.24722C2.21312 2.95661 2.48139 2.77031 2.94339 2.76286H8.15957C8.29315 2.7543 8.42535 2.79397 8.53216 2.87464C8.652 2.99759 8.7257 3.15816 8.7408 3.32919C8.7408 3.53039 8.59177 3.64961 8.39057 3.67197C8.18938 3.69432 8.0776 3.67197 7.92111 3.67197H5.57384" fill="#182346"/>
<path fill-rule="evenodd" clip-rule="evenodd" d="M4.97032 6.51104H3.07759C2.94388 6.52606 2.8089 6.52606 2.67519 6.51104C2.57389 6.49634 2.48054 6.44787 2.41022 6.37349C2.33989 6.29911 2.29672 6.20317 2.28771 6.1012C2.28335 5.98744 2.32257 5.87629 2.39734 5.79044C2.47212 5.70459 2.57682 5.6505 2.69011 5.6392C2.80161 5.62804 2.91392 5.62804 3.02542 5.6392H6.94502C7.07828 5.61807 7.21479 5.63352 7.33996 5.68391C7.48843 5.77205 7.60168 5.90901 7.66037 6.0714C7.71253 6.29495 7.54116 6.45143 7.32506 6.50359C7.17315 6.53475 7.018 6.54726 6.86306 6.54085H4.97032" fill="#182346"/>
</svg>
