<svg width="20" height="18" viewBox="0 0 20 18" fill="none" xmlns="http://www.w3.org/2000/svg">
<path d="M12.1492 4.05809C12.9909 4.20378 13.7644 4.56898 14.3708 5.10696C14.9772 5.64494 15.3888 6.33121 15.5531 7.07795M12.1492 1C13.8979 1.17235 15.5286 1.8671 16.7735 2.97018C18.0184 4.07325 18.8035 5.5191 19 7.0703M18.1383 13.1712V15.4648C18.1392 15.6777 18.0901 15.8884 17.9939 16.0835C17.8978 16.2786 17.7568 16.4537 17.5799 16.5977C17.4031 16.7416 17.1943 16.8512 16.967 16.9194C16.7396 16.9876 16.4987 17.013 16.2597 16.9938C13.608 16.7382 11.0608 15.9343 8.82292 14.6467C6.74082 13.4729 4.97557 11.9068 3.65252 10.0596C2.19617 8.0651 1.28985 5.79431 1.00699 3.43118C0.98546 3.21976 1.01378 3.00669 1.09015 2.80551C1.16652 2.60434 1.28927 2.41948 1.45059 2.2627C1.6119 2.10592 1.80824 1.98066 2.02711 1.89489C2.24598 1.80912 2.48258 1.76472 2.72185 1.76452H5.30705C5.72525 1.76087 6.13069 1.89226 6.44778 2.13419C6.76487 2.37613 6.97198 2.71211 7.03051 3.0795C7.13963 3.81349 7.34199 4.53417 7.63373 5.2278C7.74967 5.50145 7.77476 5.79884 7.70603 6.08474C7.63731 6.37065 7.47764 6.63308 7.24595 6.84095L6.15155 7.81189C7.37827 9.7259 9.16456 11.3107 11.322 12.399L12.4164 11.4281C12.6506 11.2225 12.9465 11.0809 13.2687 11.0199C13.591 10.9589 13.9262 10.9812 14.2346 11.084C15.0164 11.3429 15.8288 11.5224 16.6561 11.6192C17.0747 11.6716 17.457 11.8587 17.7303 12.1448C18.0035 12.431 18.1488 12.7962 18.1383 13.1712Z" stroke="#182346" stroke-width="1.22727" stroke-linecap="round" stroke-linejoin="round"/>
</svg>
