<svg width="20" height="20" viewBox="0 0 20 20" fill="none" xmlns="http://www.w3.org/2000/svg">
<path d="M12.2428 4.8209C13.0916 4.98062 13.8716 5.381 14.4831 5.9708C15.0946 6.56059 15.5097 7.31296 15.6753 8.13162M12.2428 1.46826C14.0062 1.65721 15.6506 2.41888 16.9059 3.6282C18.1613 4.83753 18.953 6.42263 19.1512 8.12324M18.2822 14.8117V17.3262C18.2832 17.5597 18.2336 17.7907 18.1366 18.0046C18.0397 18.2185 17.8975 18.4105 17.7192 18.5683C17.5408 18.7261 17.3303 18.8462 17.101 18.921C16.8718 18.9958 16.6289 19.0236 16.3878 19.0025C13.7139 18.7223 11.1453 17.841 8.88861 16.4294C6.78903 15.1425 5.00895 13.4256 3.67479 11.4004C2.20621 9.21386 1.29229 6.72435 1.00705 4.13361C0.985338 3.90183 1.0139 3.66823 1.09091 3.44768C1.16792 3.22713 1.2917 3.02446 1.45437 2.85258C1.61704 2.6807 1.81503 2.54338 2.03573 2.44934C2.25644 2.35531 2.49503 2.30664 2.7363 2.30642H5.34322C5.76493 2.30242 6.17377 2.44646 6.49353 2.7117C6.81328 2.97694 7.02213 3.34527 7.08116 3.74805C7.19119 4.55274 7.39525 5.34284 7.68944 6.10328C7.80635 6.40328 7.83165 6.72931 7.76235 7.04275C7.69304 7.3562 7.53203 7.64391 7.2984 7.87179L6.19481 8.93625C7.43183 11.0346 9.23312 12.772 11.4086 13.9652L12.5122 12.9007C12.7485 12.6754 13.0468 12.5201 13.3717 12.4532C13.6967 12.3864 14.0347 12.4108 14.3457 12.5236C15.1341 12.8073 15.9533 13.0042 16.7876 13.1103C17.2097 13.1677 17.5952 13.3728 17.8708 13.6865C18.1463 14.0002 18.2928 14.4007 18.2822 14.8117Z" stroke="#C4AD6C" stroke-width="1.5" stroke-linecap="round" stroke-linejoin="round"/>
</svg>
