<svg width="13" height="12" viewBox="0 0 13 12" fill="none" xmlns="http://www.w3.org/2000/svg">
<path fill-rule="evenodd" clip-rule="evenodd" d="M12.3914 6.9355C12.4091 8.36864 11.915 9.7611 10.9979 10.8625C10.8599 11.0315 10.7078 11.1886 10.5434 11.332C10.4691 11.4001 10.3721 11.4378 10.2714 11.4378C10.1707 11.4378 10.0736 11.4001 9.99938 11.332C9.90977 11.2662 9.84842 11.1689 9.82768 11.0596C9.80694 10.9504 9.82836 10.8374 9.88761 10.7433C10.0088 10.5645 10.1433 10.3951 10.29 10.2366C10.9504 9.45488 11.3609 8.49295 11.4686 7.47531C11.5762 6.45766 11.3759 5.43115 10.8936 4.5286C10.4296 3.59476 9.6934 2.82353 8.78211 2.31667C7.87083 1.80981 6.82729 1.59114 5.78918 1.68951C4.82173 1.74631 3.89077 2.07894 3.10639 2.64809C2.322 3.21723 1.71698 3.99908 1.36288 4.90119C0.966917 5.78401 0.831595 6.76163 0.972862 7.71882C1.11413 8.67601 1.5261 9.57286 2.16021 10.3037C2.27944 10.4527 2.42102 10.5943 2.54025 10.7508C2.60203 10.8293 2.63177 10.9283 2.62348 11.0278C2.61518 11.1274 2.56946 11.2201 2.49553 11.2873C2.46205 11.3314 2.41997 11.3682 2.37185 11.3956C2.32372 11.423 2.27054 11.4404 2.21553 11.4466C2.16051 11.4529 2.10479 11.448 2.05174 11.4321C1.99869 11.4162 1.9494 11.3898 1.90685 11.3543C1.80023 11.2788 1.70489 11.1885 1.62369 11.0861C0.801054 10.2135 0.26072 9.11307 0.0732753 7.92858C-0.11417 6.74408 0.0599907 5.5306 0.573 4.44663C1.01205 3.34188 1.77848 2.39784 2.76946 1.74118C3.76044 1.08453 4.92855 0.746672 6.11706 0.77295C7.55993 0.734208 8.96974 1.20875 10.0955 2.11209C11.2213 3.01544 11.99 4.28896 12.2647 5.70597C12.3269 6.11332 12.3667 6.52378 12.3839 6.9355" fill="#182346"/>
<path fill-rule="evenodd" clip-rule="evenodd" d="M10.1707 6.97264C10.1686 7.8796 9.84967 8.75732 9.26902 9.45405C9.17763 9.57524 9.06979 9.68308 8.9486 9.77447C8.91449 9.81032 8.87345 9.83886 8.82798 9.85836C8.78251 9.87787 8.73354 9.88792 8.68406 9.88792C8.63458 9.88792 8.58562 9.87787 8.54014 9.85836C8.49467 9.83886 8.45363 9.81032 8.41953 9.77447C8.31734 9.61833 8.27745 9.42953 8.30775 9.2454C8.39034 9.07 8.50394 8.91096 8.64308 8.77594C9.03733 8.24893 9.25039 7.60845 9.25039 6.95028C9.25039 6.29211 9.03733 5.65163 8.64308 5.12462C8.24512 4.58355 7.67609 4.19275 7.02822 4.01556C6.38036 3.83838 5.69164 3.88521 5.07372 4.14845C4.63761 4.31568 4.24691 4.58307 3.93312 4.92904C3.61933 5.27501 3.39123 5.68988 3.26723 6.1402C3.14323 6.59051 3.1268 7.06366 3.21925 7.5215C3.3117 7.97933 3.51045 8.40903 3.79948 8.77594C3.874 8.88027 3.97087 8.97714 4.04539 9.08146C4.26149 9.37208 4.26149 9.58818 4.04539 9.76702C3.82929 9.94586 3.63554 9.92351 3.35983 9.67015C2.8143 9.09988 2.4525 8.379 2.32125 7.6008C2.19001 6.82261 2.29536 6.02294 2.62368 5.3053C2.952 4.58765 3.48817 3.98507 4.16278 3.57556C4.8374 3.16604 5.6194 2.96844 6.40757 3.00834C7.24116 3.03923 8.04285 3.33678 8.69474 3.85722C9.34664 4.37767 9.81434 5.09354 10.0291 5.89959C10.1078 6.25793 10.1601 6.62155 10.1856 6.98754" fill="#182346"/>
<path fill-rule="evenodd" clip-rule="evenodd" d="M4.35097 6.94287C4.33823 6.56021 4.44864 6.18356 4.66594 5.86833C4.88325 5.55311 5.19598 5.31594 5.55814 5.19172C5.92185 5.0604 6.31731 5.04504 6.69011 5.14775C7.06291 5.25046 7.39471 5.4662 7.63984 5.76526C7.88497 6.06432 8.03138 6.43201 8.05893 6.81771C8.08647 7.20342 7.99379 7.58818 7.79365 7.91904C7.71301 8.0505 7.61246 8.16865 7.49558 8.26927C7.41438 8.34415 7.30797 8.38573 7.19751 8.38573C7.08705 8.38573 6.98064 8.34415 6.89944 8.26927C6.85564 8.23569 6.81894 8.19377 6.79145 8.14591C6.76397 8.09806 6.74624 8.04523 6.73931 7.99048C6.73238 7.93573 6.73638 7.88015 6.75108 7.82695C6.76577 7.77376 6.79087 7.72401 6.82493 7.68058C6.91809 7.55888 7.00038 7.42921 7.07083 7.29309C7.15458 7.08971 7.16546 6.86364 7.10164 6.65315C7.03781 6.44266 6.9032 6.2607 6.7206 6.13808C6.56099 6.02345 6.36942 5.96179 6.1729 5.96179C5.97639 5.96179 5.78482 6.02345 5.62521 6.13808C5.44281 6.26259 5.31196 6.44923 5.25711 6.66315C5.20226 6.87707 5.22715 7.10364 5.32714 7.30055C5.38675 7.41977 5.47617 7.51665 5.54324 7.63587C5.68482 7.89668 5.64756 8.15749 5.44636 8.26927C5.34242 8.33447 5.21812 8.35911 5.09716 8.3385C4.97621 8.31788 4.86709 8.25344 4.79062 8.15749C4.63238 7.99131 4.50978 7.79454 4.43033 7.57926C4.35088 7.36398 4.31627 7.13474 4.32861 6.90561" fill="#182346"/>
</svg>
