<svg width="16" height="12" viewBox="0 0 16 12" fill="none" xmlns="http://www.w3.org/2000/svg">
<path fill-rule="evenodd" clip-rule="evenodd" d="M13.3088 2.27522C13.6028 2.56722 13.8344 2.91598 13.9894 3.3003C14.1444 3.68461 14.2196 4.09644 14.2105 4.51073C14.2123 4.63666 14.263 4.75694 14.352 4.84606C14.4173 4.91263 14.5008 4.95828 14.5921 4.97719C14.6834 4.99611 14.7782 4.98743 14.8645 4.95227C14.9508 4.9171 15.0247 4.85704 15.0767 4.77974C15.1288 4.70243 15.1567 4.61138 15.1568 4.51818C15.1628 3.98159 15.0614 3.44921 14.8586 2.95238C14.6558 2.45555 14.3557 2.0043 13.9759 1.62519C13.5961 1.24609 13.1443 0.946776 12.6471 0.744878C12.1499 0.542979 11.6173 0.44257 11.0807 0.44956C10.9655 0.464054 10.8595 0.520128 10.7826 0.607253C10.7057 0.694378 10.6633 0.806563 10.6633 0.922742C10.6633 1.03892 10.7057 1.15111 10.7826 1.23823C10.8595 1.32536 10.9655 1.38143 11.0807 1.39592C11.4946 1.38534 11.9062 1.45918 12.2905 1.61291C12.6749 1.76665 13.0239 1.99707 13.3162 2.29013" fill="#182346"/>
<path fill-rule="evenodd" clip-rule="evenodd" d="M11.9599 3.63149C12.0959 3.76726 12.1981 3.9332 12.2579 4.11585C12.2833 4.18388 12.3241 4.2451 12.3771 4.29469C12.4547 4.35645 12.5497 4.3921 12.6487 4.39654C12.7477 4.40097 12.8456 4.37395 12.9283 4.31936C13.011 4.26477 13.0743 4.1854 13.1092 4.09263C13.144 3.99985 13.1486 3.89843 13.1223 3.80288C13.0112 3.48821 12.8311 3.20241 12.5951 2.96644C12.3592 2.73047 12.0733 2.55033 11.7587 2.43922C11.6631 2.4129 11.5617 2.4175 11.4689 2.45234C11.3762 2.48719 11.2968 2.55051 11.2422 2.63322C11.1876 2.71594 11.1606 2.81381 11.165 2.91281C11.1695 3.01182 11.2051 3.10688 11.2669 3.18439C11.3164 3.23743 11.3777 3.27824 11.4457 3.30362C11.6283 3.3635 11.7943 3.46562 11.9301 3.60168" fill="#182346"/>
<path fill-rule="evenodd" clip-rule="evenodd" d="M11.6544 9.33947C11.6525 9.57731 11.5566 9.80474 11.3877 9.97222C11.2188 10.1397 10.9906 10.2337 10.7528 10.2337H1.81075C1.5736 10.2337 1.34617 10.1395 1.17847 9.97177C1.01078 9.80407 0.916566 9.57663 0.916566 9.33947V3.5197C0.91828 3.29015 1.00819 3.07005 1.16771 2.90498C1.32724 2.73991 1.54415 2.64251 1.77351 2.63295H7.95096L11.6768 6.35879L11.6544 9.33947ZM0 9.55557C0.00197015 9.96733 0.166915 10.3615 0.458772 10.652C0.750628 10.9425 1.14564 11.1055 1.5574 11.1055H11.0136C11.4091 11.0904 11.7839 10.9244 12.061 10.6418C12.3382 10.3591 12.4966 9.98115 12.5039 9.58538V6.05328C12.5032 5.94244 12.4606 5.83598 12.3847 5.75521L8.52473 1.88778C8.44396 1.81189 8.3375 1.76931 8.22667 1.76855H1.5574C1.14564 1.76855 0.750628 1.93161 0.458772 2.22207C0.166915 2.51253 0.00197015 2.90675 0 3.31851V9.55557Z" fill="#182346"/>
<path d="M6.3339 9.33945H3.17439C2.87919 9.33168 2.59869 9.20892 2.39268 8.99735C2.18667 8.78577 2.07143 8.5021 2.07153 8.20679V4.95041C2.07153 4.65001 2.19086 4.36191 2.40328 4.1495C2.61569 3.93708 2.90378 3.81775 3.20418 3.81775H6.36371C6.66411 3.81775 6.95221 3.93708 7.16462 4.1495C7.37703 4.36191 7.49636 4.65001 7.49636 4.95041V8.20679C7.49641 8.35808 7.46615 8.50784 7.40738 8.64724C7.3486 8.78664 7.26249 8.91285 7.15414 9.01843C7.04578 9.124 6.91738 9.2068 6.7765 9.26194C6.63562 9.31708 6.48513 9.34343 6.3339 9.33945ZM3.17439 4.77902C3.15127 4.77801 3.12817 4.7817 3.10651 4.78986C3.08485 4.79802 3.06505 4.81049 3.04834 4.8265C3.03163 4.84252 3.01835 4.86176 3.00927 4.88305C3.0002 4.90435 2.99551 4.92726 2.99554 4.95041V8.20679C2.99551 8.22994 3.0002 8.25285 3.00927 8.27415C3.01835 8.29544 3.03163 8.31468 3.04834 8.3307C3.06505 8.34671 3.08485 8.35918 3.10651 8.36734C3.12817 8.3755 3.15127 8.37919 3.17439 8.37818H6.3339C6.35641 8.37818 6.37869 8.37375 6.39948 8.36514C6.42028 8.35652 6.43917 8.3439 6.45509 8.32798C6.471 8.31207 6.48363 8.29318 6.49224 8.27238C6.50086 8.25159 6.5053 8.2293 6.5053 8.20679V4.95041C6.5053 4.90495 6.48723 4.86136 6.45509 4.82922C6.42294 4.79707 6.37935 4.77902 6.3339 4.77902H3.17439Z" fill="#182346"/>
</svg>
