<svg width="103" height="58" viewBox="0 0 103 58" fill="none" xmlns="http://www.w3.org/2000/svg">
<path d="M96.1333 0H6.86667C3.07431 0 0 3.1161 0 6.96V51.04C0 54.8839 3.07431 58 6.86667 58H96.1333C99.9257 58 103 54.8839 103 51.04V6.96C103 3.1161 99.9257 0 96.1333 0Z" fill="white"/>
<path d="M56.9514 34.4425C56.0433 35.4675 54.7979 36.0935 53.4266 36.0683C52.4863 36.0532 51.6141 35.7289 50.8725 35.1882L49.0305 38.5558C50.2914 39.4702 51.7774 40.0146 53.3733 40.0421C55.7028 40.0839 57.8232 39.0295 59.3689 37.2909L56.9514 34.4425ZM48.4129 30.5012C48.3939 30.3097 48.3808 30.1171 48.3842 29.9183C48.4233 27.2684 50.526 25.1515 53.082 25.1925C54.4729 25.2153 55.7077 25.8744 56.5416 26.8967L48.4129 30.5012ZM53.1304 21.8417C48.7924 21.7744 45.2209 25.3669 45.1545 29.8684C45.1299 31.554 45.6 33.129 46.4258 34.4425L60.6612 28.1325C59.8585 24.5748 56.8123 21.902 53.1304 21.8417ZM66.0011 16.24V32.7912L68.415 33.9808L67.2759 37.2429L64.8864 36.0631C64.3451 35.7898 63.9834 35.3644 63.7097 34.8865C63.4425 34.4021 63.2458 33.7331 63.2458 32.8351V16.24H66.0011ZM42.7399 16.24V32.7912L45.1536 33.9808L44.015 37.2429L41.6253 36.0631C41.0847 35.7898 40.7227 35.3644 40.448 34.8865C40.1815 34.4021 39.9844 33.7331 39.9844 32.8351V16.24H42.7399Z" fill="#182346"/>
<path d="M79.4598 25.9673C81.7251 27.2067 82.6777 30.2994 81.5892 32.8783L84.4503 34.4426C86.2987 30.0662 84.6804 24.8147 80.8352 22.7102C77.9147 21.1117 74.5491 21.7933 72.2918 24.1339L74.4304 26.8095C75.76 25.4296 77.7411 25.0246 79.4598 25.9673Z" fill="#182346"/>
<path d="M75.4603 34.5164C73.1987 33.2772 72.2443 30.1838 73.3313 27.6089V27.6073L70.4707 26.0414C68.6246 30.4186 70.241 35.671 74.0846 37.7745C77.0075 39.3729 80.3712 38.6893 82.6302 36.3488L80.4913 33.6768C79.1603 35.0532 77.1808 35.4574 75.4603 34.5164ZM36.1195 34.901V30.2356C36.1195 30.2281 36.1195 30.2197 36.1195 30.2137C36.1195 26.4728 33.8473 23.3096 30.7109 22.2356C29.9695 21.9821 29.1805 21.8416 28.3605 21.8408C27.5567 21.8416 26.7814 21.9745 26.0525 22.2177C24.8386 22.6255 23.7512 23.347 22.874 24.2937C21.469 25.8086 20.6015 27.9021 20.6 30.2137C20.6015 34.8373 24.0747 38.5835 28.3605 38.5851H28.3642C29.6036 38.5851 30.781 38.2667 31.8237 37.7045L30.5674 34.5464C29.9123 34.9352 29.1661 35.1593 28.3605 35.1593C25.829 35.1545 23.7803 32.9432 23.7741 30.2137H23.7755C23.7774 29.3741 23.9732 28.5854 24.3141 27.8938C24.9293 26.6502 26.0219 25.7266 27.3269 25.3995C27.66 25.3156 28.0042 25.2666 28.3598 25.2666C29.0381 25.2682 29.6792 25.4314 30.2568 25.7159C31.84 26.497 32.9421 28.2133 32.9451 30.2137H32.9469C32.9469 30.355 32.9469 34.862 32.9484 34.862C32.9484 35.7399 33.1609 36.3956 33.4475 36.8688C33.7426 37.3356 34.1328 37.7526 34.716 38.0208L36.1708 38.6432L37.3998 35.4517L36.1195 34.901Z" fill="#182346"/>
</svg>
