<svg width="215" height="60" viewBox="0 0 215 60" fill="none" xmlns="http://www.w3.org/2000/svg">
<rect width="215" height="60" fill="#182346"/>
<path fill-rule="evenodd" clip-rule="evenodd" d="M78.9506 16.759V22.7377H80.358C81.2802 22.7377 82.0078 22.4744 82.5391 21.9447C83.0705 21.4181 83.3369 20.6857 83.3369 19.7491C83.3369 18.8189 83.0705 18.0881 82.5391 17.5568C82.0078 17.0254 81.2802 16.759 80.358 16.759H78.9506ZM77.9326 23.7126V15.7856H80.358C81.569 15.7856 82.5407 16.151 83.2747 16.8818C84.0087 17.6126 84.3757 18.5684 84.3757 19.7491C84.3757 20.9378 84.0087 21.8952 83.2747 22.6212C82.5407 23.3488 81.569 23.7126 80.358 23.7126H77.9326Z" fill="white"/>
<mask id="mask0_173_2696" style="mask-type:alpha" maskUnits="userSpaceOnUse" x="48" y="15" width="117" height="30">
<path d="M48.6346 44.5819H164.616V15.6968H48.6346V44.5819Z" fill="white"/>
</mask>
<g mask="url(#mask0_173_2696)">
<path fill-rule="evenodd" clip-rule="evenodd" d="M86.0481 23.7131H87.0677V18.288H86.0481V23.7131ZM87.2751 16.4148C87.2751 16.6142 87.2065 16.785 87.0677 16.9254C86.9257 17.0658 86.7566 17.136 86.5571 17.136C86.3577 17.136 86.1885 17.0658 86.0481 16.9254C85.9077 16.785 85.8375 16.6142 85.8375 16.4148C85.8375 16.2169 85.9077 16.0462 86.0481 15.9058C86.1885 15.767 86.3577 15.6968 86.5571 15.6968C86.7566 15.6968 86.9257 15.767 87.0677 15.9058C87.2065 16.0462 87.2751 16.2169 87.2751 16.4148Z" fill="white"/>
<path fill-rule="evenodd" clip-rule="evenodd" d="M93.1021 22.2067C93.1021 22.679 92.8947 23.0763 92.4798 23.4034C92.0682 23.7273 91.548 23.8901 90.9194 23.8901C90.3737 23.8901 89.8934 23.7481 89.4801 23.4641C89.0669 23.1801 88.7717 22.8051 88.5946 22.3392L89.5025 21.9514C89.6349 22.2769 89.8296 22.5306 90.0833 22.711C90.3401 22.8913 90.6162 22.9822 90.9194 22.9822C91.2449 22.9822 91.5161 22.9104 91.7347 22.7716C91.9517 22.6312 92.0602 22.4652 92.0602 22.2738C92.0602 21.9275 91.7953 21.6722 91.264 21.5095L90.3338 21.2765C89.2775 21.01 88.7493 20.5026 88.7493 19.7479C88.7493 19.2549 88.9504 18.8576 89.3525 18.5592C89.7546 18.2592 90.2715 18.1108 90.897 18.1108C91.3773 18.1108 91.8097 18.2241 92.199 18.4523C92.5868 18.6821 92.858 18.9884 93.0128 19.373L92.1049 19.7479C92.0012 19.5198 91.8336 19.341 91.6023 19.2134C91.3677 19.0826 91.1092 19.0171 90.8204 19.0171C90.554 19.0171 90.3162 19.0842 90.1056 19.2166C89.8966 19.349 89.7913 19.5134 89.7913 19.7048C89.7913 20.0144 90.0817 20.2362 90.6656 20.3686L91.4842 20.5792C92.5612 20.8441 93.1021 21.3866 93.1021 22.2067Z" fill="white"/>
<path fill-rule="evenodd" clip-rule="evenodd" d="M97.1426 22.9594C97.6308 22.9594 98.0393 22.7743 98.3712 22.4057C98.7046 22.0435 98.869 21.5744 98.869 21C98.869 20.4319 98.7046 19.9644 98.3712 19.5943C98.0393 19.2257 97.6308 19.0406 97.1426 19.0406C96.6479 19.0406 96.2347 19.2257 95.9028 19.5943C95.5773 19.9644 95.4145 20.4319 95.4145 21C95.4145 21.5744 95.5773 22.0483 95.9028 22.4169C96.2347 22.7791 96.6479 22.9594 97.1426 22.9594ZM97.3085 23.8896C96.9096 23.8896 96.5474 23.805 96.2171 23.6343C95.89 23.4652 95.6363 23.2402 95.4592 22.9594H95.4145L95.4592 23.7125V26.1043H94.4412V18.2875H95.4145V19.0406H95.4592C95.6363 18.7598 95.89 18.5348 96.2171 18.3641C96.5474 18.1949 96.9096 18.1104 97.3085 18.1104C98.0249 18.1104 98.6297 18.3912 99.1243 18.9512C99.6333 19.5193 99.8886 20.2022 99.8886 21C99.8886 21.8042 99.6333 22.4887 99.1243 23.0471C98.6297 23.6088 98.0249 23.8896 97.3085 23.8896Z" fill="white"/>
<path fill-rule="evenodd" clip-rule="evenodd" d="M102.08 21C102.08 21.5824 102.25 22.0563 102.589 22.4169C102.929 22.7791 103.35 22.9594 103.851 22.9594C104.354 22.9594 104.774 22.7791 105.114 22.4169C105.453 22.0563 105.624 21.5824 105.624 21C105.624 20.424 105.453 19.9549 105.114 19.5943C104.767 19.2257 104.346 19.0406 103.851 19.0406C103.357 19.0406 102.937 19.2257 102.589 19.5943C102.25 19.9549 102.08 20.424 102.08 21ZM101.061 21C101.061 20.1671 101.324 19.4762 101.847 18.9305C102.379 18.3832 103.047 18.1104 103.851 18.1104C104.656 18.1104 105.319 18.3832 105.844 18.9305C106.376 19.4762 106.641 20.1671 106.641 21C106.641 21.8409 106.376 22.5302 105.844 23.0711C105.319 23.6168 104.656 23.8912 103.851 23.8912C103.047 23.8912 102.379 23.6168 101.847 23.0711C101.324 22.5254 101.061 21.8345 101.061 21Z" fill="white"/>
<path fill-rule="evenodd" clip-rule="evenodd" d="M108.014 18.287H108.987V19.0401H109.034C109.187 18.7736 109.426 18.5534 109.747 18.3763C110.068 18.1976 110.403 18.1099 110.749 18.1099C111.413 18.1099 111.923 18.2997 112.282 18.6811C112.64 19.0608 112.82 19.6017 112.82 20.3022V23.712H111.8V20.3692C111.778 19.4837 111.331 19.0401 110.462 19.0401C110.055 19.0401 109.715 19.2044 109.444 19.5331C109.171 19.8602 109.034 20.2543 109.034 20.7123V23.712H108.014V18.287Z" fill="white"/>
<path fill-rule="evenodd" clip-rule="evenodd" d="M116.385 15.7852L115.587 17.202H114.701L115.277 15.7852H116.385ZM114.658 23.7121H115.676V18.2871H114.658V23.7121Z" fill="white"/>
<path fill-rule="evenodd" clip-rule="evenodd" d="M120.193 23.7126H119.175L116.983 18.2876H118.09L119.686 22.4952H119.706L121.323 18.2876H122.409L120.193 23.7126Z" fill="white"/>
<path fill-rule="evenodd" clip-rule="evenodd" d="M124.268 20.3469H127.377C127.349 19.9703 127.196 19.6576 126.92 19.4119C126.643 19.163 126.272 19.0401 125.807 19.0401C125.424 19.0401 125.094 19.1582 124.815 19.3943C124.539 19.6305 124.357 19.948 124.268 20.3469ZM125.897 23.8907C125.099 23.8907 124.44 23.6163 123.925 23.0706C123.408 22.5249 123.149 21.834 123.149 20.9995C123.149 20.173 123.401 19.4853 123.902 18.9348C124.405 18.3859 125.046 18.1099 125.83 18.1099C126.632 18.1099 127.274 18.3699 127.749 18.8901C128.226 19.4119 128.464 20.1395 128.464 21.0777L128.453 21.1878H124.189C124.205 21.7191 124.381 22.1467 124.722 22.4722C125.061 22.7977 125.468 22.9589 125.94 22.9589C126.588 22.9589 127.098 22.635 127.467 21.984L128.375 22.4291C128.132 22.8855 127.794 23.2429 127.362 23.5014C126.931 23.7599 126.441 23.8907 125.897 23.8907Z" fill="white"/>
<path fill-rule="evenodd" clip-rule="evenodd" d="M129.946 23.7136H130.966V15.7866H129.946V23.7136Z" fill="white"/>
<path fill-rule="evenodd" clip-rule="evenodd" d="M135.748 18.287H136.722V19.0401H136.768C136.921 18.7736 137.16 18.5534 137.48 18.3763C137.8 18.1976 138.135 18.1099 138.483 18.1099C139.147 18.1099 139.658 18.2997 140.017 18.6811C140.372 19.0608 140.554 19.6017 140.554 20.3022V23.712H139.535V20.3692C139.511 19.4837 139.066 19.0401 138.194 19.0401C137.788 19.0401 137.449 19.2044 137.176 19.5331C136.904 19.8602 136.768 20.2543 136.768 20.7123V23.712H135.748V18.287Z" fill="white"/>
<path fill-rule="evenodd" clip-rule="evenodd" d="M142.989 22.0515C142.989 22.3179 143.101 22.5397 143.328 22.7153C143.553 22.8924 143.818 22.9817 144.119 22.9817C144.548 22.9817 144.928 22.8238 145.265 22.5062C145.601 22.1887 145.767 21.8153 145.767 21.3861C145.451 21.1372 145.008 21.0112 144.44 21.0112C144.027 21.0112 143.682 21.1101 143.404 21.3095C143.128 21.509 142.989 21.7547 142.989 22.0515ZM144.306 18.1104C145.061 18.1104 145.654 18.3114 146.088 18.7135C146.525 19.1156 146.744 19.6677 146.744 20.3681V23.7125H145.767V22.9594H145.724C145.303 23.5801 144.743 23.8896 144.041 23.8896C143.443 23.8896 142.943 23.7125 142.543 23.3583C142.139 23.0041 141.938 22.5605 141.938 22.0291C141.938 21.4691 142.15 21.0207 142.575 20.6888C142.999 20.357 143.564 20.191 144.274 20.191C144.88 20.191 145.376 20.3027 145.767 20.5229V20.2899C145.767 19.9373 145.627 19.6357 145.349 19.3884C145.067 19.1411 144.74 19.0182 144.362 19.0182C143.794 19.0182 143.345 19.2576 143.012 19.7379L142.115 19.173C142.61 18.4646 143.34 18.1104 144.306 18.1104Z" fill="white"/>
<path fill-rule="evenodd" clip-rule="evenodd" d="M65.8804 29.209C65.8501 26.0034 68.5052 24.4429 68.6264 24.3695C67.1234 22.1788 64.7922 21.8788 63.9752 21.8564C62.0174 21.6506 60.1219 23.026 59.1246 23.026C58.1066 23.026 56.5717 21.8756 54.9186 21.9091C52.7901 21.9426 50.7972 23.176 49.7042 25.0891C47.4512 28.992 49.133 34.7265 51.2902 37.881C52.372 39.4256 53.6342 41.1504 55.2856 41.0898C56.902 41.0228 57.5067 40.059 59.4581 40.059C61.392 40.059 61.9568 41.0898 63.6434 41.0515C65.3778 41.0228 66.4708 39.499 67.5127 37.9401C68.762 36.169 69.2615 34.4266 69.2822 34.3356C69.2407 34.3229 65.9139 33.0528 65.8804 29.209Z" fill="white"/>
<path fill-rule="evenodd" clip-rule="evenodd" d="M62.6967 19.7817C63.5647 18.6935 64.1599 17.2143 63.9939 15.7129C62.7366 15.7687 61.1634 16.5841 60.2571 17.6484C59.4561 18.585 58.7396 20.1215 58.9247 21.5655C60.3368 21.6709 61.7888 20.8523 62.6967 19.7817Z" fill="white"/>
<path fill-rule="evenodd" clip-rule="evenodd" d="M81.3689 35.3752H85.7409L83.5868 29.0263H83.5262L81.3689 35.3752ZM86.3153 37.1798H80.7977L79.4734 41.0922H77.1374L82.3614 26.6201H84.7899L90.0139 41.0922H87.6381L86.3153 37.1798Z" fill="white"/>
<path fill-rule="evenodd" clip-rule="evenodd" d="M99.0732 35.8159C99.0732 33.6794 97.969 32.2753 96.2841 32.2753C94.6295 32.2753 93.5173 33.7098 93.5173 35.8159C93.5173 37.9429 94.6295 39.3661 96.2841 39.3661C97.969 39.3661 99.0732 37.9716 99.0732 35.8159ZM101.299 35.8159C101.299 39.0949 99.5439 41.2011 96.8952 41.2011C95.3922 41.2011 94.1971 40.5293 93.5764 39.3566H93.5253V44.5822H91.3601V30.5393H93.4551V32.2945H93.4966C94.0981 31.1616 95.3826 30.4292 96.8553 30.4292C99.5343 30.4292 101.299 32.5466 101.299 35.8159Z" fill="white"/>
<path fill-rule="evenodd" clip-rule="evenodd" d="M110.686 35.8159C110.686 33.6794 109.582 32.2753 107.897 32.2753C106.243 32.2753 105.131 33.7098 105.131 35.8159C105.131 37.9429 106.243 39.3661 107.897 39.3661C109.582 39.3661 110.686 37.9716 110.686 35.8159ZM112.912 35.8159C112.912 39.0949 111.157 41.2011 108.51 41.2011C107.005 41.2011 105.81 40.5293 105.19 39.3566H105.139V44.5822H102.973V30.5393H105.068V32.2945H105.11C105.711 31.1616 106.996 30.4292 108.469 30.4292C111.148 30.4292 112.912 32.5466 112.912 35.8159Z" fill="white"/>
<path fill-rule="evenodd" clip-rule="evenodd" d="M120.587 37.0589C120.749 38.4933 122.143 39.4363 124.048 39.4363C125.874 39.4363 127.187 38.4933 127.187 37.1993C127.187 36.076 126.395 35.4042 124.519 34.9431L122.642 34.4916C119.986 33.8485 118.752 32.6056 118.752 30.5887C118.752 28.0916 120.929 26.3779 124.018 26.3779C127.075 26.3779 129.173 28.0916 129.243 30.5887H127.058C126.927 29.1463 125.733 28.2735 123.988 28.2735C122.242 28.2735 121.048 29.1559 121.048 30.4403C121.048 31.4631 121.813 32.0646 123.678 32.5258L125.272 32.9167C128.241 33.6188 129.473 34.8123 129.473 36.928C129.473 39.6358 127.318 41.3319 123.887 41.3319C120.678 41.3319 118.51 39.6773 118.371 37.0589H120.587Z" fill="white"/>
<path fill-rule="evenodd" clip-rule="evenodd" d="M134.148 28.0425V30.5396H136.156V32.2549H134.148V38.0724C134.148 38.9755 134.55 39.3968 135.433 39.3968C135.653 39.3968 136.006 39.3664 136.144 39.3457V41.0514C135.905 41.112 135.423 41.1519 134.941 41.1519C132.805 41.1519 131.974 40.3493 131.974 38.3022V32.2549H130.439V30.5396H131.974V28.0425H134.148Z" fill="white"/>
<path fill-rule="evenodd" clip-rule="evenodd" d="M145.12 35.816C145.12 33.5391 144.078 32.194 142.321 32.194C140.566 32.194 139.524 33.5487 139.524 35.816C139.524 38.1025 140.566 39.4365 142.321 39.4365C144.078 39.4365 145.12 38.1025 145.12 35.816ZM137.317 35.816C137.317 32.4956 139.273 30.4102 142.321 30.4102C145.381 30.4102 147.328 32.4956 147.328 35.816C147.328 39.1445 145.391 41.2219 142.321 41.2219C139.253 41.2219 137.317 39.1445 137.317 35.816Z" fill="white"/>
<path fill-rule="evenodd" clip-rule="evenodd" d="M149.113 30.5398H151.178V32.3348H151.227C151.559 31.1413 152.523 30.4297 153.766 30.4297C154.077 30.4297 154.337 30.4712 154.51 30.5095V32.5359C154.337 32.4657 153.956 32.405 153.535 32.405C152.14 32.405 151.278 33.348 151.278 34.8319V41.0915H149.113V30.5398Z" fill="white"/>
<path fill-rule="evenodd" clip-rule="evenodd" d="M157.172 34.8427H162.449C162.398 33.228 161.366 32.1653 159.861 32.1653C158.366 32.1653 157.282 33.2487 157.172 34.8427ZM164.495 37.9924C164.203 39.9072 162.337 41.2219 159.95 41.2219C156.88 41.2219 154.977 39.1652 154.977 35.8671C154.977 32.5562 156.892 30.4102 159.861 30.4102C162.779 30.4102 164.616 32.4158 164.616 35.615V36.357H157.163V36.4878C157.163 38.2924 158.296 39.4763 160 39.4763C161.204 39.4763 162.147 38.9051 162.438 37.9924H164.495Z" fill="white"/>
</g>
</svg>
