<svg width="215" height="60" viewBox="0 0 215 60" fill="none" xmlns="http://www.w3.org/2000/svg">
<rect x="0.75" y="0.75" width="213.5" height="58.5" stroke="#182346" stroke-opacity="0.3" stroke-width="1.5"/>
<path fill-rule="evenodd" clip-rule="evenodd" d="M78.9506 16.7594V22.7382H80.358C81.2802 22.7382 82.0078 22.4749 82.5391 21.9451C83.0705 21.4186 83.3369 20.6862 83.3369 19.7496C83.3369 18.8194 83.0705 18.0886 82.5391 17.5572C82.0078 17.0259 81.2802 16.7594 80.358 16.7594H78.9506ZM77.9326 23.7131V15.7861H80.358C81.569 15.7861 82.5407 16.1515 83.2747 16.8823C84.0087 17.6131 84.3757 18.5689 84.3757 19.7496C84.3757 20.9383 84.0087 21.8957 83.2747 22.6217C82.5407 23.3493 81.569 23.7131 80.358 23.7131H77.9326Z" fill="#182346" fill-opacity="0.4"/>
<mask id="mask0_173_1689" style="mask-type:alpha" maskUnits="userSpaceOnUse" x="48" y="15" width="117" height="30">
<path d="M48.6346 44.5824H164.616V15.6973H48.6346V44.5824Z" fill="white"/>
</mask>
<g mask="url(#mask0_173_1689)">
<path fill-rule="evenodd" clip-rule="evenodd" d="M86.0481 23.7136H87.0677V18.2885H86.0481V23.7136ZM87.2751 16.4153C87.2751 16.6147 87.2065 16.7855 87.0677 16.9259C86.9257 17.0663 86.7566 17.1365 86.5571 17.1365C86.3577 17.1365 86.1885 17.0663 86.0481 16.9259C85.9077 16.7855 85.8375 16.6147 85.8375 16.4153C85.8375 16.2174 85.9077 16.0467 86.0481 15.9063C86.1885 15.7675 86.3577 15.6973 86.5571 15.6973C86.7566 15.6973 86.9257 15.7675 87.0677 15.9063C87.2065 16.0467 87.2751 16.2174 87.2751 16.4153Z" fill="#182346" fill-opacity="0.4"/>
<path fill-rule="evenodd" clip-rule="evenodd" d="M93.1021 22.2072C93.1021 22.6795 92.8947 23.0768 92.4798 23.4039C92.0682 23.7278 91.548 23.8906 90.9194 23.8906C90.3737 23.8906 89.8934 23.7486 89.4801 23.4646C89.0669 23.1805 88.7717 22.8056 88.5946 22.3397L89.5025 21.9519C89.6349 22.2774 89.8296 22.5311 90.0833 22.7114C90.3401 22.8917 90.6162 22.9827 90.9194 22.9827C91.2449 22.9827 91.5161 22.9109 91.7347 22.7721C91.9517 22.6317 92.0602 22.4657 92.0602 22.2742C92.0602 21.928 91.7953 21.6727 91.264 21.51L90.3338 21.277C89.2775 21.0105 88.7493 20.5031 88.7493 19.7484C88.7493 19.2554 88.9504 18.8581 89.3525 18.5597C89.7546 18.2597 90.2715 18.1113 90.897 18.1113C91.3773 18.1113 91.8097 18.2246 92.199 18.4528C92.5868 18.6826 92.858 18.9889 93.0128 19.3734L92.1049 19.7484C92.0012 19.5202 91.8336 19.3415 91.6023 19.2139C91.3677 19.083 91.1092 19.0176 90.8204 19.0176C90.554 19.0176 90.3162 19.0846 90.1056 19.2171C89.8966 19.3495 89.7913 19.5139 89.7913 19.7053C89.7913 20.0149 90.0817 20.2367 90.6656 20.3691L91.4842 20.5797C92.5612 20.8446 93.1021 21.3871 93.1021 22.2072Z" fill="#182346" fill-opacity="0.4"/>
<path fill-rule="evenodd" clip-rule="evenodd" d="M97.1426 22.9594C97.6308 22.9594 98.0393 22.7743 98.3712 22.4057C98.7046 22.0435 98.869 21.5744 98.869 21C98.869 20.4319 98.7046 19.9644 98.3712 19.5943C98.0393 19.2257 97.6308 19.0406 97.1426 19.0406C96.6479 19.0406 96.2347 19.2257 95.9028 19.5943C95.5773 19.9644 95.4145 20.4319 95.4145 21C95.4145 21.5744 95.5773 22.0483 95.9028 22.4169C96.2347 22.7791 96.6479 22.9594 97.1426 22.9594ZM97.3085 23.8896C96.9096 23.8896 96.5474 23.805 96.2171 23.6343C95.89 23.4652 95.6363 23.2402 95.4592 22.9594H95.4145L95.4592 23.7125V26.1043H94.4412V18.2875H95.4145V19.0406H95.4592C95.6363 18.7598 95.89 18.5348 96.2171 18.3641C96.5474 18.1949 96.9096 18.1104 97.3085 18.1104C98.0249 18.1104 98.6297 18.3912 99.1243 18.9512C99.6333 19.5193 99.8886 20.2022 99.8886 21C99.8886 21.8042 99.6333 22.4887 99.1243 23.0471C98.6297 23.6088 98.0249 23.8896 97.3085 23.8896Z" fill="#182346" fill-opacity="0.4"/>
<path fill-rule="evenodd" clip-rule="evenodd" d="M102.08 21C102.08 21.5824 102.25 22.0563 102.589 22.4169C102.929 22.7791 103.35 22.9594 103.851 22.9594C104.354 22.9594 104.774 22.7791 105.114 22.4169C105.453 22.0563 105.624 21.5824 105.624 21C105.624 20.424 105.453 19.9549 105.114 19.5943C104.767 19.2257 104.346 19.0406 103.851 19.0406C103.357 19.0406 102.937 19.2257 102.589 19.5943C102.25 19.9549 102.08 20.424 102.08 21ZM101.061 21C101.061 20.1671 101.324 19.4762 101.847 18.9305C102.379 18.3832 103.047 18.1104 103.851 18.1104C104.656 18.1104 105.319 18.3832 105.844 18.9305C106.376 19.4762 106.641 20.1671 106.641 21C106.641 21.8409 106.376 22.5302 105.844 23.0711C105.319 23.6168 104.656 23.8912 103.851 23.8912C103.047 23.8912 102.379 23.6168 101.847 23.0711C101.324 22.5254 101.061 21.8345 101.061 21Z" fill="#182346" fill-opacity="0.4"/>
<path fill-rule="evenodd" clip-rule="evenodd" d="M108.014 18.2875H108.987V19.0406H109.034C109.187 18.7741 109.426 18.5539 109.747 18.3768C110.068 18.1981 110.403 18.1104 110.749 18.1104C111.413 18.1104 111.923 18.3002 112.282 18.6816C112.64 19.0613 112.82 19.6022 112.82 20.3027V23.7125H111.8V20.3697C111.778 19.4842 111.331 19.0406 110.462 19.0406C110.055 19.0406 109.715 19.2049 109.444 19.5336C109.171 19.8607 109.034 20.2548 109.034 20.7128V23.7125H108.014V18.2875Z" fill="#182346" fill-opacity="0.4"/>
<path fill-rule="evenodd" clip-rule="evenodd" d="M116.385 15.7852L115.587 17.202H114.701L115.277 15.7852H116.385ZM114.658 23.7121H115.676V18.2871H114.658V23.7121Z" fill="#182346" fill-opacity="0.4"/>
<path fill-rule="evenodd" clip-rule="evenodd" d="M120.193 23.7131H119.175L116.983 18.2881H118.09L119.686 22.4957H119.706L121.323 18.2881H122.409L120.193 23.7131Z" fill="#182346" fill-opacity="0.4"/>
<path fill-rule="evenodd" clip-rule="evenodd" d="M124.268 20.3474H127.377C127.349 19.9708 127.196 19.6581 126.92 19.4124C126.643 19.1634 126.272 19.0406 125.807 19.0406C125.424 19.0406 125.094 19.1587 124.815 19.3948C124.539 19.631 124.357 19.9485 124.268 20.3474ZM125.897 23.8912C125.099 23.8912 124.44 23.6168 123.925 23.0711C123.408 22.5254 123.149 21.8345 123.149 21C123.149 20.1735 123.401 19.4858 123.902 18.9353C124.405 18.3864 125.046 18.1104 125.83 18.1104C126.632 18.1104 127.274 18.3704 127.749 18.8906C128.226 19.4124 128.464 20.14 128.464 21.0782L128.453 21.1883H124.189C124.205 21.7196 124.381 22.1472 124.722 22.4727C125.061 22.7982 125.468 22.9594 125.94 22.9594C126.588 22.9594 127.098 22.6355 127.467 21.9845L128.375 22.4296C128.132 22.886 127.794 23.2434 127.362 23.5019C126.931 23.7604 126.441 23.8912 125.897 23.8912Z" fill="#182346" fill-opacity="0.4"/>
<path fill-rule="evenodd" clip-rule="evenodd" d="M129.946 23.714H130.966V15.7871H129.946V23.714Z" fill="#182346" fill-opacity="0.4"/>
<path fill-rule="evenodd" clip-rule="evenodd" d="M135.748 18.2875H136.722V19.0406H136.768C136.921 18.7741 137.16 18.5539 137.48 18.3768C137.8 18.1981 138.135 18.1104 138.483 18.1104C139.147 18.1104 139.658 18.3002 140.017 18.6816C140.372 19.0613 140.554 19.6022 140.554 20.3027V23.7125H139.535V20.3697C139.511 19.4842 139.066 19.0406 138.194 19.0406C137.788 19.0406 137.449 19.2049 137.176 19.5336C136.904 19.8607 136.768 20.2548 136.768 20.7128V23.7125H135.748V18.2875Z" fill="#182346" fill-opacity="0.4"/>
<path fill-rule="evenodd" clip-rule="evenodd" d="M142.989 22.0515C142.989 22.3179 143.101 22.5397 143.328 22.7153C143.553 22.8924 143.818 22.9817 144.119 22.9817C144.548 22.9817 144.928 22.8238 145.265 22.5062C145.601 22.1887 145.767 21.8153 145.767 21.3861C145.451 21.1372 145.008 21.0112 144.44 21.0112C144.027 21.0112 143.682 21.1101 143.404 21.3095C143.128 21.509 142.989 21.7547 142.989 22.0515ZM144.306 18.1104C145.061 18.1104 145.654 18.3114 146.088 18.7135C146.525 19.1156 146.744 19.6677 146.744 20.3681V23.7125H145.767V22.9594H145.724C145.303 23.5801 144.743 23.8896 144.041 23.8896C143.443 23.8896 142.943 23.7125 142.543 23.3583C142.139 23.0041 141.938 22.5605 141.938 22.0291C141.938 21.4691 142.15 21.0207 142.575 20.6888C142.999 20.357 143.564 20.191 144.274 20.191C144.88 20.191 145.376 20.3027 145.767 20.5229V20.2899C145.767 19.9373 145.627 19.6357 145.349 19.3884C145.067 19.1411 144.74 19.0182 144.362 19.0182C143.794 19.0182 143.345 19.2576 143.012 19.7379L142.115 19.173C142.61 18.4646 143.34 18.1104 144.306 18.1104Z" fill="#182346" fill-opacity="0.4"/>
<path fill-rule="evenodd" clip-rule="evenodd" d="M65.8804 29.2095C65.8501 26.0039 68.5051 24.4434 68.6264 24.37C67.1234 22.1792 64.7922 21.8793 63.9752 21.8569C62.0174 21.6511 60.1219 23.0265 59.1246 23.0265C58.1066 23.0265 56.5717 21.8761 54.9186 21.9096C52.7901 21.9431 50.7972 23.1765 49.7042 25.0896C47.4512 28.9925 49.133 34.727 51.2902 37.8815C52.372 39.4261 53.6342 41.1509 55.2856 41.0903C56.902 41.0233 57.5067 40.0595 59.4581 40.0595C61.392 40.0595 61.9568 41.0903 63.6434 41.052C65.3778 41.0233 66.4708 39.4995 67.5127 37.9406C68.762 36.1695 69.2615 34.4271 69.2822 34.3361C69.2407 34.3233 65.9139 33.0533 65.8804 29.2095Z" fill="#182346" fill-opacity="0.4"/>
<path fill-rule="evenodd" clip-rule="evenodd" d="M62.6967 19.7817C63.5647 18.6935 64.1599 17.2143 63.9939 15.7129C62.7366 15.7687 61.1634 16.5841 60.2571 17.6484C59.4561 18.585 58.7396 20.1215 58.9247 21.5655C60.3368 21.6709 61.7888 20.8523 62.6967 19.7817Z" fill="#182346" fill-opacity="0.4"/>
<path fill-rule="evenodd" clip-rule="evenodd" d="M81.3689 35.3752H85.7409L83.5868 29.0263H83.5262L81.3689 35.3752ZM86.3153 37.1798H80.7977L79.4734 41.0922H77.1374L82.3614 26.6201H84.7899L90.0139 41.0922H87.6381L86.3153 37.1798Z" fill="#182346" fill-opacity="0.4"/>
<path fill-rule="evenodd" clip-rule="evenodd" d="M99.0732 35.8164C99.0732 33.6799 97.969 32.2758 96.2841 32.2758C94.6295 32.2758 93.5173 33.7102 93.5173 35.8164C93.5173 37.9434 94.6295 39.3666 96.2841 39.3666C97.969 39.3666 99.0732 37.9721 99.0732 35.8164ZM101.299 35.8164C101.299 39.0954 99.5439 41.2016 96.8952 41.2016C95.3922 41.2016 94.1971 40.5298 93.5764 39.3571H93.5253V44.5827H91.3601V30.5398H93.4551V32.2949H93.4966C94.0981 31.1621 95.3826 30.4297 96.8553 30.4297C99.5343 30.4297 101.299 32.547 101.299 35.8164Z" fill="#182346" fill-opacity="0.4"/>
<path fill-rule="evenodd" clip-rule="evenodd" d="M110.686 35.8164C110.686 33.6799 109.582 32.2758 107.897 32.2758C106.243 32.2758 105.131 33.7102 105.131 35.8164C105.131 37.9434 106.243 39.3666 107.897 39.3666C109.582 39.3666 110.686 37.9721 110.686 35.8164ZM112.912 35.8164C112.912 39.0954 111.157 41.2016 108.51 41.2016C107.005 41.2016 105.81 40.5298 105.19 39.3571H105.139V44.5827H102.973V30.5398H105.068V32.2949H105.11C105.711 31.1621 106.996 30.4297 108.469 30.4297C111.148 30.4297 112.912 32.547 112.912 35.8164Z" fill="#182346" fill-opacity="0.4"/>
<path fill-rule="evenodd" clip-rule="evenodd" d="M120.587 37.0598C120.749 38.4943 122.143 39.4373 124.048 39.4373C125.874 39.4373 127.187 38.4943 127.187 37.2003C127.187 36.077 126.395 35.4052 124.519 34.9441L122.642 34.4925C119.986 33.8495 118.752 32.6065 118.752 30.5897C118.752 28.0926 120.929 26.3789 124.018 26.3789C127.075 26.3789 129.173 28.0926 129.243 30.5897H127.058C126.927 29.1473 125.733 28.2745 123.988 28.2745C122.242 28.2745 121.048 29.1568 121.048 30.4413C121.048 31.4641 121.813 32.0656 123.678 32.5268L125.272 32.9177C128.241 33.6197 129.473 34.8132 129.473 36.929C129.473 39.6367 127.318 41.3329 123.887 41.3329C120.678 41.3329 118.51 39.6782 118.371 37.0598H120.587Z" fill="#182346" fill-opacity="0.4"/>
<path fill-rule="evenodd" clip-rule="evenodd" d="M134.148 28.043V30.5401H136.156V32.2554H134.148V38.0729C134.148 38.976 134.55 39.3973 135.433 39.3973C135.653 39.3973 136.006 39.3669 136.144 39.3462V41.0519C135.905 41.1125 135.423 41.1524 134.941 41.1524C132.805 41.1524 131.974 40.3498 131.974 38.3027V32.2554H130.439V30.5401H131.974V28.043H134.148Z" fill="#182346" fill-opacity="0.4"/>
<path fill-rule="evenodd" clip-rule="evenodd" d="M145.12 35.816C145.12 33.5391 144.078 32.194 142.321 32.194C140.566 32.194 139.524 33.5487 139.524 35.816C139.524 38.1025 140.566 39.4365 142.321 39.4365C144.078 39.4365 145.12 38.1025 145.12 35.816ZM137.317 35.816C137.317 32.4956 139.273 30.4102 142.321 30.4102C145.381 30.4102 147.328 32.4956 147.328 35.816C147.328 39.1445 145.391 41.2219 142.321 41.2219C139.253 41.2219 137.317 39.1445 137.317 35.816Z" fill="#182346" fill-opacity="0.4"/>
<path fill-rule="evenodd" clip-rule="evenodd" d="M149.113 30.5398H151.178V32.3348H151.227C151.559 31.1413 152.523 30.4297 153.766 30.4297C154.077 30.4297 154.337 30.4712 154.51 30.5095V32.5359C154.337 32.4657 153.956 32.405 153.535 32.405C152.14 32.405 151.278 33.348 151.278 34.8319V41.0915H149.113V30.5398Z" fill="#182346" fill-opacity="0.4"/>
<path fill-rule="evenodd" clip-rule="evenodd" d="M157.172 34.8427H162.449C162.398 33.228 161.366 32.1653 159.861 32.1653C158.366 32.1653 157.282 33.2487 157.172 34.8427ZM164.495 37.9924C164.203 39.9072 162.337 41.2219 159.95 41.2219C156.88 41.2219 154.977 39.1652 154.977 35.8671C154.977 32.5562 156.892 30.4102 159.861 30.4102C162.779 30.4102 164.616 32.4158 164.616 35.615V36.357H157.163V36.4878C157.163 38.2924 158.296 39.4763 160 39.4763C161.204 39.4763 162.147 38.9051 162.438 37.9924H164.495Z" fill="#182346" fill-opacity="0.4"/>
</g>
</svg>
