<svg width="1122" height="562" viewBox="0 0 1122 562" fill="none" xmlns="http://www.w3.org/2000/svg">
<path d="M1122 561.5C1122 487.763 1107.49 414.748 1079.3 346.623C1051.1 278.499 1009.78 216.6 957.687 164.46C905.593 112.319 843.749 70.9596 775.685 42.7416C707.622 14.5236 634.672 -3.22316e-06 561 0C487.328 3.22316e-06 414.378 14.5236 346.315 42.7417C278.251 70.9597 216.407 112.319 164.313 164.46C112.219 216.6 70.8965 278.499 42.7036 346.623C14.5107 414.748 -6.44057e-06 487.763 0 561.5L1122 561.5Z" fill="white" fill-opacity="0.01"/>
<path d="M1078.83 346.814C1106.94 414.724 1121.43 487.498 1121.5 561L0.500223 561C0.565661 487.498 15.0615 414.724 43.1656 346.814C71.3334 278.751 112.62 216.907 164.667 164.813C216.714 112.719 278.503 71.3964 346.506 43.2035C414.509 15.0107 487.394 0.500003 561 0.5C634.606 0.499997 707.491 15.0107 775.494 43.2035C843.497 71.3964 905.286 112.719 957.333 164.813C1009.38 216.907 1050.67 278.751 1078.83 346.814Z" stroke="white" stroke-opacity="0.01"/>
<path d="M1003 561.5C1003 504.572 991.787 448.201 970.002 395.607C948.216 343.012 916.285 295.223 876.031 254.969C835.777 214.715 787.988 182.784 735.393 160.998C682.799 139.213 626.428 128 569.5 128C512.572 128 456.201 139.213 403.607 160.998C351.012 182.784 303.223 214.715 262.969 254.969C222.715 295.223 190.784 343.012 168.998 395.607C147.213 448.201 136 504.572 136 561.5L1003 561.5Z" fill="white" fill-opacity="0.01"/>
<path d="M969.54 395.798C991.236 448.178 1002.43 504.308 1002.5 561L136.5 561C136.566 504.308 147.764 448.178 169.46 395.798C191.22 343.264 223.115 295.531 263.323 255.323C303.531 215.115 351.264 183.22 403.798 161.46C456.332 139.7 512.638 128.5 569.5 128.5C626.362 128.5 682.668 139.7 735.202 161.46C787.736 183.22 835.469 215.115 875.677 255.323C915.885 295.531 947.78 343.264 969.54 395.798Z" stroke="white" stroke-opacity="0.01"/>
<path d="M847 562C847 486.148 816.868 413.403 763.233 359.767C709.597 306.132 636.852 276 561 276C485.148 276 412.403 306.132 358.767 359.767C305.132 413.403 275 486.148 275 562L847 562Z" fill="white" fill-opacity="0.01"/>
<path d="M762.879 360.121C816.303 413.545 846.367 485.961 846.5 561.5L275.5 561.5C275.633 485.961 305.697 413.545 359.121 360.121C412.663 306.579 485.281 276.5 561 276.5C636.719 276.5 709.337 306.579 762.879 360.121Z" stroke="white" stroke-opacity="0.01"/>
</svg>
