<svg width="103" height="58" viewBox="0 0 103 58" fill="none" xmlns="http://www.w3.org/2000/svg">
<path d="M96.1333 0H6.86667C3.07431 0 0 3.1161 0 6.96V51.04C0 54.8839 3.07431 58 6.86667 58H96.1333C99.9257 58 103 54.8839 103 51.04V6.96C103 3.1161 99.9257 0 96.1333 0Z" fill="white"/>
<mask id="mask0_173_2213" style="mask-type:alpha" maskUnits="userSpaceOnUse" x="87" y="21" width="10" height="16">
<path d="M87.7373 21.3184H96.6994V36.0564H87.7373V21.3184Z" fill="white"/>
</mask>
<g mask="url(#mask0_173_2213)">
<path fill-rule="evenodd" clip-rule="evenodd" d="M96.6994 29.8931C96.6438 29.9229 96.5845 29.9479 96.5327 29.9836C93.6636 31.9649 90.795 33.9468 87.9265 35.9292C87.8784 35.9623 87.8292 35.9948 87.7373 36.0565C88.5031 31.1281 89.2624 26.2408 90.0282 21.3184C90.3707 21.7576 90.6935 22.1693 91.0141 22.5815C92.8877 24.9885 94.7607 27.3962 96.6348 29.8032C96.6519 29.8249 96.6775 29.839 96.6994 29.8574V29.8931Z" fill="#182346"/>
</g>
<mask id="mask1_173_2213" style="mask-type:alpha" maskUnits="userSpaceOnUse" x="73" y="20" width="13" height="16">
<path d="M73.7038 20.4019H85.0913V35.6941H73.7038V20.4019Z" fill="white"/>
</mask>
<g mask="url(#mask1_173_2213)">
<path fill-rule="evenodd" clip-rule="evenodd" d="M76.7373 31.388C76.756 31.5316 76.7705 31.8138 76.8324 32.0851C76.9495 32.597 77.2001 33.0227 77.7318 33.1852C78.2737 33.3504 78.7407 33.1663 79.1506 32.8061C79.708 32.3153 80.059 31.6805 80.2215 30.9699C80.478 29.8525 80.6677 28.7199 80.8804 27.5922C80.8879 27.5521 80.8451 27.4817 80.8066 27.4573C80.3893 27.1995 79.9329 27.1123 79.4515 27.1789C78.7455 27.2764 78.2069 27.6664 77.7746 28.2151C77.0767 29.1001 76.7683 30.1271 76.7373 31.388ZM82.5701 35.4618H79.9447C79.9917 34.9012 80.0382 34.3476 80.0847 33.794C80.0729 33.7897 80.0623 33.7854 80.0505 33.781C79.9436 33.9267 79.8416 34.0757 79.7293 34.2171C79.0587 35.0599 78.2037 35.5842 77.1317 35.6795C75.4954 35.8257 74.4502 34.8616 73.9906 33.5703C73.7149 32.7942 73.6636 31.9893 73.7298 31.1681C73.8212 30.0328 74.1295 28.9674 74.7008 27.9881C75.5873 26.4699 76.8474 25.4354 78.5596 25.0221C79.4605 24.8043 80.3663 24.7621 81.2619 25.0692C81.278 25.0746 81.2967 25.0714 81.3271 25.073C81.6104 23.5174 81.8941 21.9607 82.1784 20.4019H85.0913C84.9209 21.3384 84.7531 22.2684 84.5837 23.1973C84.4004 24.2047 84.2149 25.2117 84.0311 26.2191C83.8494 27.2206 83.6661 28.2221 83.4882 29.2242C83.2867 30.3557 83.0692 31.4845 82.8993 32.6208C82.7593 33.5584 82.6786 34.5047 82.5701 35.4618Z" fill="#182346"/>
</g>
<path fill-rule="evenodd" clip-rule="evenodd" d="M62.9298 27.2495C62.8459 27.2316 62.7952 27.2186 62.7433 27.2094C61.9466 27.0621 61.2225 27.2219 60.5855 27.7402C59.8336 28.3523 59.3724 29.1593 59.086 30.0764C58.8605 30.7978 58.7654 31.5355 58.9455 32.2819C59.1603 33.1719 59.9683 33.5153 60.7389 33.0343C60.9799 32.8837 61.1979 32.673 61.379 32.4504C61.8124 31.9179 62.0764 31.2896 62.2362 30.6261C62.4248 29.8407 62.5734 29.0451 62.7364 28.2532C62.8048 27.9222 62.8641 27.5897 62.9298 27.2495ZM64.7291 35.4636H62.0727C62.1192 34.7778 62.1646 34.0986 62.2105 33.4194C62.1956 33.414 62.1812 33.4086 62.1662 33.4031C62.1331 33.4524 62.0957 33.5001 62.0668 33.5515C61.6072 34.364 61.0199 35.0541 60.1473 35.4153C59.0566 35.8665 57.9916 35.8292 57.027 35.0736C56.4184 34.5964 56.0753 33.9312 55.9337 33.1816C55.4378 30.5665 56.5792 26.9922 59.6076 25.5617C60.4428 25.1669 61.3213 24.954 62.2394 24.8863C63.5481 24.7894 64.8242 24.9643 66.0811 25.324C66.1094 25.3321 66.1367 25.3429 66.1639 25.3537C66.1799 25.3602 66.1938 25.37 66.2088 25.3781C65.9747 26.5838 65.7396 27.7863 65.5071 28.9887C65.3693 29.701 65.218 30.4116 65.1042 31.1282C65.0027 31.7641 64.9252 32.4054 64.8723 33.0473C64.806 33.8451 64.7761 34.6468 64.7291 35.4636Z" fill="#182346"/>
<path fill-rule="evenodd" clip-rule="evenodd" d="M55.5984 27.4878C55.2244 27.4234 54.8701 27.3362 54.511 27.3058C52.9415 27.172 51.7669 28.0793 51.2197 29.3722C50.8702 30.196 50.7345 31.0562 50.9926 31.9369C51.2293 32.7445 51.908 33.2282 52.74 33.2412C53.3973 33.2515 54.0263 33.1318 54.6339 32.8831C54.6761 32.8658 54.721 32.8539 54.7798 32.8344C54.7835 32.8967 54.7889 32.9471 54.7894 32.9974C54.7969 33.6626 54.799 34.3277 54.8145 34.9928C54.8172 35.1201 54.7686 35.1727 54.6654 35.2165C54.1567 35.43 53.625 35.5627 53.0799 35.606C52.5519 35.6477 52.0165 35.6802 51.4901 35.6417C49.8303 35.521 48.3458 34.5612 47.9472 32.6427C47.2947 29.506 49.0101 25.9371 52.654 25.0477C53.8061 24.7671 54.9636 24.7628 56.1072 25.1387C56.2611 25.1891 56.2905 25.2492 56.2424 25.4014C56.0195 26.1023 55.8079 26.8064 55.5984 27.4878Z" fill="#182346"/>
<mask id="mask2_173_2213" style="mask-type:alpha" maskUnits="userSpaceOnUse" x="8" y="24" width="11" height="12">
<path d="M8.90637 24.9531H18.345V35.7049H8.90637V24.9531Z" fill="white"/>
</mask>
<g mask="url(#mask2_173_2213)">
<path fill-rule="evenodd" clip-rule="evenodd" d="M16.4704 26.5005C15.3225 26.2204 14.2516 26.325 13.2619 26.969C12.0836 27.7365 11.3505 28.8458 10.9326 30.1766C10.6504 31.0741 10.5275 31.9944 10.7504 32.9287C11.0181 34.051 11.8453 34.4269 12.7821 34.1994C13.3742 34.0559 13.8337 33.6735 14.2367 33.225C15.0329 32.3394 15.5192 31.2875 15.7821 30.1327C15.9648 29.3327 16.0958 28.5208 16.2481 27.7143C16.3229 27.3173 16.3934 26.9192 16.4704 26.5005ZM16.9118 35.4642H15.346C15.4241 34.5791 15.501 33.7016 15.578 32.8247C15.5699 32.8193 15.5614 32.8133 15.5534 32.8079C15.5245 32.8583 15.4951 32.9087 15.4679 32.9596C15.042 33.7482 14.5445 34.4816 13.8081 35.0075C12.867 35.6792 11.8357 35.9099 10.7322 35.5037C9.78633 35.1554 9.29683 34.3857 9.04674 33.4389C8.86666 32.7581 8.88215 32.0686 8.96765 31.3742C9.13011 30.0526 9.57899 28.8453 10.3453 27.7647C11.406 26.2686 12.8302 25.3473 14.6284 25.0456C15.3247 24.9292 16.029 24.9205 16.7274 25.0321C17.226 25.1122 17.7187 25.2238 18.2135 25.3235C18.2573 25.3321 18.2985 25.3543 18.345 25.3722C18.1483 26.429 17.9495 27.4743 17.7604 28.5219C17.5589 29.635 17.3532 30.747 17.1752 31.8638C16.9882 33.0349 16.9022 34.2162 16.923 35.4035C16.9235 35.4203 16.9171 35.4371 16.9118 35.4642Z" fill="#182346"/>
</g>
<path fill-rule="evenodd" clip-rule="evenodd" d="M34.9624 26.4991C33.8434 26.2288 32.7981 26.3176 31.8261 26.9259C30.7018 27.63 29.9697 28.6548 29.5229 29.8968C29.1729 30.8702 29.0131 31.8695 29.2392 32.9002C29.5235 34.2002 30.6141 34.4932 31.5493 34.1059C32.0345 33.905 32.4284 33.5746 32.7725 33.1819C33.5687 32.2725 34.0486 31.1989 34.3056 30.0246C34.4969 29.1531 34.6418 28.2719 34.8053 27.3944C34.8598 27.103 34.9079 26.81 34.9624 26.4991ZM35.407 35.4628H33.8439C33.9209 34.5756 33.9973 33.6965 34.0732 32.8168C34.0646 32.8125 34.0561 32.8082 34.047 32.8038C34.0149 32.8634 33.9829 32.9225 33.9503 32.9815C33.5009 33.814 32.9665 34.5788 32.1665 35.1031C31.2458 35.7065 30.2475 35.8961 29.205 35.4974C28.2671 35.1389 27.7782 34.3654 27.5361 33.4164C27.3448 32.669 27.3811 31.9134 27.4933 31.1561C27.6884 29.8394 28.1725 28.6451 28.9698 27.5872C30.0252 26.1876 31.4104 25.3291 33.1279 25.0448C33.9198 24.9131 34.7171 24.9305 35.5075 25.0675C35.912 25.1379 36.3106 25.2387 36.713 25.3221C36.8151 25.3432 36.8429 25.3871 36.822 25.4954C36.5383 27.0039 36.2545 28.5129 35.9809 30.023C35.8414 30.7965 35.7004 31.571 35.5994 32.3505C35.4685 33.359 35.3926 34.3741 35.4139 35.3934C35.4145 35.4108 35.4107 35.4281 35.407 35.4628Z" fill="#182346"/>
<path fill-rule="evenodd" clip-rule="evenodd" d="M45.381 35.4631H43.7095C43.7512 35.2177 43.7891 34.9805 43.8319 34.7438C44.0531 33.5262 44.2754 32.308 44.4982 31.0904C44.6105 30.4756 44.7355 29.8636 44.8333 29.2461C44.9289 28.6438 44.9893 28.0388 44.8237 27.4332C44.6003 26.6191 43.927 26.3608 43.243 26.4258C42.5242 26.494 41.9727 26.9029 41.4891 27.411C40.6881 28.2527 40.2381 29.2759 40.0276 30.4133C39.7759 31.7712 39.5349 33.1302 39.2896 34.4898C39.2378 34.7763 39.1838 35.0634 39.1427 35.3521C39.1293 35.4469 39.0935 35.4701 39.0075 35.4696C38.4934 35.4663 37.9793 35.468 37.4465 35.468C37.5315 34.9919 37.6127 34.5266 37.6972 34.0619C37.881 33.0425 38.0659 32.0237 38.2518 31.0054C38.4469 29.934 38.6526 28.8642 38.8381 27.7907C38.9642 27.0568 39.07 26.3196 39.1715 25.5813C39.225 25.1968 39.2121 25.1951 39.5931 25.1951H40.7207C40.6405 25.8716 40.562 26.5346 40.4834 27.1976C40.4968 27.203 40.5101 27.209 40.5235 27.2144C40.5604 27.1581 40.5978 27.1023 40.6352 27.0459C41.2631 26.0975 42.0753 25.3939 43.1847 25.0944C43.8591 24.9124 44.5362 24.8859 45.1951 25.1621C46.0153 25.5066 46.4268 26.175 46.5914 27.0286C46.74 27.7956 46.6347 28.555 46.5054 29.3089C46.3231 30.3765 46.1147 31.4392 45.9192 32.5046C45.7391 33.4877 45.5611 34.4713 45.381 35.4631Z" fill="#182346"/>
<path fill-rule="evenodd" clip-rule="evenodd" d="M73.6125 27.8359C72.6853 27.7346 71.887 27.96 71.2548 28.6598C70.8845 29.0709 70.6349 29.5562 70.4399 30.0724C70.1903 30.7316 70.0626 31.4211 69.9413 32.1122C69.7724 33.0731 69.5966 34.0334 69.424 34.9938C69.3962 35.1503 69.3674 35.3063 69.3396 35.4612H66.4379C66.9947 32.0109 67.8257 28.6121 68.0335 25.105H70.5783C70.5184 25.8026 70.4591 26.5035 70.3992 27.2044C70.4169 27.2103 70.4345 27.2157 70.4521 27.2217C70.4858 27.1648 70.5216 27.1085 70.5531 27.05C70.9368 26.3502 71.4194 25.7408 72.0986 25.3102C72.7297 24.9105 73.418 24.7984 74.1773 24.878C73.9882 25.8665 73.8017 26.8442 73.6125 27.8359Z" fill="#182346"/>
<path fill-rule="evenodd" clip-rule="evenodd" d="M19.4186 25.2062H21.1442C21.5396 28.0032 21.934 30.7916 22.3294 33.5887C22.3487 33.5632 22.3764 33.541 22.3866 33.5118C22.8996 32.1008 23.6028 30.7797 24.2719 29.4429C24.9548 28.078 25.6431 26.7157 26.3245 25.3503C26.3827 25.2327 26.4468 25.1894 26.5788 25.1915C27.1212 25.2002 27.6642 25.1953 28.2247 25.1953C28.2028 25.2511 28.1911 25.2961 28.1697 25.3351C26.3961 28.6716 24.6219 32.0076 22.8435 35.3414C22.8141 35.3972 22.7366 35.4617 22.6805 35.4628C22.167 35.472 21.6529 35.4682 21.1233 35.4682C20.5553 32.0477 19.9878 28.6326 19.4186 25.2062Z" fill="#182346"/>
<path fill-rule="evenodd" clip-rule="evenodd" d="M86.2137 22.5281C86.638 23.0562 87.0372 23.5518 87.4353 24.0479C87.8158 24.5213 88.1909 24.9991 88.5805 25.4649C88.6788 25.584 88.7002 25.6956 88.6783 25.8375C88.4635 27.2101 88.2513 28.5826 88.0376 29.9551C87.9082 30.7855 87.78 31.6158 87.6459 32.4461C87.6368 32.5025 87.5935 32.5691 87.5465 32.6016C86.4916 33.3355 85.433 34.0657 84.3749 34.7953C84.3615 34.805 84.3434 34.8072 84.3028 34.8218C84.9387 30.7275 85.573 26.65 86.2137 22.5281Z" fill="#182346"/>
</svg>
