<svg width="103" height="58" viewBox="0 0 103 58" fill="none" xmlns="http://www.w3.org/2000/svg">
<path d="M96.1333 0H6.86667C3.07431 0 0 3.1161 0 6.96V51.04C0 54.8839 3.07431 58 6.86667 58H96.1333C99.9257 58 103 54.8839 103 51.04V6.96C103 3.1161 99.9257 0 96.1333 0Z" fill="white"/>
<mask id="mask0_173_2236" style="mask-type:alpha" maskUnits="userSpaceOnUse" x="29" y="18" width="14" height="21">
<path d="M29.4318 18.009H42.7314V38.9916H29.4318V18.009Z" fill="white"/>
</mask>
<g mask="url(#mask0_173_2236)">
<path fill-rule="evenodd" clip-rule="evenodd" d="M32.3796 31.3407C32.4216 32.1316 32.4249 32.9379 32.5159 33.734C32.6587 34.9849 33.3393 35.7767 34.5714 35.9265C35.5783 36.0491 36.6225 36.0485 37.6298 35.9275C38.8398 35.7823 39.5584 35.0017 39.6233 33.7599C39.7068 32.1588 39.7072 30.5466 39.6239 28.9454C39.559 27.7001 38.8732 27.0065 37.6649 26.7168C36.615 26.465 35.5532 26.4657 34.5029 26.7104C33.2661 26.9986 32.6474 27.6925 32.5097 28.976C32.4263 29.7549 32.4209 30.5424 32.3796 31.3407ZM32.4173 24.2277C34.0545 23.7583 35.6347 23.604 37.2521 23.7566C40.4537 24.0586 42.5573 26.1801 42.6888 29.4248C42.7552 31.0635 42.7637 32.7258 42.5683 34.3491C42.2814 36.7341 40.8447 38.1869 38.5385 38.7114C36.9696 39.0682 35.3874 39.0963 33.8169 38.7257C31.1621 38.0992 29.5585 36.1903 29.4775 33.4328C29.4045 30.9472 29.442 28.4581 29.4376 25.9706C29.4338 23.7573 29.4303 21.544 29.4446 19.3307C29.4517 18.2406 29.6794 18.0323 30.7642 18.0115C32.2281 17.9836 32.4148 18.1679 32.4169 19.6578C32.4189 21.1563 32.4173 22.655 32.4173 24.2277Z" fill="#182346"/>
</g>
<path fill-rule="evenodd" clip-rule="evenodd" d="M55.2691 29.9205C55.5185 28.2481 54.7918 27.0703 53.2858 26.6962C52.3422 26.4619 51.3903 26.4717 50.4587 26.761C49.1439 27.1692 48.3883 28.6009 48.7714 29.9205H55.2691ZM48.783 32.4638C48.403 34.159 49.139 35.4656 50.7303 35.8547C52.5952 36.311 54.4592 36.0856 56.3067 35.6952C57.6635 35.4084 57.8443 35.5458 57.8346 36.9734C57.8274 37.9956 57.6613 38.2303 56.7108 38.4845C54.5496 39.0623 52.3624 39.1562 50.1715 38.7248C47.5078 38.2005 46.0884 36.8179 45.8165 34.0843C45.6228 32.1364 45.6435 30.1247 45.8914 28.1839C46.2216 25.5986 48.0495 24.0254 50.7069 23.8024C51.8787 23.704 53.1019 23.7196 54.2499 23.9497C56.6798 24.4372 58.1109 26.2589 58.2712 28.8576C58.3215 29.6748 58.3015 30.5054 58.2174 31.3198C58.1257 32.2057 57.8102 32.4515 56.9343 32.4552C54.4082 32.4661 51.8821 32.4621 49.3559 32.4638C49.1613 32.4639 48.9668 32.4638 48.783 32.4638Z" fill="#182346"/>
<mask id="mask1_173_2236" style="mask-type:alpha" maskUnits="userSpaceOnUse" x="61" y="23" width="13" height="16">
<path d="M61.2477 23.6719H73.9232V38.9842H61.2477V23.6719Z" fill="white"/>
</mask>
<g mask="url(#mask1_173_2236)">
<path fill-rule="evenodd" clip-rule="evenodd" d="M73.9193 33.16C73.9193 34.6775 73.9295 36.195 73.9158 37.7125C73.9067 38.7144 73.6874 38.9253 72.7043 38.9712C71.1238 39.0448 70.9195 38.8482 70.9191 37.2467C70.9184 34.7419 70.9211 32.237 70.9181 29.7321C70.9153 27.3559 70.17 26.5774 67.8116 26.5545C67.1867 26.5483 66.5493 26.6215 65.9377 26.7532C64.9837 26.9585 64.4476 27.6156 64.3519 28.5933C64.2879 29.2463 64.2792 29.9063 64.2768 30.5634C64.268 32.9036 64.2795 35.2439 64.269 37.5842C64.2639 38.7503 64.0559 38.9487 62.9102 38.9769C62.802 38.9795 62.6937 38.9795 62.5856 38.9762C61.5013 38.9436 61.2738 38.7426 61.2684 37.6497C61.2548 34.8343 61.2236 32.0178 61.2813 29.2033C61.3469 26.0036 62.8263 24.3142 65.9285 23.8132C67.3458 23.5843 68.7699 23.6294 70.1721 23.9787C72.4494 24.546 73.742 26.1121 73.8809 28.4988C73.9264 29.2828 73.9142 30.0702 73.9203 30.8563C73.9261 31.6242 73.9216 32.3921 73.9216 33.16H73.9193Z" fill="#182346"/>
</g>
</svg>
