<svg width="103" height="58" viewBox="0 0 103 58" fill="none" xmlns="http://www.w3.org/2000/svg">
<path d="M95.8414 0H6.84581C3.06497 0 0 3.03341 0 6.77532V49.6857C0 53.4276 3.06497 56.461 6.84581 56.461H95.8414C99.6222 56.461 102.687 53.4276 102.687 49.6857V6.77532C102.687 3.03341 99.6222 0 95.8414 0Z" fill="white"/>
<path fill-rule="evenodd" clip-rule="evenodd" d="M22.7311 35.002C23.6645 22.5499 32.8077 16.1372 36.4454 14.0618C32.8237 14.0239 28.8184 14.8158 24.8771 16.5189C16.7386 20.0348 11.2843 26.3874 10.7057 32.238C14.6438 36.3254 22.7311 35.002 22.7311 35.002Z" fill="#182346"/>
<path d="M48.73 20.871L48.73 20.871C50.4641 24.8024 49.0173 29.6827 45.1696 33.9424C45.0591 31.8807 44.2902 30.1772 43.1123 28.7833C41.706 27.1192 39.7328 25.9133 37.6496 25.0358C34.0019 23.4992 29.9101 22.9259 27.614 22.7142C30.6102 18.4423 34.3863 15.8366 36.508 14.6026C36.6007 14.5904 36.6956 14.5795 36.7923 14.5695C42.4912 14.718 47.0132 16.9782 48.73 20.871Z" fill="#182346" stroke="white"/>
<mask id="mask0_173_1924" style="mask-type:alpha" maskUnits="userSpaceOnUse" x="10" y="26" width="35" height="18">
<path d="M11.1552 26.8582H44.1833V43.0938H11.1552V26.8582Z" fill="white" stroke="white"/>
</mask>
<g mask="url(#mask0_173_1924)">
<path d="M11.8828 36.7819C11.3988 35.6851 11.1623 34.5194 11.1552 33.3156C13.2055 34.9278 15.919 35.4908 18.16 35.6514C19.447 35.7436 20.606 35.7051 21.443 35.6437C21.862 35.613 22.2015 35.5764 22.4375 35.5474C22.5556 35.5328 22.6478 35.5201 22.7113 35.511C22.743 35.5064 22.7675 35.5027 22.7845 35.5001L22.8042 35.497L22.8097 35.4961L22.8114 35.4959L22.8119 35.4958C22.812 35.4958 22.8121 35.4957 22.8017 35.4317C22.8018 35.4317 22.8018 35.4317 22.8018 35.4317L22.8123 35.4957L23.2125 35.4303L23.2148 35.38C30.9395 34.3339 37.1758 29.0187 39.3245 26.9767C42.2718 28.6875 44.3821 31.2063 44.1683 34.9832C41.8897 37.2133 38.9573 39.1977 35.5369 40.6754C30.3991 42.895 25.169 43.5374 20.8779 42.8047C16.5811 42.0711 13.2916 39.9768 11.8829 36.782L11.8828 36.7819ZM22.7746 35.2653C22.7637 35.1988 22.7497 35.1129 22.7316 35.0023L22.7745 35.2648L22.7746 35.2653Z" fill="#182346" stroke="white"/>
</g>
<path fill-rule="evenodd" clip-rule="evenodd" d="M60.0877 26.737C61.7659 26.737 62.8996 25.7542 62.8996 24.3042C62.8996 23.2518 62.191 22.5969 60.7494 22.5969H58.7878L57.8895 26.737H60.0877ZM58.9529 33.7782C60.7025 33.7782 61.9779 32.7722 61.9779 31.2283C61.9779 30.1527 61.2928 29.404 59.7563 29.404H57.3216L56.401 33.7782H58.9529ZM61.7179 19.8835C64.6961 19.8835 66.1857 21.5445 66.1857 23.7896C66.1857 25.731 64.8143 27.5554 62.9476 28.071C64.0578 28.4211 65.216 29.6381 65.216 31.3686C65.216 34.3393 62.8058 36.4684 59.4015 36.4684H52.6184L56.1634 19.8835H61.7179Z" fill="#182346"/>
<path fill-rule="evenodd" clip-rule="evenodd" d="M65.8784 36.4684L69.4234 19.8835H72.7328L69.1868 36.4684H65.8784Z" fill="#182346"/>
<path fill-rule="evenodd" clip-rule="evenodd" d="M82.5765 30.1549L83.9351 31.7895C84.8578 30.62 85.496 29.0297 85.496 27.1347C85.496 24.3517 83.8882 22.597 81.2649 22.597C78.145 22.597 75.7817 25.5434 75.7817 29.17C75.7817 31.9772 77.4599 33.7077 80.0118 33.7077C80.5318 33.7077 81.0518 33.6381 81.5483 33.4736L79.185 30.1528L82.5765 30.1549ZM81.4535 19.5325C85.9212 19.5325 88.8514 22.5263 88.8514 26.947C88.8514 30.2456 87.6228 32.7723 85.8264 34.4564L88.6755 38.3867H85.0464L83.3917 36.0699C82.2814 36.5613 81.0763 36.8186 79.8701 36.8186C75.4269 36.8186 72.4488 33.8015 72.4488 29.4041C72.4488 23.1116 76.8931 19.5325 81.4535 19.5325Z" fill="#182346"/>
<path fill-rule="evenodd" clip-rule="evenodd" d="M53.1665 40.0865C53.6407 40.0865 53.9497 39.7965 53.9497 39.4085C53.9497 39.1237 53.7536 38.9445 53.3882 38.9445H52.8224L52.5741 40.0865H53.1665ZM52.9406 41.6821C53.3988 41.6821 53.7387 41.3963 53.7387 40.9987C53.7387 40.7182 53.5682 40.5147 53.1516 40.5147H52.4814L52.2342 41.6821H52.9406ZM53.5118 38.5068C54.1351 38.5068 54.459 38.8633 54.459 39.3325C54.459 39.766 54.1702 40.1688 53.7281 40.2901C54.0317 40.3871 54.2576 40.6623 54.2576 41.0188C54.2576 41.6409 53.7387 42.1197 53.012 42.1197H51.6375L52.41 38.5068H53.5118Z" fill="#182346"/>
<path fill-rule="evenodd" clip-rule="evenodd" d="M54.4844 42.1202L55.2569 38.5073H57.4508L57.3527 38.9713H55.6639L55.4263 40.0818H56.9564L56.853 40.551H55.324L55.0864 41.6562H56.7752L56.6783 42.1202H54.4844Z" fill="#182346"/>
<path fill-rule="evenodd" clip-rule="evenodd" d="M59.5404 42.1202L58.3257 39.1949L57.697 42.1202H57.192L57.9645 38.5073H58.5675L59.7258 41.3303L60.3342 38.5073H60.8382L60.0656 42.1202H59.5404Z" fill="#182346"/>
<path fill-rule="evenodd" clip-rule="evenodd" d="M60.7349 42.1202L61.5074 38.5073H63.7003L63.6022 38.9713H61.9134L61.6768 40.0818H63.2059L63.1036 40.551H61.5746L61.3369 41.6562H63.0258L62.9288 42.1202H60.7349Z" fill="#182346"/>
<path fill-rule="evenodd" clip-rule="evenodd" d="M63.4424 42.1202L64.2149 38.5073H66.4088L66.3108 38.9713H64.6219L64.3694 40.1324H65.8984L65.8004 40.6017H64.2714L63.9474 42.1202H63.4424Z" fill="#182346"/>
<path fill-rule="evenodd" clip-rule="evenodd" d="M67.4121 38.2521H66.9134L67.525 37.6458H68.2006L67.4121 38.2521ZM66.0738 42.1202L66.8463 38.5073H67.3609L66.5884 42.1202H66.0738Z" fill="#182346"/>
<path fill-rule="evenodd" clip-rule="evenodd" d="M70.8053 39.577L70.3258 39.7151C70.2278 39.2564 69.873 38.8894 69.2763 38.8894C68.3802 38.8894 67.8752 39.694 67.8752 40.5556C67.8752 41.2895 68.2822 41.743 68.9513 41.743C69.467 41.743 69.8837 41.4678 70.1255 40.9278L70.5688 41.106C70.2704 41.7788 69.6929 42.1964 68.9055 42.1964C68.0041 42.1964 67.3605 41.5342 67.3605 40.5862C67.3605 39.1752 68.36 38.4307 69.3274 38.4307C70.198 38.4307 70.6764 38.9453 70.8053 39.577Z" fill="#182346"/>
<path fill-rule="evenodd" clip-rule="evenodd" d="M70.7018 42.1202L71.4743 38.5073H71.9889L71.2164 42.1202H70.7018Z" fill="#182346"/>
<path fill-rule="evenodd" clip-rule="evenodd" d="M73.8994 38.8889C73.0033 38.8889 72.5035 39.7093 72.5035 40.5709C72.5035 41.3249 72.967 41.7383 73.5957 41.7383C74.4918 41.7383 74.9905 40.9221 74.9905 40.0616C74.9905 39.3065 74.527 38.8889 73.8994 38.8889ZM73.9303 38.4302C74.8828 38.4302 75.5062 39.0576 75.5062 40.0099C75.5062 41.4525 74.512 42.197 73.5701 42.197C72.6175 42.197 71.9889 41.5643 71.9889 40.6215C71.9889 39.1789 72.983 38.4302 73.9303 38.4302Z" fill="#182346"/>
<path fill-rule="evenodd" clip-rule="evenodd" d="M77.4877 41.1825C77.4877 40.9737 77.3748 40.7796 77.0967 40.6573L76.6129 40.4432C76.2059 40.265 75.948 39.9645 75.948 39.511C75.948 38.9099 76.4733 38.4312 77.1745 38.4312C78.0652 38.4312 78.3689 39.0523 78.3689 39.4551L77.8894 39.5469C77.8894 39.3581 77.7967 38.8741 77.1329 38.8741C76.7568 38.8741 76.4638 39.124 76.4638 39.4446C76.4638 39.684 76.5916 39.8474 76.8026 39.9444L77.3023 40.1733C77.7871 40.3979 78.013 40.729 78.013 41.1266C78.013 41.6918 77.5186 42.1969 76.7877 42.1969C75.8351 42.1969 75.4536 41.5547 75.4536 40.9937C75.4536 40.9842 75.4536 40.9536 75.459 40.9178L75.9694 40.8313C75.964 40.8766 75.964 40.9125 75.964 40.9325C75.964 41.3406 76.2006 41.7487 76.7877 41.7487C77.2043 41.7435 77.4877 41.5189 77.4877 41.1825Z" fill="#182346"/>
</svg>
