<svg width="103" height="58" viewBox="0 0 103 58" fill="none" xmlns="http://www.w3.org/2000/svg">
<path d="M95.2065 0H6.80047C3.04467 0 0 3.02891 0 6.76525V49.6119C0 53.3482 3.04467 56.3771 6.80047 56.3771H95.2065C98.9623 56.3771 102.007 53.3482 102.007 49.6119V6.76525C102.007 3.02891 98.9623 0 95.2065 0Z" fill="white"/>
<path d="M61.5418 24.473C61.4148 24.9494 61.4265 27.313 61.5542 27.6938C62.4621 27.6938 63.3791 27.728 64.2919 27.6812C64.8534 27.6523 65.1641 27.2691 65.2121 26.6832C65.2413 26.329 65.2285 25.971 65.2238 25.6148C65.2139 24.8552 64.9375 24.5514 64.178 24.4575C64.0703 24.4442 63.9605 24.4439 63.8517 24.4437C63.2289 24.4425 62.6059 24.4412 61.983 24.4446C61.8316 24.4454 61.6802 24.4636 61.5418 24.473ZM61.4904 33.0029C62.5549 33.0029 63.5503 33.0056 64.5458 32.9993C64.6675 32.9986 64.7901 32.9539 64.9103 32.9221C65.3082 32.8168 65.6013 32.5704 65.6291 32.161C65.6673 31.594 65.6594 31.0198 65.6165 30.4527C65.587 30.0627 65.3092 29.8151 64.9325 29.7138C64.7399 29.662 64.5346 29.6382 64.3346 29.636C63.5402 29.6274 62.7455 29.6303 61.9511 29.6343C61.8021 29.6349 61.6533 29.6602 61.4904 29.6754V33.0029ZM66.3686 28.4709C66.5358 28.53 66.6082 28.5537 66.6795 28.5809C67.7087 28.9739 68.2091 29.6914 68.2143 30.7846C68.2164 31.2497 68.2175 31.7151 68.2141 32.1803C68.2054 33.3729 67.5953 34.2675 66.4579 34.6605C66.0073 34.8162 65.5195 34.9358 65.0464 34.944C63.0984 34.978 61.1496 34.9632 59.2009 34.9644C59.1246 34.9645 59.0481 34.9449 58.9769 34.9351C58.8553 34.5562 58.8471 22.9562 58.9781 22.4939H59.4226C61.0283 22.4939 62.6345 22.4699 64.2393 22.5061C64.8552 22.5201 65.4867 22.6062 66.0779 22.7747C67.1645 23.0843 67.7129 23.8555 67.7472 24.9765C67.7623 25.4723 67.749 25.969 67.7552 26.4651C67.7656 27.2871 67.4206 27.8973 66.6819 28.2796C66.6025 28.3208 66.5287 28.3727 66.3686 28.4709Z" fill="#182346"/>
<mask id="mask0_173_1948" style="mask-type:alpha" maskUnits="userSpaceOnUse" x="22" y="18" width="11" height="21">
<path d="M22.6292 18.7217H32.3375V38.6141H22.6292V18.7217Z" fill="white"/>
</mask>
<g mask="url(#mask0_173_1948)">
<path d="M22.6975 18.7217C23.0435 19.0506 23.3705 19.3538 23.6892 19.6656C25.7243 21.6565 27.7566 23.6501 29.7917 25.6407C30.4701 26.3042 31.161 26.955 31.8339 27.6237C32.497 28.2825 32.5086 29.0172 31.8496 29.6652C29.975 31.5086 28.0883 33.3399 26.2076 35.1771C25.1726 36.1882 24.1403 37.2019 23.1061 38.2138C22.9865 38.3308 22.863 38.4438 22.6823 38.6141C22.6605 38.4229 22.6365 38.3092 22.6363 38.1955C22.6338 36.7833 22.6409 35.3709 22.6292 33.9589C22.627 33.6851 22.7248 33.4958 22.915 33.3101C24.1844 32.0714 25.4457 30.8244 26.7094 29.58C26.7981 29.4926 26.8884 29.4068 26.9734 29.3159C27.3725 28.8882 27.3862 28.4041 26.9802 27.9926C26.2919 27.295 25.5885 26.6119 24.8904 25.924C24.2033 25.2469 23.5106 24.5757 22.8319 23.8905C22.7335 23.7911 22.6453 23.629 22.6442 23.4951C22.632 21.9588 22.6372 20.4225 22.6402 18.8862C22.6402 18.8469 22.6666 18.8076 22.6975 18.7217Z" fill="#182346"/>
</g>
<mask id="mask1_173_1948" style="mask-type:alpha" maskUnits="userSpaceOnUse" x="11" y="18" width="10" height="21">
<path d="M11.2352 18.7224H20.9407V38.6046H11.2352V18.7224Z" fill="white"/>
</mask>
<g mask="url(#mask1_173_1948)">
<path d="M20.9112 18.7732C20.9185 18.893 20.9319 19.0129 20.9321 19.1328C20.9335 20.5294 20.9266 21.926 20.9383 23.3224C20.9407 23.6092 20.8525 23.8099 20.6438 24.0122C19.3144 25.3007 17.9967 26.6008 16.6818 27.9037C16.1491 28.4316 16.1585 28.8853 16.7027 29.4236C17.9968 30.7035 19.2905 31.9839 20.597 33.2512C20.8393 33.4862 20.9453 33.724 20.9406 34.0644C20.9221 35.3987 20.9331 36.7333 20.9331 38.0679V38.6046C20.7709 38.48 20.6695 38.417 20.5862 38.3356C19.35 37.1299 18.1168 35.9213 16.8818 34.7145C15.1908 33.0619 13.5006 31.4085 11.8065 29.7589C11.0624 29.0344 11.0375 28.3033 11.7769 27.5802C14.535 24.883 17.3013 22.1941 20.0618 19.4992C20.3168 19.2502 20.5527 18.9818 20.7974 18.7224C20.8353 18.7394 20.8732 18.7562 20.9112 18.7732Z" fill="#182346"/>
</g>
<path d="M53.6574 30.2994C53.0432 28.3709 52.4469 26.4982 51.8505 24.6255C51.8142 24.6293 51.7778 24.633 51.7413 24.6366C51.1591 26.508 50.5768 28.3794 49.9795 30.2994H53.6574ZM53.588 22.533C54.9875 26.6479 56.3851 30.7573 57.7826 34.8661C57.4279 34.9897 56.0402 35.0215 55.1603 34.9312C55.1043 34.7856 55.0327 34.6189 54.9756 34.4474C54.7842 33.8736 54.5884 33.3011 54.4144 32.722C54.3387 32.47 54.1978 32.3793 53.9407 32.3806C52.521 32.3874 51.1012 32.3893 49.6816 32.3788C49.3943 32.3766 49.2704 32.4962 49.188 32.7568C48.9589 33.4804 48.7048 34.196 48.4532 34.9367H45.8382C45.8656 34.8007 45.8765 34.6822 45.9136 34.5726C47.1554 30.9145 48.3964 27.2562 49.6462 23.6009C49.9204 22.799 50.3698 22.498 51.2276 22.4947C51.9453 22.492 52.6629 22.4966 53.3806 22.4995C53.4263 22.4997 53.4719 22.5137 53.588 22.533Z" fill="#182346"/>
<path d="M74.8628 24.6361C74.8239 24.6392 74.7851 24.6423 74.7461 24.6454C74.1644 26.5146 73.5827 28.384 72.9766 30.3314C74.2371 30.3353 75.4225 30.3432 76.6737 30.3271C76.0519 28.3731 75.4574 26.5046 74.8628 24.6361ZM71.4622 34.9427H68.8349C68.8736 34.7794 68.8941 34.6468 68.9366 34.5215C70.1439 30.9661 71.3502 27.4104 72.5646 23.8574C72.8624 22.9862 73.5488 22.507 74.4804 22.4958C75.1651 22.4876 75.85 22.4942 76.5818 22.4942C77.9896 26.6345 79.3904 30.7542 80.8232 34.968C80.5284 34.968 80.3314 34.9681 80.1344 34.968C79.6039 34.9678 79.0732 34.957 78.5431 34.9718C78.269 34.9795 78.1181 34.8936 78.0372 34.6171C77.8631 34.022 77.657 33.4361 77.463 32.8468C77.3129 32.3909 77.3123 32.385 76.8474 32.384C75.4899 32.3807 74.1324 32.3807 72.775 32.3841C72.3252 32.3852 72.3219 32.3904 72.1793 32.81C71.9402 33.5129 71.7058 34.2174 71.4622 34.9427Z" fill="#182346"/>
<path d="M44.8072 24.231C44.5731 24.2415 44.4053 24.2551 44.2375 24.2555C43.2081 24.2575 42.1785 24.2419 41.1497 24.2645C40.7806 24.2726 40.4058 24.341 40.0473 24.434C39.5179 24.5713 39.1996 24.94 39.0929 25.4729C39.0475 25.6994 39.0167 25.933 39.0158 26.1636C39.0092 27.746 39.0111 29.3286 39.014 30.9112C39.0143 31.081 39.024 31.2532 39.0532 31.4201C39.1871 32.1866 39.5894 32.5985 40.3665 32.7275C40.7336 32.7884 41.1097 32.8107 41.4824 32.8195C42.1059 32.8342 42.7301 32.816 43.3538 32.8265C44.1574 32.8399 44.6242 33.3041 44.6492 34.1025C44.6575 34.3623 44.6506 34.6226 44.6506 34.9073C44.4751 34.9289 44.3559 34.956 44.2366 34.9563C43.1294 34.9594 42.0218 34.9725 40.9148 34.9525C40.1972 34.9394 39.4856 34.847 38.7976 34.6209C37.2871 34.1241 36.4964 33.0745 36.4859 31.4955C36.4732 29.5872 36.4806 27.6788 36.4825 25.7704C36.4846 23.8439 37.4225 22.6863 39.3298 22.3135C39.9223 22.1978 40.5334 22.1524 41.1381 22.1285C41.9167 22.0979 42.6975 22.1162 43.4772 22.1228C44.2905 22.1298 44.7843 22.617 44.8062 23.4252C44.8129 23.6716 44.8072 23.9184 44.8072 24.231Z" fill="#182346"/>
<mask id="mask2_173_1948" style="mask-type:alpha" maskUnits="userSpaceOnUse" x="81" y="22" width="9" height="13">
<path d="M81.7122 22.3096H89.7721V34.9725H81.7122V22.3096Z" fill="white"/>
</mask>
<g mask="url(#mask2_173_1948)">
<path d="M81.7353 34.8915C81.7282 34.7359 81.7139 34.5695 81.7139 34.4032C81.7127 30.9291 81.7081 27.4552 81.7214 23.9813C81.7226 23.666 81.7898 23.3288 81.9169 23.0415C82.1125 22.5994 82.5164 22.3681 82.9941 22.3264C83.3784 22.293 83.768 22.3196 84.2088 22.3196C84.226 22.5529 84.2542 22.7621 84.2544 22.9712C84.2573 26.042 84.2558 29.1127 84.258 32.1834C84.2581 32.3955 84.2792 32.6075 84.2925 32.857C84.5135 32.8711 84.6955 32.8923 84.8777 32.8927C86.2807 32.8955 87.6837 32.894 89.0868 32.8946C89.227 32.8947 89.3673 32.8983 89.5074 32.9031C89.6748 32.9087 89.7697 32.9954 89.7705 33.1631C89.7733 33.7346 89.7716 34.3061 89.7716 34.8621C89.3844 34.9926 82.2654 35.0136 81.7353 34.8915Z" fill="#182346"/>
</g>
</svg>
