<svg width="1417" height="1427" viewBox="0 0 1417 1427" fill="none" xmlns="http://www.w3.org/2000/svg">
<mask id="path-1-inside-1_384_528" fill="white">
<path d="M1454 690.5C1454 593.781 1435.2 498.01 1398.66 408.654C1362.13 319.297 1308.57 238.106 1241.07 169.716C1173.56 101.325 1093.41 47.0753 1005.21 10.0627C917.007 -26.9499 822.471 -46 727 -46C631.529 -46 536.993 -26.9499 448.789 10.0627C360.585 47.0753 280.442 101.326 212.933 169.716C145.425 238.106 91.8747 319.297 55.3396 408.654C18.8044 498.01 -8.34634e-06 593.782 0 690.5L727 690.5H1454Z"/>
</mask>
<path d="M1454 690.5C1454 593.781 1435.2 498.01 1398.66 408.654C1362.13 319.297 1308.57 238.106 1241.07 169.716C1173.56 101.325 1093.41 47.0753 1005.21 10.0627C917.007 -26.9499 822.471 -46 727 -46C631.529 -46 536.993 -26.9499 448.789 10.0627C360.585 47.0753 280.442 101.326 212.933 169.716C145.425 238.106 91.8747 319.297 55.3396 408.654C18.8044 498.01 -8.34634e-06 593.782 0 690.5L727 690.5H1454Z" fill="white" fill-opacity="0.01" stroke="white" stroke-opacity="0.01" stroke-width="2" mask="url(#path-1-inside-1_384_528)"/>
<mask id="path-2-inside-2_384_528" fill="white">
<path d="M1300 690.5C1300 615.851 1285.46 541.932 1257.22 472.965C1228.98 403.998 1187.58 341.333 1135.39 288.548C1083.21 235.763 1021.25 193.891 953.068 165.324C884.883 136.757 811.803 122.054 738 122.054C664.197 122.054 591.117 136.757 522.932 165.324C454.747 193.891 392.792 235.763 340.606 288.548C288.419 341.333 247.023 403.998 218.78 472.965C190.537 541.932 176 615.851 176 690.5L738 690.5H1300Z"/>
</mask>
<path d="M1300 690.5C1300 615.851 1285.46 541.932 1257.22 472.965C1228.98 403.998 1187.58 341.333 1135.39 288.548C1083.21 235.763 1021.25 193.891 953.068 165.324C884.883 136.757 811.803 122.054 738 122.054C664.197 122.054 591.117 136.757 522.932 165.324C454.747 193.891 392.792 235.763 340.606 288.548C288.419 341.333 247.023 403.998 218.78 472.965C190.537 541.932 176 615.851 176 690.5L738 690.5H1300Z" fill="white" fill-opacity="0.01" stroke="white" stroke-opacity="0.01" stroke-width="2" mask="url(#path-2-inside-2_384_528)"/>
<mask id="path-3-inside-3_384_528" fill="white">
<path d="M1098 691.006C1098 591.394 1058.91 495.861 989.337 425.424C919.761 354.987 825.395 315.417 727 315.417C628.605 315.416 534.239 354.987 464.663 425.424C395.087 495.861 356 591.394 356 691.006L727 691.006H1098Z"/>
</mask>
<path d="M1098 691.006C1098 591.394 1058.91 495.861 989.337 425.424C919.761 354.987 825.395 315.417 727 315.417C628.605 315.416 534.239 354.987 464.663 425.424C395.087 495.861 356 591.394 356 691.006L727 691.006H1098Z" fill="white" fill-opacity="0.01" stroke="white" stroke-opacity="0.01" stroke-width="2" mask="url(#path-3-inside-3_384_528)"/>
</svg>
