<svg width="103" height="58" viewBox="0 0 103 58" fill="none" xmlns="http://www.w3.org/2000/svg">
<path d="M96.0995 0H6.86425C3.07323 0 0 3.05732 0 6.82871V50.0772C0 53.8486 3.07323 56.9059 6.86425 56.9059H96.0995C99.8905 56.9059 102.964 53.8486 102.964 50.0772V6.82871C102.964 3.05732 99.8905 0 96.0995 0Z" fill="white"/>
<path d="M27.0128 21.6841C27.8066 21.4295 28.6533 21.2938 29.5317 21.2938C33.3771 21.2938 36.5874 23.9212 37.3212 27.4142L42.7717 26.3449C41.5228 20.4112 36.0688 15.9438 29.5317 15.9438C28.0324 15.9438 26.5966 16.1781 25.2489 16.6126L27.0128 21.6841Z" fill="#182346"/>
<path d="M20.5816 38.6775L24.2682 34.6685C22.6242 33.2665 21.587 31.2196 21.587 28.9384C21.587 26.6606 22.6242 24.6136 24.2682 23.2151L20.5816 19.2026C17.7876 21.5857 16.0236 25.0651 16.0236 28.9384C16.0236 32.815 17.7876 36.2945 20.5816 38.6775Z" fill="#182346"/>
<path d="M37.3212 30.4727C36.5839 33.9623 33.3771 36.5863 29.5353 36.5863C28.6533 36.5863 27.8031 36.4506 27.0128 36.1926L25.2489 41.2709C26.5966 41.702 28.0359 41.9363 29.5353 41.9363C36.0653 41.9363 41.5158 37.4757 42.7717 31.5487L37.3212 30.4727Z" fill="#182346"/>
<path d="M47.3039 35.0656C47.1275 34.7834 46.8922 34.3327 46.7469 33.9989C45.8992 32.0446 45.8611 30.0214 46.5739 28.0809C47.3593 25.951 48.861 24.3236 50.802 23.4909C53.2414 22.4484 55.9367 22.6514 58.2757 24.0311C59.7601 24.8775 60.8119 26.185 61.6112 28.0361C61.7115 28.2735 61.8015 28.5247 61.8915 28.7415L47.3039 35.0656ZM52.1757 26.6323C50.4422 27.3721 49.5495 28.9892 49.7364 30.8816L57.0716 27.7402C55.8087 26.2676 54.1687 25.779 52.1757 26.6323ZM57.9851 33.4656C57.9816 33.4656 57.9816 33.4691 57.9816 33.4691L57.8294 33.3658C57.3899 34.0712 56.7083 34.6458 55.8468 35.0174C54.2067 35.7262 52.6878 35.5438 51.5944 34.5908L51.494 34.7421C51.494 34.7421 51.4941 34.7387 51.4906 34.7387L49.6291 37.5085C50.0927 37.8285 50.5875 38.0969 51.1065 38.3136C53.1618 39.1635 55.2655 39.1222 57.338 38.2276C58.8362 37.5808 60.0127 36.5967 60.8154 35.3477L57.9851 33.4656Z" fill="#182346"/>
<path d="M67.1935 19.7656V34.8628L69.8009 35.8144L68.3211 38.9256L65.4439 37.8458C64.7996 37.5927 64.3575 37.208 64.0278 36.7727C63.7094 36.3307 63.4734 35.7199 63.4734 34.9033V19.7656H67.1935Z" fill="#182346"/>
<path d="M73.6546 30.8767C73.6546 29.5695 74.2599 28.3961 75.2126 27.6001L72.6554 24.8691C70.9219 26.3376 69.8296 28.4819 69.8296 30.8698C69.826 33.2612 70.9184 35.4089 72.6482 36.8773L75.2018 34.1463C74.2527 33.3469 73.6546 32.1804 73.6546 30.8767Z" fill="#182346"/>
<path d="M78.196 35.2306C77.6945 35.2306 77.2075 35.1483 76.7562 35.0042L75.5349 38.4797C76.3694 38.7473 77.2612 38.8949 78.1924 38.8949C82.2395 38.8983 85.6168 36.1467 86.4012 32.4928L82.6478 31.7585C82.2216 33.745 80.3914 35.2341 78.196 35.2306Z" fill="#182346"/>
<path d="M78.2067 22.8586C77.2791 22.8586 76.3873 23.0027 75.5528 23.2669L76.7634 26.7459C77.2182 26.6018 77.7017 26.5229 78.2031 26.5229C80.4022 26.5263 82.2359 28.0222 82.6514 30.0121L86.4048 29.2847C85.6347 25.624 82.2574 22.8621 78.2067 22.8586Z" fill="#182346"/>
</svg>
