<svg width="103" height="58" viewBox="0 0 103 58" fill="none" xmlns="http://www.w3.org/2000/svg">
<path d="M95.8414 0H6.84581C3.06497 0 0 3.03341 0 6.77532V49.6857C0 53.4276 3.06497 56.461 6.84581 56.461H95.8414C99.6222 56.461 102.687 53.4276 102.687 49.6857V6.77532C102.687 3.03341 99.6222 0 95.8414 0Z" fill="white"/>
<path fill-rule="evenodd" clip-rule="evenodd" d="M12.431 37.5663C12.7085 37.0651 12.977 36.5587 13.2656 36.0634C16.1409 31.1308 20.012 27.1579 24.96 24.2347C27.3699 22.8115 29.9394 21.767 32.6827 21.155C32.7394 21.1418 32.7968 21.1351 32.8677 21.1558C32.6581 21.2909 32.447 21.423 32.2396 21.561C26.3048 25.5044 22.0489 30.7669 19.5361 37.3987C19.5108 37.4666 19.4943 37.5368 19.4735 37.6055C17.1792 37.6055 14.8849 37.6062 12.5906 37.6039C12.5377 37.6039 12.484 37.5796 12.431 37.5663Z" fill="#182346"/>
<path fill-rule="evenodd" clip-rule="evenodd" d="M20.3136 37.6056C20.7089 36.4806 21.2012 35.3962 21.7457 34.3347C23.4149 31.0838 25.5965 28.21 28.2593 25.6928C29.5869 24.4372 31.0152 23.3048 32.548 22.3031C32.5972 22.2706 32.6487 22.2411 32.7233 22.1953C32.5577 22.9032 32.3988 23.5875 32.2384 24.2711C31.7208 26.4849 31.2106 28.7009 30.6826 30.9125C30.25 32.7247 29.2505 34.1989 27.8498 35.4147C26.6639 36.4444 25.3042 37.1509 23.749 37.4624C23.4723 37.5178 23.1926 37.5584 22.9144 37.6056H20.3136Z" fill="#182346"/>
<path fill-rule="evenodd" clip-rule="evenodd" d="M46.2732 23.9868C46.5186 24.0311 46.573 24.1167 46.5238 24.3588C46.1576 26.1784 45.7817 27.9958 45.4236 29.8169C45.3125 30.3838 45.2334 30.9574 45.17 31.5325C45.1499 31.7207 45.2014 31.9266 45.2603 32.1127C45.4393 32.684 45.8644 32.9763 46.4425 33.0649C47.5844 33.2406 48.689 32.9025 49.3066 31.8041C49.5162 31.4321 49.6624 31.0076 49.7511 30.5891C50.1867 28.5222 50.5962 26.4501 51.0087 24.378C51.0542 24.1506 51.1772 24.003 51.3965 23.9927C51.8858 23.9698 52.3788 23.9521 52.8673 23.9838C53.2075 24.0052 53.2395 24.0945 53.1724 24.4282C52.7428 26.5571 52.3191 28.6875 51.8821 30.8149C51.6367 32.0071 51.128 33.0605 50.1479 33.8444C49.4349 34.4158 48.6062 34.714 47.7067 34.8321C47.3703 34.8764 47.0302 34.8912 46.8124 34.9089C46.03 34.886 45.3759 34.8329 44.7471 34.6055C43.609 34.1943 42.9653 33.3019 42.9175 32.1016C42.8862 31.3199 43.0645 30.5706 43.2159 29.8154C43.5806 28.0025 43.955 26.191 44.3153 24.3773C44.3615 24.1447 44.4883 24.0288 44.7031 23.9905C45.226 23.8982 45.7503 23.8923 46.2732 23.9868ZM60.7937 24.1055C61.0465 24.1934 61.28 24.3447 61.512 24.4835C61.729 24.6141 61.8476 24.8238 61.8006 25.0711C61.7238 25.4756 61.638 25.8823 61.5067 26.2714C61.4187 26.5305 61.2241 26.56 61.0227 26.3777C59.7816 25.2542 57.817 25.342 56.6385 26.9202C55.9583 27.8311 55.5921 28.8631 55.4466 29.9778C55.375 30.5233 55.3564 31.0703 55.5085 31.6069C55.7755 32.5496 56.4625 33.0279 57.5455 33.039C58.3346 33.0471 59.0484 32.8094 59.7174 32.4101C59.8293 32.3429 59.9531 32.2898 60.0784 32.2521C60.2253 32.2086 60.3253 32.2898 60.3201 32.4315C60.3014 32.96 60.2276 33.4819 59.9814 33.9588C59.9248 34.0673 59.801 34.1529 59.6913 34.2208C59.0267 34.6313 57.9766 34.8808 56.9719 34.8793C56.3066 34.8874 55.6569 34.7981 55.0409 34.5397C53.9653 34.0887 53.3552 33.2516 53.1307 32.148C52.8137 30.586 53.0934 29.0794 53.6923 27.6267C54.201 26.3932 54.9573 25.3339 56.1253 24.6245C57.5932 23.7335 59.1565 23.5408 60.7937 24.1055ZM77.4196 23.9861C77.9872 23.9957 78.5436 24.0998 79.0672 24.3345C79.9727 24.7383 80.4262 25.5149 80.3561 26.4922C80.233 28.1834 79.3067 29.2361 77.709 29.7889C78.3587 30.1344 78.5757 30.7442 78.7212 31.3687C78.9486 32.3431 79.1262 33.3285 79.3186 34.3096C79.3656 34.5487 79.3059 34.6691 79.0575 34.6824C78.4623 34.7141 77.8634 34.7097 77.2667 34.7001C77.0967 34.6971 76.99 34.5775 76.9587 34.3915C76.8088 33.5219 76.6588 32.6524 76.4895 31.7865C76.4366 31.5185 76.3478 31.2505 76.233 31.0018C76.0368 30.5759 75.6736 30.3566 75.2059 30.3271C74.9217 30.3086 74.6346 30.3234 74.3347 30.3234C74.2132 30.9191 74.0923 31.5111 73.973 32.1031C73.8216 32.8517 73.6694 33.5994 73.5225 34.3487C73.4874 34.5251 73.389 34.6366 73.2167 34.6735C72.6566 34.7946 72.0927 34.7975 71.531 34.6883C71.3058 34.6447 71.2722 34.5642 71.3147 34.3531C71.9614 31.1598 72.6088 27.9664 73.2532 24.7723C73.3741 24.1736 73.606 23.975 74.2184 23.9758C75.2857 23.9772 76.353 23.9699 77.4196 23.9861ZM66.9148 23.9386C67.5405 23.9548 68.1663 23.96 68.7913 23.9814C68.9994 23.988 69.1016 24.1209 69.1322 24.3261C69.4611 26.5414 69.7953 28.7552 70.1242 30.9705C70.2831 32.0394 70.436 33.1083 70.5837 34.1779C70.6366 34.564 70.5449 34.7027 70.1511 34.7256C69.661 34.7537 69.1665 34.73 68.675 34.7204C68.4818 34.716 68.3856 34.6149 68.3602 34.4119C68.2715 33.7003 68.1671 32.9909 68.0649 32.2593C66.8849 32.2593 65.7244 32.2859 64.566 32.2468C64.114 32.2313 63.8806 32.3634 63.7038 32.7716C63.4733 33.3017 63.1579 33.7948 62.8975 34.3122C62.7678 34.5691 62.5828 34.7182 62.2949 34.7212C61.8228 34.7271 61.3499 34.7396 60.8792 34.716C60.6182 34.7027 60.5503 34.564 60.6458 34.3167C60.7159 34.1329 60.8032 33.9542 60.8979 33.7822C62.6134 30.6774 64.3348 27.5763 66.0421 24.4671C66.242 24.1047 66.506 23.9275 66.9148 23.9386ZM85.9837 23.99C86.6371 24.004 87.2815 24.1096 87.8968 24.3429C89.2207 24.8448 89.93 25.8118 90.0979 27.1893C90.1031 27.2306 90.1232 27.269 90.1366 27.3096V28.6162C90.0971 28.845 90.0568 29.0739 90.0173 29.3027C89.7585 30.8234 89.1745 32.1801 87.9863 33.2291C87.1159 33.9983 86.0814 34.4338 84.9395 34.5866C84.2294 34.6811 83.5059 34.6892 82.7877 34.7092C82.0881 34.7276 81.3877 34.7128 80.6881 34.7128C80.6217 34.7128 80.5538 34.7158 80.4882 34.7092C80.1197 34.673 79.9549 34.4906 80.0101 34.1282C80.0802 33.6742 80.1801 33.2232 80.2711 32.7722C80.7045 30.6307 81.1386 28.49 81.5734 26.3485C81.6912 25.7683 81.8054 25.1873 81.9307 24.6079C82.0202 24.1952 82.2797 23.9804 82.7041 23.9789C83.7968 23.9753 84.891 23.9671 85.9837 23.99ZM37.7099 23.9707C39.4171 23.9856 41.1237 23.9753 42.8302 23.9753C43.1233 23.9753 43.2024 24.0328 43.1629 24.3229C43.1121 24.6839 43.0271 25.0427 42.9264 25.394C42.8675 25.6022 42.7027 25.6893 42.4647 25.6871C41.2982 25.6768 40.1317 25.6827 38.9651 25.6827H38.7354C38.5549 26.5648 38.3796 27.4218 38.1999 28.301L41.3825 28.3017C41.6309 28.3017 41.7345 28.3756 41.7025 28.6132C41.6525 28.9757 41.5704 29.3359 41.4705 29.6873C41.4146 29.8844 41.2572 29.9745 41.0252 29.9722C40.0519 29.9597 39.0785 29.9671 38.1052 29.9671H37.8732C37.6659 30.9799 37.4607 31.9838 37.2504 33.0069H37.4928C38.6862 33.0069 39.8796 33.0062 41.073 33.0069C41.3109 33.0069 41.3601 33.046 41.3706 33.2741C41.3885 33.675 41.3072 34.0603 41.1475 34.4279C41.061 34.6265 40.9171 34.7187 40.6791 34.718C38.939 34.7092 37.1989 34.7128 35.4588 34.7128C34.945 34.7128 34.7622 34.4862 34.8644 33.985C35.485 30.9149 36.1055 27.8448 36.7223 24.774C36.8238 24.2661 37.0542 23.9649 37.7099 23.9707ZM83.9094 25.6805C83.4134 28.1179 82.9227 30.5347 82.4267 32.9729C82.9532 32.9729 83.4522 32.987 83.9505 32.97C85.1446 32.9294 86.109 32.4333 86.8049 31.4722C87.6044 30.3672 87.8923 29.1078 87.8028 27.7702C87.7327 26.705 87.139 26.0259 86.1366 25.7853C85.4019 25.6088 84.6531 25.7063 83.9094 25.6805ZM67.2288 26.0623C66.4307 27.5645 65.6334 29.066 64.8301 30.5792H67.8821C67.677 29.0689 67.4734 27.5712 67.2698 26.0734C67.2556 26.0697 67.2422 26.066 67.2288 26.0623ZM75.417 25.6426C75.3663 25.6418 75.3155 25.6522 75.2693 25.6573C75.0657 26.6723 74.865 27.6704 74.6607 28.6905H74.8524C75.3178 28.6772 75.7869 28.6972 76.2479 28.644C77.1437 28.5414 77.7642 27.9701 77.9529 27.133C78.1364 26.3195 77.8157 25.7961 76.9915 25.6847C76.4739 25.6145 75.9421 25.6514 75.417 25.6426Z" fill="#182346"/>
<path fill-rule="evenodd" clip-rule="evenodd" d="M13.0913 34.7718C13.28 33.9643 13.4561 33.2157 13.6306 32.4657C13.9946 30.9023 14.3429 29.3344 14.7263 27.7746C15.185 25.9114 16.2232 24.3996 17.6926 23.172C18.9165 22.1497 20.3068 21.4602 21.8947 21.1959C22.2416 21.1383 22.5966 21.0977 22.9472 21.097C25.2213 21.0874 27.4954 21.0918 29.7696 21.0918H29.9128C22.6555 23.6725 17.2025 28.3681 13.0913 34.7718Z" fill="#182346"/>
</svg>
