<svg width="103" height="58" viewBox="0 0 103 58" fill="none" xmlns="http://www.w3.org/2000/svg">
<path d="M96.1333 0H6.86667C3.07431 0 0 3.1161 0 6.96V51.04C0 54.8839 3.07431 58 6.86667 58H96.1333C99.9257 58 103 54.8839 103 51.04V6.96C103 3.1161 99.9257 0 96.1333 0Z" fill="white"/>
<mask id="mask0_173_2154" style="mask-type:alpha" maskUnits="userSpaceOnUse" x="28" y="22" width="11" height="9">
<path d="M28.2051 22.3479H38.0907V30.1245H28.2051V22.3479Z" fill="white"/>
</mask>
<g mask="url(#mask0_173_2154)">
<path fill-rule="evenodd" clip-rule="evenodd" d="M30.2419 30.1221V24.6786L30.2615 24.6746C30.9183 26.4873 31.5752 28.3 32.2329 30.1152C32.3073 30.1188 32.3657 30.1241 32.4241 30.1242C32.906 30.1247 33.3879 30.1246 33.8698 30.1239C34.066 30.1237 34.0678 30.1235 34.1359 29.9354C34.6632 28.4813 35.1896 27.027 35.7164 25.5728C35.8214 25.2829 35.9268 24.9931 36.0321 24.7033C36.0374 24.7055 36.0429 24.7076 36.0483 24.7098V26.5161C36.0483 27.1116 36.0481 27.7071 36.0483 28.3026C36.0485 28.9021 36.0474 29.5016 36.049 30.1111H38.0577C38.0718 30.0858 38.0836 30.0745 38.0837 30.0633C38.0867 27.5611 38.089 25.0589 38.0907 22.5568C38.0907 22.5036 38.0839 22.4505 38.0791 22.3975C38.0787 22.3922 38.0707 22.3876 38.0662 22.3827C38.0616 22.378 38.0569 22.3733 38.047 22.3633H34.8859C34.3163 23.9634 33.7523 25.5477 33.1736 27.1733C32.5883 25.5403 32.0184 23.9501 31.4526 22.3711C31.0186 22.3301 28.37 22.3478 28.2289 22.3899C28.1882 22.6637 28.2023 29.9665 28.2504 30.1243C28.9064 30.1231 29.5688 30.1264 30.2419 30.1221Z" fill="#182346"/>
</g>
<path fill-rule="evenodd" clip-rule="evenodd" d="M75.8372 30.084V25.3029C75.879 25.359 75.8956 25.3791 75.9098 25.4008C76.3915 26.1359 76.8732 26.871 77.3536 27.607C77.3821 27.6506 77.3997 27.7015 77.4224 27.7491L77.4187 27.745L77.4147 27.7545L77.4221 27.7493C77.4883 27.8375 77.559 27.9226 77.6195 28.0146C78.0477 28.6654 78.4766 29.3157 78.8977 29.9712C78.972 30.087 79.0532 30.1272 79.187 30.1261C79.8865 30.1201 80.5862 30.124 81.2858 30.1237C81.3439 30.1236 81.4019 30.1173 81.4502 30.1145C81.4666 30.0894 81.475 30.0789 81.4807 30.0671C81.4864 30.0552 81.4913 30.0421 81.4928 30.0292C81.496 30.0027 81.4981 29.976 81.4981 29.9493C81.4981 27.4606 81.4981 24.972 81.4973 22.4833C81.4973 22.4572 81.4886 22.4311 81.4828 22.4052C81.4815 22.3991 81.4759 22.3939 81.4718 22.3887C81.4679 22.3835 81.4634 22.3788 81.4591 22.3739C81.2122 22.3387 79.5926 22.3498 79.4298 22.3936V27.0113C79.1431 26.5762 78.8797 26.1762 78.6161 25.7763C77.8944 24.6814 77.171 23.5877 76.4531 22.4902C76.3859 22.3874 76.3132 22.3544 76.1961 22.3551C75.4503 22.3594 74.7045 22.3565 73.9586 22.3571C73.9014 22.3572 73.8441 22.3657 73.7776 22.371V30.0941C73.9824 30.1396 75.6709 30.1342 75.8372 30.084Z" fill="#182346"/>
<path fill-rule="evenodd" clip-rule="evenodd" d="M58.5785 38.0879C58.6997 38.2104 58.821 38.3329 58.9422 38.4553C58.821 38.3329 58.6997 38.2104 58.5785 38.0879ZM57.4433 35.4229C57.3055 35.5219 57.1523 35.5772 56.9822 35.579C56.7845 35.5813 56.5868 35.5838 56.3891 35.5841C55.8422 35.5847 55.2954 35.5843 54.7365 35.5843V34.1047C54.7893 34.1005 54.8337 34.094 54.8782 34.0939C55.5439 34.0935 56.2097 34.0943 56.8754 34.0938C57.0707 34.0936 57.255 34.1321 57.4175 34.2473C57.4469 34.2683 57.4678 34.3017 57.4921 34.3301L57.4877 34.3403L57.495 34.3336L57.4923 34.3299C57.8213 34.6074 57.7966 35.1689 57.4433 35.4229ZM58.7154 38.2687C58.6719 38.2204 58.6377 38.1635 58.5992 38.1106L58.6046 38.1136C58.6046 38.1105 58.6046 38.1075 58.6046 38.1044C58.6069 38.1018 58.6088 38.0993 58.6085 38.0971C58.6078 38.0928 58.6064 38.0887 58.6047 38.0846L58.6047 38.0671C58.5894 38.0672 58.574 38.0673 58.5587 38.0673C58.5587 38.0673 58.5587 38.0673 58.5587 38.0673C58.5587 38.0673 58.5587 38.0673 58.5587 38.0673L58.5616 38.0727C58.3793 37.9194 57.8946 37.3732 57.8309 37.2488C57.9006 37.2287 57.9709 37.211 58.0396 37.1883C58.8018 36.9359 59.368 36.4656 59.6604 35.6904C59.7926 35.3398 59.8244 34.9762 59.8015 34.6057C59.7546 33.8474 59.4449 33.233 58.8259 32.7899C58.3343 32.4379 57.7749 32.2908 57.1857 32.2857C55.7336 32.2732 54.2813 32.2808 52.8291 32.2814C52.7724 32.2814 52.7157 32.2915 52.6561 32.2972V40.0355H54.7237V37.3527C54.9081 37.3527 55.0664 37.3632 55.2227 37.3497C55.3776 37.3363 55.4769 37.3991 55.5748 37.5145C56.2503 38.3105 56.9319 39.1013 57.611 39.8942C57.6848 39.9804 57.7515 40.0537 57.8868 40.0523C58.6392 40.0446 59.3918 40.0489 60.1443 40.0476C60.1847 40.0476 60.2251 40.0334 60.2861 40.022C60.2474 39.9704 60.2266 39.9378 60.2011 39.9096C59.706 39.3625 59.2099 38.8163 58.7154 38.2687Z" fill="#182346"/>
<path fill-rule="evenodd" clip-rule="evenodd" d="M52.4529 24.9724C52.4348 25.2866 52.2329 25.5319 51.9186 25.6125C51.83 25.6352 51.7375 25.6542 51.6467 25.6547C50.9545 25.6585 50.2623 25.6574 49.57 25.6572C49.5387 25.6572 49.5074 25.6512 49.4675 25.6471V24.1626C49.5147 24.1581 49.5646 24.1492 49.6144 24.1492C50.2539 24.1483 50.8934 24.1436 51.5328 24.1525C51.6879 24.1547 51.8493 24.1825 51.9957 24.2338C52.3095 24.3439 52.4728 24.6248 52.4529 24.9724ZM55.0429 30.1022C54.9037 29.9465 54.7842 29.8165 54.669 29.6826C54.5885 29.5891 54.5139 29.4905 54.4368 29.394C54.4069 29.3707 54.3735 29.3506 54.3483 29.3229C53.7841 28.7041 53.2206 28.0845 52.6578 27.4643C52.6202 27.4229 52.5891 27.3753 52.5484 27.3219C52.6137 27.3028 52.6641 27.2887 52.7142 27.2732C53.4061 27.0599 53.956 26.6673 54.2906 25.9986C54.5088 25.5625 54.5738 25.1007 54.5345 24.6182C54.4719 23.8503 54.1353 23.2412 53.5009 22.8139C53.0381 22.5022 52.5159 22.3639 51.9654 22.361C50.4937 22.3532 49.0219 22.3572 47.5502 22.3575C47.4997 22.3575 47.4492 22.3681 47.4025 22.3732C47.3633 22.6061 47.3715 29.9484 47.4089 30.0992C47.6029 30.138 49.2872 30.1334 49.4531 30.0883V27.4223C49.6683 27.4223 49.865 27.4301 50.0607 27.4192C50.167 27.4133 50.2222 27.4505 50.247 27.5485C50.2893 27.5859 50.3357 27.6197 50.3722 27.6621C51.0434 28.4413 51.7147 29.2204 52.3815 30.0034C52.4522 30.0864 52.5193 30.1274 52.631 30.1266C53.3818 30.1214 54.1328 30.1239 54.8837 30.1227C54.9254 30.1227 54.9671 30.1123 55.0429 30.1022Z" fill="#182346"/>
<mask id="mask1_173_2154" style="mask-type:alpha" maskUnits="userSpaceOnUse" x="60" y="32" width="8" height="9">
<path d="M60.8214 32.2776H67.3255V40.0528H60.8214V32.2776Z" fill="white"/>
</mask>
<g mask="url(#mask1_173_2154)">
<path fill-rule="evenodd" clip-rule="evenodd" d="M64.0425 34.0935H65.1316C65.4946 34.0935 65.8576 34.0968 66.2206 34.0926C66.5809 34.0885 66.9423 34.1116 67.2972 34.0759C67.3383 33.8626 67.3326 32.4519 67.2938 32.3043C67.0749 32.2626 60.9965 32.2725 60.8541 32.3149C60.8052 32.5074 60.8137 39.8744 60.863 40.0271C61.09 40.068 67.1625 40.0574 67.3106 40.014V38.2556H62.9379C62.9015 37.9361 62.9145 37.2126 62.9586 37.0693H64.3603C64.8356 37.0693 65.3108 37.0697 65.786 37.0692C66.2523 37.0687 66.7187 37.0715 67.1973 37.0673V35.2569C65.7709 35.2548 64.3562 35.257 62.9455 35.2555C62.9058 35.009 62.9146 34.2426 62.958 34.0935C63.3173 34.0935 63.6799 34.0935 64.0425 34.0935Z" fill="#182346"/>
</g>
<path fill-rule="evenodd" clip-rule="evenodd" d="M39.6233 30.1242C41.7834 30.1239 43.925 30.1244 46.0782 30.1238V28.3134C45.5788 28.313 45.0925 28.3123 44.6063 28.3121C44.1244 28.3119 43.6425 28.3121 43.1607 28.3121H41.7082C41.6701 28.0024 41.6815 27.2706 41.7276 27.1152H45.9474C45.9939 26.8888 45.9861 25.4893 45.9358 25.3321H45.0931H44.2415H43.39C43.1062 25.3321 42.8223 25.3326 42.5385 25.332C42.2578 25.3314 41.977 25.3347 41.7007 25.329V24.1462H46.0907C46.0916 23.5344 46.094 22.9561 46.0897 22.3682H39.621C39.6107 22.4826 39.5932 22.5874 39.5931 22.6923C39.5917 25.0875 39.5919 27.4827 39.5934 29.878C39.5935 29.9548 39.6116 30.0315 39.6233 30.1242Z" fill="#182346"/>
<path fill-rule="evenodd" clip-rule="evenodd" d="M31.0479 34.0935H31.7807H32.4937C32.7379 34.0935 32.9822 34.0935 33.2264 34.0935C33.4707 34.0935 33.7149 34.0947 33.9592 34.0931C34.2004 34.0915 34.4422 34.1003 34.6924 34.087C34.6882 33.4729 34.6951 32.8878 34.688 32.2944H28.2229V40.0363H34.6765V38.2542H30.2876C30.2876 38.0356 30.287 37.8422 30.2878 37.6489C30.2887 37.458 30.2912 37.2672 30.2932 37.0589H34.5634C34.6155 36.8421 34.6062 35.4081 34.5497 35.2545H30.3021V34.0935C30.5602 34.0935 30.8041 34.0935 31.0479 34.0935Z" fill="#182346"/>
<mask id="mask2_173_2154" style="mask-type:alpha" maskUnits="userSpaceOnUse" x="18" y="22" width="10" height="9">
<path d="M18.4872 22.3538H27.8747V30.1285H18.4872V22.3538Z" fill="white"/>
</mask>
<g mask="url(#mask2_173_2154)">
<path fill-rule="evenodd" clip-rule="evenodd" d="M22.1089 26.8065C22.4571 25.9637 22.794 25.148 23.141 24.3079C23.4891 25.1505 23.8283 25.9717 24.173 26.8065H22.1089ZM24.57 22.4963C24.5205 22.3821 24.4569 22.3544 24.3457 22.3548C23.5668 22.3582 22.788 22.359 22.0092 22.3538C21.8849 22.3529 21.8233 22.3949 21.774 22.511C21.5166 23.1184 21.2504 23.7219 20.9868 24.3265C20.1663 26.2078 19.3455 28.089 18.5257 29.9705C18.5083 30.0103 18.5016 30.0549 18.4872 30.1071C18.5265 30.1139 18.5513 30.1218 18.5761 30.1219C19.256 30.123 19.9358 30.1215 20.6156 30.1257C20.7185 30.1263 20.7679 30.086 20.8052 29.992C20.9701 29.5768 21.1414 29.1643 21.311 28.751C21.3381 28.685 21.3683 28.6204 21.3903 28.5705H24.8973C25.0885 29.0297 25.2815 29.476 25.4588 29.9286C25.516 30.0746 25.5854 30.1311 25.7469 30.1284C26.3936 30.1175 27.0405 30.1242 27.6873 30.1235C27.7389 30.1234 27.7905 30.1173 27.8747 30.1119C27.8469 30.0415 27.8315 29.9989 27.8135 29.9575C26.7314 27.4708 25.6481 24.9847 24.57 22.4963Z" fill="#182346"/>
</g>
<path fill-rule="evenodd" clip-rule="evenodd" d="M68.6923 24.3066C69.0421 25.153 69.3796 25.9697 69.7234 26.8019H67.6621C68.0016 25.9794 68.3399 25.1604 68.6923 24.3066ZM64.1297 30.1231C64.8095 30.1239 65.4893 30.121 66.1692 30.1268C66.2903 30.1278 66.3282 30.0591 66.3648 29.9686C66.5023 29.6289 66.6406 29.2895 66.7794 28.9504C66.8321 28.8217 66.8871 28.694 66.9417 28.5644H70.4385C70.4673 28.6283 70.4958 28.688 70.5214 28.749C70.6893 29.1483 70.8623 29.5456 71.0208 29.9488C71.0727 30.0808 71.1389 30.1295 71.2813 30.1278C71.9346 30.1199 72.5881 30.1245 73.2416 30.1237C73.293 30.1236 73.3444 30.1166 73.4336 30.11C72.3002 27.5087 71.1807 24.939 70.0602 22.3672H67.388C67.0125 23.2328 66.6394 24.0947 66.2647 24.9559C65.8925 25.8113 65.5177 26.6655 65.1459 27.5211C64.7735 28.378 64.3925 29.2313 64.0226 30.1052C64.0792 30.115 64.1044 30.123 64.1297 30.1231Z" fill="#182346"/>
<path fill-rule="evenodd" clip-rule="evenodd" d="M73.9384 35.468C73.5723 35.3197 73.1879 35.2626 72.7974 35.2581C72.1704 35.2509 71.5432 35.2578 70.9162 35.2543C70.812 35.2537 70.7035 35.2448 70.6046 35.2144C70.3559 35.1378 70.2166 34.9346 70.215 34.6732C70.2135 34.4095 70.3472 34.2141 70.6052 34.1371C70.7166 34.1039 70.8384 34.0955 70.9556 34.0952C71.9985 34.0921 73.0414 34.0911 74.0843 34.0959C74.2213 34.0965 74.2995 34.056 74.357 33.9245C74.5785 33.4177 74.8114 32.916 75.0387 32.4119C75.0535 32.3791 75.0571 32.3411 75.0694 32.2916C74.9956 32.2873 74.9375 32.281 74.8794 32.281C73.5131 32.281 72.1467 32.2797 70.7804 32.2834C70.4293 32.2844 70.084 32.3423 69.7517 32.4579C69.0003 32.7194 68.4701 33.2123 68.2329 33.9951C68.1086 34.4049 68.103 34.8242 68.1765 35.2446C68.3191 36.0602 68.7828 36.6035 69.544 36.8917C69.8753 37.0171 70.2218 37.0624 70.5718 37.0669C71.1657 37.0745 71.7599 37.0687 72.3539 37.0693C72.4463 37.0694 72.5395 37.066 72.6308 37.0773C72.9291 37.1141 73.1288 37.3317 73.1384 37.6218C73.1491 37.9486 72.99 38.1617 72.6798 38.2238C72.5772 38.2444 72.4709 38.2552 72.3662 38.2554C71.1385 38.2574 69.9108 38.2562 68.6831 38.2567C68.5865 38.2567 68.4899 38.2628 68.3857 38.2663V40.0388C68.4581 40.0431 68.5039 40.0481 68.5497 40.0481C69.9028 40.0483 71.2559 40.0475 72.6091 40.0481C72.9014 40.0482 73.1876 40.0031 73.4669 39.9217C74.1762 39.715 74.7114 39.2938 75.0191 38.6008C75.2289 38.1284 75.2626 37.6272 75.1986 37.1261C75.0974 36.3343 74.6808 35.7687 73.9384 35.468Z" fill="#182346"/>
<mask id="mask3_173_2154" style="mask-type:alpha" maskUnits="userSpaceOnUse" x="75" y="32" width="8" height="9">
<path d="M75.6173 32.2803H82.7127V40.0501H75.6173V32.2803Z" fill="white"/>
</mask>
<g mask="url(#mask3_173_2154)">
<path fill-rule="evenodd" clip-rule="evenodd" d="M82.6329 36.8733C82.4819 36.1979 82.0705 35.741 81.441 35.4771C81.0559 35.3157 80.6518 35.2644 80.242 35.2583C79.6413 35.2494 79.0404 35.2561 78.4396 35.2557C78.367 35.2557 78.294 35.2573 78.2219 35.2504C77.9459 35.2239 77.7273 35.0147 77.7025 34.7575C77.6718 34.4384 77.8065 34.2186 78.103 34.1324C78.2085 34.1016 78.3237 34.0953 78.4345 34.0951C79.4513 34.0925 80.4681 34.0887 81.4848 34.098C81.6816 34.0998 81.7963 34.0554 81.8721 33.8538C81.9891 33.5425 82.1451 33.2463 82.2825 32.9428C82.3754 32.7375 82.4649 32.5307 82.5695 32.2935C82.4955 32.2874 82.4573 32.2814 82.419 32.2814C81.0193 32.2815 79.6196 32.2769 78.2199 32.2856C77.7543 32.2885 77.3021 32.3891 76.8834 32.6042C76.2892 32.9096 75.8888 33.3806 75.7028 34.0374C75.6154 34.3462 75.6053 34.6586 75.6271 34.9719C75.6874 35.8385 76.0884 36.4754 76.885 36.8335C77.2526 36.9988 77.6423 37.0624 78.0403 37.0669C78.6608 37.0739 79.2815 37.069 79.9021 37.0698C79.9746 37.0699 80.048 37.0686 80.1196 37.0785C80.4101 37.1187 80.6099 37.3318 80.6218 37.6088C80.6359 37.9348 80.4792 38.1532 80.1729 38.2205C80.0708 38.243 79.9645 38.2551 79.86 38.2553C78.6055 38.2576 77.3511 38.2568 76.0967 38.2569H75.8667V40.0375C75.933 40.0419 75.9905 40.0491 76.048 40.0491C77.3816 40.0493 78.7153 40.053 80.0489 40.0445C80.2975 40.0429 80.5504 40.0132 80.7932 39.959C81.5179 39.797 82.0952 39.4133 82.4395 38.7291C82.7364 38.1391 82.7754 37.5108 82.6329 36.8733Z" fill="#182346"/>
</g>
<path fill-rule="evenodd" clip-rule="evenodd" d="M41.2612 35.7442C41.362 35.6361 41.4624 35.5284 41.5627 35.4207L41.5718 35.4246L41.5663 35.417L41.5623 35.4205C41.5965 35.3718 41.6267 35.3196 41.6655 35.275C41.9056 34.9994 42.1481 34.7259 42.389 34.4511C42.9849 33.7717 43.5807 33.092 44.1756 32.4116C44.2025 32.3808 44.2203 32.3419 44.2476 32.2984C44.2092 32.2898 44.1904 32.2818 44.1716 32.2818C43.3732 32.2811 42.5749 32.2827 41.7765 32.2788C41.6709 32.2783 41.6074 32.326 41.5439 32.4012C41.0895 32.9395 40.6326 33.4758 40.1758 34.012C40.0131 34.203 39.8483 34.392 39.6719 34.5965C39.6021 34.5187 39.5441 34.4569 39.4891 34.3924C38.9242 33.7298 38.358 33.0682 37.7973 32.4021C37.7208 32.3113 37.6411 32.2783 37.5266 32.2788C36.7546 32.2826 35.9826 32.2804 35.2107 32.2812C35.1546 32.2812 35.0986 32.2895 35.0143 32.2963C35.0575 32.3565 35.0803 32.3945 35.1089 32.4272C35.35 32.7019 35.5929 32.975 35.8332 33.2505C35.8752 33.2987 35.9073 33.3557 35.9438 33.4088C35.9913 33.4523 36.0427 33.4922 36.0852 33.5402C36.5608 34.0779 37.0354 34.6165 37.5094 35.1556C37.7901 35.4749 38.0694 35.7955 38.3573 36.1248C37.222 37.4229 36.0911 38.7159 34.9443 40.0272C35.0021 40.0388 35.0265 40.0481 35.051 40.0481C35.8495 40.0491 36.648 40.0475 37.4465 40.0517C37.5457 40.0522 37.6027 40.0077 37.6616 39.938C38.1334 39.3793 38.6075 38.8227 39.0814 38.2658C39.2615 38.0541 39.4428 37.8434 39.6326 37.6217C39.6817 37.6741 39.7232 37.7148 39.7607 37.759C40.3716 38.4787 40.9829 39.198 41.5915 39.9197C41.6645 40.0063 41.7391 40.053 41.859 40.0521C42.6575 40.0461 43.456 40.0485 44.2546 40.0472C44.29 40.0471 44.3254 40.0373 44.3957 40.0268C43.2378 38.6971 42.1002 37.3907 40.9537 36.0741C41.0568 35.9634 41.1592 35.8536 41.2612 35.7442Z" fill="#182346"/>
<path fill-rule="evenodd" clip-rule="evenodd" d="M49.7204 34.9915C49.7005 35.3387 49.4915 35.6057 49.1496 35.6932C49.0674 35.7142 48.9816 35.7317 48.8974 35.7321C48.199 35.7352 47.5006 35.7341 46.8022 35.7338C46.7701 35.7338 46.7379 35.7295 46.6806 35.7255V34.0935H46.8735C47.5192 34.0934 48.1649 34.0907 48.8106 34.0956C48.9406 34.0966 49.0749 34.1108 49.1995 34.1466C49.4953 34.2317 49.7474 34.5195 49.7204 34.9915ZM50.3808 32.5504C49.9533 32.3538 49.5009 32.2805 49.0346 32.2805C47.6226 32.2805 46.2107 32.2805 44.7987 32.2812C44.7347 32.2812 44.6707 32.287 44.618 32.2896C44.601 32.3182 44.5909 32.3287 44.5883 32.3408C44.5828 32.3667 44.5784 32.3935 44.5784 32.4199C44.5781 34.9144 44.5782 37.4089 44.579 39.9034C44.579 39.9363 44.5873 39.9692 44.5928 40.0019C44.5938 40.0078 44.6002 40.0127 44.6045 40.0179C44.6086 40.0229 44.6132 40.0276 44.6208 40.0361H46.6661V37.5455C46.7699 37.5455 46.8409 37.5456 46.9118 37.5455C47.5716 37.5454 48.2315 37.5516 48.8911 37.5419C49.1536 37.538 49.419 37.519 49.677 37.4723C50.4478 37.3328 51.0732 36.9528 51.4731 36.2543C51.8416 35.6105 51.8962 34.9147 51.7295 34.2002C51.5494 33.4278 51.094 32.8784 50.3808 32.5504Z" fill="#182346"/>
<path fill-rule="evenodd" clip-rule="evenodd" d="M61.253 29.9803C61.8282 30.1329 62.4139 30.1281 63.0007 30.1256C63.1002 30.1252 63.1348 30.0669 63.1707 29.9894C63.3551 29.5904 63.5438 29.1933 63.7295 28.7949C63.7962 28.6517 63.8589 28.5066 63.9455 28.3132C63.8369 28.3132 63.7728 28.3132 63.7088 28.3131C63.3855 28.3129 63.062 28.3186 62.7389 28.3102C62.5422 28.3051 62.3419 28.2978 62.1502 28.2574C61.4682 28.1139 61.0256 27.6979 60.8454 27.0127C60.76 26.6883 60.733 26.3539 60.7593 26.0189C60.7839 25.7053 60.8365 25.396 60.9851 25.1128C61.2901 24.5318 61.7937 24.2544 62.4168 24.2294C63.1811 24.1987 63.9473 24.2174 64.7126 24.2136C64.7885 24.2132 64.8643 24.2055 64.9403 24.2011V22.3683C64.877 22.3639 64.8259 22.3573 64.7748 22.3572C63.9632 22.357 63.1516 22.3576 62.34 22.3581C62.0024 22.3583 61.6691 22.4007 61.3425 22.4842C60.1249 22.7954 59.2845 23.5355 58.8914 24.7547C58.6041 25.646 58.5926 26.5598 58.8106 27.4644C59.1291 28.7857 59.9442 29.6331 61.253 29.9803Z" fill="#182346"/>
<path fill-rule="evenodd" clip-rule="evenodd" d="M57.6345 30.0859C57.6759 29.8305 57.6622 22.513 57.6178 22.3674H55.5779C55.5425 24.7578 55.5652 29.9623 55.6111 30.106C55.9125 30.1485 57.5016 30.1327 57.6345 30.0859Z" fill="#182346"/>
<path fill-rule="evenodd" clip-rule="evenodd" d="M72.3598 26.9678L72.2837 27.1099L72.4132 27.1216L72.3598 26.9678Z" fill="#182346"/>
<path fill-rule="evenodd" clip-rule="evenodd" d="M79.3896 26.6917L79.3017 26.5973L79.2097 26.5178L79.2545 26.6439L79.3896 26.6917Z" fill="#182346"/>
<path fill-rule="evenodd" clip-rule="evenodd" d="M50.3711 27.7812L50.4691 27.7254C50.468 27.7218 50.4668 27.719 50.466 27.7158C50.4527 27.7037 50.4382 27.6921 50.4252 27.6804L50.3711 27.7812Z" fill="#182346"/>
<path fill-rule="evenodd" clip-rule="evenodd" d="M53.0599 27.7485L53.1292 27.634L53.012 27.6999L52.9458 27.8228L53.0599 27.7485Z" fill="#182346"/>
<path fill-rule="evenodd" clip-rule="evenodd" d="M61.6249 27.9933L61.6855 27.8784L61.5773 27.9447L61.5028 28.0607L61.6249 27.9933Z" fill="#182346"/>
<path fill-rule="evenodd" clip-rule="evenodd" d="M53.6361 28.3956L53.7632 28.4671L53.684 28.347L53.5743 28.2764L53.6361 28.3956Z" fill="#182346"/>
<path fill-rule="evenodd" clip-rule="evenodd" d="M51.6461 29.1512L51.5229 29.085L51.6009 29.1974L51.6912 29.2612L51.6461 29.1512Z" fill="#182346"/>
<path fill-rule="evenodd" clip-rule="evenodd" d="M54.3852 29.3295L54.5008 29.3712L54.4311 29.2841L54.3404 29.2183L54.3852 29.3295Z" fill="#182346"/>
<path fill-rule="evenodd" clip-rule="evenodd" d="M54.7401 29.6176L54.8304 29.6333L54.7759 29.5779C54.6619 29.559 54.5483 29.5401 54.4343 29.5212C54.4407 29.5313 54.447 29.5417 54.4531 29.5522C54.4588 29.5582 54.4649 29.5634 54.4707 29.569C54.5604 29.5851 54.6504 29.6011 54.7401 29.6176Z" fill="#182346"/>
<path fill-rule="evenodd" clip-rule="evenodd" d="M77.4838 23.8038L77.42 23.6998L77.3194 23.6292L77.3736 23.7468L77.4838 23.8038Z" fill="#182346"/>
<path fill-rule="evenodd" clip-rule="evenodd" d="M41.0225 33.1058L40.9983 33.0809C40.9908 33.0729 40.9838 33.0656 40.9773 33.0588L40.963 33.0439L40.9903 33.1624C41.1068 33.1664 41.2233 33.1712 41.3401 33.1756L41.3591 33.0648L41.3099 33.1247L41.1664 33.1154C41.1182 33.1122 41.0706 33.109 41.0225 33.1058Z" fill="#182346"/>
<path fill-rule="evenodd" clip-rule="evenodd" d="M59.3774 33.1769L59.5014 33.2367L59.4245 33.1291L59.3243 33.0632L59.3774 33.1769Z" fill="#182346"/>
<path fill-rule="evenodd" clip-rule="evenodd" d="M43.4944 33.6931L43.6117 33.7561L43.5416 33.6457L43.4425 33.5879L43.4944 33.6931Z" fill="#182346"/>
<path fill-rule="evenodd" clip-rule="evenodd" d="M39.1206 33.8203L39.0607 33.7444L38.9783 33.6833L39.0156 33.7878L39.1206 33.8203Z" fill="#182346"/>
<path fill-rule="evenodd" clip-rule="evenodd" d="M78.0981 34.8899L77.9868 34.9225L77.9749 35.095C77.9714 35.1526 77.9674 35.21 77.9634 35.2675L78.1065 35.2914L78.0114 35.2473C78.0193 35.1457 78.0268 35.0441 78.0344 34.9426L78.0981 34.8899Z" fill="#182346"/>
<path fill-rule="evenodd" clip-rule="evenodd" d="M78.127 24.7705L78.0379 24.6641L77.9373 24.5842L77.9907 24.7119L78.127 24.7705Z" fill="#182346"/>
<path fill-rule="evenodd" clip-rule="evenodd" d="M38.2793 36.128L38.212 36.2521L38.3269 36.1762L38.3883 36.0706L38.2793 36.128Z" fill="#182346"/>
<path fill-rule="evenodd" clip-rule="evenodd" d="M59.636 36.5804L59.7097 36.4631L59.5881 36.5318L59.5175 36.6619L59.636 36.5804Z" fill="#182346"/>
<path fill-rule="evenodd" clip-rule="evenodd" d="M73.1408 37.4661C73.0895 37.4661 73.0382 37.4657 72.9871 37.4653C72.9871 37.4653 72.9684 37.5115 72.9531 37.5489L72.9347 37.5938L73.0223 37.5135C73.1018 37.5135 73.1813 37.5131 73.2607 37.5131L73.3308 37.5774L73.2942 37.4669V37.4665C73.2431 37.4665 73.1918 37.4661 73.1408 37.4661Z" fill="#182346"/>
<path fill-rule="evenodd" clip-rule="evenodd" d="M58.392 37.6717L58.5152 37.74L58.4396 37.6235L58.3294 37.5544L58.392 37.6717Z" fill="#182346"/>
<path fill-rule="evenodd" clip-rule="evenodd" d="M58.4171 37.9276L58.5462 37.9653L58.4638 37.8822L58.3771 37.8103L58.4171 37.9276Z" fill="#182346"/>
<path fill-rule="evenodd" clip-rule="evenodd" d="M36.7403 38.2255L36.6837 38.3211L36.7855 38.2709L36.8275 38.1765L36.7403 38.2255Z" fill="#182346"/>
<path fill-rule="evenodd" clip-rule="evenodd" d="M82.4583 39.1213L82.5161 39.2366L82.6385 39.3052L82.5641 39.1884L82.4583 39.1213Z" fill="#182346"/>
<path fill-rule="evenodd" clip-rule="evenodd" d="M37.9065 40.1417L37.9905 40.0613L38.061 39.969L37.9453 40.0144L37.9065 40.1417Z" fill="#182346"/>
<path fill-rule="evenodd" clip-rule="evenodd" d="M36.0811 33.6398L36.1572 33.5868C36.1525 33.58 36.1482 33.5732 36.1439 33.5668C36.136 33.5591 36.1278 33.5523 36.1195 33.5447L36.0811 33.6398Z" fill="#182346"/>
<path fill-rule="evenodd" clip-rule="evenodd" d="M57.4935 34.4978L57.5648 34.6151L57.6872 34.6938L57.6128 34.5665L57.4935 34.4978Z" fill="#182346"/>
</svg>
