<svg width="215" height="60" viewBox="0 0 215 60" fill="none" xmlns="http://www.w3.org/2000/svg">
<rect width="215" height="60" fill="white"/>
<path fill-rule="evenodd" clip-rule="evenodd" d="M39.8195 44.701C39.9295 44.6935 40.0433 44.6766 40.1476 44.6166L57.627 34.6346L53.8118 30.8608L39.8195 44.701Z" fill="#C53AA9"/>
<path fill-rule="evenodd" clip-rule="evenodd" d="M39.0001 16.21V43.6877L52.8899 29.9488L39.0001 16.21Z" fill="url(#paint0_linear_968_919)"/>
<path fill-rule="evenodd" clip-rule="evenodd" d="M64.6141 29.3327L58.7452 25.981L54.7385 29.9441L58.8021 33.9636L64.6141 30.6437C65.1241 30.353 65.1241 29.6234 64.6141 29.3327Z" fill="#FFA672"/>
<path fill-rule="evenodd" clip-rule="evenodd" d="M57.5762 25.314L40.148 15.3601C40.0816 15.3226 40.0114 15.3245 39.9413 15.3076L53.8179 29.0315L57.5762 25.314Z" fill="#B8EA95"/>
<mask id="mask0_968_919" style="mask-type:alpha" maskUnits="userSpaceOnUse" x="74" y="13" width="101" height="34">
<path d="M74.781 13H174.687V46.5682H74.781V13Z" fill="#131750"/>
</mask>
<g mask="url(#mask0_968_919)">
<path fill-rule="evenodd" clip-rule="evenodd" d="M152.437 41.7648H154.635V27.0314H152.437V41.7648ZM172.242 32.339L169.721 38.7269H169.645L167.03 32.339H164.661L168.585 41.2662L166.347 46.2321H168.641L174.689 32.339H172.242ZM159.771 40.0917C159.05 40.0917 158.046 39.7315 158.046 38.8395C158.046 37.7038 159.298 37.268 160.378 37.268C161.344 37.268 161.798 37.4766 162.386 37.7592C162.216 39.124 161.041 40.0917 159.771 40.0917ZM160.036 32.0176C158.445 32.0176 156.795 32.7175 156.112 34.2725L158.066 35.0869C158.482 34.2725 159.259 34.0066 160.073 34.0066C161.211 34.0066 162.367 34.6899 162.386 35.9032V36.0546C161.989 35.8275 161.135 35.4858 160.092 35.4858C157.99 35.4858 155.846 36.6419 155.846 38.8026C155.846 40.7731 157.573 42.0437 159.506 42.0437C160.984 42.0437 161.798 41.3807 162.31 40.6032H162.386V41.7408H164.509V36.0916C164.509 33.4766 162.557 32.0176 160.036 32.0176ZM146.446 34.134H143.32V29.0831H146.446C148.09 29.0831 149.024 30.4442 149.024 31.6076C149.024 32.7489 148.09 34.134 146.446 34.134ZM146.389 27.0314H141.12V41.7648H143.32V36.1821H146.389C148.829 36.1821 151.222 34.4184 151.222 31.6076C151.222 28.7969 148.829 27.0314 146.389 27.0314ZM117.657 40.0953C116.139 40.0953 114.867 38.8229 114.867 37.0759C114.867 35.3104 116.139 34.0177 117.657 34.0177C119.157 34.0177 120.333 35.3104 120.333 37.0759C120.333 38.8229 119.157 40.0953 117.657 40.0953ZM120.182 33.1645H120.106C119.613 32.5753 118.664 32.0435 117.467 32.0435C114.961 32.0435 112.663 34.2467 112.663 37.0759C112.663 39.8848 114.961 42.0677 117.467 42.0677C118.664 42.0677 119.613 41.5377 120.106 40.9301H120.182V41.6503C120.182 43.5691 119.157 44.594 117.506 44.594C116.158 44.594 115.323 43.6263 114.979 42.8082L113.062 43.606C113.613 44.9357 115.075 46.5682 117.506 46.5682C120.087 46.5682 122.27 45.0502 122.27 41.3474V32.3482H120.182V33.1645ZM123.788 41.7648H125.992V27.0314H123.788V41.7648ZM129.238 36.9041C129.181 34.9687 130.738 33.9807 131.859 33.9807C132.732 33.9807 133.473 34.4166 133.718 35.0445L129.238 36.9041ZM136.073 35.2347C135.656 34.1137 134.383 32.0435 131.783 32.0435C129.201 32.0435 127.055 34.0749 127.055 37.0574C127.055 39.8663 129.181 42.0677 132.029 42.0677C134.328 42.0677 135.656 40.6641 136.206 39.8479L134.498 38.7084C133.929 39.5432 133.15 40.0953 132.029 40.0953C130.909 40.0953 130.112 39.5819 129.598 38.5755L136.3 35.8035L136.073 35.2347ZM82.6795 33.5818V35.7093H87.7673C87.6159 36.9041 87.217 37.7777 86.6094 38.3852C85.8688 39.1258 84.7109 39.9421 82.6795 39.9421C79.5456 39.9421 77.0967 37.4175 77.0967 34.2854C77.0967 31.1515 79.5456 28.627 82.6795 28.627C84.3693 28.627 85.6029 29.2918 86.5134 30.145L88.0129 28.6454C86.7424 27.4303 85.0526 26.4995 82.6795 26.4995C78.3895 26.4995 74.7809 29.9936 74.7809 34.2854C74.7809 38.5755 78.3895 42.0677 82.6795 42.0677C84.9953 42.0677 86.7424 41.3087 88.109 39.8848C89.5144 38.4813 89.9502 36.5052 89.9502 34.9115C89.9502 34.4166 89.9133 33.9623 89.8357 33.5818H82.6795ZM95.7361 40.0953C94.2162 40.0953 92.9068 38.8414 92.9068 37.0574C92.9068 35.2531 94.2162 34.0177 95.7361 34.0177C97.2541 34.0177 98.5635 35.2531 98.5635 37.0574C98.5635 38.8414 97.2541 40.0953 95.7361 40.0953ZM95.7361 32.0435C92.9641 32.0435 90.7037 34.1506 90.7037 37.0574C90.7037 39.9421 92.9641 42.0677 95.7361 42.0677C98.5081 42.0677 100.767 39.9421 100.767 37.0574C100.767 34.1506 98.5081 32.0435 95.7361 32.0435ZM106.71 40.0953C105.191 40.0953 103.882 38.8414 103.882 37.0574C103.882 35.2531 105.191 34.0177 106.71 34.0177C108.229 34.0177 109.539 35.2531 109.539 37.0574C109.539 38.8414 108.229 40.0953 106.71 40.0953ZM106.71 32.0435C103.938 32.0435 101.679 34.1506 101.679 37.0574C101.679 39.9421 103.938 42.0677 106.71 42.0677C109.482 42.0677 111.742 39.9421 111.742 37.0574C111.742 34.1506 109.482 32.0435 106.71 32.0435Z" fill="#182346"/>
<path fill-rule="evenodd" clip-rule="evenodd" d="M76.4461 15.763V21.2478H77.737C78.5828 21.2478 79.2495 21.0059 79.737 20.5221C80.2246 20.0382 80.4683 19.366 80.4683 18.5054C80.4683 17.6522 80.2246 16.9818 79.737 16.4943C79.2495 16.0067 78.5828 15.763 77.737 15.763H76.4461ZM75.5116 22.1417V14.8691H77.737C78.8469 14.8691 79.7389 15.2053 80.4129 15.8756C81.087 16.546 81.4231 17.4214 81.4231 18.5054C81.4231 19.5968 81.087 20.4741 80.4129 21.1407C79.7389 21.8074 78.8469 22.1417 77.737 22.1417H75.5116Z" fill="#182346"/>
<path fill-rule="evenodd" clip-rule="evenodd" d="M82.5503 22.1412H83.4847V14.8687H82.5503V22.1412Z" fill="#182346"/>
<path fill-rule="evenodd" clip-rule="evenodd" d="M89.4575 20.197C89.4575 20.8359 89.223 21.3475 88.7576 21.7353C88.2812 22.1157 87.7087 22.3041 87.0309 22.3041C86.427 22.3041 85.897 22.1287 85.4353 21.7759C84.9755 21.425 84.6578 20.943 84.4805 20.3336L85.3744 19.968C85.4353 20.1859 85.5203 20.3816 85.6292 20.5571C85.7363 20.7344 85.8656 20.8839 86.0096 21.0095C86.1537 21.1351 86.3162 21.233 86.4935 21.305C86.6689 21.3752 86.8536 21.4103 87.0512 21.4103C87.4778 21.4103 87.8269 21.3013 88.0983 21.0816C88.368 20.8599 88.5009 20.5682 88.5009 20.2025C88.5009 19.8978 88.3901 19.6374 88.1704 19.4195C87.958 19.2108 87.5646 19.0058 86.9903 18.81C86.4067 18.6014 86.0447 18.4592 85.9025 18.3834C85.1306 17.9919 84.7446 17.412 84.7446 16.6475C84.7446 16.1119 84.9588 15.6558 85.3854 15.2753C85.8176 14.8968 86.3476 14.7065 86.9792 14.7065C87.5351 14.7065 88.0152 14.8487 88.4215 15.1331C88.8296 15.412 89.1011 15.761 89.2341 16.1803L88.3606 16.5459C88.2812 16.2744 88.1186 16.0491 87.8786 15.87C87.6403 15.6909 87.343 15.6004 87.0014 15.6004C86.6338 15.6004 86.3273 15.7019 86.0761 15.9032C85.825 16.0935 85.6994 16.3391 85.6994 16.6419C85.6994 16.8913 85.7991 17.1073 85.9949 17.2902C86.2109 17.4711 86.68 17.6872 87.4058 17.9365C88.1445 18.1877 88.6708 18.4961 88.9848 18.8581C89.3024 19.2219 89.4575 19.6669 89.4575 20.197Z" fill="#182346"/>
<path fill-rule="evenodd" clip-rule="evenodd" d="M91.5403 15.763V18.3023H93.1045C93.4757 18.3023 93.7841 18.1767 94.0279 17.9255C94.2772 17.6762 94.4046 17.3789 94.4046 17.0317C94.4046 16.6937 94.2772 16.4001 94.0279 16.1489C93.7841 15.8922 93.4757 15.763 93.1045 15.763H91.5403ZM91.5403 19.1961V22.1417H90.6059V14.8691H93.0842C93.714 14.8691 94.2477 15.0797 94.689 15.4989C95.1341 15.9181 95.3576 16.4297 95.3576 17.0317C95.3576 17.6485 95.1341 18.1638 94.689 18.5756C94.2551 18.9893 93.7213 19.1961 93.0842 19.1961H91.5403Z" fill="#182346"/>
<path fill-rule="evenodd" clip-rule="evenodd" d="M96.8517 18.5053C96.8517 19.3456 97.1158 20.04 97.644 20.5885C98.1796 21.137 98.8425 21.4103 99.6348 21.4103C100.427 21.4103 101.086 21.137 101.615 20.5885C102.15 20.0455 102.418 19.3511 102.418 18.5053C102.418 17.6595 102.15 16.9651 101.615 16.424C101.086 15.8755 100.427 15.6004 99.6348 15.6004C98.8425 15.6004 98.1796 15.8755 97.644 16.424C97.1158 16.9725 96.8517 17.665 96.8517 18.5053ZM103.373 18.5053C103.373 19.582 103.013 20.4832 102.296 21.2071C101.572 21.9384 100.684 22.3041 99.6348 22.3041C98.5785 22.3041 97.6902 21.9384 96.9718 21.2071C96.2552 20.4832 95.8951 19.582 95.8951 18.5053C95.8951 17.4287 96.2552 16.5293 96.9718 15.8035C97.6902 15.0722 98.5785 14.7065 99.6348 14.7065C100.691 14.7065 101.579 15.0759 102.296 15.8146C103.013 16.5385 103.373 17.4361 103.373 18.5053Z" fill="#182346"/>
<path fill-rule="evenodd" clip-rule="evenodd" d="M105.436 22.1417H104.502V14.8691H105.637L109.172 20.5258H109.215L109.172 19.1259V14.8691H110.107V22.1417H109.133L105.436 16.2099H105.395L105.436 17.6116V22.1417Z" fill="#182346"/>
<path fill-rule="evenodd" clip-rule="evenodd" d="M113.195 13L112.463 14.3001H111.651L112.179 13H113.195ZM111.592 22.1415H112.526V14.8689H111.592V22.1415Z" fill="#182346"/>
<path fill-rule="evenodd" clip-rule="evenodd" d="M116.782 22.1417H115.807L113.247 14.8691H114.282L116.274 20.7695H116.313L118.385 14.8691H119.423L116.782 22.1417Z" fill="#182346"/>
<path fill-rule="evenodd" clip-rule="evenodd" d="M124.54 14.8696V15.7635H121.229V18.0682H124.214V18.9436H121.229V21.2483H124.54V22.1422H120.295V14.8696H124.54Z" fill="#182346"/>
<path fill-rule="evenodd" clip-rule="evenodd" d="M129.904 22.1417H125.821V14.8691H126.755V21.2478H129.904V22.1417Z" fill="#182346"/>
<path fill-rule="evenodd" clip-rule="evenodd" d="M134.088 22.1417H133.154V14.8691H134.29L137.824 20.5258H137.867L137.824 19.1259V14.8691H138.759V22.1417H137.785L134.088 16.2099H134.048L134.088 17.6116V22.1417Z" fill="#182346"/>
<path fill-rule="evenodd" clip-rule="evenodd" d="M140.741 18.5053C140.741 19.3456 141.005 20.04 141.533 20.5885C142.069 21.137 142.732 21.4103 143.524 21.4103C144.316 21.4103 144.976 21.137 145.504 20.5885C146.039 20.0455 146.307 19.3511 146.307 18.5053C146.307 17.6595 146.039 16.9651 145.504 16.424C144.976 15.8755 144.316 15.6004 143.524 15.6004C142.732 15.6004 142.069 15.8755 141.533 16.424C141.005 16.9725 140.741 17.665 140.741 18.5053ZM147.262 18.5053C147.262 19.582 146.902 20.4832 146.185 21.2071C145.461 21.9384 144.573 22.3041 143.524 22.3041C142.468 22.3041 141.579 21.9384 140.861 21.2071C140.144 20.4832 139.784 19.582 139.784 18.5053C139.784 17.4287 140.144 16.5293 140.861 15.8035C141.579 15.0722 142.468 14.7065 143.524 14.7065C144.58 14.7065 145.469 15.0759 146.185 15.8146C146.902 16.5385 147.262 17.4361 147.262 18.5053Z" fill="#182346"/>
</g>
<defs>
<linearGradient id="paint0_linear_968_919" x1="42.6414" y1="24.1326" x2="48.7336" y2="25.9854" gradientUnits="userSpaceOnUse">
<stop stop-color="#2FA8D9"/>
<stop offset="1" stop-color="#2FA8D9"/>
</linearGradient>
</defs>
</svg>
