<svg width="215" height="60" viewBox="0 0 215 60" fill="none" xmlns="http://www.w3.org/2000/svg">
<path fill-rule="evenodd" clip-rule="evenodd" d="M39.3667 44.0902C39.4767 44.0827 39.5905 44.0658 39.6947 44.0058L57.1741 34.0237L53.3589 30.25L39.3667 44.0902Z" fill="#182346" fill-opacity="0.4"/>
<path fill-rule="evenodd" clip-rule="evenodd" d="M38.5472 15.5986V43.0764L52.4371 29.3375L38.5472 15.5986Z" fill="#182346" fill-opacity="0.4"/>
<path fill-rule="evenodd" clip-rule="evenodd" d="M64.1612 28.7209L58.2924 25.3691L54.2857 29.3323L58.3493 33.3518L64.1612 30.0319C64.6713 29.7412 64.6713 29.0116 64.1612 28.7209Z" fill="#182346" fill-opacity="0.4"/>
<path fill-rule="evenodd" clip-rule="evenodd" d="M57.1233 24.7027L39.6951 14.7488C39.6288 14.7113 39.5586 14.7132 39.4884 14.6963L53.365 28.4202L57.1233 24.7027Z" fill="#182346" fill-opacity="0.4"/>
<mask id="mask0_1172_749" style="mask-type:alpha" maskUnits="userSpaceOnUse" x="74" y="12" width="101" height="34">
<path d="M74.3281 12.3887H174.234V45.9568H74.3281V12.3887Z" fill="#131750"/>
</mask>
<g mask="url(#mask0_1172_749)">
<path fill-rule="evenodd" clip-rule="evenodd" d="M151.984 41.154H154.182V26.4205H151.984V41.154ZM171.789 31.7281L169.268 38.1161H169.192L166.577 31.7281H164.208L168.132 40.6554L165.894 45.6213H168.188L174.236 31.7281H171.789ZM159.318 39.4808C158.597 39.4808 157.593 39.1207 157.593 38.2287C157.593 37.093 158.845 36.6571 159.925 36.6571C160.891 36.6571 161.345 36.8658 161.933 37.1484C161.763 38.5131 160.588 39.4808 159.318 39.4808ZM159.584 31.4068C157.992 31.4068 156.343 32.1067 155.659 33.6617L157.613 34.4761C158.029 33.6617 158.806 33.3957 159.621 33.3957C160.758 33.3957 161.914 34.079 161.933 35.2924V35.4438C161.536 35.2166 160.682 34.875 159.639 34.875C157.537 34.875 155.393 36.0311 155.393 38.1918C155.393 40.1623 157.12 41.4328 159.054 41.4328C160.531 41.4328 161.345 40.7698 161.857 39.9924H161.933V41.13H164.057V35.4807C164.057 32.8657 162.104 31.4068 159.584 31.4068ZM145.993 33.5232H142.867V28.4723H145.993C147.637 28.4723 148.571 29.8333 148.571 30.9968C148.571 32.1381 147.637 33.5232 145.993 33.5232ZM145.936 26.4205H140.667V41.154H142.867V35.5712H145.936C148.376 35.5712 150.769 33.8076 150.769 30.9968C150.769 28.186 148.376 26.4205 145.936 26.4205ZM117.204 39.4845C115.686 39.4845 114.414 38.2121 114.414 36.4651C114.414 34.6996 115.686 33.4068 117.204 33.4068C118.704 33.4068 119.88 34.6996 119.88 36.4651C119.88 38.2121 118.704 39.4845 117.204 39.4845ZM119.729 32.5536H119.653C119.16 31.9645 118.211 31.4326 117.014 31.4326C114.508 31.4326 112.211 33.6358 112.211 36.4651C112.211 39.274 114.508 41.4568 117.014 41.4568C118.211 41.4568 119.16 40.9268 119.653 40.3192H119.729V41.0395C119.729 42.9583 118.704 43.9832 117.053 43.9832C115.705 43.9832 114.87 43.0155 114.526 42.1974L112.61 42.9952C113.16 44.3249 114.622 45.9574 117.053 45.9574C119.635 45.9574 121.817 44.4394 121.817 40.7366V31.7374H119.729V32.5536ZM123.335 41.154H125.539V26.4205H123.335V41.154ZM128.785 36.2933C128.728 34.3579 130.285 33.3699 131.406 33.3699C132.279 33.3699 133.02 33.8057 133.266 34.4336L128.785 36.2933ZM135.62 34.6238C135.203 33.5029 133.93 31.4326 131.33 31.4326C128.748 31.4326 126.602 33.4641 126.602 36.4466C126.602 39.2555 128.728 41.4568 131.576 41.4568C133.875 41.4568 135.203 40.0533 135.753 39.237L134.045 38.0976C133.476 38.9323 132.697 39.4845 131.576 39.4845C130.457 39.4845 129.659 38.9711 129.145 37.9646L135.847 35.1926L135.62 34.6238ZM82.2266 32.971V35.0985H87.3145C87.163 36.2933 86.7641 37.1668 86.1565 37.7744C85.416 38.515 84.2581 39.3312 82.2266 39.3312C79.0927 39.3312 76.6439 36.8067 76.6439 33.6746C76.6439 30.5407 79.0927 28.0161 82.2266 28.0161C83.9164 28.0161 85.1501 28.681 86.0605 29.5342L87.5601 28.0346C86.2895 26.8194 84.5997 25.8887 82.2266 25.8887C77.9366 25.8887 74.3281 29.3827 74.3281 33.6746C74.3281 37.9646 77.9366 41.4568 82.2266 41.4568C84.5425 41.4568 86.2895 40.6978 87.6561 39.274C89.0615 37.8704 89.4973 35.8944 89.4973 34.3007C89.4973 33.8057 89.4604 33.3514 89.3828 32.971H82.2266ZM95.2832 39.4845C93.7633 39.4845 92.454 38.2306 92.454 36.4466C92.454 34.6423 93.7633 33.4068 95.2832 33.4068C96.8013 33.4068 98.1106 34.6423 98.1106 36.4466C98.1106 38.2306 96.8013 39.4845 95.2832 39.4845ZM95.2832 31.4326C92.5112 31.4326 90.2508 33.5398 90.2508 36.4466C90.2508 39.3312 92.5112 41.4568 95.2832 41.4568C98.0552 41.4568 100.314 39.3312 100.314 36.4466C100.314 33.5398 98.0552 31.4326 95.2832 31.4326ZM106.257 39.4845C104.739 39.4845 103.429 38.2306 103.429 36.4466C103.429 34.6423 104.739 33.4068 106.257 33.4068C107.777 33.4068 109.086 34.6423 109.086 36.4466C109.086 38.2306 107.777 39.4845 106.257 39.4845ZM106.257 31.4326C103.485 31.4326 101.226 33.5398 101.226 36.4466C101.226 39.3312 103.485 41.4568 106.257 41.4568C109.029 41.4568 111.289 39.3312 111.289 36.4466C111.289 33.5398 109.029 31.4326 106.257 31.4326Z" fill="#182346" fill-opacity="0.4"/>
<path fill-rule="evenodd" clip-rule="evenodd" d="M75.9932 15.1516V20.6365H77.2841C78.1299 20.6365 78.7966 20.3946 79.2842 19.9107C79.7717 19.4269 80.0155 18.7547 80.0155 17.8941C80.0155 17.0409 79.7717 16.3705 79.2842 15.883C78.7966 15.3954 78.1299 15.1516 77.2841 15.1516H75.9932ZM75.0588 21.5303V14.2578H77.2841C78.394 14.2578 79.286 14.5939 79.9601 15.2643C80.6341 15.9347 80.9702 16.81 80.9702 17.8941C80.9702 18.9855 80.6341 19.8627 79.9601 20.5294C79.286 21.1961 78.394 21.5303 77.2841 21.5303H75.0588Z" fill="#182346" fill-opacity="0.4"/>
<path fill-rule="evenodd" clip-rule="evenodd" d="M82.0974 21.5303H83.0319V14.2578H82.0974V21.5303Z" fill="#182346" fill-opacity="0.4"/>
<path fill-rule="evenodd" clip-rule="evenodd" d="M89.0047 19.5861C89.0047 20.2251 88.7702 20.7366 88.3048 21.1245C87.8283 21.5049 87.2558 21.6933 86.5781 21.6933C85.9742 21.6933 85.4441 21.5178 84.9825 21.1651C84.5226 20.8142 84.205 20.3322 84.0277 19.7228L84.9215 19.3571C84.9825 19.575 85.0674 19.7708 85.1764 19.9462C85.2835 20.1235 85.4127 20.2731 85.5568 20.3987C85.7008 20.5243 85.8634 20.6221 86.0406 20.6942C86.2161 20.7643 86.4008 20.7994 86.5984 20.7994C87.025 20.7994 87.374 20.6905 87.6455 20.4707C87.9151 20.2491 88.0481 19.9573 88.0481 19.5917C88.0481 19.2869 87.9373 19.0265 87.7175 18.8086C87.5051 18.5999 87.1118 18.395 86.5374 18.1992C85.9538 17.9905 85.5919 17.8483 85.4497 17.7726C84.6777 17.3811 84.2918 16.8012 84.2918 16.0366C84.2918 15.5011 84.506 15.0449 84.9326 14.6645C85.3647 14.2859 85.8948 14.0957 86.5263 14.0957C87.0822 14.0957 87.5624 14.2379 87.9687 14.5223C88.3768 14.8012 88.6483 15.1502 88.7812 15.5694L87.9077 15.9351C87.8283 15.6636 87.6658 15.4383 87.4257 15.2592C87.1875 15.08 86.8902 14.9895 86.5485 14.9895C86.181 14.9895 85.8744 15.0911 85.6233 15.2924C85.3721 15.4826 85.2465 15.7282 85.2465 16.0311C85.2465 16.2804 85.3463 16.4965 85.542 16.6793C85.7581 16.8603 86.2272 17.0764 86.9529 17.3257C87.6916 17.5768 88.218 17.8853 88.5319 18.2472C88.8496 18.611 89.0047 19.0561 89.0047 19.5861Z" fill="#182346" fill-opacity="0.4"/>
<path fill-rule="evenodd" clip-rule="evenodd" d="M91.0875 15.1516V17.6909H92.6517C93.0229 17.6909 93.3313 17.5654 93.5751 17.3142C93.8244 17.0649 93.9518 16.7676 93.9518 16.4204C93.9518 16.0824 93.8244 15.7888 93.5751 15.5376C93.3313 15.2809 93.0229 15.1516 92.6517 15.1516H91.0875ZM91.0875 18.5848V21.5303H90.153V14.2578H92.6314C93.2611 14.2578 93.7948 14.4683 94.2362 14.8876C94.6813 15.3068 94.9047 15.8183 94.9047 16.4204C94.9047 17.0372 94.6813 17.5524 94.2362 17.9643C93.8022 18.3779 93.2685 18.5848 92.6314 18.5848H91.0875Z" fill="#182346" fill-opacity="0.4"/>
<path fill-rule="evenodd" clip-rule="evenodd" d="M96.3989 17.8945C96.3989 18.7348 96.663 19.4291 97.1911 19.9776C97.7267 20.5261 98.3897 20.7994 99.1819 20.7994C99.9742 20.7994 100.633 20.5261 101.162 19.9776C101.697 19.4347 101.965 18.7403 101.965 17.8945C101.965 17.0487 101.697 16.3543 101.162 15.8132C100.633 15.2647 99.9742 14.9895 99.1819 14.9895C98.3897 14.9895 97.7267 15.2647 97.1911 15.8132C96.663 16.3617 96.3989 17.0542 96.3989 17.8945ZM102.92 17.8945C102.92 18.9711 102.56 19.8724 101.843 20.5963C101.119 21.3276 100.231 21.6933 99.1819 21.6933C98.1256 21.6933 97.2373 21.3276 96.5189 20.5963C95.8024 19.8724 95.4423 18.9711 95.4423 17.8945C95.4423 16.8178 95.8024 15.9185 96.5189 15.1927C97.2373 14.4614 98.1256 14.0957 99.1819 14.0957C100.238 14.0957 101.127 14.4651 101.843 15.2038C102.56 15.9277 102.92 16.8252 102.92 17.8945Z" fill="#182346" fill-opacity="0.4"/>
<path fill-rule="evenodd" clip-rule="evenodd" d="M104.983 21.5303H104.049V14.2578H105.185L108.719 19.9144H108.762L108.719 18.5146V14.2578H109.654V21.5303H108.68L104.983 15.5986H104.943L104.983 17.0002V21.5303Z" fill="#182346" fill-opacity="0.4"/>
<path fill-rule="evenodd" clip-rule="evenodd" d="M112.742 12.3887L112.011 13.6888H111.198L111.726 12.3887H112.742ZM111.139 21.5301H112.073V14.2576H111.139V21.5301Z" fill="#182346" fill-opacity="0.4"/>
<path fill-rule="evenodd" clip-rule="evenodd" d="M116.329 21.5303H115.354L112.794 14.2578H113.829L115.821 20.1582H115.86L117.932 14.2578H118.97L116.329 21.5303Z" fill="#182346" fill-opacity="0.4"/>
<path fill-rule="evenodd" clip-rule="evenodd" d="M124.088 14.2578V15.1516H120.776V17.4564H123.761V18.3318H120.776V20.6365H124.088V21.5303H119.842V14.2578H124.088Z" fill="#182346" fill-opacity="0.4"/>
<path fill-rule="evenodd" clip-rule="evenodd" d="M129.451 21.5303H125.368V14.2578H126.302V20.6365H129.451V21.5303Z" fill="#182346" fill-opacity="0.4"/>
<path fill-rule="evenodd" clip-rule="evenodd" d="M133.635 21.5303H132.701V14.2578H133.837L137.371 19.9144H137.414L137.371 18.5146V14.2578H138.306V21.5303H137.333L133.635 15.5986H133.595L133.635 17.0002V21.5303Z" fill="#182346" fill-opacity="0.4"/>
<path fill-rule="evenodd" clip-rule="evenodd" d="M140.288 17.8945C140.288 18.7348 140.552 19.4291 141.08 19.9776C141.616 20.5261 142.279 20.7994 143.071 20.7994C143.863 20.7994 144.523 20.5261 145.051 19.9776C145.586 19.4347 145.854 18.7403 145.854 17.8945C145.854 17.0487 145.586 16.3543 145.051 15.8132C144.523 15.2647 143.863 14.9895 143.071 14.9895C142.279 14.9895 141.616 15.2647 141.08 15.8132C140.552 16.3617 140.288 17.0542 140.288 17.8945ZM146.809 17.8945C146.809 18.9711 146.449 19.8724 145.732 20.5963C145.008 21.3276 144.12 21.6933 143.071 21.6933C142.015 21.6933 141.127 21.3276 140.408 20.5963C139.692 19.8724 139.332 18.9711 139.332 17.8945C139.332 16.8178 139.692 15.9185 140.408 15.1927C141.127 14.4614 142.015 14.0957 143.071 14.0957C144.128 14.0957 145.016 14.4651 145.732 15.2038C146.449 15.9277 146.809 16.8252 146.809 17.8945Z" fill="#182346" fill-opacity="0.4"/>
</g>
<rect x="0.75" y="0.75" width="213.5" height="58.5" stroke="#182346" stroke-opacity="0.3" stroke-width="1.5"/>
</svg>
