<svg width="103" height="58" viewBox="0 0 103 58" fill="none" xmlns="http://www.w3.org/2000/svg">
<path d="M96.0995 0H6.86425C3.07323 0 0 3.05732 0 6.82871V50.0772C0 53.8486 3.07323 56.9059 6.86425 56.9059H96.0995C99.8905 56.9059 102.964 53.8486 102.964 50.0772V6.82871C102.964 3.05732 99.8905 0 96.0995 0Z" fill="white"/>
<mask id="mask0_173_1997" style="mask-type:alpha" maskUnits="userSpaceOnUse" x="35" y="22" width="24" height="22">
<path d="M35.7283 22.1611H58.7946V43.4457H35.7283V22.1611Z" fill="white"/>
</mask>
<g mask="url(#mask0_173_1997)">
<path fill-rule="evenodd" clip-rule="evenodd" d="M48.0361 31.3514C48.0186 31.3515 48.0011 31.3515 47.9836 31.3516C47.9836 32.1525 47.9898 32.9536 47.9801 33.7545C47.9767 34.0385 48.0573 34.1852 48.3762 34.1865C49.1298 34.1896 49.8836 34.2425 50.6368 34.2326C51.9273 34.2157 52.9534 33.7025 53.5118 32.5003C54.2273 30.9591 54.2537 29.3599 53.6437 27.793C53.078 26.3396 51.9185 25.6591 50.5572 25.8391C49.1854 26.0204 48.2006 27.0503 48.0519 28.6039C47.965 29.5121 48.0361 30.4351 48.0361 31.3514ZM47.5 24.5985C48.9097 22.6877 50.7946 22.0276 52.938 22.183C55.315 22.3551 56.9577 23.705 57.9622 25.814C58.8687 27.7169 58.9347 29.7323 58.6328 31.7779C58.4165 33.2423 57.894 34.5774 56.8529 35.6634C55.5867 36.9844 53.9647 37.5656 52.186 37.7025C50.9682 37.7963 49.7398 37.7749 48.5164 37.7671C48.0881 37.7643 47.9718 37.9096 47.9769 38.3172C47.996 39.8356 47.9846 41.3543 47.9846 42.873V43.4457H43.3785C43.371 43.2732 43.3567 43.0967 43.3565 42.9203C43.3548 41.4518 43.3557 39.9833 43.3557 38.5146C43.3556 37.7734 43.355 37.7806 42.6206 37.7351C41.2649 37.6511 39.9746 37.3258 38.8188 36.5963C37.111 35.5182 36.0967 33.9113 35.9522 31.9611C35.7455 29.1726 35.7915 26.3656 35.7319 23.5665C35.7245 23.2199 35.7309 22.8729 35.7309 22.4928H40.4618V23.0765C40.4619 25.4463 40.4428 27.8161 40.4708 30.1855C40.4829 31.2111 40.7039 32.2041 41.3484 33.0479C41.834 33.6837 42.4566 34.0785 43.3566 34.0939C43.3566 33.8745 43.3567 33.6966 43.3566 33.5186C43.3563 31.5494 43.3752 29.58 43.3495 27.6111C43.3295 26.0954 43.2676 24.5799 43.1935 23.0657C43.1715 22.615 43.3178 22.4977 43.7578 22.5115C44.7802 22.5434 45.8042 22.5294 46.8273 22.5168C47.1558 22.5127 47.3052 22.5975 47.3168 22.9631C47.3331 23.4752 47.427 23.9847 47.5 24.5985Z" fill="#182346"/>
</g>
<mask id="mask1_173_1997" style="mask-type:alpha" maskUnits="userSpaceOnUse" x="16" y="16" width="18" height="22">
<path d="M16.0166 16.646H33.2181V37.4153H16.0166V16.646Z" fill="white"/>
</mask>
<g mask="url(#mask1_173_1997)">
<path fill-rule="evenodd" clip-rule="evenodd" d="M28.4779 37.4031C28.4779 35.5129 28.478 33.7129 28.4779 31.913C28.4779 30.9785 28.4705 30.044 28.4816 29.1096C28.485 28.8125 28.3827 28.6957 28.0736 28.6968C25.7757 28.7057 23.4777 28.7098 21.1799 28.6959C20.7701 28.6934 20.7192 28.8886 20.7201 29.2211C20.7273 31.7742 20.7139 34.3272 20.7324 36.8801C20.7354 37.294 20.627 37.4242 20.2036 37.4148C18.9798 37.3881 17.755 37.4059 16.5305 37.4036C16.3675 37.4033 16.2046 37.3871 16.0166 37.3769V16.6862C16.2257 16.6752 16.4207 16.6565 16.6158 16.6561C17.8067 16.6534 18.9979 16.6711 20.1884 16.6464C20.6006 16.6378 20.7363 16.7531 20.7328 17.1754C20.7141 19.4445 20.7348 21.7141 20.7148 23.9832C20.711 24.423 20.7983 24.5906 21.2881 24.5846C23.5187 24.5569 25.7497 24.5625 27.9805 24.5814C28.3846 24.5849 28.4897 24.4653 28.4866 24.0716C28.469 21.7689 28.4865 19.4661 28.4697 17.1635C28.4669 16.7776 28.5606 16.6385 28.9696 16.6464C30.2272 16.6707 31.4856 16.669 32.7433 16.6469C33.1338 16.6401 33.2187 16.7833 33.2182 17.1428C33.2089 23.7507 33.2125 30.3585 33.1999 36.9664C33.1996 37.1121 33.0435 37.3829 32.9563 37.3844C31.4844 37.4105 30.0119 37.4031 28.4779 37.4031Z" fill="#182346"/>
</g>
<path fill-rule="evenodd" clip-rule="evenodd" d="M64.4022 28.186H69.8189C69.9932 26.6057 68.9518 25.3158 67.4489 25.2069C65.8409 25.0905 64.4371 26.4437 64.4022 28.186ZM64.4034 31.4258C64.5371 32.6217 65.2138 33.3217 66.1914 33.7615C67.3022 34.261 68.4903 34.3413 69.68 34.202C70.6052 34.0938 71.522 33.8992 72.4343 33.705C72.7112 33.6462 72.8075 33.7233 72.8545 33.9594C73.0164 34.7737 73.1686 35.5904 73.3438 36.4019C73.4075 36.6966 73.2806 36.8509 73.0322 36.9307C70.8383 37.6341 68.6023 37.9001 66.3036 37.6063C64.9824 37.4373 63.771 37.0057 62.6894 36.2347C61.3037 35.2471 60.4761 33.8652 60.1456 32.2428C59.7256 30.1822 59.8179 28.1233 60.78 26.199C62.212 23.3355 64.6021 22.06 67.7786 22.1173C71.5342 22.185 73.633 24.7133 74.0789 27.9431C74.2138 28.9193 74.0978 29.9284 74.1232 30.9217C74.1343 31.3594 73.9329 31.435 73.5436 31.4332C70.7261 31.4195 67.9086 31.4258 65.0911 31.4258H64.4034Z" fill="#182346"/>
<path fill-rule="evenodd" clip-rule="evenodd" d="M80.5847 37.3799H75.8807V22.468H79.8166C79.8642 23.3035 79.9122 24.148 79.9604 24.9924C80 25.0167 80.0398 25.0407 80.0795 25.0647C81.0734 22.9107 82.6865 21.8616 85.1058 22.1723V26.5293C84.8436 26.5031 84.6029 26.4735 84.3614 26.4558C82.9757 26.3535 81.7123 26.6256 81.0125 27.9417C80.7225 28.4869 80.6158 29.1808 80.6031 29.8105C80.5567 32.128 80.5847 34.447 80.5847 36.7654V37.3799Z" fill="#182346"/>
<path fill-rule="evenodd" clip-rule="evenodd" d="M38.0897 20.6432C36.5489 20.6429 35.5916 19.7277 35.6001 18.2633C35.6079 16.8868 36.6395 15.933 38.1195 15.9336C39.6355 15.9342 40.6229 16.8807 40.6495 18.3086C40.6731 19.5822 39.5747 20.7603 38.0897 20.6432Z" fill="#182346"/>
</svg>
