<svg width="103" height="58" viewBox="0 0 103 58" fill="none" xmlns="http://www.w3.org/2000/svg">
<path d="M96.0995 0H6.86425C3.07323 0 0 3.05732 0 6.82871V50.0772C0 53.8486 3.07323 56.9059 6.86425 56.9059H96.0995C99.8905 56.9059 102.964 53.8486 102.964 50.0772V6.82871C102.964 3.05732 99.8905 0 96.0995 0Z" fill="white"/>
<path d="M16.0166 34.9848C16.4894 33.1772 16.9407 31.147 17.3651 28.8952C17.7929 26.6429 18.1724 24.2718 18.5045 21.7777C18.7974 21.8166 19.007 21.8389 19.1324 21.852C19.2578 21.8647 19.3597 21.8713 19.4434 21.8713C19.554 21.8713 19.6856 21.8647 19.8411 21.852C19.9966 21.8358 20.1972 21.8136 20.4422 21.7777C20.167 22.706 19.889 23.8979 19.6076 25.3574L19.566 25.5639L19.207 27.4261C19.4612 27.4327 19.8292 27.4453 20.3015 27.4615C21.3447 27.4873 22.0357 27.5 22.3678 27.5C23.0521 27.5 24.1767 27.4777 25.7401 27.4357C25.8808 27.4357 25.9856 27.4327 26.0569 27.4261L26.4757 25.2993C26.6283 24.4873 26.7389 23.8235 26.8044 23.308C26.8733 22.793 26.9241 22.2805 26.9599 21.7777C27.1992 21.8166 27.3935 21.8389 27.5399 21.852C27.6897 21.8647 27.8242 21.8713 27.941 21.8713C28.0218 21.8713 28.1324 21.8647 28.2697 21.852C28.4071 21.8389 28.6195 21.8166 28.9124 21.7777C28.2759 24.3198 27.7433 26.73 27.3131 29.0081C26.8853 31.2861 26.5862 33.2804 26.4158 34.9848C26.099 34.9393 25.8894 34.914 25.7822 34.9039C25.6712 34.8943 25.5817 34.8912 25.5042 34.8912C25.3874 34.8912 25.253 34.8978 25.0974 34.9104C24.9419 34.9236 24.7328 34.9459 24.4696 34.9848C24.694 34.0985 24.8821 33.3123 25.0405 32.6293C25.1989 31.9464 25.3185 31.3985 25.3994 30.9831L25.8808 28.4344C25.3487 28.4344 24.7117 28.4313 23.9671 28.4247C23.2225 28.4182 22.7411 28.4151 22.5262 28.4151C21.9371 28.4151 21.3567 28.4151 20.792 28.4182C20.224 28.4217 19.6377 28.4278 19.0309 28.4344L18.6093 30.5769C18.4926 31.2184 18.382 31.9044 18.2715 32.6293C18.1638 33.3573 18.0561 34.1405 17.9456 34.9848C17.7154 34.9524 17.5269 34.9297 17.38 34.914C17.2307 34.8978 17.1024 34.8912 16.9976 34.8912C16.8928 34.8912 16.7674 34.8978 16.621 34.9104C16.4741 34.9236 16.274 34.9459 16.0166 34.9848ZM30.5777 22.3352C30.5777 22.0549 30.6615 21.8262 30.8285 21.6522C30.9931 21.4782 31.2085 21.3911 31.4717 21.3911C31.7468 21.3911 31.9588 21.4751 32.1115 21.639C32.2641 21.8035 32.3388 22.0357 32.3388 22.3352C32.3388 22.6028 32.255 22.8284 32.0847 23.0116C31.9143 23.1957 31.7047 23.2888 31.4535 23.2888C31.2027 23.2888 30.9931 23.1987 30.8285 23.0181C30.6615 22.838 30.5777 22.6094 30.5777 22.3352ZM28.5114 34.9848C29.0019 32.984 29.3814 31.1794 29.6537 29.5752C29.926 27.9704 30.0724 26.688 30.0963 25.7247C30.2724 25.7505 30.4342 25.7667 30.5864 25.7794C30.739 25.7925 30.8854 25.7991 31.0261 25.7991C31.1697 25.7991 31.3252 25.7925 31.4836 25.7794C31.6449 25.7667 31.8095 25.7505 31.9799 25.7247C31.5076 27.5546 31.1367 29.2595 30.8706 30.8349C30.6045 32.4133 30.4461 33.7959 30.3954 34.9848C30.126 34.9459 29.9226 34.9236 29.7853 34.9104C29.6479 34.8978 29.5312 34.8912 29.4292 34.8912C29.3488 34.8912 29.2412 34.8978 29.1062 34.9104C28.9722 34.9236 28.7746 34.9459 28.5114 34.9848ZM36.4256 34.1147C37.3224 34.1147 38.0727 33.6346 38.6742 32.6743C39.2748 31.7177 39.5768 30.5253 39.5768 29.1047C39.5768 28.2796 39.4035 27.6355 39.0566 27.165C38.7101 26.6976 38.2316 26.4628 37.6243 26.4628C36.6945 26.4628 35.9231 26.943 35.3043 27.9062C34.6856 28.8694 34.3745 30.0613 34.3745 31.4824C34.3745 32.3491 34.5477 33.0062 34.8918 33.4509C35.2354 33.8926 35.747 34.1147 36.4256 34.1147ZM30.9687 40.2619C31.5128 38.2418 32.0215 35.9966 32.4967 33.5217C32.9719 31.0474 33.3968 28.4505 33.7706 25.7247C33.929 25.744 34.0697 25.7571 34.1951 25.7667C34.3204 25.7763 34.4315 25.7829 34.5238 25.7829C34.6224 25.7829 34.742 25.7763 34.8827 25.7667C35.0234 25.7571 35.1818 25.744 35.3551 25.7247L35.0234 27.075C35.4656 26.5397 35.9384 26.1436 36.4375 25.8826C36.9366 25.6215 37.4812 25.4895 38.0727 25.4895C39.048 25.4895 39.8194 25.8345 40.3932 26.5271C40.9646 27.2197 41.2512 28.1571 41.2512 29.3399C41.2512 31.0185 40.7999 32.4168 39.894 33.5314C38.9877 34.6428 37.8487 35.2003 36.4763 35.2003C35.9111 35.2003 35.3972 35.0137 34.9306 34.6428C34.4669 34.2725 34.1443 33.7894 33.9649 33.1899L33.5701 35.3521C33.5462 35.471 33.5103 35.6582 33.4653 35.9091C33.1365 37.659 32.8882 39.109 32.7211 40.2619C32.5149 40.2235 32.3503 40.1977 32.2244 40.1784C32.099 40.1592 32.0005 40.1496 31.9225 40.1496C31.7999 40.1496 31.6597 40.1592 31.498 40.1784C31.3396 40.1977 31.1601 40.2235 30.9687 40.2619ZM43.5051 29.4527C43.676 29.4588 43.909 29.4654 44.2048 29.472C44.9078 29.4846 45.371 29.4912 45.5983 29.4912C45.8615 29.4912 46.3731 29.4846 47.132 29.472C47.4311 29.4654 47.6613 29.4588 47.8231 29.4527C47.8408 29.2463 47.8556 29.0693 47.8647 28.9241C47.8738 28.7794 47.8766 28.6534 47.8766 28.5472C47.8766 27.8222 47.7273 27.2551 47.4311 26.8428C47.132 26.4305 46.7195 26.2241 46.1965 26.2241C45.5715 26.2241 45.0154 26.5109 44.534 27.0876C44.0526 27.6644 43.7085 28.4536 43.5051 29.4527ZM43.3381 30.2678C43.3171 30.4742 43.2989 30.6801 43.2869 30.8829C43.275 31.0893 43.2692 31.2892 43.2692 31.4824C43.2692 32.391 43.4755 33.0872 43.8913 33.5733C44.3067 34.06 44.8987 34.3049 45.6701 34.3049C46.1544 34.3049 46.6181 34.1855 47.0665 33.9502C47.512 33.715 47.9815 33.3381 48.472 32.8226L48.6902 33.0128C48.6031 33.1995 48.5227 33.3993 48.4509 33.6123C48.3763 33.8212 48.3102 34.0408 48.2533 34.2659C47.7513 34.6074 47.267 34.8558 46.8033 35.0167C46.34 35.1781 45.8615 35.2585 45.371 35.2585C44.2048 35.2585 43.275 34.8846 42.5816 34.1405C41.891 33.3927 41.5441 32.391 41.5441 31.1344C41.5441 29.5301 41.9896 28.1829 42.8835 27.0973C43.7774 26.0116 44.9049 25.4703 46.2649 25.4703C47.2636 25.4703 48.0441 25.8052 48.6122 26.472C49.1773 27.1392 49.4611 28.064 49.4611 29.2463C49.4611 29.3106 49.4554 29.43 49.4434 29.6106C49.4314 29.7907 49.4166 30.0097 49.3984 30.2678C49.3061 30.2678 49.1682 30.2678 48.9888 30.2678C47.6584 30.242 46.7138 30.2288 46.1606 30.2288C46.0438 30.2288 45.6643 30.2323 45.0212 30.242C44.3785 30.2516 43.8191 30.2612 43.3381 30.2678ZM49.4463 34.9848C49.8798 33.203 50.2263 31.5148 50.4924 29.9167C50.7589 28.3185 50.9293 26.9202 51.0068 25.7247C51.1681 25.7505 51.3179 25.7667 51.4461 25.7794C51.5777 25.7925 51.6945 25.7991 51.7931 25.7991C51.9218 25.7991 52.0563 25.7925 52.1936 25.7794C52.3281 25.7667 52.475 25.7505 52.6276 25.7247C52.5377 26.008 52.463 26.3015 52.4032 26.6075C52.3405 26.9106 52.2893 27.2328 52.2505 27.5708C52.6453 26.9232 53.0698 26.4239 53.5244 26.0662C53.9757 25.7121 54.4126 25.5345 54.8342 25.5345C54.9089 25.5345 54.9864 25.5411 55.0673 25.5537C55.1448 25.5669 55.2285 25.5861 55.3151 25.6119C55.2405 25.8795 55.1807 26.1502 55.139 26.4209C55.1003 26.6915 55.073 26.9586 55.061 27.2227C54.8581 27.1777 54.6902 27.1458 54.559 27.1231C54.4274 27.1003 54.3078 27.0907 54.203 27.0907C53.3837 27.0907 52.7559 27.6386 52.3166 28.7374C51.8739 29.8327 51.5002 31.914 51.1891 34.9848C50.9858 34.9555 50.8125 34.9332 50.669 34.917C50.5254 34.9008 50.3967 34.8912 50.2861 34.8912C50.2172 34.8912 50.1277 34.8978 50.0201 34.9104C49.9124 34.9236 49.721 34.9459 49.4463 34.9848ZM61.2831 34.4658C60.8586 34.7238 60.4188 34.917 59.9704 35.046C59.522 35.175 59.0555 35.2393 58.5769 35.2393C57.4317 35.2393 56.5082 34.8624 55.8052 34.1116C55.1027 33.3609 54.75 32.3683 54.75 31.1344C54.75 29.5494 55.2161 28.2153 56.1521 27.1327C57.0848 26.05 58.2601 25.5087 59.6713 25.5087C60.2724 25.5087 60.8194 25.5735 61.3127 25.7025C61.8061 25.831 62.2579 26.0242 62.6675 26.2822C62.5445 26.5397 62.4402 26.8038 62.3531 27.075C62.2636 27.3457 62.1947 27.6158 62.1411 27.8865L61.8722 27.9062C61.6654 27.3841 61.3845 26.9784 61.0256 26.6915C60.6672 26.4047 60.2576 26.263 59.7938 26.263C58.8549 26.263 58.0596 26.7462 57.4112 27.716C56.7623 28.6858 56.4392 29.8651 56.4392 31.2568C56.4392 32.2362 56.6484 32.9905 57.0671 33.5157C57.483 34.0408 58.0807 34.3049 58.8583 34.3049C59.3842 34.3049 59.8747 34.189 60.3322 33.9599C60.7926 33.7312 61.1663 33.4089 61.4592 32.9936L61.7138 33.2091C61.6267 33.4059 61.5458 33.6088 61.4711 33.8182C61.3994 34.0312 61.3367 34.2437 61.2831 34.4658ZM66.805 33.712C66.3954 34.2143 65.98 34.5852 65.5522 34.8204C65.1248 35.0556 64.664 35.175 64.1677 35.175C63.4743 35.175 62.924 34.9717 62.5263 34.5659C62.1258 34.1597 61.9253 33.6123 61.9253 32.9192C61.9253 32.0364 62.1942 31.3534 62.7355 30.8673C63.2767 30.3775 64.2309 29.9941 65.5972 29.7103L67.1012 29.3976C67.3371 29.346 67.5075 29.1917 67.618 28.9337C67.7286 28.6762 67.7855 28.2957 67.7855 27.7934C67.7855 27.3001 67.6511 26.9172 67.3821 26.6399C67.1132 26.3627 66.7394 26.2241 66.2609 26.2241C65.7254 26.2241 65.2473 26.3561 64.8348 26.6171C64.419 26.8782 64.096 27.2521 63.8629 27.7352L63.5547 27.677C63.6026 27.4903 63.6356 27.3067 63.6595 27.1296C63.6835 26.9556 63.6954 26.7816 63.6954 26.6106C63.6954 26.5787 63.6925 26.5271 63.6863 26.4563C63.6806 26.3819 63.6777 26.3242 63.6777 26.2822C64.117 25.9984 64.5597 25.789 65.0081 25.6539C65.4593 25.5183 65.9379 25.451 66.4461 25.451C67.328 25.451 68.0038 25.6539 68.4794 26.0632C68.9518 26.472 69.1882 27.0553 69.1882 27.8126C69.1882 28.0317 69.17 28.3054 69.1312 28.6276C69.0924 28.9529 69.0384 29.301 68.9699 29.6718L68.3627 32.9486C68.3359 33.0932 68.3119 33.2288 68.2971 33.3573C68.2851 33.4863 68.276 33.6057 68.276 33.712C68.276 33.8956 68.3239 34.0342 68.4167 34.1339C68.5091 34.2341 68.6412 34.2857 68.8115 34.2857C68.88 34.2857 68.9575 34.276 69.0384 34.2563C69.1221 34.2401 69.2389 34.2047 69.3882 34.1567L69.6184 34.6529C69.3375 34.8234 69.0685 34.9494 68.8144 35.0329C68.5603 35.1138 68.3091 35.1553 68.0578 35.1553C67.6721 35.1553 67.3702 35.0298 67.1548 34.7819C66.9395 34.5335 66.8232 34.1789 66.805 33.712ZM67.373 30.0775L65.902 30.4448C65.0502 30.6543 64.4281 30.9411 64.0361 31.3054C63.6447 31.6691 63.4504 32.1431 63.4504 32.7229C63.4504 33.1484 63.5696 33.4959 63.806 33.76C64.0424 34.0246 64.3534 34.1567 64.7391 34.1567C65.2445 34.1567 65.7288 33.9599 66.1829 33.5703C66.6375 33.1803 66.9098 32.7295 66.9964 32.22L67.373 30.0775ZM69.8634 34.9848C70.2969 33.203 70.6439 31.5148 70.91 29.9167C71.176 28.3185 71.3464 26.9202 71.4239 25.7247C71.5857 25.7505 71.735 25.7667 71.8637 25.7794C71.9953 25.7925 72.1121 25.7991 72.2106 25.7991C72.3389 25.7991 72.4738 25.7925 72.6112 25.7794C72.7457 25.7667 72.8921 25.7505 73.0447 25.7247C72.9553 26.008 72.8801 26.3015 72.8203 26.6075C72.7576 26.9106 72.7069 27.2328 72.6677 27.5708C73.0625 26.9232 73.4874 26.4239 73.9415 26.0662C74.3933 25.7121 74.8297 25.5345 75.2513 25.5345C75.326 25.5345 75.404 25.5411 75.4844 25.5537C75.5619 25.5669 75.6461 25.5861 75.7327 25.6119C75.6581 25.8795 75.5983 26.1502 75.5561 26.4209C75.5174 26.6915 75.4906 26.9586 75.4786 27.2227C75.2752 27.1777 75.1078 27.1458 74.9762 27.1231C74.8446 27.1003 74.7249 27.0907 74.6206 27.0907C73.8013 27.0907 73.173 27.6386 72.7337 28.7374C72.291 29.8327 71.9173 31.914 71.6062 34.9848C71.4029 34.9555 71.2296 34.9332 71.0865 34.917C70.9425 34.9008 70.8143 34.8912 70.7037 34.8912C70.6348 34.8912 70.5453 34.8978 70.4372 34.9104C70.33 34.9236 70.1385 34.9459 69.8634 34.9848ZM81.4638 33.6346C80.9737 34.1789 80.4804 34.5786 79.9841 34.827C79.4879 35.0749 78.9347 35.2003 78.3274 35.2003C77.4009 35.2003 76.653 34.8462 76.0912 34.1374C75.526 33.4317 75.2451 32.4877 75.2451 31.3114C75.2451 29.6586 75.6906 28.2735 76.5845 27.1585C77.4785 26.047 78.5906 25.4895 79.9214 25.4895C80.5402 25.4895 81.0814 25.6666 81.5418 26.0242C82.005 26.3789 82.3371 26.8716 82.5405 27.5L82.953 25.3574C83.1353 24.4008 83.2909 23.5276 83.4253 22.7379C83.5603 21.9487 83.6766 21.1979 83.7751 20.4861C83.9934 20.5311 84.1637 20.5599 84.2896 20.5761C84.415 20.5923 84.514 20.5984 84.5916 20.5984C84.7083 20.5984 84.8456 20.5888 85.0074 20.5696C85.1658 20.5503 85.3453 20.5245 85.5362 20.4861C84.9237 22.8345 84.3824 25.2254 83.913 27.6644C83.4407 30.1033 83.0487 32.5423 82.7348 34.9848C82.5821 34.9651 82.4419 34.9494 82.3103 34.9393C82.1787 34.9297 82.0648 34.9266 81.9725 34.9266C81.8677 34.9266 81.7452 34.9297 81.6045 34.9393C81.4638 34.9494 81.3054 34.9651 81.1321 34.9848L81.4638 33.6346ZM80.0884 26.5949C79.1797 26.5949 78.4202 27.075 77.8163 28.0382C77.2124 29.0015 76.9104 30.203 76.9104 31.6433C76.9104 32.4781 77.0779 33.119 77.4095 33.5637C77.7417 34.0054 78.2197 34.2275 78.8447 34.2275C79.7984 34.2275 80.579 33.7474 81.192 32.7872C81.805 31.8305 82.1127 30.6158 82.1127 29.1527C82.1127 28.3215 81.9395 27.6866 81.5925 27.2521C81.2427 26.8139 80.7436 26.5949 80.0884 26.5949Z" fill="#182346"/>
</svg>
