<svg width="366" height="91" viewBox="0 0 366 91" fill="none" xmlns="http://www.w3.org/2000/svg">
<g clip-path="url(#clip0_1457_748)">
<path fill-rule="evenodd" clip-rule="evenodd" d="M233.96 44.6537C233.96 47.1282 234.338 49.4181 235.096 51.5253C235.852 53.632 236.956 55.4716 238.405 57.043C239.853 58.6145 241.582 59.8515 243.591 60.7541C245.6 61.6572 247.855 62.109 250.358 62.109C252.86 62.109 255.115 61.6572 257.125 60.7541C259.133 59.8515 260.862 58.6145 262.311 57.043C263.759 55.4716 264.863 53.632 265.62 51.5253C266.377 49.4181 266.756 47.1282 266.756 44.6537C266.756 42.1801 266.377 39.8887 265.62 37.7815C264.863 35.6748 263.759 33.8367 262.311 32.2643C260.862 30.6939 259.133 29.4553 257.125 28.5527C255.115 27.6496 252.86 27.1983 250.358 27.1983C247.855 27.1983 245.6 27.6496 243.591 28.5527C241.582 29.4553 239.853 30.6939 238.405 32.2643C236.956 33.8367 235.852 35.6748 235.096 37.7815C234.338 39.8887 233.96 42.1801 233.96 44.6537ZM226.255 21.1792H233.96V28.0008H234.157C236.264 25.4599 238.717 23.4868 241.517 22.0823C244.315 20.6778 247.395 19.9756 250.753 19.9756C254.374 19.9756 257.684 20.5949 260.681 21.8314C263.677 23.0699 266.229 24.7906 268.337 26.998C270.444 29.2044 272.091 31.813 273.276 34.8223C274.462 37.8321 275.055 41.1096 275.055 44.6537C275.055 48.1993 274.462 51.4747 273.276 54.4845C272.091 57.4938 270.461 60.1024 268.386 62.3088C266.312 64.5162 263.858 66.2394 261.027 67.4759C258.194 68.7119 255.165 69.3312 251.938 69.3312C247.79 69.3312 244.15 68.4119 241.023 66.5728C237.894 64.7338 235.605 62.4768 234.157 59.8014H233.96V91H226.255V21.1792ZM343.213 77.6579C342.407 79.6645 341.582 81.4853 340.743 83.1251C339.902 84.7633 338.893 86.1673 337.718 87.3385C336.541 88.5077 335.13 89.4108 333.483 90.0473C331.835 90.6817 329.836 91 327.484 91C326.34 91 325.148 90.9327 323.905 90.7996C322.66 90.665 321.501 90.3306 320.426 89.7964L321.434 82.9748C322.241 83.3087 323.081 83.5268 323.956 83.627C324.828 83.7271 325.837 83.7777 326.98 83.7777C329.534 83.7777 331.416 83.075 332.626 81.671C333.836 80.2665 334.877 78.393 335.752 76.0531L338.978 67.225L319.418 19.9756H328.594L343.213 56.7921H343.415L357.43 19.9756H366L343.213 77.6579Z" fill="white"/>
<path fill-rule="evenodd" clip-rule="evenodd" d="M15.1951 52.4078C15.9928 53.9805 17.0518 55.2538 18.3719 56.2284C19.6914 57.2045 21.2401 57.9264 23.0216 58.3987C24.8011 58.87 26.643 59.1059 28.5463 59.1059C29.8351 59.1059 31.2165 58.9963 32.6895 58.7756C34.1625 58.556 35.5435 58.1313 36.8328 57.5023C38.1216 56.8742 39.195 56.0092 40.0556 54.9078C40.9141 53.8085 41.3444 52.4078 41.3444 50.7093C41.3444 48.8865 40.776 47.4082 39.6407 46.2753C38.5043 45.1435 37.0165 44.1999 35.1756 43.445C33.3342 42.6906 31.2462 42.0301 28.9142 41.4644C26.5811 40.8983 24.2188 40.2702 21.8249 39.5772C19.369 38.9492 16.9751 38.1785 14.6435 37.2659C12.31 36.3552 10.2235 35.1757 8.38261 33.7284C6.54073 32.2825 5.05138 30.4734 3.91654 28.3036C2.77972 26.1338 2.2128 23.5085 2.2128 20.426C2.2128 16.9681 2.93371 13.9643 4.37652 11.4165C5.81833 8.86982 7.70626 6.74669 10.0388 5.0487C12.3714 3.35071 15.0114 2.09307 17.9574 1.27477C20.9035 0.458496 23.8505 0.048584 26.7965 0.048584C30.2337 0.048584 33.5327 0.442262 36.6946 1.2281C39.855 2.01495 42.6639 3.28882 45.1198 5.0487C47.5741 6.81061 49.5234 9.05803 50.9663 11.794C52.4071 14.5294 53.1295 17.8478 53.1295 21.747H39.1341C39.0109 19.7345 38.5964 18.0675 37.8919 16.7469C37.1848 15.4264 36.249 14.3884 35.083 13.6335C33.917 12.8791 32.5811 12.3454 31.0784 12.0299C29.5732 11.7159 27.9318 11.5586 26.1518 11.5586C24.9853 11.5586 23.8183 11.6854 22.6532 11.9355C21.4872 12.1877 20.4281 12.628 19.4765 13.2561C18.5249 13.8857 17.7421 14.6715 17.1291 15.6146C16.5146 16.5582 16.2086 17.754 16.2086 19.1998C16.2086 20.5209 16.4532 21.5908 16.9449 22.4076C17.4351 23.2254 18.4026 23.9803 19.8459 24.6717C21.2867 25.3642 23.2821 26.0557 25.83 26.7472C28.3765 27.4397 31.7067 28.3198 35.8202 29.3883C37.0472 29.6404 38.7499 30.096 40.93 30.7565C43.1081 31.417 45.2718 32.4707 47.4206 33.9171C49.5695 35.3645 51.4267 37.2983 52.9918 39.7188C54.5569 42.1407 55.3392 45.2379 55.3392 49.0118C55.3392 52.0937 54.7555 54.955 53.5895 57.5966C52.4229 60.2382 50.69 62.5186 48.3876 64.4358C46.0863 66.3554 43.2318 67.849 39.8253 68.9169C36.4188 69.9858 32.4737 70.521 27.9937 70.521C24.3709 70.521 20.8584 70.0639 17.4514 69.1528C14.0449 68.2422 11.0365 66.811 8.42816 64.8604C5.81833 62.9118 3.74671 60.4269 2.2128 57.4074C0.678391 54.3888 -0.0588578 50.8041 0.00352855 46.6528H13.9984C13.9984 48.9169 14.397 50.8361 15.1951 52.4078ZM91.6845 46.0633C91.1298 46.5649 90.4375 46.955 89.605 47.2366C88.7735 47.5181 87.8798 47.7528 86.9246 47.9405C85.9688 48.1277 84.9678 48.2847 83.9211 48.4088C82.8729 48.5355 81.8262 48.6909 80.7785 48.8786C79.7919 49.0663 78.8217 49.3166 77.8674 49.629C76.9112 49.9429 76.0797 50.3652 75.3724 50.8961C74.6627 51.4285 74.0926 52.1016 73.6622 52.9136C73.2303 53.7275 73.0151 54.7595 73.0151 56.0105C73.0151 57.1994 73.2303 58.201 73.6622 59.0135C74.0926 59.8269 74.6791 60.4678 75.4186 60.9371C76.1577 61.4064 77.02 61.7349 78.0061 61.9226C78.9907 62.1098 80.0071 62.2037 81.0563 62.2037C83.6443 62.2037 85.6457 61.7667 87.0637 60.8902C88.4802 60.0146 89.5274 58.966 90.2059 57.7464C90.8833 56.5262 91.2988 55.2919 91.4539 54.0399C91.607 52.7889 91.6845 51.7878 91.6845 51.0364V46.0633ZM61.3695 36.21C61.5544 33.0824 62.3243 30.4861 63.6801 28.4216C65.035 26.3572 66.7606 24.7 68.856 23.4481C70.9505 22.1976 73.3068 21.3054 75.9266 20.7736C78.5449 20.2432 81.1791 19.9757 83.8287 19.9757C86.2317 19.9757 88.6646 20.1488 91.1298 20.492C93.5935 20.8366 95.8435 21.5098 97.8768 22.51C99.9101 23.5111 101.574 24.9024 102.868 26.6857C104.162 28.4686 104.809 30.8307 104.809 33.7702V59.0135C104.809 61.204 104.931 63.2992 105.178 65.3006C105.424 67.3034 105.856 68.8047 106.473 69.8049H93.1631C92.9166 69.0545 92.7158 68.2885 92.5632 67.5058C92.4081 66.7241 92.3003 65.9263 92.2392 65.1129C90.1442 67.3034 87.679 68.8355 84.8451 69.7105C82.0106 70.5865 79.115 71.0245 76.1577 71.0245C73.8774 71.0245 71.7517 70.743 69.78 70.1803C67.8078 69.6171 66.0832 68.7416 64.6046 67.5527C63.126 66.3648 61.9704 64.8636 61.1389 63.0479C60.3074 61.2343 59.8909 59.0766 59.8909 56.5736C59.8909 53.8209 60.3675 51.5531 61.3238 49.7703C62.278 47.9874 63.5097 46.5649 65.0201 45.5001C66.5295 44.4374 68.2552 43.6396 70.1965 43.1072C72.1374 42.5769 74.0926 42.1545 76.0648 41.8406C78.0364 41.5282 79.9773 41.2774 81.8878 41.0902C83.7968 40.902 85.4922 40.6209 86.9708 40.2455C88.4494 39.8701 89.6199 39.323 90.4832 38.6029C91.345 37.8849 91.7456 36.8362 91.6845 35.4596C91.6845 34.0215 91.4539 32.879 90.9916 32.0342C90.5299 31.1895 89.9131 30.533 89.1432 30.0637C88.3719 29.5944 87.4792 29.282 86.4628 29.1256C85.4459 28.9697 84.3515 28.8909 83.182 28.8909C80.5946 28.8909 78.5603 29.4536 77.0817 30.5799C75.603 31.7057 74.7392 33.5829 74.4937 36.21H61.3695ZM108.691 29.4506V20.5912H116.618V16.8607C116.618 12.5709 117.954 9.05897 120.627 6.32284C123.3 3.58771 127.342 2.21965 132.751 2.21965C133.932 2.21965 135.113 2.26578 136.295 2.35956C137.475 2.45284 138.626 2.53107 139.745 2.59226V12.4776C138.19 12.2911 136.575 12.1978 134.896 12.1978C133.092 12.1978 131.802 12.6175 131.026 13.4565C130.248 14.296 129.86 15.7112 129.86 17.7002V20.5912H138.999V29.4506H129.86V68.805H116.618V29.4506H108.691ZM154.553 21.2634V30.0912H154.74C155.361 28.6201 156.2 27.2567 157.258 25.9992C158.314 24.7437 159.526 23.6701 160.895 22.7805C162.262 21.8924 163.723 21.2031 165.278 20.7116C166.831 20.2215 168.449 19.9757 170.128 19.9757C170.997 19.9757 171.961 20.13 173.018 20.4356V32.5741C172.396 32.4519 171.65 32.3446 170.78 32.2522C169.909 32.1602 169.069 32.1147 168.262 32.1147C165.837 32.1147 163.786 32.5138 162.107 33.3099C160.428 34.107 159.077 35.1949 158.051 36.5741C157.025 37.9532 156.293 39.5628 155.859 41.4019C155.423 43.2409 155.206 45.2342 155.206 47.3794V68.805H141.964V21.2634H154.553Z" fill="#C4AD6C"/>
<path fill-rule="evenodd" clip-rule="evenodd" d="M308.85 58.0729C307.714 59.3293 306.29 60.3421 304.579 61.1003C302.872 61.866 300.874 62.2429 298.589 62.2429C295.643 62.2429 293.176 61.6315 291.199 60.4072C289.222 59.1834 288.232 57.1122 288.232 54.1941C288.232 51.0168 289.71 48.7271 292.656 47.3404C295.61 45.9463 299.602 45.2532 304.628 45.2532H312.473V48.2365C312.407 50.1534 312.075 51.957 311.472 53.6513C310.865 55.3372 309.995 56.816 308.85 58.0729ZM331.634 61.0151H321.147C320.691 61.0151 320.318 60.6508 320.318 60.1962V39.5873C320.318 32.9647 318.775 28.0284 315.689 24.782C312.604 21.5402 307.578 19.9756 300.607 19.9756H270.618C271.878 20.8791 272.974 21.8238 274.048 22.9178C275.234 24.1255 276.305 25.435 277.265 26.8412H303.118C305.711 27.2426 307.812 28.3041 309.408 29.6496C311.451 31.3766 312.473 33.9254 312.473 37.3016V38.6917H309.453C306.573 38.6917 303.401 38.8255 299.951 39.0926C296.496 39.3603 293.279 40.0213 290.292 41.0787C287.314 42.1406 284.811 43.7618 282.804 45.9463C280.786 48.1307 279.784 51.1466 279.784 54.9929C279.784 57.242 280.248 59.228 281.188 60.95C282.128 62.6769 283.387 64.1157 284.963 65.2748C286.538 66.4299 288.385 67.313 290.498 67.9088C292.61 68.5047 294.867 68.8049 297.284 68.8049C300.907 68.8049 304.004 68.0391 306.593 66.5151C309.031 65.0764 311.004 63.2522 312.518 61.0437C312.949 65.3881 316.687 68.8003 321.184 68.8003H334.945L331.634 61.0151Z" fill="white"/>
<path fill-rule="evenodd" clip-rule="evenodd" d="M207.03 46.0631C206.476 46.5647 205.783 46.9548 204.951 47.2364C204.119 47.518 203.225 47.7526 202.271 47.9403C201.315 48.1276 200.314 48.2845 199.267 48.4086C198.219 48.5353 197.172 48.6907 196.124 48.8784C195.138 49.0662 194.168 49.3165 193.213 49.6288C192.257 49.9427 191.426 50.3651 190.718 50.8959C190.009 51.4283 189.439 52.1015 189.008 52.9134C188.576 53.7274 188.361 54.7593 188.361 56.0103C188.361 57.1992 188.576 58.2009 189.008 59.0133C189.439 59.8268 190.025 60.4676 190.764 60.9369C191.503 61.4062 192.365 61.7347 193.352 61.9225C194.337 62.1097 195.353 62.2035 196.402 62.2035C198.99 62.2035 200.992 61.7665 202.409 60.89C203.826 60.0145 204.873 58.9659 205.552 57.7462C206.229 56.526 206.645 55.2917 206.8 54.0397C206.952 52.7888 207.03 51.7876 207.03 51.0362V46.0631ZM176.715 36.2098C176.9 33.0822 177.67 30.4859 179.026 28.4215C180.38 26.3571 182.106 24.6999 184.201 23.4479C186.296 22.1974 188.652 21.3053 191.273 20.7734C193.891 20.243 196.525 19.9756 199.174 19.9756C201.578 19.9756 204.011 20.1487 206.476 20.4918C208.939 20.8365 211.189 21.5096 213.223 22.5098C215.256 23.511 216.92 24.9022 218.214 26.6856C219.508 28.4684 220.155 30.8306 220.155 33.77V59.0133C220.155 61.2039 220.277 63.2991 220.524 65.3004C220.77 67.3033 221.201 68.8045 221.818 69.8047H208.509C208.263 69.0543 208.062 68.2883 207.909 67.5056C207.754 66.724 207.646 65.9262 207.585 65.1127C205.49 67.3033 203.025 68.8353 200.191 69.7103C197.357 70.5864 194.46 71.0244 191.503 71.0244C189.223 71.0244 187.098 70.7428 185.126 70.1801C183.153 69.617 181.429 68.7415 179.95 67.5526C178.471 66.3647 177.316 64.8634 176.485 63.0478C175.653 61.2342 175.236 59.0764 175.236 56.5735C175.236 53.8207 175.713 51.5529 176.67 49.7701C177.624 47.9873 178.856 46.5647 180.366 45.5C181.875 44.4372 183.601 43.6394 185.542 43.1071C187.483 42.5767 189.439 42.1543 191.411 41.8404C193.382 41.5281 195.323 41.2773 197.234 41.0901C199.143 40.9018 200.838 40.6208 202.317 40.2453C203.795 39.8699 204.966 39.3229 205.829 38.6028C206.691 37.8847 207.092 36.8361 207.03 35.4595C207.03 34.0213 206.8 32.8788 206.338 32.0341C205.875 31.1893 205.259 30.5328 204.489 30.0635C203.717 29.5942 202.825 29.2819 201.808 29.1254C200.792 28.9695 199.697 28.8908 198.528 28.8908C195.94 28.8908 193.906 29.4534 192.428 30.5798C190.949 31.7056 190.085 33.5828 189.84 36.2098H176.715Z" fill="#C4AD6C"/>
</g>
<defs>
<clipPath id="clip0_1457_748">
<rect width="366" height="91" fill="white"/>
</clipPath>
</defs>
</svg>
