<svg width="716" height="178" viewBox="0 0 716 178" fill="none" xmlns="http://www.w3.org/2000/svg">
<g clip-path="url(#clip0_1457_748)">
<path fill-rule="evenodd" clip-rule="evenodd" d="M457.692 87.3446C457.692 92.1849 458.432 96.664 459.914 100.786C461.394 104.907 463.553 108.505 466.388 111.579C469.22 114.653 472.602 117.072 476.534 118.838C480.463 120.604 484.874 121.488 489.772 121.488C494.666 121.488 499.077 120.604 503.009 118.838C506.938 117.072 510.32 114.653 513.155 111.579C515.988 108.505 518.146 104.907 519.629 100.786C521.108 96.664 521.851 92.1849 521.851 87.3446C521.851 82.5063 521.108 78.0242 519.629 73.9024C518.146 69.7816 515.988 66.1862 513.155 63.1105C510.32 60.0386 506.938 57.616 503.009 55.8505C499.077 54.084 494.666 53.2013 489.772 53.2013C484.874 53.2013 480.463 54.084 476.534 55.8505C472.602 57.616 469.22 60.0386 466.388 63.1105C463.553 66.1862 461.394 69.7816 459.914 73.9024C458.432 78.0242 457.692 82.5063 457.692 87.3446ZM442.618 41.4276H457.692V54.7708H458.078C462.2 49.8009 466.998 45.9413 472.476 43.1941C477.95 40.4469 483.974 39.0732 490.544 39.0732C497.628 39.0732 504.103 40.2846 509.966 42.7032C515.828 45.1258 520.819 48.4916 524.944 52.8094C529.065 57.1252 532.287 62.2277 534.606 68.1141C536.925 74.0014 538.085 80.4122 538.085 87.3446C538.085 94.28 536.925 100.687 534.606 106.574C532.287 112.461 529.099 117.563 525.04 121.879C520.982 126.197 516.181 129.567 510.644 131.986C505.102 134.404 499.175 135.615 492.863 135.615C484.747 135.615 477.627 133.817 471.51 130.22C465.389 126.622 460.911 122.207 458.078 116.974H457.692V178H442.618V41.4276ZM671.423 151.902C669.845 155.827 668.232 159.389 666.59 162.596C664.945 165.801 662.972 168.547 660.673 170.838C658.37 173.125 655.609 174.892 652.388 176.137C649.164 177.378 645.254 178 640.652 178C638.415 178 636.082 177.868 633.651 177.608C631.215 177.345 628.947 176.691 626.844 175.646L628.817 162.302C630.396 162.956 632.038 163.382 633.749 163.578C635.456 163.774 637.429 163.873 639.666 163.873C644.662 163.873 648.345 162.498 650.711 159.752C653.079 157.005 655.115 153.34 656.826 148.763L663.138 131.495L624.873 39.0732H642.823L671.423 111.088H671.817L699.235 39.0732H716L671.423 151.902Z" fill="white"/>
<path fill-rule="evenodd" clip-rule="evenodd" d="M29.7261 102.512C31.2865 105.588 33.3584 108.079 35.9407 109.985C38.522 111.894 41.5519 113.307 45.037 114.23C48.5182 115.152 52.1214 115.614 55.8448 115.614C58.3661 115.614 61.0685 115.399 63.9501 114.968C66.8318 114.538 69.5332 113.707 72.0555 112.477C74.5768 111.248 76.6768 109.557 78.3602 107.402C80.0398 105.252 80.8815 102.512 80.8815 99.1896C80.8815 95.6242 79.7695 92.7325 77.5485 90.5166C75.3255 88.3027 72.4148 86.457 68.8135 84.9804C65.2113 83.5048 61.1266 82.2128 56.5644 81.1063C52.0003 79.9989 47.3791 78.7704 42.6958 77.4148C37.8915 76.1863 33.2082 74.679 28.647 72.8937C24.0819 71.1125 20.0002 68.8053 16.3989 65.9742C12.7956 63.146 9.88205 59.6074 7.66198 55.3632C5.43804 51.1189 4.32898 45.9836 4.32898 39.9542C4.32898 33.1904 5.73928 27.3148 8.56182 22.3313C11.3824 17.3498 15.0758 13.1969 19.6389 9.87554C24.202 6.5542 29.3667 4.0942 35.13 2.49357C40.8932 0.896899 46.6584 0.0950928 52.4217 0.0950928C59.1458 0.0950928 65.5997 0.865145 71.7852 2.40227C77.9679 3.94138 83.4629 6.43313 88.2672 9.87554C93.0686 13.3219 96.8821 17.718 99.7046 23.0696C102.523 28.4203 103.936 34.9111 103.936 42.5382H76.5576C76.3164 38.6016 75.5057 35.3408 74.1274 32.7578C72.7442 30.1747 70.9135 28.1444 68.6324 26.6678C66.3513 25.1922 63.738 24.1483 60.7983 23.5311C57.8537 22.9168 54.6427 22.6092 51.1605 22.6092C48.8785 22.6092 46.5955 22.8573 44.3163 23.3465C42.0352 23.8397 39.9634 24.701 38.1017 25.9295C36.24 27.161 34.7086 28.6981 33.5095 30.5429C32.3074 32.3886 31.7088 34.7276 31.7088 37.5557C31.7088 40.1398 32.1873 42.2326 33.1491 43.8303C34.1081 45.4299 36.0007 46.9065 38.8243 48.259C41.6429 49.6136 45.5464 50.9661 50.5309 52.3187C55.5125 53.6732 62.0274 55.3949 70.0747 57.4848C72.4749 57.978 75.806 58.8691 80.0708 60.1611C84.3317 61.4531 88.5646 63.5142 92.7683 66.3433C96.9721 69.1745 100.605 72.9573 103.667 77.6917C106.729 82.4291 108.259 88.4873 108.259 95.8693C108.259 101.898 107.117 107.494 104.836 112.662C102.554 117.829 99.1641 122.289 94.6601 126.039C90.1579 129.794 84.5739 132.716 77.9098 134.805C71.2457 136.895 63.5278 137.942 54.7638 137.942C47.6764 137.942 40.8051 137.048 34.14 135.266C27.476 133.485 21.5907 130.685 16.488 126.87C11.3824 123.058 7.32975 118.198 4.32898 112.291C1.32724 106.387 -0.115026 99.3752 0.00701958 91.2549H27.3849C27.3849 95.6837 28.1647 99.4377 29.7261 102.512ZM179.361 90.1019C178.276 91.083 176.922 91.846 175.293 92.3968C173.666 92.9476 171.918 93.4066 170.049 93.7738C168.18 94.14 166.221 94.447 164.174 94.6898C162.123 94.9375 160.075 95.2416 158.026 95.6087C156.096 95.9759 154.198 96.4655 152.331 97.0765C150.46 97.6905 148.834 98.5166 147.45 99.555C146.062 100.596 144.946 101.913 144.104 103.501C143.259 105.093 142.838 107.112 142.838 109.559C142.838 111.884 143.259 113.844 144.104 115.433C144.946 117.024 146.094 118.278 147.54 119.196C148.986 120.114 150.673 120.756 152.602 121.123C154.528 121.49 156.517 121.673 158.569 121.673C163.632 121.673 167.548 120.818 170.322 119.104C173.093 117.391 175.141 115.34 176.468 112.954C177.794 110.568 178.607 108.153 178.91 105.704C179.209 103.258 179.361 101.299 179.361 99.8294V90.1019ZM120.056 70.8284C120.418 64.7106 121.924 59.6321 124.577 55.594C127.227 51.5559 130.603 48.3144 134.702 45.8655C138.799 43.4196 143.409 41.6744 148.534 40.6341C153.656 39.5966 158.809 39.0735 163.993 39.0735C168.694 39.0735 173.453 39.4121 178.276 40.0833C183.096 40.7574 187.497 42.0742 191.475 44.0305C195.453 45.9889 198.707 48.7102 201.24 52.1985C203.77 55.6858 205.036 60.3063 205.036 66.056V115.433C205.036 119.718 205.276 123.816 205.759 127.731C206.24 131.649 207.084 134.585 208.291 136.541H182.254C181.771 135.074 181.379 133.575 181.08 132.044C180.777 130.515 180.566 128.955 180.446 127.364C176.348 131.649 171.525 134.645 165.981 136.357C160.436 138.07 154.771 138.927 148.986 138.927C144.525 138.927 140.367 138.376 136.51 137.276C132.652 136.174 129.278 134.462 126.385 132.136C123.492 129.813 121.232 126.876 119.605 123.325C117.978 119.777 117.164 115.556 117.164 110.661C117.164 105.276 118.096 100.84 119.967 97.3529C121.834 93.8656 124.243 91.083 127.198 89.0003C130.151 86.9216 133.527 85.361 137.324 84.3197C141.121 83.2823 144.946 82.4561 148.804 81.8421C152.662 81.2311 156.458 80.7406 160.196 80.3744C163.931 80.0062 167.247 79.4564 170.14 78.722C173.032 77.9876 175.322 76.9177 177.011 75.5091C178.697 74.1045 179.481 72.0534 179.361 69.3607C179.361 66.5475 178.91 64.3128 178.006 62.6604C177.102 61.0081 175.896 59.7239 174.39 58.806C172.881 57.888 171.134 57.277 169.146 56.971C167.157 56.666 165.016 56.512 162.728 56.512C157.666 56.512 153.686 57.6126 150.794 59.8157C147.901 62.0179 146.211 65.6898 145.731 70.8284H120.056ZM212.63 57.6067V40.2774H228.138V32.9802C228.138 24.5893 230.752 17.7198 235.982 12.3678C241.211 7.01778 249.118 4.34179 259.699 4.34179C262.008 4.34179 264.32 4.43203 266.631 4.61547C268.941 4.79792 271.192 4.95095 273.382 5.07063V24.4069C270.34 24.0419 267.18 23.8595 263.895 23.8595C260.366 23.8595 257.843 24.6805 256.325 26.3216C254.802 27.9637 254.044 30.7319 254.044 34.6223V40.2774H271.922V57.6067H254.044V134.586H228.138V57.6067H212.63ZM302.35 41.5922V58.8598H302.716C303.93 55.9822 305.572 53.3155 307.641 50.8557C309.708 48.3998 312.079 46.2999 314.756 44.5598C317.43 42.8226 320.289 41.4742 323.331 40.5128C326.369 39.5542 329.533 39.0735 332.818 39.0735C334.519 39.0735 336.404 39.3753 338.473 39.973V63.7164C337.256 63.4775 335.795 63.2676 334.095 63.0867C332.39 62.9068 330.747 62.8178 329.168 62.8178C324.425 62.8178 320.412 63.5984 317.128 65.1557C313.843 66.7149 311.199 68.8429 309.192 71.5406C307.186 74.2383 305.754 77.3867 304.905 80.984C304.052 84.5812 303.627 88.4802 303.627 92.6762V134.586H277.721V41.5922H302.35Z" fill="#C4AD6C"/>
<path fill-rule="evenodd" clip-rule="evenodd" d="M604.199 113.593C601.975 116.051 599.19 118.032 595.843 119.515C592.504 121.013 588.595 121.75 584.124 121.75C578.361 121.75 573.536 120.554 569.668 118.159C565.8 115.765 563.865 111.714 563.865 106.006C563.865 99.7913 566.755 95.3125 572.518 92.6001C578.296 89.873 586.106 88.5173 595.939 88.5173H611.286V94.3528C611.158 98.1023 610.507 101.63 609.328 104.944C608.14 108.242 606.438 111.135 604.199 113.593ZM648.771 119.348H628.255C627.363 119.348 626.633 118.636 626.633 117.747V77.4346C626.633 64.4805 623.615 54.825 617.578 48.4749C611.543 42.1336 601.71 39.0732 588.073 39.0732H529.406C531.87 40.8406 534.014 42.6884 536.116 44.8283C538.437 47.1907 540.532 49.7521 542.41 52.5027H592.985C598.058 53.2879 602.168 55.3641 605.29 57.9961C609.287 61.3741 611.286 66.3596 611.286 72.9636V75.6828H605.379C599.744 75.6828 593.539 75.9446 586.789 76.4671C580.03 76.9905 573.738 78.2835 567.894 80.3518C562.067 82.429 557.171 85.6001 553.246 89.873C549.297 94.146 547.338 100.045 547.338 107.569C547.338 111.968 548.246 115.853 550.084 119.221C551.922 122.599 554.385 125.413 557.468 127.681C560.55 129.94 564.162 131.667 568.296 132.833C572.429 133.998 576.843 134.585 581.572 134.585C588.659 134.585 594.719 133.088 599.784 130.107C604.552 127.292 608.413 123.724 611.374 119.404C612.217 127.902 619.53 134.577 628.327 134.577H655.249L648.771 119.348Z" fill="white"/>
<path fill-rule="evenodd" clip-rule="evenodd" d="M405.01 90.1016C403.925 91.0828 402.57 91.8458 400.942 92.3966C399.316 92.9474 397.566 93.4063 395.699 93.7735C393.829 94.1397 391.871 94.4467 389.822 94.6895C387.772 94.9373 385.725 95.2413 383.675 95.6085C381.745 95.9757 379.847 96.4653 377.98 97.0763C376.11 97.6902 374.483 98.5164 373.098 99.5548C371.711 100.596 370.596 101.913 369.754 103.501C368.909 105.093 368.488 107.112 368.488 109.559C368.488 111.884 368.909 113.844 369.754 115.433C370.596 117.024 371.742 118.277 373.189 119.195C374.635 120.113 376.322 120.756 378.252 121.123C380.178 121.489 382.166 121.673 384.219 121.673C389.281 121.673 393.197 120.818 395.97 119.104C398.742 117.391 400.79 115.34 402.118 112.954C403.443 110.567 404.256 108.153 404.559 105.704C404.858 103.257 405.01 101.299 405.01 99.8292V90.1016ZM345.705 70.8282C346.067 64.7103 347.574 59.6319 350.226 55.5938C352.875 51.5557 356.251 48.3142 360.351 45.8652C364.448 43.4193 369.058 41.6742 374.184 40.6338C379.306 39.5964 384.458 39.0732 389.641 39.0732C394.343 39.0732 399.103 39.4118 403.925 40.083C408.745 40.7572 413.147 42.0739 417.124 44.0303C421.102 45.9886 424.356 48.71 426.888 52.1983C429.419 55.6856 430.685 60.306 430.685 66.0557V115.433C430.685 119.718 430.925 123.816 431.408 127.731C431.89 131.648 432.733 134.585 433.939 136.541H407.903C407.421 135.073 407.028 133.575 406.729 132.044C406.426 130.515 406.214 128.955 406.096 127.363C401.997 131.648 397.175 134.645 391.631 136.357C386.086 138.07 380.42 138.927 374.635 138.927C370.175 138.927 366.016 138.376 362.159 137.276C358.3 136.174 354.926 134.461 352.033 132.136C349.141 129.812 346.88 126.876 345.255 123.324C343.627 119.777 342.812 115.556 342.812 110.66C342.812 105.276 343.746 100.84 345.616 97.3526C347.482 93.8653 349.892 91.0828 352.847 89.0001C355.8 86.9213 359.176 85.3608 362.974 84.3194C366.77 83.282 370.596 82.4558 374.454 81.8419C378.311 81.2309 382.107 80.7403 385.845 80.3741C389.58 80.0059 392.897 79.4561 395.789 78.7217C398.682 77.9874 400.971 76.9174 402.66 75.5088C404.346 74.1042 405.13 72.0531 405.01 69.3604C405.01 66.5473 404.559 64.3125 403.655 62.6602C402.751 61.0078 401.544 59.7237 400.038 58.8057C398.529 57.8877 396.784 57.2767 394.794 56.9707C392.806 56.6657 390.665 56.5118 388.377 56.5118C383.314 56.5118 379.336 57.6123 376.443 59.8155C373.551 62.0176 371.86 65.6895 371.38 70.8282H345.705Z" fill="#C4AD6C"/>
</g>
<defs>
<clipPath id="clip0_1457_748">
<rect width="716" height="178" fill="white"/>
</clipPath>
</defs>
</svg>
