<svg width="129" height="32" viewBox="0 0 129 32" fill="none" xmlns="http://www.w3.org/2000/svg">
<g clip-path="url(#clip0_173_1550)">
<path fill-rule="evenodd" clip-rule="evenodd" d="M82.3335 15.7024C82.3335 16.5725 82.4665 17.3777 82.7332 18.1188C82.9994 18.8596 83.3877 19.5065 83.8977 20.0591C84.4072 20.6117 85.0156 21.0466 85.7229 21.364C86.4296 21.6816 87.2232 21.8405 88.1042 21.8405C88.9847 21.8405 89.7782 21.6816 90.4855 21.364C91.1922 21.0466 91.8006 20.6117 92.3107 20.0591C92.8202 19.5065 93.2085 18.8596 93.4752 18.1188C93.7413 17.3777 93.8749 16.5725 93.8749 15.7024C93.8749 14.8325 93.7413 14.0268 93.4752 13.2858C93.2085 12.545 92.8202 11.8986 92.3107 11.3457C91.8006 10.7934 91.1922 10.3579 90.4855 10.0405C89.7782 9.72292 88.9847 9.56422 88.1042 9.56422C87.2232 9.56422 86.4296 9.72292 85.7229 10.0405C85.0156 10.3579 84.4072 10.7934 83.8977 11.3457C83.3877 11.8986 82.9994 12.545 82.7332 13.2858C82.4665 14.0268 82.3335 14.8325 82.3335 15.7024ZM79.6219 7.44761H82.3335V9.84639H82.4029C83.1444 8.95292 84.0075 8.25906 84.9928 7.76518C85.9777 7.27129 87.0614 7.02435 88.2432 7.02435C89.5175 7.02435 90.6822 7.24212 91.737 7.67693C92.7914 8.11246 93.6893 8.71754 94.4313 9.49377C95.1727 10.2696 95.7522 11.187 96.1694 12.2452C96.5866 13.3036 96.7952 14.4561 96.7952 15.7024C96.7952 16.9492 96.5866 18.101 96.1694 19.1594C95.7522 20.2176 95.1787 21.1349 94.4486 21.9108C93.7185 22.687 92.8549 23.293 91.8588 23.7278C90.8619 24.1624 89.7958 24.3802 88.6603 24.3802C87.2004 24.3802 85.9194 24.0569 84.8191 23.4102C83.718 22.7635 82.9126 21.9698 82.4029 21.029H82.3335V32H79.6219V7.44761ZM120.781 27.3083C120.497 28.0138 120.207 28.6542 119.912 29.2308C119.616 29.8068 119.261 30.3005 118.847 30.7124C118.433 31.1236 117.936 31.4411 117.357 31.665C116.777 31.8881 116.074 32 115.246 32C114.843 32 114.424 31.9763 113.986 31.9295C113.548 31.8822 113.14 31.7646 112.762 31.5767L113.117 29.1779C113.401 29.2953 113.696 29.372 114.004 29.4073C114.311 29.4425 114.666 29.4603 115.068 29.4603C115.967 29.4603 116.63 29.2132 117.055 28.7194C117.481 28.2256 117.848 27.5668 118.155 26.7439L119.291 23.6395L112.407 7.02435H115.636L120.781 19.9708H120.852L125.784 7.02435H128.8L120.781 27.3083Z" fill="white"/>
<path fill-rule="evenodd" clip-rule="evenodd" d="M5.34739 18.4291C5.6281 18.9821 6.0008 19.4299 6.46533 19.7726C6.92969 20.1159 7.47472 20.3697 8.10164 20.5358C8.72787 20.7015 9.37605 20.7845 10.0458 20.7845C10.4994 20.7845 10.9855 20.746 11.5039 20.6684C12.0223 20.5911 12.5082 20.4418 12.962 20.2206C13.4155 19.9997 13.7933 19.6956 14.0961 19.3083C14.3982 18.9217 14.5497 18.4291 14.5497 17.8318C14.5497 17.1909 14.3496 16.671 13.9501 16.2726C13.5502 15.8746 13.0266 15.5428 12.3788 15.2774C11.7308 15.0121 10.996 14.7798 10.1753 14.5809C9.35427 14.3818 8.52296 14.161 7.6805 13.9173C6.81625 13.6964 5.97379 13.4254 5.15329 13.1045C4.33208 12.7843 3.59782 12.3695 2.94999 11.8605C2.30181 11.3521 1.77769 10.7159 1.37832 9.95292C0.978262 9.18992 0.778754 8.26671 0.778754 7.18277C0.778754 5.96682 1.03245 4.91053 1.54019 4.01461C2.04759 3.11906 2.71197 2.37247 3.53283 1.77537C4.35369 1.17828 5.28275 0.736031 6.31949 0.448276C7.35623 0.161235 8.39332 0.0170898 9.43007 0.0170898C10.6397 0.0170898 11.8006 0.155526 12.9133 0.431863C14.0255 0.708557 15.014 1.15651 15.8783 1.77537C16.742 2.39495 17.428 3.18525 17.9357 4.14734C18.4428 5.10926 18.697 6.27616 18.697 7.64732H13.7718C13.7285 6.93962 13.5826 6.3534 13.3347 5.88903C13.0858 5.42467 12.7565 5.05967 12.3462 4.79421C11.9358 4.52893 11.4657 4.34126 10.9369 4.2303C10.4072 4.11987 9.8296 4.06457 9.2032 4.06457C8.79269 4.06457 8.382 4.10917 7.972 4.19711C7.56166 4.28578 7.18896 4.44063 6.85407 4.66148C6.51917 4.88287 6.24369 5.15921 6.02798 5.49085C5.81175 5.82267 5.70406 6.24315 5.70406 6.75158C5.70406 7.21613 5.79014 7.59237 5.96316 7.87959C6.13566 8.16717 6.47613 8.43262 6.98405 8.67578C7.4911 8.91929 8.19329 9.16245 9.08994 9.4056C9.98607 9.64911 11.158 9.95863 12.6056 10.3343C13.0374 10.423 13.6366 10.5832 14.4038 10.8155C15.1703 11.0477 15.9317 11.4183 16.688 11.9269C17.4442 12.4359 18.0978 13.1159 18.6485 13.967C19.1993 14.8187 19.4746 15.9078 19.4746 17.2349C19.4746 18.3187 19.2692 19.3248 18.8588 20.2538C18.4483 21.1827 17.8385 21.9846 17.0283 22.6587C16.2184 23.3338 15.2139 23.859 14.0151 24.2345C12.8163 24.6104 11.4279 24.7986 9.85138 24.7986C8.57645 24.7986 7.34038 24.6379 6.14141 24.3175C4.94263 23.9972 3.88393 23.494 2.96602 22.808C2.04759 22.1228 1.31856 21.249 0.778754 20.1872C0.238777 19.1258 -0.0206698 17.8652 0.0012847 16.4054H4.92625C4.92625 17.2016 5.06651 17.8764 5.34739 18.4291ZM32.265 16.1981C32.0698 16.3745 31.8261 16.5116 31.5332 16.6107C31.2405 16.7097 30.9261 16.7922 30.5899 16.8582C30.2535 16.924 29.9013 16.9792 29.5329 17.0229C29.1641 17.0674 28.7957 17.1221 28.427 17.1881C28.0798 17.2541 27.7384 17.3421 27.4026 17.452C27.0661 17.5623 26.7734 17.7108 26.5245 17.8975C26.2748 18.0847 26.0742 18.3215 25.9227 18.607C25.7707 18.8932 25.695 19.2561 25.695 19.696C25.695 20.1141 25.7707 20.4663 25.9227 20.752C26.0742 21.038 26.2806 21.2634 26.5408 21.4284C26.8009 21.5935 27.1044 21.709 27.4514 21.775C27.7979 21.8408 28.1555 21.8738 28.5248 21.8738C29.4355 21.8738 30.1399 21.7202 30.6389 21.4119C31.1373 21.1041 31.5059 20.7353 31.7446 20.3064C31.983 19.8773 32.1292 19.4433 32.1838 19.003C32.2377 18.5631 32.265 18.2111 32.265 17.9469V16.1981ZM21.5967 12.7332C21.6618 11.6334 21.9327 10.7204 22.4099 9.99443C22.8867 9.26848 23.4939 8.68573 24.2314 8.24548C24.9684 7.80576 25.7976 7.49202 26.7196 7.30499C27.641 7.11849 28.568 7.02444 29.5004 7.02444C30.3461 7.02444 31.2022 7.08531 32.0698 7.20597C32.9368 7.32717 33.7286 7.56389 34.4441 7.9156C35.1597 8.26766 35.7451 8.75689 36.2007 9.384C36.6558 10.0109 36.8835 10.8416 36.8835 11.8752V20.752C36.8835 21.5223 36.9267 22.2591 37.0137 22.9628C37.1002 23.6671 37.2521 24.1951 37.4691 24.5468H32.7853C32.6986 24.2829 32.6279 24.0135 32.5742 23.7383C32.5196 23.4634 32.4817 23.1829 32.4602 22.8968C31.7229 23.6671 30.8554 24.2059 29.8581 24.5136C28.8606 24.8216 27.8416 24.9757 26.8009 24.9757C25.9984 24.9757 25.2504 24.8766 24.5565 24.6788C23.8625 24.4808 23.2556 24.1729 22.7352 23.7548C22.2149 23.3371 21.8082 22.8092 21.5156 22.1707C21.223 21.533 21.0764 20.7742 21.0764 19.894C21.0764 18.926 21.2441 18.1286 21.5806 17.5016C21.9165 16.8747 22.3499 16.3745 22.8814 16.0001C23.4126 15.6263 24.0199 15.3458 24.7031 15.1586C25.3861 14.9721 26.0742 14.8236 26.7682 14.7132C27.462 14.6033 28.1451 14.5152 28.8174 14.4493C29.4892 14.3831 30.0858 14.2843 30.6062 14.1523C31.1265 14.0202 31.5384 13.8279 31.8422 13.5747C32.1455 13.3222 32.2865 12.9534 32.265 12.4693C32.265 11.9636 32.1838 11.5618 32.0211 11.2648C31.8587 10.9677 31.6416 10.7369 31.3707 10.5719C31.0992 10.4068 30.7851 10.297 30.4274 10.242C30.0695 10.1871 29.6844 10.1595 29.2728 10.1595C28.3623 10.1595 27.6464 10.3573 27.126 10.7534C26.6057 11.1493 26.3017 11.8094 26.2153 12.7332H21.5967ZM38.2497 10.3562V7.24088H41.0394V5.92903C41.0394 4.42054 41.5095 3.18558 42.4504 2.22342C43.391 1.26162 44.8135 0.780541 46.7168 0.780541C47.1323 0.780541 47.548 0.796765 47.9638 0.829742C48.3793 0.862543 48.7843 0.890053 49.1782 0.911568V4.38774C48.6309 4.32214 48.0625 4.28934 47.4716 4.28934C46.8368 4.28934 46.3829 4.43694 46.1099 4.73198C45.836 5.02718 45.6996 5.52484 45.6996 6.22423V7.24088H48.9156V10.3562H45.6996V24.1952H41.0394V10.3562H38.2497ZM54.3892 7.47725V10.5815H54.4551C54.6735 10.0642 54.9688 9.58479 55.341 9.14259C55.7128 8.70109 56.1394 8.32357 56.6208 8.01075C57.1019 7.69844 57.6162 7.45604 58.1635 7.28319C58.71 7.11087 59.2792 7.02444 59.8701 7.02444C60.1761 7.02444 60.5151 7.0787 60.8873 7.18616V11.4546C60.6685 11.4117 60.4057 11.3739 60.0998 11.3414C59.7931 11.3091 59.4975 11.2931 59.2135 11.2931C58.3603 11.2931 57.6384 11.4334 57.0476 11.7134C56.4567 11.9937 55.9811 12.3762 55.62 12.8612C55.2591 13.3462 55.0016 13.9122 54.8488 14.5589C54.6954 15.2056 54.619 15.9066 54.619 16.6609V24.1952H49.9588V7.47725H54.3892Z" fill="#C4AD6C"/>
<path fill-rule="evenodd" clip-rule="evenodd" d="M108.688 20.4212C108.288 20.863 107.787 21.2192 107.185 21.4858C106.585 21.7551 105.881 21.8876 105.077 21.8876C104.04 21.8876 103.173 21.6726 102.477 21.2421C101.781 20.8117 101.433 20.0834 101.433 19.0572C101.433 17.94 101.953 17.1348 102.989 16.6472C104.029 16.1569 105.434 15.9132 107.202 15.9132H109.963V16.9623C109.94 17.6363 109.823 18.2706 109.611 18.8664C109.397 19.4592 109.091 19.9792 108.688 20.4212ZM116.706 21.4558H113.016C112.855 21.4558 112.724 21.3277 112.724 21.1679V13.9208C112.724 11.5919 112.181 9.85612 111.095 8.71453C110.009 7.57453 108.241 7.02435 105.788 7.02435H95.234C95.6773 7.34209 96.0629 7.67427 96.4411 8.05897C96.8585 8.48368 97.2354 8.94416 97.5732 9.43865H106.671C107.584 9.5798 108.323 9.95305 108.885 10.4262C109.604 11.0335 109.963 11.9298 109.963 13.117V13.6059H108.901C107.887 13.6059 106.771 13.6529 105.557 13.7468C104.341 13.8409 103.209 14.0734 102.158 14.4452C101.109 14.8186 100.229 15.3887 99.5225 16.1569C98.8121 16.9251 98.4596 17.9856 98.4596 19.3381C98.4596 20.129 98.623 20.8274 98.9536 21.4329C99.2843 22.0402 99.7274 22.5461 100.282 22.9538C100.836 23.36 101.486 23.6705 102.23 23.88C102.973 24.0895 103.767 24.1951 104.618 24.1951C105.893 24.1951 106.983 23.9258 107.894 23.3899C108.752 22.884 109.446 22.2425 109.979 21.4659C110.131 22.9936 111.446 24.1935 113.029 24.1935H117.872L116.706 21.4558Z" fill="white"/>
<path fill-rule="evenodd" clip-rule="evenodd" d="M72.8567 16.198C72.6615 16.3744 72.4176 16.5116 72.1248 16.6106C71.8322 16.7096 71.5176 16.7921 71.1816 16.8581C70.8452 16.9239 70.493 16.9791 70.1244 17.0228C69.7557 17.0673 69.3874 17.122 69.0187 17.188C68.6715 17.254 68.3301 17.342 67.9943 17.4519C67.6577 17.5622 67.3651 17.7108 67.1161 17.8974C66.8665 18.0846 66.6659 18.3214 66.5144 18.6069C66.3624 18.8931 66.2867 19.256 66.2867 19.6959C66.2867 20.114 66.3624 20.4662 66.5144 20.7519C66.6659 21.038 66.8721 21.2633 67.1323 21.4283C67.3924 21.5934 67.6959 21.7089 68.0431 21.7749C68.3895 21.8407 68.7472 21.8737 69.1165 21.8737C70.027 21.8737 70.7315 21.7201 71.2304 21.4118C71.729 21.104 72.0974 20.7352 72.3363 20.3063C72.5747 19.8772 72.7209 19.4432 72.7755 19.003C72.8292 18.5631 72.8567 18.211 72.8567 17.9468V16.198ZM62.1883 12.7331C62.2535 11.6333 62.5244 10.7203 63.0016 9.99434C63.4782 9.26839 64.0855 8.68564 64.8229 8.24539C65.5599 7.80567 66.3891 7.49193 67.3113 7.3049C68.2327 7.1184 69.1595 7.02435 70.0919 7.02435C70.9378 7.02435 71.7939 7.08522 72.6615 7.20588C73.5285 7.32708 74.3203 7.5638 75.0358 7.91551C75.7514 8.26757 76.3368 8.7568 76.7922 9.38391C77.2475 10.0108 77.4752 10.8415 77.4752 11.8751V20.7519C77.4752 21.5222 77.5184 22.259 77.6052 22.9628C77.6919 23.6671 77.8436 24.195 78.0606 24.5467H73.377C73.2902 24.2828 73.2196 24.0134 73.1659 23.7382C73.1113 23.4633 73.0732 23.1828 73.0518 22.8967C72.3146 23.6671 71.4471 24.2058 70.4498 24.5135C69.4523 24.8215 68.4331 24.9756 67.3924 24.9756C66.5901 24.9756 65.842 24.8766 65.1482 24.6787C64.454 24.4807 63.8471 24.1728 63.3267 23.7547C62.8064 23.337 62.3997 22.8091 62.1073 22.1706C61.8145 21.5329 61.6679 20.7741 61.6679 19.8939C61.6679 18.9259 61.8358 18.1285 62.1723 17.5015C62.508 16.8746 62.9416 16.3744 63.4731 16C64.0043 15.6263 64.6116 15.3457 65.2948 15.1585C65.9776 14.972 66.6659 14.8235 67.3599 14.7131C68.0537 14.6033 68.7366 14.5151 69.4091 14.4492C70.0809 14.383 70.6775 14.2842 71.1978 14.1522C71.7182 14.0202 72.1301 13.8278 72.4339 13.5746C72.7372 13.3221 72.8782 12.9533 72.8567 12.4692C72.8567 11.9635 72.7755 11.5618 72.6128 11.2647C72.4502 10.9677 72.2331 10.7368 71.9622 10.5718C71.6907 10.4067 71.3768 10.2969 71.0189 10.2419C70.6612 10.187 70.2761 10.1594 69.8645 10.1594C68.9538 10.1594 68.2381 10.3572 67.7177 10.7533C67.1974 11.1492 66.8932 11.8093 66.807 12.7331H62.1883Z" fill="#C4AD6C"/>
</g>
<defs>
<clipPath id="clip0_173_1550">
<rect width="128.8" height="32" fill="white"/>
</clipPath>
</defs>
</svg>
