<svg width="68" height="19" viewBox="0 0 68 19" fill="none" xmlns="http://www.w3.org/2000/svg">
<g clip-path="url(#clip0_173_4492)">
<path fill-rule="evenodd" clip-rule="evenodd" d="M15.4726 11.664C15.3361 12.7875 14.8566 13.8448 14.0966 14.698C13.5094 15.3654 12.8206 15.9404 12.0544 16.4028C10.2844 17.3611 8.71701 17.9999 7.80597 18.6926C6.89317 17.9999 5.32754 17.3611 3.55697 16.4028C2.79085 15.94 2.10189 15.3651 1.51415 14.698C0.75461 13.8446 0.275375 12.7874 0.138804 11.664C-0.00535461 10.3721 0.47254 9.08793 1.43218 8.18865C1.71791 7.86922 1.52703 7.7095 1.3912 7.45648C1.14704 7.00367 1.09142 6.80445 0.682737 6.01905C0.482608 5.7242 0.387151 5.37321 0.411063 5.02012C0.614819 4.30054 1.3912 4.02519 1.66404 3.70347C1.71205 3.64623 1.811 3.61303 1.83969 3.55693C1.86863 3.49409 1.87342 3.42315 1.85316 3.35714C1.73354 3.14764 1.64222 2.92385 1.58148 2.69138C2.15444 2.22522 2.80908 1.86447 3.51365 1.62661C4.32943 1.33602 5.16163 1.09156 6.00613 0.894446C6.65049 0.745202 7.2603 0.478555 7.80363 0.108467C8.34682 0.47843 8.95641 0.74507 9.60054 0.894446C10.4449 1.0915 11.2769 1.33596 12.0924 1.62661C12.797 1.86441 13.4517 2.22517 14.0246 2.69138C13.9639 2.92395 13.8724 3.14777 13.7523 3.35714C13.7319 3.42318 13.7369 3.49424 13.7664 3.55693C13.7957 3.61417 13.8952 3.64623 13.942 3.70347C14.2143 4.02634 14.9907 4.30226 15.1944 5.02012C15.2185 5.3733 15.1228 5.72439 14.9222 6.01905C14.5123 6.80445 14.4585 7.00367 14.2143 7.45648C14.0779 7.71008 13.8876 7.86922 14.1739 8.18865C15.1355 9.08695 15.6154 10.3712 15.4726 11.664ZM14.9819 11.3709C14.9945 10.256 14.5423 9.1842 13.7295 8.40217C13.2254 7.94936 13.4432 7.85147 13.6066 7.55036C13.8519 7.09755 13.8097 7.09984 14.2196 6.25833C14.4046 5.87765 14.7366 5.34241 14.6142 4.98005C14.3548 4.64796 14.0365 4.36411 13.6745 4.14197C13.4641 4.01293 13.2648 3.86744 13.0784 3.70691C12.9918 3.56666 13.0925 3.49396 13.0925 3.49396C13.0925 3.49396 13.4104 2.99249 13.3642 2.90776C13.1188 2.45553 10.7879 1.70962 9.49983 1.41652C8.91354 1.23333 8.34777 0.992431 7.81124 0.697522C7.27409 0.992576 6.70775 1.23366 6.12089 1.4171C4.82693 1.71019 2.4978 2.4561 2.25364 2.90834C2.20739 2.99306 2.52532 3.49453 2.52532 3.49453C2.52532 3.49453 2.62602 3.5678 2.53937 3.70748C2.35213 3.86979 2.15161 4.01683 1.93981 4.14713C1.57798 4.36949 1.25973 4.65331 1.00008 4.9852C0.87771 5.34527 1.20969 5.8828 1.39588 6.26349C1.80573 7.10499 1.76358 7.1027 2.00832 7.55551C2.17167 7.85662 2.38948 7.95623 1.88595 8.40732C1.0732 9.18939 0.621041 10.2612 0.633555 11.3761C0.721251 12.6922 1.32034 13.9257 2.30809 14.824C2.97308 15.4778 3.75238 16.0099 4.60912 16.3953C5.71676 16.883 6.78232 17.4574 7.79543 18.1127C8.81861 17.4578 9.89347 16.8835 11.0098 16.3953C11.8667 16.0098 12.6462 15.4776 13.3115 14.824C14.2984 13.9252 14.8971 12.6919 14.9854 11.3761L14.9819 11.3709Z" fill="white" fill-opacity="0.8"/>
<path fill-rule="evenodd" clip-rule="evenodd" d="M13.9772 11.7058C13.8549 11.5862 13.517 11.6812 13.4754 11.7459C13.3504 11.3252 13.0928 10.9539 12.7395 10.6845C12.7384 10.6403 12.7524 10.5971 12.7793 10.5615C12.9402 10.5404 13.0996 10.5095 13.2565 10.4687C13.3923 10.4075 13.4192 10.8122 13.7869 10.7613C14.0481 10.7235 14.0463 10.455 13.8958 10.4819C13.8496 10.4676 13.7881 10.5775 13.7331 10.5884C13.5416 10.6284 13.5153 10.3485 13.5153 10.2289C13.5705 10.029 13.5795 9.81951 13.5416 9.61577C13.4397 9.33355 13.1142 9.17784 12.9702 9.08339C12.9298 9.05648 12.8577 8.89219 12.9426 8.82979C13.1464 8.68382 12.7518 8.55043 12.6838 8.88303C12.6464 9.06679 12.7225 9.11545 12.7108 9.2162C12.6967 9.33584 12.3267 9.58028 12.6294 9.80239C12.7927 9.92203 12.8431 9.72568 12.7658 9.63065C12.6165 9.44403 13.2969 9.16468 13.3244 9.87051C13.3349 10.1636 12.8408 10.2964 12.7319 10.3365C11.829 10.2567 11.159 9.48286 11.2277 8.59909C11.2058 7.91625 11.5868 7.28175 12.2072 6.9676C12.4414 6.71515 13.3923 6.75522 13.3519 6.35565C13.3232 6.08316 13.0521 5.94234 12.9017 6.08888C12.8337 6.22227 13.065 6.23601 13.0515 6.36824C13.0392 6.49132 12.8127 6.52452 12.6569 6.42148C12.5747 6.3571 12.529 6.25814 12.534 6.15529C12.4795 5.62291 13.5691 5.23936 13.5691 5.23936C13.5691 5.23936 12.6698 4.97317 12.6429 4.72015C12.62 4.50777 12.7248 4.48029 12.8185 4.59993C12.8771 4.67092 13.0363 4.51979 12.8454 4.34691C12.7599 4.30348 12.6583 4.30271 12.5721 4.34485C12.4859 4.38698 12.4256 4.46692 12.4098 4.55986C12.3419 4.78884 11.497 3.78705 11.3881 3.4951C11.3354 3.35313 11.3881 3.03714 11.5638 3.09438C11.6867 3.13445 11.6598 3.21402 11.6182 3.26612C11.5954 3.30038 11.5916 3.34357 11.6082 3.38111C11.6248 3.41865 11.6596 3.44555 11.7008 3.45274C11.8356 3.44387 11.9391 3.33233 11.935 3.20029C11.9138 3.01647 11.7631 2.87273 11.5746 2.85661C11.3861 2.84049 11.2121 2.95646 11.1586 3.13388C11.1241 3.23578 11.0357 3.09381 10.9677 3.04057C10.8167 2.92207 9.8787 1.82926 8.62572 1.81552C8.14737 1.81037 8.36634 1.93001 8.13507 1.9094C7.9723 1.89566 7.8634 1.66954 7.79489 1.5894C7.75449 1.65581 7.61924 1.89566 7.45472 1.9094C7.22344 1.92772 7.44359 1.81094 6.96465 1.81552C5.71109 1.82926 4.77311 2.92207 4.62263 3.04057C4.55413 3.09381 4.46572 3.23635 4.43176 3.13388C4.37825 2.95646 4.20427 2.84049 4.01579 2.85661C3.82732 2.87273 3.67657 3.01647 3.65538 3.20029C3.65091 3.3314 3.75287 3.44269 3.88666 3.45274C3.92774 3.44539 3.96233 3.41843 3.97881 3.38091C3.99529 3.34339 3.99146 3.3003 3.96863 3.26612C3.92764 3.21288 3.90071 3.13331 4.02308 3.09438C4.19873 3.03714 4.25318 3.35199 4.19873 3.4951C4.08983 3.78762 3.24553 4.78655 3.17761 4.55986C3.16167 4.46689 3.1012 4.38698 3.01494 4.34486C2.92867 4.30275 2.82701 4.30351 2.74141 4.34691C2.55054 4.51865 2.71214 4.67092 2.76893 4.59993C2.86378 4.48029 2.96859 4.50777 2.94458 4.72015C2.91648 4.97317 2.01773 5.23936 2.01773 5.23936C2.28745 5.34448 2.5398 5.488 2.76659 5.66527C2.93681 5.77558 3.04296 5.9587 3.05231 6.15815C3.05769 6.26096 3.01215 6.36002 2.92994 6.42434C2.77362 6.52738 2.54761 6.49418 2.53532 6.3711C2.52126 6.2383 2.75254 6.22513 2.68462 6.09175C2.53532 5.9452 2.26306 6.08602 2.23554 6.35851C2.19514 6.75923 3.14834 6.71801 3.37961 6.97046C4.00095 7.28382 4.3824 7.91877 4.35974 8.60196C4.4284 9.48572 3.75843 10.2596 2.85559 10.3394C2.74668 10.2993 2.25135 10.1676 2.26306 9.87337C2.29057 9.16754 2.97093 9.4469 2.82163 9.63352C2.74434 9.73026 2.79411 9.92661 2.95805 9.80525C3.26017 9.58314 2.89013 9.3387 2.87608 9.21906C2.86495 9.11831 2.94048 9.06908 2.9036 8.88589C2.83568 8.5533 2.44046 8.68668 2.64422 8.83265C2.73029 8.89448 2.65827 9.06164 2.61729 9.08625C2.47267 9.18071 2.14888 9.33584 2.04525 9.61863C2.00806 9.82248 2.01745 10.0319 2.07277 10.2317C2.07277 10.3514 2.04525 10.6324 1.85496 10.5912C1.79992 10.5804 1.73786 10.4704 1.69161 10.4848C1.5423 10.4579 1.53996 10.7263 1.80051 10.7641C2.1682 10.8174 2.25018 10.4046 2.34561 10.4453C2.49672 10.4957 2.65129 10.5357 2.80816 10.5649C2.83522 10.6004 2.84961 10.6437 2.84915 10.688C2.4953 10.957 2.2375 11.3284 2.11258 11.7493C2.07043 11.6852 1.73318 11.5902 1.61081 11.7092C1.51361 11.8029 1.47694 11.9413 1.51537 12.0693C1.52884 12.1752 1.76245 12.2021 1.73318 11.9886C1.70566 11.7894 1.9785 11.8564 2.0189 12.0556C2.03793 12.2331 2.0332 12.4122 2.00485 12.5885C2.07022 13.3535 2.71196 13.9489 3.49671 13.9727C3.6137 13.9737 3.73041 13.9614 3.8445 13.9361C3.97448 13.9063 4.04767 14.1324 4.15716 14.319C4.15716 14.319 3.70749 14.4908 3.76253 14.8245C3.81757 15.1583 4.13023 15.3306 4.3615 15.0375C4.45635 14.9178 4.29358 14.9041 4.11676 14.9041C3.98268 14.8114 3.99556 14.6505 4.32052 14.5847C4.71573 14.5051 5.06879 15.3289 5.2058 15.6763C5.3428 16.0238 6.09049 16.9815 7.1122 16.7543C7.36403 17.0327 7.59161 17.3312 7.79255 17.6467C7.99382 17.3311 8.22179 17.0326 8.47408 16.7543C9.49578 16.9832 10.2446 16.0221 10.3805 15.6763C10.5163 15.3306 10.8705 14.5045 11.2658 14.5847C11.5907 14.6505 11.6042 14.8136 11.4701 14.9041C11.2944 14.9041 11.1305 14.9178 11.2254 15.0375C11.456 15.3306 11.7699 15.1577 11.8243 14.8245C11.8788 14.4914 11.4297 14.319 11.4297 14.319C11.5386 14.1324 11.6124 13.9063 11.7424 13.9361C11.8564 13.9614 11.9732 13.9737 12.0901 13.9727C12.8958 13.9727 13.55 13.3362 13.5539 12.5484C13.5411 12.3841 13.5458 12.2189 13.568 12.0556C13.6084 11.8564 13.8812 11.7894 13.8537 11.9886C13.8244 12.2015 14.0574 12.1752 14.0715 12.0693C14.109 11.9411 14.0722 11.8032 13.9755 11.7092L13.9772 11.7058ZM7.63154 2.89002C7.75391 2.71828 7.79431 2.50361 7.82183 2.60951C7.86867 2.7927 8.02675 2.87628 7.95825 2.92951C7.85403 3.01138 7.58645 2.95356 7.63212 2.89002H7.63154ZM7.79431 17.2014L7.44301 16.6953L7.79431 16.2162L8.14854 16.6953L7.79431 17.2014ZM13.3367 12.5015C13.3401 12.8311 13.2094 13.1485 12.9732 13.3838C12.7371 13.6191 12.415 13.7529 12.0779 13.7558C11.7811 13.756 11.4941 13.6524 11.2687 13.4638C11.0958 13.2802 10.9982 13.0407 10.9947 12.7912C10.9737 12.3397 11.3231 11.9535 11.7839 11.9188C11.8384 11.9565 11.9069 11.8918 12.0023 12.1844C12.1253 12.2376 12.1387 12.1397 12.1387 12.0252C12.1387 11.8386 11.935 11.7585 11.6897 11.6657C11.5099 11.597 11.6645 11.2204 11.3899 11.1992C11.2142 11.186 11.1446 11.2662 11.1861 11.3852C11.2136 11.4894 11.3103 11.3932 11.3618 11.4253C11.5374 11.5318 11.2909 11.834 11.2909 11.834C11.0077 12.0725 10.8413 12.4172 10.8331 12.7826C10.8373 13.0035 10.8976 13.2199 11.0087 13.4123C11.1093 13.5524 11.2313 13.6766 11.3706 13.7804C11.4387 13.9906 11.3581 14.2196 11.1721 14.3442C11.0087 14.4776 10.8448 14.3042 10.2997 15.2361C10.2722 15.2848 10.1785 15.093 9.97355 15.0237C9.85024 14.9795 9.71298 14.9932 9.60131 15.0608C9.48964 15.1284 9.41597 15.2424 9.40151 15.3701C9.37634 15.6889 9.70129 15.5298 9.78326 15.2636C9.88748 15.1966 9.9835 15.3208 10.0549 15.4496C10.1539 15.6311 9.94603 16.0622 9.38805 16.4091C8.88334 16.7153 7.98284 16.5688 8.01211 15.9826C8.03261 15.5493 8.63919 15.4496 8.55663 15.796C8.50745 16.0055 9.07422 16.0358 8.80254 15.583C8.53087 15.1302 7.90321 15.5304 7.79431 15.796C7.6854 15.5304 7.0595 15.1302 6.78666 15.583C6.51381 16.0358 7.07941 16.0055 7.03198 15.796C6.95001 15.4525 7.55893 15.5493 7.5765 15.9826C7.60402 16.5688 6.70527 16.7148 6.20115 16.4091C5.64317 16.0627 5.43531 15.6317 5.53426 15.4496C5.60628 15.318 5.70172 15.1966 5.80652 15.2636C5.88849 15.5304 6.21345 15.6895 6.1871 15.3701C6.17282 15.2425 6.09927 15.1284 5.98768 15.0608C5.8761 14.9931 5.73889 14.9795 5.61565 15.0237C5.41014 15.093 5.31704 15.2853 5.28835 15.2361C4.74383 14.3042 4.58048 14.4776 4.41712 14.3442C4.23111 14.2196 4.15049 13.9906 4.21864 13.7804C4.33574 13.6516 4.47275 13.5869 4.59395 13.4369C4.70059 13.2351 4.75659 13.0114 4.7573 12.7843C4.7488 12.4186 4.58196 12.0736 4.29827 11.8352C4.29827 11.8352 4.05001 11.5329 4.22683 11.4264C4.28012 11.3944 4.37614 11.49 4.40249 11.3864C4.44289 11.2667 4.42708 11.2324 4.19756 11.2146C3.87143 11.1877 4.08046 11.5987 3.89837 11.6674C3.65304 11.7602 3.4487 11.8392 3.4487 12.0269C3.4487 12.1414 3.46275 12.2393 3.58512 12.1861C3.68056 11.8936 3.74848 11.9571 3.80293 11.9205C4.26416 11.9547 4.61404 12.3411 4.59277 12.7929C4.58955 13.0423 4.49241 13.2818 4.31993 13.4655C4.09441 13.654 3.80745 13.7575 3.51076 13.7575C2.80961 13.7518 2.24583 13.1916 2.25135 12.5061C2.18365 11.6646 2.64636 10.8674 3.42001 10.4928C4.14566 10.1457 4.59507 9.41422 4.5676 8.62485C4.60026 7.77997 4.08803 7.00563 3.28652 6.68824C3.07398 6.54914 3.17937 6.51651 3.24612 6.36824C3.26526 6.29883 3.27452 6.22717 3.27364 6.15529C3.29413 5.90684 3.26837 6.02477 3.24612 5.90227C3.20651 5.83824 3.18754 5.76403 3.19166 5.68931C3.24612 5.18384 3.79181 5.40309 3.83162 5.59657C3.87143 5.79006 3.8 5.77633 3.74965 5.82556C3.51545 5.74541 3.59918 5.89082 3.61323 5.93203C3.65421 6.05168 3.78888 6.09404 3.95399 5.98527C4.08983 5.9452 4.14545 5.7477 4.18819 5.75629C4.44933 5.82956 4.56935 5.54334 4.46045 5.52731C4.35155 5.51128 4.21512 5.64752 4.12027 5.52731C3.79239 5.11686 3.25022 5.13861 3.15302 5.31436C2.97737 5.63378 2.82573 5.4609 2.82573 5.4609C2.82573 5.4609 2.58157 5.28917 2.60792 5.27486C3.08513 5.02024 3.51377 4.68694 3.87495 4.28966C4.16067 3.96966 4.84923 3.07377 5.0319 2.93123C5.63146 2.46525 6.76089 1.65294 7.41549 2.15956C7.50602 2.20795 7.56749 2.2957 7.58091 2.39572C7.59434 2.49575 7.55811 2.59603 7.4834 2.66561C7.3745 2.77152 7.29956 2.40515 7.25213 2.42518C7.10166 2.45209 7.3341 2.69137 7.22461 2.79842C7.11512 2.90547 6.94006 2.7761 6.95177 2.66561C6.97929 2.41202 6.38032 2.89459 7.10107 3.09152C7.25506 3.13331 7.25155 3.03828 7.36045 3.05145C7.46935 3.06461 7.60519 3.19857 7.79606 3.17166C7.98694 3.19857 8.12336 3.06519 8.23226 3.05145C8.34117 3.03771 8.33707 3.13388 8.49047 3.09152C9.2124 2.89231 8.61284 2.41259 8.64095 2.66561C8.65266 2.77552 8.46939 2.90547 8.36869 2.79842C8.26798 2.69137 8.49106 2.45495 8.34117 2.42518C8.29316 2.40515 8.2188 2.76866 8.10989 2.66561C8.03519 2.59603 7.99896 2.49575 8.01239 2.39572C8.02581 2.2957 8.08728 2.20795 8.17781 2.15956C8.83123 1.65352 9.96184 2.46583 10.5614 2.93123C10.7447 3.07377 11.4326 3.96966 11.7184 4.28966C12.0765 4.69002 12.5058 5.02378 12.9854 5.27486C13.0117 5.28917 12.7512 5.47407 12.7512 5.47407C12.7512 5.47407 12.6288 5.56738 12.4379 5.31436C12.2812 5.21557 12.0905 5.18249 11.9086 5.22253C11.7268 5.26258 11.5689 5.37239 11.4707 5.52731C11.3752 5.64752 11.2365 5.51414 11.1305 5.52731C11.0245 5.54047 11.1416 5.82727 11.4028 5.75629C11.4426 5.74541 11.4976 5.94234 11.637 5.98527C11.8003 6.09346 11.9367 6.05168 11.9777 5.93203C11.9918 5.89082 12.0732 5.74541 11.8407 5.82556C11.791 5.77919 11.7184 5.79865 11.7593 5.59657C11.8003 5.3945 12.3448 5.18384 12.3993 5.68931C12.4031 5.764 12.3841 5.83811 12.3448 5.90227C12.3226 6.0242 12.2974 5.90684 12.3173 6.15529C12.3166 6.22717 12.3258 6.29881 12.3448 6.36824C12.411 6.51822 12.5164 6.54914 12.3039 6.68824C11.5028 7.006 10.9911 7.78026 11.0239 8.62485C10.9952 9.41405 11.4442 10.1459 12.1698 10.4928C12.9424 10.8683 13.4042 11.6651 13.3367 12.5061V12.5015Z" fill="white" fill-opacity="0.8"/>
<path fill-rule="evenodd" clip-rule="evenodd" d="M10.2615 9.11774C10.0248 8.65109 9.60082 8.30123 9.09054 8.15144L9.11747 8.0587C9.36833 7.65775 9.50048 7.19661 9.49922 6.7266C9.49947 6.64151 9.49143 6.5566 9.47521 6.473C9.52966 6.4335 9.72229 6.54112 9.88038 6.76667C10.056 7.01912 10.2615 6.80674 10.0841 6.67336C9.93866 6.46567 9.84116 6.2295 9.79841 5.98126C9.78217 5.81723 9.78689 5.65185 9.81246 5.48895C9.87101 5.36988 9.81246 5.03614 9.64911 5.35557C9.48575 5.675 9.25389 5.59543 9.25389 5.59543C9.05842 5.16142 8.6802 4.83152 8.21696 4.69096C8.4008 4.3885 8.69026 4.1612 9.03198 4.05095C9.21717 3.96757 9.41486 3.91384 9.61749 3.89181C9.68541 3.77217 9.69946 3.69202 9.64442 3.69202C9.28821 3.71406 8.93877 3.79739 8.61218 3.93818C8.40443 4.0265 8.18293 4.07992 7.957 4.09618C7.76975 4.1136 7.58096 4.10686 7.3955 4.07614C7.09191 4.02614 6.79221 3.95576 6.49851 3.86548C6.19873 3.66512 6.1718 3.97138 6.22215 4.01145C6.41897 4.06828 6.60868 4.14643 6.78775 4.24444C6.94345 4.36378 7.08001 4.50521 7.19292 4.66405C6.92304 4.75578 6.68952 4.92822 6.52544 5.15693C6.39583 4.95669 6.18067 4.82438 5.93994 4.79686C5.75921 4.75822 5.57028 4.8009 5.42519 4.91313C5.28011 5.02537 5.19418 5.19533 5.19108 5.37618C5.1938 5.52438 5.2632 5.66387 5.38079 5.75744C5.38079 5.75744 5.55644 5.84903 5.67354 5.75744C5.71862 5.7208 5.67939 5.65897 5.67939 5.61146C5.61659 5.55158 5.59915 5.45954 5.63583 5.38163C5.67252 5.30373 5.75539 5.25684 5.84275 5.26455C6.08515 5.27986 6.2717 5.47996 6.2649 5.71736C5.7533 5.94146 5.40458 6.41733 5.3521 6.96302C5.36628 7.56157 5.78235 8.07933 6.3738 8.23444V10.8969C6.3738 10.8969 6.40073 11.19 6.08749 10.8168C5.98894 10.7265 5.8979 10.6287 5.81523 10.5243C5.61809 10.1356 5.37267 9.77222 5.08452 9.44232C4.96215 9.44232 4.85325 9.45549 4.98908 9.6713C5.11409 9.86719 5.18004 10.0936 5.17937 10.3245C5.21999 10.6608 5.05465 10.989 4.75722 11.1625C4.55347 11.3223 4.74376 11.4825 4.92058 11.3223C5.02511 11.222 5.17025 11.173 5.31579 11.1889C5.64131 11.1917 5.94956 11.3324 6.16068 11.5747C6.27851 11.6151 6.35567 11.7258 6.35096 11.8478C6.35206 11.9263 6.32111 12.002 6.26497 12.0582C6.20882 12.1144 6.13211 12.1464 6.05177 12.1472C5.97139 12.1464 5.89461 12.1144 5.83837 12.0583C5.78214 12.0021 5.75106 11.9264 5.75199 11.8478C5.75199 11.7711 5.78595 11.7608 5.83397 11.7075C5.83397 11.7075 5.77951 11.5358 5.57576 11.6806C5.5014 11.7333 5.33043 11.9205 5.38488 12.0533C5.39835 12.3859 5.8445 12.7494 6.48739 12.4259C6.61745 12.6308 6.78901 12.8075 6.99151 12.9452C7.19994 13.0728 7.41131 13.094 7.39375 13.1495C7.2969 13.4403 7.07518 13.6752 6.78658 13.793C6.47509 13.8433 6.20108 13.8359 6.16068 13.5823C5.95692 13.1696 6.45987 13.276 6.30998 12.9967C6.19564 12.9615 6.07302 12.9615 5.95868 12.9967C5.7457 13.1134 5.61067 13.3305 5.60269 13.5691C5.65689 14.0113 6.06205 14.3305 6.51549 14.2881C6.72064 14.29 6.92189 14.2333 7.09455 14.125C7.30939 14.0217 7.50121 13.878 7.65898 13.7019C7.86472 13.9022 8.09877 14.0726 8.35397 14.208C8.57178 14.3414 9.25213 14.4209 8.76382 14.1015C7.97808 13.5897 8.09694 13.0631 8.09694 13.0631C8.90579 12.8825 9.52482 12.245 9.66726 11.4459C10.4636 10.9447 10.7247 9.92494 10.2639 9.11602L10.2615 9.11774ZM6.37907 7.64481C6.10023 7.52882 5.91832 7.26215 5.91594 6.96588C5.9483 6.66925 6.11931 6.40397 6.37907 6.24746V7.64481ZM7.48157 5.07564V5.44831C7.28015 5.43956 7.07848 5.45883 6.8826 5.50556C6.97138 5.25441 7.2099 5.08321 7.48157 5.07564ZM7.48157 5.89368V7.84517C7.33134 7.85966 7.1797 7.85038 7.03249 7.8177C6.97444 7.79931 6.92893 7.75481 6.91012 7.69805V5.99443C7.09593 5.93916 7.28772 5.90535 7.48157 5.89368ZM7.48157 12.5879C7.18766 12.4918 6.98048 12.2339 6.95462 11.9319C7.12566 11.9821 7.303 12.0089 7.48157 12.0115V12.5879ZM7.48157 11.4127C7.48157 11.4946 7.21224 11.4699 7.04537 11.3463C6.98039 11.295 6.93299 11.2255 6.90954 11.1471V9.05648H7.48099L7.48157 11.4127ZM7.49562 8.60367H6.92359V8.31115C7.11296 8.33855 7.30419 8.35175 7.49562 8.35065V8.60367ZM8.09459 5.1409C8.34803 5.19485 8.56016 5.36336 8.66605 5.59486C8.48084 5.53372 8.28913 5.49339 8.09459 5.47464V5.1409ZM8.09459 5.90227C8.25795 5.90227 8.23277 5.95436 8.46405 5.9681C8.57236 6.00703 8.82355 6.03679 8.88619 6.12781C8.96728 6.31679 8.99556 6.52343 8.96817 6.7266C8.99013 7.15543 8.86028 7.57857 8.60047 7.92474C8.56475 8.02321 8.45292 8.00031 8.34168 7.97798C8.26049 7.96272 8.17871 7.94955 8.09635 7.93848L8.09459 5.90227ZM8.1104 12.5576V12.0115C8.39463 12.0071 8.67578 11.9532 8.94065 11.8523C8.92718 12.0516 8.55948 12.4139 8.1104 12.5576ZM9.0232 11.241C8.8456 11.3516 8.64606 11.4241 8.4377 11.4539C8.11157 11.4402 8.09752 11.4837 8.09752 11.427V9.2431C8.74694 9.4691 9.17771 10.0736 9.16958 10.7475C9.17251 10.8523 9.19651 11.1603 9.02027 11.2398L9.0232 11.241ZM9.66316 10.6038L9.65203 10.5746C9.6287 10.2522 9.53102 9.93902 9.36631 9.65871C9.15061 9.24766 8.7924 8.92503 8.35573 8.7485C8.37684 8.72327 8.40292 8.70244 8.43243 8.68725C8.72518 8.45827 9.38797 8.75079 9.69946 9.2992C9.99093 9.69081 9.97627 10.2252 9.66374 10.601L9.66316 10.6038ZM31.9753 5.64942C32.0123 4.57569 31.1033 3.59307 29.1919 3.55731C27.8396 3.53886 26.8401 3.99326 26.7442 5.08487C26.6702 5.99541 26.9859 6.17648 27.5974 6.41118C27.9131 6.73872 30.473 7.13777 30.9916 7.22945C31.7342 7.35689 33.3293 7.68501 34.1818 8.53904C35.7405 10.1393 35.0162 13.2866 33.3287 14.3604C32.1781 15.0875 30.6024 15.2692 29.1002 15.2871C27.9276 15.2836 26.7787 14.9629 25.78 14.3604C24.6646 13.5507 23.972 12.2982 23.8886 10.9397H26.5967C26.6025 11.4499 26.8082 11.9384 27.1711 12.304C27.8726 12.8962 28.7915 13.1792 29.7122 13.0865C30.4782 13.1084 31.2315 12.8918 31.8641 12.4678C32.1747 12.1786 32.355 11.7801 32.3653 11.3602C32.3755 10.9404 32.2149 10.5338 31.9188 10.2304C31.0292 9.32156 28.3582 9.32156 26.6149 8.73856C25.1497 8.24783 23.9432 7.211 24.1672 5.06411C24.3895 2.95471 25.9476 1.39024 29.2483 1.39024C29.9721 1.39024 32.4944 1.44791 33.8114 3.08215C34.3839 3.81406 34.6611 4.7273 34.5899 5.64711H31.9753V5.64942ZM42.2321 14.8713C42.0328 14.5831 41.9351 14.2388 41.954 13.891C41.1382 14.7969 39.9596 15.3082 38.7273 15.2905C36.6859 15.2905 35.6841 14.1626 35.7593 12.2533C35.814 10.8693 36.3714 9.52339 38.6709 9.14222C39.5585 9.10024 40.4369 8.94715 41.2849 8.68666C41.7328 8.50427 41.9997 8.04921 41.9352 7.57775C41.9352 6.95958 41.4154 6.68625 40.2301 6.68625C38.7467 6.68625 38.5615 7.57775 38.5251 8.28646H36.0739C36.1115 5.13966 38.8573 4.84902 40.2284 4.84902C41.0354 4.83117 41.8392 4.95398 42.6025 5.21174C43.7665 5.63519 44.5015 6.766 44.4016 7.97968V13.3645C44.4132 13.8157 44.6228 14.2402 44.9767 14.5288V14.8747L42.2321 14.8713ZM41.9381 10.2333C41.1955 10.6698 40.1931 10.6323 39.5275 10.7597C39.1476 10.798 38.8038 10.9972 38.5864 11.3052C38.3689 11.6131 38.2997 11.9989 38.3969 12.3611C38.5445 12.9435 39.0089 13.3622 40.1214 13.18C41.6606 12.9441 41.9393 11.8883 41.9393 10.7966V10.2327L41.9381 10.2333ZM45.4241 5.01625H46.8352V4.0665C46.8352 2.59372 47.5954 1.6111 49.2828 1.6111H50.8962V3.50253H49.9837C49.6309 3.50253 49.4275 3.72108 49.4275 4.17549V5.01567H50.9661V6.70758H49.4269V14.8707H46.8311V6.70758H45.42L45.4241 5.01625ZM52.0968 5.01221H54.6932V6.92152H54.7308C54.8804 6.25736 55.3213 5.69182 55.9355 5.37608C56.4484 4.94765 57.1241 4.75553 57.7911 4.84844V7.44858C56.6775 7.32114 55.0089 7.17583 54.6932 9.32329V14.8707H52.0944L52.0968 5.01221ZM64.7072 14.873C64.5078 14.5848 64.4101 14.2405 64.4291 13.8927C63.613 14.7986 62.4342 15.3098 61.2018 15.2922C59.1616 15.2922 58.1609 14.1643 58.235 12.255C58.2938 10.871 58.8459 9.52512 61.1471 9.14395C62.0351 9.10178 62.9139 8.94869 63.7624 8.68839C64.2089 8.50483 64.4741 8.05006 64.4091 7.57948C64.4091 6.96131 63.8894 6.68798 62.7041 6.68798C61.2212 6.68798 61.0354 7.57948 60.999 8.28819H58.5472C58.5848 5.14139 61.3294 4.85075 62.7023 4.85075C63.5093 4.8329 64.3132 4.95571 65.0764 5.21347C66.2407 5.6366 66.9759 6.76764 66.8756 7.98141V13.3662C66.8872 13.8173 67.0965 14.2416 67.45 14.5305V14.8765L64.7072 14.873ZM64.4068 10.2333C63.6648 10.6698 62.6635 10.6323 61.9962 10.7597C61.6163 10.798 61.2724 10.9972 61.055 11.3052C60.8376 11.6131 60.7684 11.9989 60.8655 12.3611C61.0131 12.9435 61.4764 13.3622 62.5888 13.18C64.1281 12.9441 64.4073 11.8883 64.4073 10.7966V10.2327L64.4068 10.2333Z" fill="white" fill-opacity="0.8"/>
</g>
<defs>
<clipPath id="clip0_173_4492">
<rect width="67.45" height="19" fill="white"/>
</clipPath>
</defs>
</svg>
