<svg width="558" height="139" viewBox="0 0 558 139" fill="none" xmlns="http://www.w3.org/2000/svg">
<g clip-path="url(#clip0_1457_748)">
<path fill-rule="evenodd" clip-rule="evenodd" d="M356.693 68.2073C356.693 71.9871 357.269 75.4848 358.425 78.7035C359.578 81.9215 361.26 84.7314 363.47 87.1317C365.677 89.532 368.313 91.4215 371.377 92.8002C374.439 94.1797 377.877 94.8698 381.693 94.8698C385.508 94.8698 388.946 94.1797 392.01 92.8002C395.072 91.4215 397.708 89.532 399.917 87.1317C402.124 84.7314 403.807 81.9215 404.962 78.7035C406.115 75.4848 406.694 71.9871 406.694 68.2073C406.694 64.429 406.115 60.929 404.962 57.7103C403.807 54.4923 402.124 51.6847 399.917 49.2828C397.708 46.8841 395.072 44.9922 392.01 43.6136C388.946 42.2341 385.508 41.5448 381.693 41.5448C377.877 41.5448 374.439 42.2341 371.377 43.6136C368.313 44.9922 365.677 46.8841 363.47 49.2828C361.26 51.6847 359.578 54.4923 358.425 57.7103C357.269 60.929 356.693 64.429 356.693 68.2073ZM344.945 32.3507H356.693V42.7704H356.994C360.206 38.8894 363.945 35.8755 368.214 33.7302C372.481 31.5849 377.176 30.5122 382.296 30.5122C387.816 30.5122 392.862 31.4581 397.432 33.3469C402 35.2387 405.89 37.867 409.104 41.2387C412.316 44.6089 414.827 48.5935 416.635 53.1901C418.442 57.7876 419.345 62.7938 419.345 68.2073C419.345 73.6231 418.442 78.6262 416.635 83.2236C414.827 87.8203 412.342 91.8048 409.179 95.175C406.016 98.5468 402.275 101.179 397.96 103.068C393.641 104.956 389.022 105.902 384.103 105.902C377.778 105.902 372.228 104.497 367.461 101.688C362.691 98.8791 359.202 95.4316 356.994 91.345H356.693V139H344.945V32.3507ZM523.26 118.62C522.03 121.685 520.773 124.467 519.493 126.971C518.211 129.474 516.674 131.618 514.882 133.407C513.087 135.193 510.935 136.573 508.426 137.545C505.913 138.514 502.865 139 499.279 139C497.535 139 495.717 138.897 493.823 138.694C491.925 138.488 490.157 137.978 488.518 137.162L490.056 126.742C491.286 127.252 492.566 127.585 493.899 127.738C495.23 127.891 496.767 127.968 498.511 127.968C502.404 127.968 505.274 126.895 507.119 124.75C508.964 122.605 510.551 119.743 511.884 116.169L516.803 102.684L486.982 30.5122H500.971L523.26 86.7484H523.567L544.934 30.5122H558L523.26 118.62Z" fill="white"/>
<path fill-rule="evenodd" clip-rule="evenodd" d="M23.1664 80.0515C24.3825 82.4538 25.9971 84.3988 28.0096 85.8874C30.0213 87.3784 32.3826 88.4811 35.0986 89.2025C37.8116 89.9224 40.6197 90.2827 43.5214 90.2827C45.4864 90.2827 47.5925 90.1153 49.8382 89.7783C52.0839 89.4427 54.1893 88.7941 56.155 87.8332C58.1199 86.8739 59.7564 85.5527 61.0684 83.8703C62.3773 82.1911 63.0333 80.0516 63.0333 77.4571C63.0333 74.6729 62.1667 72.4148 60.4358 70.6844C58.7034 68.9556 56.435 67.5142 53.6284 66.3612C50.821 65.2089 47.6377 64.1999 44.0823 63.3359C40.5254 62.4711 36.9239 61.5118 33.2741 60.4532C29.5299 59.4939 25.8801 58.3168 22.3254 56.9227C18.7677 55.5318 15.5867 53.7301 12.7801 51.5193C9.97199 49.3108 7.70134 46.5474 5.97118 43.2331C4.238 39.9188 3.37367 35.9086 3.37367 31.2003C3.37367 25.9185 4.47276 21.3302 6.67246 17.4386C8.87064 13.5485 11.749 10.3055 15.3052 7.71188C18.8613 5.11825 22.8863 3.19724 27.3778 1.94731C31.8693 0.700471 36.3623 0.0743408 40.8537 0.0743408C46.094 0.0743408 51.1237 0.675673 55.9443 1.87601C60.7627 3.0779 65.0451 5.02371 68.7892 7.71188C72.5311 10.4032 75.503 13.836 77.7027 18.0151C79.8994 22.1935 81.0007 27.2622 81.0007 33.2181H59.6636C59.4756 30.1441 58.8438 27.5977 57.7696 25.5806C56.6917 23.5635 55.265 21.978 53.4872 20.825C51.7095 19.6727 49.6729 18.8575 47.3818 18.3755C45.087 17.8958 42.5847 17.6556 39.8709 17.6556C38.0924 17.6556 36.3132 17.8493 34.537 18.2313C32.7593 18.6165 31.1446 19.2891 29.6937 20.2484C28.2429 21.2101 27.0494 22.4104 26.1149 23.851C25.1781 25.2923 24.7116 27.1188 24.7116 29.3273C24.7116 31.3452 25.0845 32.9795 25.8341 34.2271C26.5814 35.4762 28.0564 36.6293 30.2569 37.6855C32.4535 38.7433 35.4957 39.7995 39.3802 40.8557C43.2625 41.9134 48.3398 43.2579 54.6112 44.8899C56.4818 45.275 59.0778 45.9709 62.4015 46.9798C65.7222 47.9888 69.021 49.5982 72.2971 51.8075C75.5732 54.0183 78.4047 56.9723 80.7909 60.6694C83.177 64.3689 84.3697 69.0997 84.3697 74.8643C84.3697 79.5719 83.4797 83.9424 81.702 87.9774C79.9235 92.0123 77.2815 95.4956 73.7714 98.424C70.2627 101.356 65.9109 103.638 60.7174 105.269C55.5239 106.902 49.5091 107.719 42.679 107.719C37.1556 107.719 31.8006 107.021 26.6063 105.629C21.4128 104.238 16.8262 102.052 12.8496 99.0726C8.87064 96.0961 5.71226 92.3006 3.37367 87.6883C1.03433 83.0776 -0.08967 77.6021 0.00544363 71.2609H21.3418C21.3418 74.7194 21.9495 77.6509 23.1664 80.0515ZM139.781 70.3605C138.936 71.1267 137.88 71.7226 136.611 72.1527C135.343 72.5828 133.981 72.9412 132.524 73.2279C131.067 73.5139 129.541 73.7536 127.945 73.9432C126.347 74.1367 124.751 74.3741 123.154 74.6608C121.65 74.9476 120.171 75.3299 118.716 75.807C117.258 76.2865 115.99 76.9316 114.912 77.7425C113.83 78.5557 112.961 79.5839 112.305 80.8242C111.646 82.0675 111.318 83.6437 111.318 85.5545C111.318 87.3706 111.646 88.9006 112.305 90.1416C112.961 91.3841 113.855 92.363 114.983 93.0799C116.109 93.7967 117.424 94.2985 118.927 94.5852C120.429 94.8712 121.978 95.0146 123.578 95.0146C127.523 95.0146 130.575 94.3471 132.737 93.0082C134.896 91.6708 136.493 90.0691 137.527 88.2061C138.56 86.3423 139.193 84.4569 139.43 82.5446C139.663 80.6338 139.781 79.1045 139.781 77.9568V70.3605ZM93.5634 55.3099C93.8453 50.5325 95.019 46.5667 97.0862 43.4134C99.1518 40.2601 101.783 37.7288 104.977 35.8164C108.17 33.9064 111.763 32.5436 115.757 31.7312C119.749 30.9211 123.765 30.5125 127.804 30.5125C131.468 30.5125 135.177 30.7769 138.936 31.3011C142.692 31.8275 146.122 32.8558 149.222 34.3835C152.322 35.9127 154.858 38.0378 156.832 40.7618C158.804 43.4851 159.79 47.0932 159.79 51.5831V90.1416C159.79 93.4876 159.978 96.688 160.354 99.745C160.729 102.804 161.387 105.097 162.327 106.625H142.036C141.66 105.479 141.354 104.309 141.121 103.113C140.885 101.919 140.72 100.701 140.627 99.4582C137.433 102.804 133.675 105.144 129.354 106.481C125.033 107.819 120.618 108.488 116.109 108.488C112.633 108.488 109.392 108.058 106.386 107.199C103.379 106.338 100.75 105.001 98.4956 103.185C96.2413 101.371 94.4795 99.0775 93.2118 96.3041C91.9441 93.5339 91.3091 90.2379 91.3091 86.4148C91.3091 82.2101 92.0358 78.7461 93.4937 76.0228C94.9486 73.2996 96.8262 71.1267 99.129 69.5003C101.43 67.877 104.061 66.6584 107.021 65.8452C109.98 65.0351 112.961 64.3899 115.968 63.9105C118.974 63.4334 121.933 63.0503 124.845 62.7643C127.756 62.4768 130.341 62.0475 132.595 61.474C134.849 60.9005 136.634 60.065 137.95 58.9651C139.264 57.8682 139.875 56.2665 139.781 54.1637C139.781 51.967 139.43 50.2219 138.725 48.9316C138.021 47.6412 137.081 46.6384 135.907 45.9216C134.731 45.2047 133.37 44.7276 131.82 44.4887C130.27 44.2505 128.602 44.1302 126.819 44.1302C122.874 44.1302 119.772 44.9897 117.518 46.7101C115.264 48.4298 113.947 51.2971 113.572 55.3099H93.5634ZM165.709 44.9851V31.4527H177.795V25.7543C177.795 19.2018 179.832 13.8375 183.907 9.65809C187.983 5.48026 194.145 3.39058 202.391 3.39058C204.191 3.39058 205.992 3.46105 207.794 3.6043C209.593 3.74678 211.348 3.86627 213.055 3.95973V19.0594C210.684 18.7744 208.221 18.6319 205.661 18.6319C202.911 18.6319 200.944 19.2731 199.762 20.5546C198.575 21.8369 197.984 23.9986 197.984 27.0366V31.4527H211.917V44.9851H197.984V105.098H177.795V44.9851H165.709ZM235.63 32.4794V45.9636H235.915C236.862 43.7165 238.141 41.6341 239.754 39.7132C241.365 37.7955 243.212 36.1556 245.298 34.7968C247.382 33.4402 249.61 32.3873 251.981 31.6365C254.349 30.8879 256.815 30.5125 259.375 30.5125C260.701 30.5125 262.169 30.7482 263.782 31.215V49.7561C262.834 49.5696 261.695 49.4057 260.37 49.2644C259.041 49.1239 257.761 49.0544 256.531 49.0544C252.834 49.0544 249.707 49.664 247.147 50.8801C244.587 52.0977 242.527 53.7594 240.962 55.866C239.399 57.9727 238.283 60.4313 237.621 63.2404C236.957 66.0494 236.626 69.0942 236.626 72.3708V105.098H216.436V32.4794H235.63Z" fill="#C4AD6C"/>
<path fill-rule="evenodd" clip-rule="evenodd" d="M470.87 88.7048C469.137 90.6239 466.967 92.1709 464.358 93.3291C461.756 94.4987 458.709 95.0744 455.225 95.0744C450.734 95.0744 446.974 94.1405 443.959 92.2704C440.945 90.4011 439.436 87.2374 439.436 82.78C439.436 77.9268 441.689 74.4294 446.18 72.3113C450.683 70.1817 456.77 69.123 464.433 69.123H476.393V73.68C476.293 76.6079 475.786 79.3629 474.867 81.951C473.941 84.526 472.615 86.785 470.87 88.7048ZM505.606 93.1989H489.617C488.923 93.1989 488.354 92.6424 488.354 91.9481V60.4685C488.354 50.3527 486.001 42.8127 481.297 37.8539C476.593 32.902 468.931 30.5122 458.303 30.5122H412.582C414.502 31.8924 416.173 33.3353 417.811 35.0063C419.62 36.8512 421.252 38.8514 422.716 40.9993H462.131C466.084 41.6124 469.287 43.2337 471.721 45.289C474.835 47.9269 476.393 51.8201 476.393 56.9772V59.1006H471.789C467.398 59.1006 462.563 59.305 457.302 59.713C452.035 60.1218 447.131 61.1314 442.577 62.7466C438.035 64.3686 434.22 66.845 431.161 70.1817C428.083 73.5184 426.556 78.1251 426.556 84.0002C426.556 87.4356 427.264 90.4692 428.696 93.0994C430.129 95.7373 432.049 97.935 434.451 99.7055C436.853 101.47 439.668 102.819 442.89 103.729C446.111 104.639 449.551 105.098 453.236 105.098C458.759 105.098 463.482 103.928 467.429 101.6C471.145 99.4024 474.154 96.616 476.462 93.2426C477.119 99.8785 482.818 105.091 489.674 105.091H510.655L505.606 93.1989Z" fill="white"/>
<path fill-rule="evenodd" clip-rule="evenodd" d="M315.637 70.3602C314.791 71.1264 313.735 71.7222 312.466 72.1523C311.198 72.5824 309.835 72.9409 308.38 73.2276C306.922 73.5136 305.396 73.7533 303.8 73.9429C302.202 74.1364 300.607 74.3738 299.009 74.6605C297.505 74.9473 296.026 75.3296 294.571 75.8067C293.113 76.2861 291.846 76.9313 290.767 77.7422C289.685 78.5554 288.816 79.5836 288.16 80.8238C287.501 82.0671 287.173 83.6434 287.173 85.5542C287.173 87.3702 287.501 88.9003 288.16 90.1412C288.816 91.3838 289.71 92.3627 290.837 93.0795C291.964 93.7964 293.279 94.2982 294.783 94.5849C296.284 94.8709 297.833 95.0142 299.433 95.0142C303.378 95.0142 306.43 94.3467 308.591 93.0079C310.751 91.6705 312.347 90.0688 313.382 88.2058C314.415 86.342 315.049 84.4566 315.285 82.5443C315.518 80.6334 315.637 79.1042 315.637 77.9565V70.3602ZM269.418 55.3096C269.701 50.5322 270.874 46.5664 272.941 43.4131C275.006 40.2597 277.637 37.7284 280.832 35.8161C284.025 33.906 287.617 32.5433 291.612 31.7308C295.604 30.9207 299.619 30.5122 303.659 30.5122C307.323 30.5122 311.032 30.7766 314.791 31.3007C318.547 31.8272 321.977 32.8554 325.077 34.3832C328.177 35.9124 330.713 38.0375 332.687 40.7615C334.659 43.4848 335.646 47.0929 335.646 51.5828V90.1412C335.646 93.4873 335.833 96.6876 336.209 99.7446C336.584 102.804 337.241 105.097 338.182 106.625H317.891C317.515 105.479 317.209 104.309 316.976 103.113C316.74 101.919 316.575 100.7 316.482 99.4579C313.288 102.804 309.53 105.144 305.209 106.481C300.888 107.819 296.472 108.488 291.964 108.488C288.488 108.488 285.247 108.058 282.241 107.198C279.234 106.338 276.604 105.001 274.35 103.185C272.096 101.37 270.334 99.0771 269.067 96.3038C267.799 93.5335 267.164 90.2376 267.164 86.4144C267.164 82.2097 267.891 78.7458 269.349 76.0225C270.803 73.2993 272.681 71.1264 274.984 69.5C277.286 67.8767 279.916 66.6581 282.876 65.8449C285.834 65.0348 288.816 64.3896 291.823 63.9102C294.829 63.4331 297.787 63.05 300.701 62.764C303.611 62.4765 306.196 62.0472 308.45 61.4737C310.704 60.9002 312.489 60.0647 313.805 58.9647C315.119 57.8679 315.73 56.2662 315.637 54.1634C315.637 51.9666 315.285 50.2215 314.58 48.9312C313.876 47.6409 312.935 46.6381 311.761 45.9213C310.585 45.2044 309.225 44.7273 307.675 44.4883C306.125 44.2502 304.457 44.1299 302.674 44.1299C298.728 44.1299 295.628 44.9894 293.373 46.7098C291.119 48.4294 289.801 51.2968 289.428 55.3096H269.418Z" fill="#C4AD6C"/>
</g>
<defs>
<clipPath id="clip0_1457_748">
<rect width="558" height="139" fill="white"/>
</clipPath>
</defs>
</svg>
