<svg width="103" height="58" viewBox="0 0 103 58" fill="none" xmlns="http://www.w3.org/2000/svg">
<path d="M96.0995 0H6.86425C3.07323 0 0 3.05732 0 6.82871V50.0772C0 53.8486 3.07323 56.9059 6.86425 56.9059H96.0995C99.8905 56.9059 102.964 53.8486 102.964 50.0772V6.82871C102.964 3.05732 99.8905 0 96.0995 0Z" fill="white"/>
<path d="M58.8105 17.1382H43.5416V43.178H58.8105V17.1382Z" fill="#182346"/>
<path d="M41.2014 13.6321C44.8211 13.6321 48.1557 14.7729 50.8648 16.6843C47.1241 19.806 44.7154 24.4474 44.7154 29.6574C44.7154 34.8626 47.1201 39.5458 50.8612 42.6329C48.1527 44.5429 44.8195 45.6826 41.2014 45.6826C32.0666 45.6826 24.7009 38.5028 24.7009 29.6574C24.7009 20.812 32.0666 13.6321 41.2014 13.6321Z" fill="#182346" stroke="white"/>
<path d="M78.6691 29.6574C78.6691 38.5028 71.3035 45.6826 62.1686 45.6826C58.5503 45.6826 55.2168 44.5427 52.5083 42.6326C56.2906 39.5087 58.6546 34.8652 58.6546 29.6574C58.6546 24.4474 56.2459 19.806 52.5052 16.6843C55.2143 14.7729 58.549 13.6321 62.1686 13.6321C71.3025 13.6321 78.6691 20.857 78.6691 29.6574Z" fill="#182346" stroke="white"/>
</svg>
