<svg width="103" height="58" viewBox="0 0 103 58" fill="none" xmlns="http://www.w3.org/2000/svg">
<path d="M96.0995 0H6.86425C3.07323 0 0 3.05732 0 6.82871V50.0772C0 53.8486 3.07323 56.9059 6.86425 56.9059H96.0995C99.8905 56.9059 102.964 53.8486 102.964 50.0772V6.82871C102.964 3.05732 99.8905 0 96.0995 0Z" fill="white"/>
<path d="M22.9904 16.5784C23.2994 16.5612 27.7219 16.5589 29.6628 16.5256C33.4176 16.4614 36.2821 18.952 36.8967 22.3398C37.4768 25.5325 36.5196 28.5715 33.5213 30.3198C32.3266 31.0162 31.0028 31.303 29.6339 31.3741C28.9708 31.4086 28.3054 31.3799 27.5443 31.3799C27.5443 34.0036 27.5443 39.2808 27.5443 39.2808L23.0377 39.5768C23.0365 39.5779 22.8266 17.8576 22.9904 16.5784ZM27.5351 21.0124C27.5317 23.0258 27.5201 24.9635 27.5409 26.9068C28.5384 27.056 29.4125 26.9114 30.2647 26.7038C31.8123 26.3275 32.45 25.4051 32.4085 23.7394C32.3739 22.3638 31.554 21.4426 30.1125 21.1191C29.2949 20.9344 28.4773 20.9333 27.5351 21.0124Z" fill="#182346"/>
<path d="M59.9295 39.4356C58.6333 39.5744 57.3821 39.7075 56.0513 39.8498C55.9694 39.4482 55.9014 39.1121 55.8184 38.7025C55.5577 38.8459 55.3282 38.9756 55.0941 39.0995C52.6298 40.4027 50.185 40.2995 47.8371 38.8643C46.2088 37.8685 45.4811 36.3037 45.3716 34.4222C45.2505 32.3446 45.977 30.641 47.6065 29.3423C48.6293 28.5267 49.7987 28.1228 51.1364 28.1091C52.5744 28.0953 53.9456 28.2984 55.251 28.9064C55.3721 28.9626 55.5058 28.9936 55.6304 29.0349C55.9348 28.4188 55.8172 27.8177 55.6615 27.2395C55.4563 26.4789 54.8877 26.0475 54.1497 25.8456C53.234 25.5944 52.3023 25.5404 51.3555 25.6598C50.17 25.8089 49.0168 26.0751 47.8924 26.4754C47.7933 26.511 47.5742 26.5339 47.5742 26.5339L48.6789 22.3489C48.6789 22.3489 49.6465 22.1573 50.1608 22.0942C52.1408 21.8533 54.1232 21.6422 56.0928 22.1802C57.1514 22.4693 58.1247 22.919 58.8882 23.7255C59.5974 24.4735 59.9964 25.3512 59.9952 26.4043C59.9872 30.485 59.9929 34.5645 59.9895 38.6452C59.9883 38.8849 59.9537 39.1259 59.9295 39.4356ZM52.88 31.6861C51.856 31.6838 51.1502 31.919 50.5517 32.4249C49.6234 33.2108 49.5565 34.4957 50.4318 35.3251C51.7164 36.5412 53.8648 36.509 55.1034 35.3308C55.9833 34.4945 55.9314 33.2131 54.9996 32.4341C54.3596 31.8995 53.6158 31.6483 52.88 31.6861Z" fill="#182346"/>
<path d="M67.4448 39.3186L62.9647 39.6329L63.0443 22.7355L67.1335 21.9943C67.1335 21.9943 67.2142 23.3561 67.3284 23.9309C67.589 23.7037 67.8623 23.4743 68.1252 23.2333C68.9947 22.4337 70.0476 22.0529 71.1996 21.9152C72.6261 21.7443 74.0204 21.8452 75.3362 22.4808C77.0775 23.3228 78.0012 24.7603 78.2733 26.6188C78.3921 27.4322 78.4071 28.2651 78.4106 29.0899C78.4256 32.1794 78.534 39.4447 78.534 39.4447C78.534 39.4447 75.4215 39.618 73.9327 39.7075C73.9039 39.2807 73.8624 32.1874 73.8589 28.9603C73.8589 28.6299 73.882 28.288 73.807 27.9714C73.3884 26.1909 72.2952 25.5393 70.5665 25.8077C69.2046 26.0188 68.2267 26.8196 67.8219 28.1572C67.6247 28.8077 67.5048 29.5052 67.4967 30.1821C67.461 32.94 67.4448 39.3186 67.4448 39.3186Z" fill="#182346"/>
<path d="M39.0509 39.7064L38.9667 16.6827L43.1943 16.0139L43.2289 39.4379L39.0509 39.7064Z" fill="#182346"/>
</svg>
