<svg width="103" height="58" viewBox="0 0 103 58" fill="none" xmlns="http://www.w3.org/2000/svg">
<path d="M96.0995 0H6.86425C3.07323 0 0 3.05732 0 6.82871V50.0772C0 53.8486 3.07323 56.9059 6.86425 56.9059H96.0995C99.8905 56.9059 102.964 53.8486 102.964 50.0772V6.82871C102.964 3.05732 99.8905 0 96.0995 0Z" fill="white"/>
<path d="M45.1775 30.5178C45.0848 30.7828 45.0094 31.0388 44.9056 31.2818C44.8011 31.5255 44.6856 31.7685 44.543 31.9908C43.9957 32.8437 43.2388 33.4012 42.203 33.4742C41.5159 33.523 40.824 33.5003 40.1341 33.5086C40.1265 33.5086 40.1189 33.501 40.0981 33.4893C40.0981 30.0242 40.0981 26.5516 40.0981 23.0728C39.1239 23.0728 38.1635 23.0728 37.1997 23.0728C37.1997 26.7932 37.1997 30.5088 37.1997 34.2224C39.9736 34.2224 42.7378 34.2224 45.5075 34.2224C45.5075 32.9841 45.5075 31.7533 45.5075 30.5171C45.3913 30.5178 45.2834 30.5178 45.1775 30.5178Z" fill="white"/>
<path d="M60.0606 26.1957C60.0606 25.9094 60.0613 25.6306 60.0592 25.3518C60.0592 25.3312 60.0461 25.3091 60.035 25.2899C59.6697 24.6552 59.231 24.0791 58.6007 23.6867C57.1982 22.8146 55.7472 22.8394 54.2984 23.547C53.3906 23.9903 52.7035 24.6993 52.1354 25.5239C51.8607 25.9231 51.6068 26.3341 51.476 26.8063C51.3287 27.3383 51.2242 27.8794 51.2131 28.4321C51.1958 29.2994 51.3148 30.1522 51.6954 30.9356C52.1541 31.8813 52.7976 32.6922 53.659 33.3227C54.5627 33.9842 55.5784 34.274 56.6806 34.1687C58.0928 34.0331 59.1978 33.3365 60.0115 32.1828C60.0447 32.1353 60.0599 32.0665 60.0606 32.0073C60.0655 31.6549 60.0634 31.3025 60.0627 30.95C60.0627 30.9156 60.0572 30.8819 60.0537 30.8454C59.9312 30.8454 59.8192 30.8454 59.7015 30.8454C59.6918 30.8778 59.6822 30.9067 59.6739 30.9369C59.2767 32.421 57.7192 33.6751 56.0531 33.4542C55.2913 33.353 54.7446 32.9469 54.5474 32.2055C54.4547 31.8559 54.3987 31.4862 54.3966 31.1249C54.3869 29.742 54.3973 28.3591 54.4188 26.977C54.4284 26.3272 54.4914 25.6801 54.6305 25.0414C54.7813 24.3475 55.1965 23.9104 55.8953 23.7962C56.9103 23.6303 57.8555 23.8203 58.6747 24.4721C59.0414 24.7647 59.2954 25.1426 59.4165 25.5969C59.4684 25.791 59.4912 25.9933 59.5286 26.1957C59.7001 26.1957 59.8745 26.1957 60.0606 26.1957Z" fill="white"/>
<path d="M49.805 34.2238C49.805 30.5047 49.805 26.7926 49.805 23.0735C48.8384 23.0735 47.878 23.0735 46.9149 23.0735C46.9149 26.7946 46.9149 30.5096 46.9149 34.2238C47.885 34.2238 48.8419 34.2238 49.805 34.2238Z" fill="white"/>
<path d="M82.5735 34.1722C82.5735 30.4435 82.5735 26.7341 82.5735 23.0089C82.6192 23.0089 82.6627 23.0082 82.7063 23.0089C84.1095 23.0288 85.5134 23.0412 86.9166 23.0701C87.8853 23.0908 88.825 23.2587 89.7217 23.6462C91.0785 24.2327 91.9752 25.248 92.4444 26.615C93.2421 28.9395 92.791 31.0238 91.1048 32.8272C90.4385 33.5397 89.5902 33.9072 88.6395 34.0724C87.8576 34.208 87.0709 34.2376 86.2794 34.2204C85.1121 34.195 83.9449 34.1867 82.7776 34.1716C82.7139 34.1716 82.651 34.1722 82.5735 34.1722ZM85.3633 33.4942C85.6089 33.4942 85.8483 33.4908 86.0877 33.4949C86.6911 33.5052 87.2965 33.5369 87.8936 33.4199C88.2299 33.3538 88.5731 33.2981 88.8395 33.0468C89.1356 32.7674 89.3114 32.4197 89.4103 32.0343C89.6124 31.2461 89.6539 30.4387 89.6746 29.6306C89.7037 28.532 89.6366 27.4362 89.5425 26.3425C89.5058 25.915 89.4518 25.4903 89.274 25.0924C89.0623 24.6189 88.7648 24.2176 88.2465 24.0572C87.9545 23.967 87.6466 23.8982 87.3429 23.8837C86.7084 23.8541 86.0725 23.8665 85.4373 23.8631C85.4117 23.8631 85.3868 23.8741 85.3633 23.8789C85.3633 27.0783 85.3633 30.2708 85.3633 33.4942Z" fill="#182346"/>
<path d="M72.5393 34.1997C72.5393 30.4806 72.5393 26.7719 72.5393 23.0583C72.5649 23.0542 72.5864 23.048 72.6078 23.048C74.184 23.0487 75.7595 23.0425 77.3357 23.0535C78.1757 23.0597 78.999 23.1822 79.7726 23.5333C80.2431 23.7467 80.6534 24.0344 80.9094 24.5018C81.3301 25.2699 81.2616 26.681 80.2556 27.463C79.5339 28.0247 78.7333 28.3 77.8276 28.3048C77.7868 28.3048 77.746 28.3076 77.7052 28.3103C77.6968 28.311 77.6892 28.3179 77.6761 28.3255C77.6761 28.3661 77.6761 28.4087 77.6761 28.4494C77.9314 28.4941 78.1867 28.5161 78.4289 28.585C79.6031 28.9209 80.3587 29.6643 80.634 30.8661C80.7828 31.5145 80.7994 32.1712 80.7849 32.832C80.7752 33.287 80.7828 33.742 80.7828 34.2038C79.7048 34.2038 78.6531 34.2038 77.5841 34.2038C77.5841 34.1556 77.5841 34.1075 77.5841 34.06C77.5744 32.8671 77.5737 31.6742 77.5474 30.482C77.5412 30.2122 77.4685 29.9382 77.3876 29.678C77.2713 29.3056 77.016 29.0475 76.6431 28.905C76.1504 28.7164 75.6391 28.6855 75.1091 28.6999C75.1091 30.5364 75.1091 32.3646 75.1091 34.2011C74.2463 34.1997 73.3924 34.1997 72.5393 34.1997ZM75.1146 23.5773C75.1146 25.0428 75.1146 26.4628 75.1146 27.8918C75.8792 27.8739 76.6389 27.9503 77.3869 27.7789C77.7176 27.7032 77.993 27.5566 78.0643 27.1849C78.0885 27.0569 78.112 26.9274 78.1279 26.798C78.2172 26.0815 78.1888 25.3649 78.1245 24.6491C78.067 24.0124 77.8297 23.7233 77.2284 23.6709C76.5296 23.6111 75.8259 23.6069 75.1146 23.5773Z" fill="#182346"/>
<path d="M35.7937 28.8604C35.7321 30.2825 35.1364 31.5738 34.0452 32.6538C33.6709 33.0248 33.2945 33.3862 32.8455 33.6677C31.9301 34.2431 30.9219 34.4668 29.8522 34.4517C28.3037 34.4304 27.0306 33.7936 25.9332 32.7364C24.9071 31.7479 24.3688 30.5454 24.2422 29.144C24.0955 27.525 24.5826 26.1043 25.6225 24.8694C26.5981 23.7096 27.8311 22.9889 29.354 22.7996C30.174 22.6977 30.9738 22.8133 31.7592 23.0501C32.487 23.2697 33.1008 23.6875 33.6474 24.1948C34.5019 24.9885 35.1516 25.926 35.5356 27.0328C35.728 27.5897 35.8062 28.1638 35.7937 28.8604ZM27.3662 28.6435C27.3793 29.4296 27.3828 30.2563 27.4125 31.083C27.425 31.4189 27.47 31.7582 27.5468 32.0852C27.7163 32.8038 28.1134 33.349 28.8413 33.6016C29.2994 33.7606 29.7734 33.7909 30.2522 33.7448C31.1233 33.6615 31.7668 33.2512 32.1072 32.4287C32.267 32.0411 32.3494 31.6323 32.3514 31.2151C32.3611 29.6657 32.3611 28.1163 32.3639 26.5668C32.3646 26.0836 32.3549 25.6011 32.2241 25.1296C31.9951 24.3029 31.5004 23.7357 30.6382 23.5382C30.1359 23.4232 29.628 23.428 29.1257 23.5375C28.5404 23.6655 28.0726 23.9636 27.7834 24.5039C27.5392 24.9589 27.4298 25.4524 27.4125 25.9597C27.3842 26.8401 27.3814 27.7212 27.3662 28.6435Z" fill="#182346"/>
<path d="M16.5045 29.1172C16.5045 30.8319 16.5045 32.5245 16.5045 34.224C15.5745 34.224 14.655 34.224 13.7285 34.224C13.7285 30.507 13.7285 26.7955 13.7285 23.0736C13.7673 23.0716 13.8067 23.0674 13.8454 23.0674C15.2348 23.0674 16.6249 23.0647 18.0142 23.0681C18.9608 23.0709 19.9004 23.1452 20.8068 23.4426C21.0338 23.5169 21.2566 23.6092 21.4718 23.7131C22.3311 24.1295 22.7338 24.8427 22.7933 25.7685C22.8168 26.1354 22.7829 26.5002 22.6819 26.8547C22.5145 27.4466 22.163 27.9016 21.6295 28.2127C20.8234 28.6829 19.9509 28.9713 19.0251 29.0477C18.2709 29.1096 17.5112 29.0966 16.7536 29.1165C16.6768 29.1193 16.6007 29.1172 16.5045 29.1172ZM16.5135 28.5349C16.537 28.5383 16.5543 28.5431 16.5716 28.5431C17.148 28.5425 17.7243 28.5452 18.3007 28.5369C18.4585 28.5349 18.6162 28.506 18.7719 28.4778C19.214 28.3986 19.5026 28.1659 19.5621 27.6972C19.6022 27.3805 19.6825 27.0674 19.6998 26.75C19.7385 26.0521 19.753 25.352 19.6091 24.6603C19.5385 24.3202 19.3953 24.0311 19.0521 23.899C18.9027 23.8411 18.7366 23.806 18.5768 23.8012C17.8966 23.7819 17.2165 23.7778 16.5363 23.7695C16.5294 23.7695 16.5218 23.7785 16.5128 23.7847C16.5135 25.3651 16.5135 26.9483 16.5135 28.5349Z" fill="#182346"/>
<path d="M45.1775 30.5178C45.2827 30.5178 45.3906 30.5178 45.5068 30.5178C45.5068 31.7541 45.5068 32.9848 45.5068 34.2231C42.7371 34.2231 39.9729 34.2231 37.199 34.2231C37.199 30.5089 37.199 26.7939 37.199 23.0735C38.1628 23.0735 39.1232 23.0735 40.0974 23.0735C40.0974 26.5523 40.0974 30.0243 40.0974 33.49C40.1182 33.5017 40.1258 33.51 40.1334 33.5093C40.8233 33.5011 41.5152 33.5238 42.2023 33.4749C43.2387 33.4019 43.9957 32.8444 44.5423 31.9915C44.6848 31.7685 44.8004 31.5262 44.9049 31.2826C45.01 31.0389 45.0848 30.7835 45.1775 30.5178Z" fill="#182346"/>
<path d="M71.1292 34.1881C71.0759 34.1881 71.0399 34.1881 71.0046 34.1881C70.0104 34.1881 69.0154 34.1867 68.0211 34.1902C67.9194 34.1908 67.8751 34.1585 67.837 34.0642C67.453 33.1115 67.0621 32.1609 66.6774 31.2083C66.64 31.1154 66.5937 31.0837 66.4906 31.0844C65.4596 31.0892 64.4287 31.0892 63.3984 31.0851C63.3043 31.0844 63.2676 31.114 63.2351 31.1986C62.867 32.1575 62.4934 33.115 62.1246 34.0731C62.0928 34.155 62.0582 34.1943 61.9599 34.1867C61.8022 34.175 61.643 34.1833 61.4555 34.1833C61.4825 34.1075 61.4991 34.0594 61.5178 34.0119C62.4519 31.6233 63.386 29.2348 64.3193 26.8463C64.8002 25.6163 65.2818 24.3869 65.7606 23.1562C65.7931 23.0722 65.834 23.0364 65.9281 23.044C66.0547 23.0536 66.1827 23.0543 66.3093 23.0446C66.4082 23.0371 66.4518 23.0736 66.4892 23.1624C66.9722 24.3181 67.4593 25.4724 67.9457 26.6274C68.9905 29.1075 70.0353 31.5869 71.0801 34.0662C71.0932 34.0993 71.1064 34.1323 71.1292 34.1881ZM64.9462 26.7699C64.448 28.0564 63.9602 29.3167 63.469 30.584C64.4543 30.584 65.4147 30.584 66.3958 30.584C65.9135 29.3133 65.4354 28.0564 64.9462 26.7699Z" fill="#182346"/>
<path d="M60.0606 26.1957C59.8745 26.1957 59.6994 26.1957 59.5285 26.1957C59.4919 25.9927 59.4683 25.791 59.4165 25.5969C59.2947 25.1426 59.0414 24.7647 58.6747 24.4721C57.8562 23.8203 56.9103 23.6303 55.8953 23.7962C55.1965 23.9105 54.7813 24.3476 54.6305 25.0414C54.4914 25.6802 54.4284 26.3272 54.4187 26.977C54.398 28.3592 54.3876 29.742 54.3966 31.1249C54.3994 31.4863 54.4547 31.8559 54.5474 32.2056C54.7446 32.9469 55.2912 33.353 56.053 33.4542C57.7192 33.6745 59.2774 32.421 59.6738 30.937C59.6821 30.9074 59.6918 30.8778 59.7015 30.8454C59.8191 30.8454 59.9319 30.8454 60.0537 30.8454C60.0572 30.8819 60.062 30.9156 60.0627 30.95C60.0634 31.3025 60.0648 31.6549 60.0606 32.0073C60.0599 32.0665 60.0447 32.1354 60.0115 32.1829C59.1985 33.3365 58.0928 34.0338 56.6806 34.1687C55.5777 34.2747 54.5627 33.9842 53.659 33.3227C52.7976 32.6922 52.1541 31.8814 51.6954 30.9356C51.3155 30.153 51.1958 29.2994 51.2131 28.4321C51.2242 27.8787 51.328 27.3384 51.476 26.8063C51.6068 26.3348 51.8607 25.9231 52.1354 25.5239C52.7035 24.6993 53.3906 23.9903 54.2983 23.547C55.7479 22.8387 57.1989 22.8146 58.6007 23.6868C59.231 24.0791 59.6697 24.6552 60.035 25.2899C60.0461 25.3092 60.0585 25.3312 60.0592 25.3518C60.0613 25.6306 60.0606 25.9094 60.0606 26.1957Z" fill="#182346"/>
<path d="M49.805 34.2238C48.8412 34.2238 47.8843 34.2238 46.9149 34.2238C46.9149 30.5096 46.9149 26.7946 46.9149 23.0735C47.878 23.0735 48.8384 23.0735 49.805 23.0735C49.805 26.7932 49.805 30.5047 49.805 34.2238Z" fill="#182346"/>
</svg>
