<svg width="93" height="26" viewBox="0 0 93 26" fill="none" xmlns="http://www.w3.org/2000/svg">
<path fill-rule="evenodd" clip-rule="evenodd" d="M21.0115 15.943C20.8248 17.48 20.1689 18.9264 19.1292 20.0936C18.3259 21.0066 17.3836 21.7932 16.3354 22.4258C13.914 23.7368 11.7698 24.6107 10.5235 25.5583C9.27473 24.6107 7.1329 23.7368 4.71072 22.4258C3.66264 21.7928 2.72013 21.0062 1.91609 20.0936C0.87702 18.9261 0.221414 17.4799 0.0345823 15.943C-0.162631 14.1756 0.491141 12.4189 1.80395 11.1887C2.19483 10.7517 1.93371 10.5332 1.74789 10.187C1.41388 9.56757 1.33778 9.29504 0.778696 8.22059C0.504914 7.81723 0.374327 7.33707 0.40704 6.85403C0.685782 5.86963 1.74789 5.49295 2.12114 5.05283C2.18682 4.97451 2.32219 4.92909 2.36144 4.85234C2.40103 4.76638 2.40757 4.66933 2.37986 4.57903C2.21622 4.29243 2.09129 3.98628 2.00821 3.66825C2.79202 3.03054 3.68758 2.53702 4.65145 2.21163C5.76746 1.81409 6.90593 1.47966 8.06124 1.21C8.94273 1.00584 9.77696 0.641055 10.5203 0.134766C11.2634 0.640884 12.0973 1.00565 12.9785 1.21C14.1335 1.47958 15.2718 1.81401 16.3875 2.21163C17.3514 2.53694 18.2469 3.03046 19.0307 3.66825C18.9477 3.98642 18.8225 4.2926 18.6582 4.57903C18.6303 4.66938 18.6372 4.76658 18.6775 4.85234C18.7175 4.93066 18.8537 4.97451 18.9178 5.05283C19.2902 5.49451 20.3523 5.87198 20.6311 6.85403C20.664 7.3372 20.5331 7.81749 20.2586 8.22059C19.6979 9.29504 19.6242 9.56757 19.2902 10.187C19.1036 10.534 18.8433 10.7517 19.235 11.1887C20.5504 12.4176 21.2069 14.1745 21.0115 15.943ZM20.3403 15.5421C20.3575 14.0169 19.739 12.5506 18.627 11.4808C17.9374 10.8613 18.2353 10.7274 18.4588 10.3155C18.7944 9.69601 18.7367 9.69914 19.2974 8.54794C19.5505 8.02716 20.0047 7.29493 19.8373 6.79921C19.4824 6.34491 19.047 5.95659 18.5517 5.6527C18.2639 5.47618 17.9912 5.27713 17.7363 5.05752C17.6178 4.86566 17.7555 4.7662 17.7555 4.7662C17.7555 4.7662 18.1905 4.08018 18.1272 3.96427C17.7916 3.3456 14.6029 2.32518 12.8407 1.92422C12.0386 1.67361 11.2647 1.34405 10.5307 0.940607C9.79584 1.34425 9.02107 1.67406 8.21823 1.925C6.44806 2.32596 3.26174 3.34638 2.92773 3.96506C2.86446 4.08096 3.29939 4.76698 3.29939 4.76698C3.29939 4.76698 3.43716 4.86722 3.31861 5.05831C3.06247 5.28035 2.78815 5.4815 2.49841 5.65975C2.00341 5.96395 1.56803 6.35222 1.21283 6.80626C1.04542 7.29884 1.49958 8.0342 1.75429 8.55499C2.31498 9.70619 2.25731 9.70306 2.59212 10.3225C2.8156 10.7344 3.11356 10.8707 2.42472 11.4878C1.31286 12.5577 0.694294 14.024 0.711413 15.5491C0.831384 17.3496 1.65095 19.0371 3.00223 20.2659C3.91195 21.1603 4.97804 21.8884 6.15009 22.4156C7.66536 23.0828 9.12308 23.8685 10.509 24.765C11.9088 23.8691 13.3792 23.0834 14.9064 22.4156C16.0786 21.8882 17.1449 21.1602 18.0551 20.2659C19.4052 19.0363 20.2243 17.3492 20.3451 15.5491L20.3403 15.5421Z" fill="#182346"/>
<path fill-rule="evenodd" clip-rule="evenodd" d="M18.9658 16.0006C18.7984 15.8369 18.3362 15.9669 18.2794 16.0554C18.1082 15.48 17.7559 14.9719 17.2725 14.6035C17.2711 14.543 17.2903 14.4838 17.327 14.4351C17.5471 14.4064 17.7652 14.364 17.9798 14.3083C18.1656 14.2245 18.2025 14.7782 18.7055 14.7085C19.0627 14.6568 19.0603 14.2895 18.8545 14.3263C18.7912 14.3067 18.7071 14.4571 18.6318 14.4719C18.3699 14.5268 18.3338 14.1438 18.3338 13.9801C18.4094 13.7066 18.4217 13.4201 18.3699 13.1414C18.2305 12.7553 17.7852 12.5423 17.5881 12.4131C17.5329 12.3763 17.4343 12.1515 17.5505 12.0662C17.8292 11.8665 17.2894 11.684 17.1964 12.139C17.1452 12.3904 17.2493 12.457 17.2333 12.5948C17.2141 12.7585 16.7078 13.0929 17.1219 13.3967C17.3454 13.5604 17.4143 13.2918 17.3086 13.1618C17.1043 12.9065 18.0351 12.5243 18.0727 13.4899C18.0871 13.8909 17.4111 14.0725 17.2621 14.1274C16.027 14.0182 15.1105 12.9596 15.2044 11.7506C15.1744 10.8164 15.6956 9.9484 16.5444 9.51864C16.8648 9.17328 18.1656 9.2281 18.1104 8.68148C18.0711 8.30871 17.7003 8.11606 17.4944 8.31654C17.4015 8.49901 17.7179 8.5178 17.6995 8.69871C17.6826 8.86708 17.3727 8.9125 17.1596 8.77154C17.0472 8.68347 16.9846 8.54809 16.9914 8.40738C16.9169 7.67907 18.4075 7.15437 18.4075 7.15437C18.4075 7.15437 17.1772 6.79022 17.1404 6.44407C17.1091 6.15353 17.2525 6.11594 17.3807 6.27962C17.4608 6.37672 17.6786 6.16998 17.4175 5.93347C17.3005 5.87406 17.1615 5.87301 17.0436 5.93065C16.9257 5.98829 16.8432 6.09765 16.8216 6.2248C16.7287 6.53805 15.5728 5.16757 15.4239 4.76817C15.3518 4.57396 15.4239 4.14167 15.6642 4.21998C15.8324 4.2748 15.7955 4.38366 15.7386 4.45492C15.7074 4.5018 15.7023 4.56087 15.725 4.61223C15.7477 4.66359 15.7952 4.70039 15.8516 4.71022C16.036 4.69809 16.1776 4.5455 16.172 4.36486C16.143 4.1134 15.9368 3.91675 15.6789 3.8947C15.4211 3.87265 15.1831 4.0313 15.1099 4.27402C15.0626 4.41342 14.9417 4.2192 14.8488 4.14637C14.6421 3.98426 13.3589 2.48926 11.6448 2.47047C10.9904 2.46342 11.29 2.6271 10.9736 2.5989C10.7509 2.58011 10.6019 2.27077 10.5082 2.16113C10.453 2.25198 10.2679 2.58011 10.0429 2.5989C9.72647 2.62396 10.0276 2.4642 9.37243 2.47047C7.65753 2.48926 6.37435 3.98426 6.1685 4.14637C6.07478 4.2192 5.95383 4.4142 5.90738 4.27402C5.83417 4.0313 5.59616 3.87265 5.33832 3.8947C5.08049 3.91675 4.87426 4.1134 4.84527 4.36486C4.83916 4.54423 4.97864 4.69648 5.16166 4.71022C5.21786 4.70017 5.26518 4.66329 5.28772 4.61196C5.31027 4.56064 5.30504 4.50169 5.2738 4.45492C5.21773 4.38209 5.18089 4.27324 5.34829 4.21998C5.58859 4.14167 5.66308 4.57239 5.58859 4.76817C5.4396 5.16835 4.28459 6.53492 4.19167 6.2248C4.16985 6.09761 4.08714 5.98829 3.96913 5.93067C3.85111 5.87306 3.71204 5.8741 3.59494 5.93347C3.33382 6.16841 3.55489 6.37672 3.63258 6.27962C3.76234 6.11594 3.90572 6.15353 3.87288 6.44407C3.83443 6.79022 2.60492 7.15437 2.60492 7.15437C2.97391 7.29817 3.31913 7.49451 3.62938 7.73702C3.86225 7.88793 4.00747 8.13844 4.02026 8.4113C4.02762 8.55194 3.96532 8.68746 3.85286 8.77545C3.63899 8.91642 3.32981 8.871 3.31299 8.70262C3.29377 8.52094 3.61016 8.50292 3.51724 8.32045C3.31299 8.11997 2.94054 8.31262 2.90289 8.68539C2.84762 9.23358 4.15162 9.1772 4.46801 9.52256C5.31801 9.95124 5.83985 10.8199 5.80886 11.7545C5.90278 12.9635 4.98624 14.0222 3.75113 14.1313C3.60215 14.0765 2.92452 13.8963 2.94054 13.4938C2.97818 12.5282 3.90892 12.9104 3.70467 13.1657C3.59894 13.298 3.66703 13.5666 3.8913 13.4006C4.30461 13.0968 3.79839 12.7624 3.77916 12.5987C3.76395 12.4609 3.86727 12.3935 3.81681 12.1429C3.7239 11.6879 3.18323 11.8704 3.46198 12.0701C3.57972 12.1547 3.4812 12.3833 3.42513 12.417C3.22729 12.5462 2.78434 12.7585 2.64257 13.1453C2.59169 13.4242 2.60455 13.7106 2.68022 13.9841C2.68022 14.1477 2.64257 14.5322 2.38225 14.4759C2.30696 14.461 2.22205 14.3106 2.15878 14.3302C1.95452 14.2934 1.95132 14.6607 2.30776 14.7124C2.81078 14.7852 2.92291 14.2206 3.05347 14.2762C3.26019 14.3452 3.47164 14.3999 3.68625 14.4398C3.72326 14.4885 3.74296 14.5476 3.74232 14.6082C3.25826 14.9762 2.90557 15.4844 2.73468 16.0601C2.67701 15.9724 2.21565 15.8424 2.04824 16.0053C1.91527 16.1335 1.86511 16.3227 1.91768 16.4979C1.9361 16.6428 2.25569 16.6796 2.21565 16.3875C2.178 16.115 2.55126 16.2066 2.60652 16.4791C2.63255 16.7219 2.62609 16.967 2.5873 17.2082C2.67673 18.2547 3.55464 19.0692 4.62821 19.1018C4.78825 19.1032 4.94791 19.0863 5.10399 19.0517C5.28181 19.011 5.38193 19.3203 5.53172 19.5756C5.53172 19.5756 4.91656 19.8105 4.99185 20.2671C5.06715 20.7237 5.49487 20.9594 5.81126 20.5584C5.94102 20.3948 5.71835 20.376 5.47645 20.376C5.29302 20.2491 5.31064 20.029 5.75519 19.939C6.29585 19.8301 6.77885 20.9571 6.96628 21.4324C7.15371 21.9078 8.17656 23.2179 9.57428 22.907C9.9188 23.2879 10.2301 23.6963 10.505 24.1279C10.7804 23.6962 11.0922 23.2878 11.4374 22.907C12.8351 23.2203 13.8595 21.9054 14.0454 21.4324C14.2312 20.9594 14.7158 19.8293 15.2565 19.939C15.701 20.029 15.7194 20.2522 15.536 20.376C15.2957 20.376 15.0714 20.3948 15.2012 20.5584C15.5168 20.9594 15.9461 20.7229 16.0206 20.2671C16.0951 19.8113 15.4807 19.5756 15.4807 19.5756C15.6297 19.3203 15.7306 19.011 15.9085 19.0517C16.0645 19.0863 16.2242 19.1031 16.3842 19.1018C17.4864 19.1018 18.3814 18.231 18.3867 17.1534C18.3691 16.9286 18.3756 16.7026 18.4059 16.4791C18.4612 16.2066 18.8344 16.115 18.7968 16.3875C18.7568 16.6788 19.0755 16.6428 19.0948 16.4979C19.1461 16.3226 19.0957 16.1338 18.9634 16.0053L18.9658 16.0006ZM10.2848 3.94041C10.4522 3.70547 10.5074 3.41179 10.5451 3.55667C10.6092 3.80727 10.8254 3.92161 10.7317 3.99444C10.5891 4.10643 10.2231 4.02733 10.2856 3.94041H10.2848ZM10.5074 23.5187L10.0268 22.8264L10.5074 22.1709L10.992 22.8264L10.5074 23.5187ZM18.0895 17.0892C18.0942 17.5401 17.9154 17.9743 17.5923 18.2962C17.2693 18.618 16.8286 18.8011 16.3674 18.805C15.9615 18.8053 15.5689 18.6636 15.2605 18.4056C15.0239 18.1545 14.8905 17.8268 14.8856 17.4854C14.8569 16.8678 15.3349 16.3395 15.9653 16.2919C16.0398 16.3436 16.1335 16.2551 16.2641 16.6553C16.4323 16.7281 16.4507 16.5942 16.4507 16.4376C16.4507 16.1823 16.172 16.0727 15.8364 15.9458C15.5905 15.8518 15.8019 15.3365 15.4263 15.3075C15.186 15.2895 15.0907 15.3992 15.1475 15.5621C15.1852 15.7046 15.3173 15.573 15.3878 15.6169C15.6281 15.7625 15.2909 16.176 15.2909 16.176C14.9034 16.5022 14.6758 16.9739 14.6645 17.4737C14.6703 17.7759 14.7529 18.0719 14.9048 18.3351C15.0424 18.5268 15.2094 18.6967 15.3998 18.8387C15.4931 19.1262 15.3828 19.4395 15.1283 19.6101C14.9048 19.7925 14.6806 19.5552 13.9348 20.8302C13.8972 20.8967 13.769 20.6344 13.4887 20.5396C13.32 20.4791 13.1322 20.4978 12.9795 20.5903C12.8267 20.6828 12.7259 20.8388 12.7061 21.0134C12.6717 21.4496 13.1162 21.2319 13.2284 20.8678C13.3709 20.7761 13.5023 20.9461 13.6 21.1223C13.7354 21.3705 13.451 21.9602 12.6877 22.4348C11.9973 22.8538 10.7653 22.6533 10.8054 21.8514C10.8334 21.2586 11.6632 21.1223 11.5503 21.5961C11.483 21.8827 12.2584 21.9242 11.8867 21.3048C11.5151 20.6853 10.6564 21.2327 10.5074 21.5961C10.3584 21.2327 9.50219 20.6853 9.12893 21.3048C8.75568 21.9242 9.52943 21.8827 9.46455 21.5961C9.35241 21.1262 10.1854 21.2586 10.2095 21.8514C10.2471 22.6533 9.0176 22.853 8.32795 22.4348C7.56461 21.961 7.28026 21.3713 7.41563 21.1223C7.51415 20.9422 7.64471 20.7761 7.78809 20.8678C7.90022 21.2327 8.34477 21.4504 8.30873 21.0134C8.28919 20.8389 8.18857 20.6828 8.03592 20.5903C7.88327 20.4978 7.69556 20.4791 7.52697 20.5396C7.24582 20.6344 7.11846 20.8975 7.07922 20.8302C6.3343 19.5552 6.11083 19.7925 5.88735 19.6101C5.63288 19.4395 5.5226 19.1262 5.61582 18.8387C5.77602 18.6625 5.96345 18.574 6.12925 18.3688C6.27514 18.0928 6.35175 17.7867 6.35272 17.476C6.3411 16.9758 6.11285 16.5038 5.72475 16.1776C5.72475 16.1776 5.38514 15.7641 5.62703 15.6184C5.69992 15.5746 5.83128 15.7054 5.86733 15.5636C5.9226 15.4 5.90097 15.353 5.58698 15.3287C5.14084 15.2919 5.42679 15.8542 5.17768 15.9481C4.84207 16.075 4.56253 16.1831 4.56253 16.44C4.56253 16.5966 4.58175 16.7305 4.74916 16.6577C4.87972 16.2575 4.97263 16.3444 5.04712 16.2943C5.67809 16.3411 6.15675 16.8698 6.12765 17.4878C6.12323 17.829 5.99034 18.1566 5.75439 18.408C5.44588 18.6658 5.05331 18.8075 4.64743 18.8074C3.68823 18.7996 2.91696 18.0333 2.92452 17.0954C2.8319 15.9442 3.46491 14.8537 4.52328 14.3412C5.51599 13.8664 6.13079 12.8657 6.09321 11.7858C6.1379 10.63 5.43715 9.57067 4.34065 9.13648C4.0499 8.94618 4.19407 8.90154 4.28539 8.69871C4.31157 8.60375 4.32424 8.50572 4.32303 8.40738C4.35107 8.0675 4.31582 8.22883 4.28539 8.06124C4.2312 7.97364 4.20525 7.87213 4.2109 7.76991C4.28539 7.07841 5.0319 7.37835 5.08637 7.64305C5.14084 7.90774 5.04312 7.88895 4.97423 7.9563C4.65384 7.84666 4.76838 8.04558 4.7876 8.10196C4.84367 8.26564 5.0279 8.32359 5.25378 8.17479C5.4396 8.11997 5.5157 7.84979 5.57417 7.86154C5.93141 7.96178 6.09561 7.57022 5.94663 7.54829C5.79764 7.52636 5.61101 7.71275 5.48125 7.54829C5.0327 6.98678 4.29099 7.01654 4.15803 7.25696C3.91774 7.69395 3.71028 7.45745 3.71028 7.45745C3.71028 7.45745 3.37627 7.22251 3.41231 7.20293C4.06515 6.8546 4.65155 6.39864 5.14564 5.85516C5.53652 5.41739 6.47848 4.19179 6.72839 3.99679C7.54859 3.35932 9.09369 2.24806 9.98919 2.94113C10.113 3.00733 10.1971 3.12737 10.2155 3.2642C10.2339 3.40104 10.1843 3.53822 10.0821 3.63342C9.93312 3.7783 9.8306 3.27709 9.76572 3.3045C9.55986 3.34131 9.87785 3.66866 9.72807 3.8151C9.57828 3.96155 9.33879 3.78456 9.35481 3.63342C9.39246 3.28649 8.57305 3.94667 9.55906 4.21607C9.76972 4.27324 9.76491 4.14324 9.9139 4.16125C10.0629 4.17926 10.2487 4.36251 10.5098 4.32571C10.7709 4.36251 10.9576 4.18004 11.1066 4.16125C11.2555 4.14245 11.2499 4.27402 11.4598 4.21607C12.4474 3.94354 11.6272 3.28727 11.6656 3.63342C11.6817 3.78378 11.431 3.96155 11.2932 3.8151C11.1554 3.66866 11.4606 3.34523 11.2555 3.3045C11.1899 3.27709 11.0881 3.77438 10.9392 3.63342C10.837 3.53822 10.7874 3.40104 10.8058 3.2642C10.8241 3.12737 10.9082 3.00733 11.0321 2.94113C11.926 2.24884 13.4727 3.36011 14.2929 3.99679C14.5436 4.19179 15.4847 5.41739 15.8756 5.85516C16.3656 6.40285 16.9528 6.85945 17.6089 7.20293C17.645 7.22251 17.2886 7.47546 17.2886 7.47546C17.2886 7.47546 17.1211 7.60311 16.86 7.25696C16.6457 7.12183 16.3848 7.07656 16.1359 7.13135C15.8871 7.18613 15.6712 7.33636 15.5368 7.54829C15.4062 7.71275 15.2164 7.53028 15.0714 7.54829C14.9265 7.5663 15.0866 7.95865 15.4439 7.86154C15.4984 7.84666 15.5736 8.11606 15.7643 8.17479C15.9878 8.3228 16.1744 8.26564 16.2305 8.10196C16.2497 8.04558 16.361 7.84666 16.043 7.9563C15.9749 7.89287 15.8756 7.91949 15.9317 7.64305C15.9878 7.3666 16.7327 7.07841 16.8072 7.76991C16.8124 7.87209 16.7864 7.97348 16.7327 8.06124C16.7022 8.22805 16.6678 8.0675 16.695 8.40738C16.694 8.50571 16.7067 8.60372 16.7327 8.69871C16.8232 8.90389 16.9674 8.94618 16.6766 9.13648C15.5807 9.57118 14.8807 10.6304 14.9256 11.7858C14.8864 12.8655 15.5005 13.8666 16.4932 14.3412C17.5501 14.8549 18.1819 15.9449 18.0895 17.0954V17.0892Z" fill="#182346"/>
<path fill-rule="evenodd" clip-rule="evenodd" d="M13.8828 12.4591C13.5589 11.8207 12.9789 11.3421 12.2808 11.1372L12.3177 11.0103C12.6608 10.4618 12.8416 9.83095 12.8399 9.18796C12.8402 9.07156 12.8292 8.9554 12.8071 8.84104C12.8815 8.787 13.1451 8.93423 13.3613 9.24278C13.6016 9.58814 13.8828 9.2976 13.6401 9.11513C13.4411 8.831 13.3077 8.50792 13.2492 8.16833C13.227 7.94392 13.2334 7.71768 13.2684 7.49484C13.3485 7.33194 13.2684 6.87538 13.045 7.31237C12.8215 7.74935 12.5043 7.6405 12.5043 7.6405C12.2369 7.04676 11.7195 6.59544 11.0857 6.40315C11.3372 5.98938 11.7332 5.67843 12.2007 5.52761C12.4541 5.41354 12.7245 5.34004 13.0017 5.3099C13.0946 5.14623 13.1138 5.03659 13.0385 5.03659C12.5512 5.06674 12.0732 5.18074 11.6264 5.37334C11.3422 5.49417 11.0392 5.56724 10.7301 5.58948C10.4739 5.61332 10.2157 5.6041 9.96197 5.56207C9.54665 5.49367 9.13664 5.39738 8.73486 5.27388C8.32475 4.99978 8.28791 5.41876 8.35679 5.47358C8.62605 5.55132 8.88557 5.65822 9.13054 5.79231C9.34354 5.95557 9.53037 6.14905 9.68482 6.36634C9.31562 6.49184 8.99616 6.72774 8.7717 7.04062C8.59439 6.76669 8.30005 6.58568 7.97072 6.54803C7.72347 6.49517 7.46501 6.55356 7.26653 6.7071C7.06806 6.86064 6.95051 7.09314 6.94626 7.34056C6.94998 7.5433 7.04493 7.73413 7.20578 7.86212C7.20578 7.86212 7.44608 7.98742 7.60627 7.86212C7.66795 7.812 7.61428 7.72743 7.61428 7.66243C7.52837 7.58051 7.5045 7.45459 7.55469 7.34802C7.60487 7.24144 7.71824 7.17729 7.83776 7.18785C8.16937 7.20879 8.42458 7.48254 8.41527 7.8073C7.71539 8.11387 7.23834 8.76488 7.16653 9.5114C7.18593 10.3302 7.75513 11.0385 8.56425 11.2507V14.8931C8.56425 14.8931 8.60109 15.294 8.17257 14.7834C8.03776 14.6599 7.91321 14.5261 7.80011 14.3833C7.53042 13.8516 7.19467 13.3544 6.80048 12.9031C6.63308 12.9031 6.4841 12.9211 6.66992 13.2164C6.84093 13.4844 6.93116 13.7941 6.93024 14.1099C6.98581 14.57 6.75962 15.019 6.35273 15.2564C6.07399 15.4749 6.33431 15.6942 6.57621 15.4749C6.71921 15.3377 6.91776 15.2707 7.11687 15.2925C7.56218 15.2963 7.98387 15.4889 8.27269 15.8203C8.43388 15.8755 8.53945 16.027 8.53301 16.1938C8.53451 16.3013 8.49217 16.4049 8.41537 16.4818C8.33856 16.5586 8.23361 16.6024 8.12371 16.6034C8.01374 16.6024 7.9087 16.5586 7.83177 16.4818C7.75484 16.405 7.71232 16.3014 7.7136 16.1938C7.7136 16.0889 7.76006 16.0748 7.82574 16.002C7.82574 16.002 7.75125 15.767 7.47251 15.9652C7.37078 16.0372 7.1369 16.2933 7.21139 16.475C7.22981 16.93 7.84016 17.4273 8.71964 16.9848C8.89757 17.2651 9.13226 17.5068 9.40929 17.6951C9.69444 17.8698 9.98359 17.8987 9.95956 17.9747C9.82708 18.3724 9.52376 18.6938 9.12894 18.8549C8.70282 18.9238 8.32796 18.9137 8.27269 18.5667C7.99395 18.0021 8.68199 18.1478 8.47694 17.7656C8.32052 17.7175 8.15277 17.7175 7.99635 17.7656C7.70499 17.9253 7.52027 18.2223 7.50935 18.5487C7.5835 19.1536 8.13776 19.5902 8.75809 19.5323C9.03873 19.5349 9.31405 19.4573 9.55026 19.3091C9.84416 19.1679 10.1066 18.9712 10.3224 18.7304C10.6039 19.0044 10.924 19.2375 11.2732 19.4227C11.5711 19.6052 12.5019 19.714 11.8339 19.277C10.7589 18.5769 10.9215 17.8564 10.9215 17.8564C12.0281 17.6094 12.8749 16.7373 13.0698 15.6441C14.1592 14.9585 14.5164 13.5634 13.886 12.4568L13.8828 12.4591ZM8.57146 10.4441C8.18999 10.2854 7.94114 9.92062 7.93788 9.51531C7.98216 9.1095 8.2161 8.7466 8.57146 8.53248V10.4441ZM10.0797 6.92942V7.43923C9.80416 7.42726 9.52827 7.45363 9.2603 7.51755C9.38176 7.17397 9.70805 6.93977 10.0797 6.92942ZM10.0797 8.04851V10.7182C9.87419 10.738 9.66675 10.7253 9.46536 10.6806C9.38594 10.6555 9.32368 10.5946 9.29795 10.5169V8.18634C9.55214 8.11073 9.81452 8.06447 10.0797 8.04851ZM10.0797 17.2064C9.67764 17.0749 9.3942 16.7221 9.35882 16.309C9.59282 16.3777 9.83542 16.4143 10.0797 16.4178V17.2064ZM10.0797 15.5987C10.0797 15.7107 9.71126 15.677 9.48298 15.5078C9.39408 15.4376 9.32924 15.3425 9.29715 15.2353V12.3753H10.0789L10.0797 15.5987ZM10.0989 11.7558H9.31637V11.3557C9.57544 11.3932 9.83705 11.4112 10.0989 11.4097V11.7558ZM10.9183 7.01869C11.265 7.09249 11.5552 7.32302 11.7001 7.63971C11.4467 7.55608 11.1845 7.5009 10.9183 7.47526V7.01869ZM10.9183 8.06026C11.1418 8.06026 11.1074 8.13152 11.4238 8.15032C11.5719 8.20357 11.9156 8.24429 12.0013 8.36881C12.1122 8.62733 12.1509 8.91002 12.1134 9.18796C12.1435 9.77462 11.9658 10.3535 11.6104 10.8271C11.5615 10.9618 11.4085 10.9304 11.2564 10.8999C11.1453 10.879 11.0334 10.861 10.9207 10.8459L10.9183 8.06026ZM10.94 17.1649V16.4178C11.3288 16.4119 11.7134 16.3381 12.0758 16.2001C12.0573 16.4726 11.5543 16.9684 10.94 17.1649ZM12.1887 15.3637C11.9457 15.515 11.6728 15.6143 11.3877 15.6551C10.9416 15.6363 10.9223 15.6958 10.9223 15.6182V12.6306C11.8108 12.9398 12.4001 13.7667 12.3889 14.6887C12.3929 14.832 12.4258 15.2533 12.1847 15.3622L12.1887 15.3637ZM13.0642 14.4921L13.049 14.4522C13.017 14.011 12.8834 13.5826 12.6581 13.1992C12.363 12.6368 11.873 12.1955 11.2756 11.954C11.3045 11.9195 11.3401 11.891 11.3805 11.8702C11.781 11.5569 12.6877 11.9571 13.1138 12.7074C13.5126 13.2431 13.4925 13.9741 13.065 14.4882L13.0642 14.4921ZM43.5877 7.71435C43.6384 6.24546 42.3949 4.90121 39.78 4.8523C37.93 4.82706 36.5626 5.44869 36.4315 6.94204C36.3302 8.18768 36.7621 8.43539 37.5986 8.75646C38.0305 9.20455 41.5326 9.75045 42.242 9.87588C43.2579 10.0502 45.4401 10.4991 46.6064 11.6674C48.7386 13.8566 47.7477 18.1623 45.4393 19.6312C43.8652 20.6259 41.7096 20.8744 39.6545 20.8989C38.0504 20.8941 36.4787 20.4555 35.1124 19.6312C33.5865 18.5235 32.6391 16.81 32.5249 14.9515H36.2296C36.2377 15.6495 36.519 16.3178 37.0155 16.818C37.9751 17.6281 39.2323 18.0153 40.4918 17.8885C41.5396 17.9184 42.5702 17.6221 43.4357 17.0421C43.8605 16.6465 44.1072 16.1012 44.1212 15.5269C44.1352 14.9525 43.9155 14.3963 43.5105 13.9812C42.2935 12.7379 38.6394 12.7379 36.2546 11.9404C34.2502 11.269 32.5997 9.85064 32.9061 6.91364C33.2102 4.02792 35.3416 1.8877 39.8572 1.8877C40.8473 1.8877 44.2979 1.96658 46.0996 4.20227C46.8827 5.20354 47.2619 6.45288 47.1646 7.7112H43.5877V7.71435ZM57.6193 20.3301C57.3466 19.9358 57.213 19.4648 57.2389 18.989C56.1228 20.2284 54.5104 20.9278 52.8247 20.9036C50.032 20.9036 48.6614 19.3606 48.7644 16.7486C48.8392 14.8553 49.6017 13.014 52.7475 12.4926C53.9617 12.4352 55.1634 12.2257 56.3235 11.8694C56.9363 11.6199 57.3014 10.9973 57.2131 10.3524C57.2131 9.50669 56.5021 9.13276 54.8805 9.13276C52.8512 9.13276 52.5978 10.3524 52.548 11.3219H49.1947C49.2462 7.01698 53.0024 6.61939 54.8781 6.61939C55.9822 6.59497 57.0819 6.76298 58.126 7.1156C59.7184 7.69488 60.7239 9.24187 60.5873 10.9022V18.2688C60.603 18.8861 60.8898 19.4667 61.3739 19.8615V20.3348L57.6193 20.3301ZM57.2171 13.9852C56.2013 14.5823 54.8299 14.5311 53.9194 14.7054C53.3997 14.7577 52.9293 15.0303 52.6318 15.4515C52.3344 15.8728 52.2397 16.4006 52.3726 16.8961C52.5745 17.6929 53.2099 18.2656 54.7317 18.0163C56.8375 17.6937 57.2187 16.2492 57.2187 14.7559V13.9844L57.2171 13.9852ZM61.986 6.84817H63.9164V5.54888C63.9164 3.53409 64.9564 2.18984 67.2649 2.18984H69.472V4.77736H68.2237C67.7411 4.77736 67.4628 5.07634 67.4628 5.69798V6.84738H69.5677V9.16195H67.4619V20.3293H63.9108V9.16195H61.9804L61.986 6.84817ZM71.1144 6.84264H74.6664V9.45462H74.7178C74.9225 8.54604 75.5256 7.77236 76.3659 7.34043C77.0676 6.75431 77.9919 6.49149 78.9044 6.6186V10.1757C77.381 10.0013 75.0983 9.80252 74.6664 12.7403V20.3293H71.1112L71.1144 6.84264ZM88.3658 20.3325C88.093 19.9382 87.9594 19.4672 87.9854 18.9914C86.8689 20.2306 85.2563 20.9299 83.5704 20.906C80.7793 20.906 79.4103 19.3629 79.5117 16.751C79.5921 14.8577 80.3474 13.0164 83.4956 12.495C84.7103 12.4373 85.9126 12.2278 87.0732 11.8717C87.6841 11.6206 88.047 10.9985 87.958 10.3547C87.958 9.50905 87.247 9.13513 85.6254 9.13513C83.5969 9.13513 83.3427 10.3547 83.2929 11.3243H79.9388C79.9903 7.01935 83.7449 6.62176 85.623 6.62176C86.7271 6.59734 87.8268 6.76535 88.8709 7.11796C90.4637 7.69681 91.4694 9.2441 91.3322 10.9046V18.2711C91.3481 18.8883 91.6345 19.4687 92.118 19.8639V20.3372L88.3658 20.3325ZM87.9548 13.9852C86.9397 14.5823 85.5699 14.5311 84.657 14.7054C84.1373 14.7577 83.6669 15.0303 83.3695 15.4515C83.0721 15.8728 82.9774 16.4006 83.1103 16.8961C83.3122 17.6929 83.946 18.2656 85.4678 18.0163C87.5735 17.6937 87.9556 16.2492 87.9556 14.7559V13.9844L87.9548 13.9852Z" fill="#182346"/>
</svg>
