<svg width="106" height="26" viewBox="0 0 106 26" fill="none" xmlns="http://www.w3.org/2000/svg">
<path fill-rule="evenodd" clip-rule="evenodd" d="M67.4853 12.7412C67.4853 13.448 67.5934 14.1021 67.81 14.704C68.0261 15.3057 68.3416 15.8312 68.7559 16.28C69.1697 16.7289 69.6639 17.0822 70.2384 17.34C70.8124 17.598 71.457 17.727 72.1726 17.727C72.8878 17.727 73.5324 17.598 74.1069 17.34C74.6809 17.0822 75.1751 16.7289 75.5894 16.28C76.0032 15.8312 76.3187 15.3057 76.5353 14.704C76.7515 14.1021 76.86 13.448 76.86 12.7412C76.86 12.0347 76.7515 11.3802 76.5353 10.7783C76.3187 10.1766 76.0032 9.65156 75.5894 9.20242C75.1751 8.75386 74.6809 8.40009 74.1069 8.14229C73.5324 7.88433 72.8878 7.75543 72.1726 7.75543C71.457 7.75543 70.8124 7.88433 70.2384 8.14229C69.6639 8.40009 69.1697 8.75386 68.7559 9.20242C68.3416 9.65156 68.0261 10.1766 67.81 10.7783C67.5934 11.3802 67.4853 12.0347 67.4853 12.7412ZM65.2827 6.03618H67.4853V7.98462H67.5417C68.1439 7.25889 68.845 6.69529 69.6454 6.29413C70.4453 5.89296 71.3256 5.69238 72.2856 5.69238C73.3206 5.69238 74.2667 5.86926 75.1234 6.22245C75.9799 6.57621 76.7092 7.0677 77.3119 7.6982C77.9141 8.32842 78.3848 9.07352 78.7237 9.93307C79.0625 10.7928 79.232 11.7289 79.232 12.7412C79.232 13.754 79.0625 14.6895 78.7237 15.5492C78.3848 16.4088 77.919 17.1539 77.326 17.7841C76.733 18.4146 76.0314 18.9068 75.2224 19.26C74.4126 19.613 73.5466 19.7899 72.6244 19.7899C71.4385 19.7899 70.398 19.5273 69.5042 19.002C68.6099 18.4767 67.9557 17.8321 67.5417 17.0679H67.4853V25.9792H65.2827V6.03618ZM98.7149 22.1683C98.4844 22.7414 98.2488 23.2615 98.0088 23.7299C97.7684 24.1978 97.4801 24.5988 97.1442 24.9334C96.8077 25.2673 96.4042 25.5253 95.9337 25.7071C95.4626 25.8883 94.8912 25.9792 94.2188 25.9792C93.8919 25.9792 93.551 25.96 93.1958 25.922C92.84 25.8835 92.5086 25.788 92.2013 25.6354L92.4895 23.687C92.7202 23.7823 92.9602 23.8446 93.2102 23.8732C93.4596 23.9018 93.7479 23.9163 94.0748 23.9163C94.8047 23.9163 95.3428 23.7156 95.6886 23.3145C96.0346 22.9134 96.3321 22.3783 96.5821 21.7099L97.5044 19.1883L91.9132 5.69238H94.536L98.7149 16.2083H98.7725L102.779 5.69238H105.228L98.7149 22.1683Z" fill="#182346"/>
<path fill-rule="evenodd" clip-rule="evenodd" d="M4.95214 14.9554C5.18015 15.4046 5.48288 15.7684 5.8602 16.0467C6.23738 16.3255 6.68009 16.5317 7.18932 16.6666C7.69798 16.8012 8.22448 16.8686 8.76852 16.8686C9.13693 16.8686 9.5318 16.8373 9.95286 16.7743C10.3739 16.7116 10.7686 16.5903 11.1372 16.4106C11.5056 16.2312 11.8124 15.9841 12.0584 15.6695C12.3038 15.3555 12.4268 14.9554 12.4268 14.4703C12.4268 13.9496 12.2643 13.5274 11.9398 13.2038C11.615 12.8805 11.1897 12.611 10.6635 12.3954C10.1371 12.1799 9.54029 11.9912 8.87368 11.8297C8.20679 11.668 7.53154 11.4886 6.84724 11.2906C6.14525 11.1112 5.46094 10.8911 4.79448 10.6304C4.12744 10.3703 3.53103 10.0334 3.00482 9.62001C2.47832 9.20702 2.05259 8.69029 1.72821 8.07053C1.40325 7.45077 1.2412 6.70088 1.2412 5.82043C1.2412 4.83275 1.44727 3.97477 1.85969 3.24705C2.27183 2.51962 2.81148 1.91319 3.47824 1.42819C4.14499 0.943192 4.89963 0.58397 5.74174 0.350237C6.58385 0.117084 7.42624 0 8.26835 0C9.25086 0 10.1939 0.112447 11.0977 0.336906C12.0011 0.561655 12.804 0.925513 13.506 1.42819C14.2076 1.93145 14.7648 2.57338 15.1772 3.35486C15.589 4.13619 15.7955 5.08402 15.7955 6.19777H11.795C11.7598 5.62292 11.6413 5.14676 11.4399 4.76957C11.2378 4.39238 10.9703 4.09591 10.637 3.88029C10.3037 3.66481 9.92186 3.51237 9.49231 3.42224C9.06206 3.33254 8.59288 3.28762 8.08408 3.28762C7.75063 3.28762 7.41704 3.32385 7.08402 3.39529C6.75072 3.46731 6.44798 3.59308 6.17596 3.77248C5.90394 3.95231 5.68018 4.17676 5.50496 4.44614C5.32932 4.71567 5.24185 5.05721 5.24185 5.47019C5.24185 5.84753 5.31177 6.15313 5.45231 6.38643C5.59243 6.62002 5.86898 6.83564 6.28154 7.03315C6.6934 7.23094 7.26377 7.42845 7.99209 7.62596C8.71998 7.82375 9.67192 8.07516 10.8478 8.38034C11.1985 8.45235 11.6852 8.58248 12.3084 8.77115C12.931 8.95982 13.5494 9.26078 14.1637 9.67391C14.7779 10.0873 15.3088 10.6397 15.7562 11.3311C16.2036 12.0228 16.4272 12.9075 16.4272 13.9854C16.4272 14.8657 16.2603 15.683 15.927 16.4375C15.5936 17.1921 15.0982 17.8434 14.4401 18.391C13.7823 18.9393 12.9663 19.3659 11.9926 19.671C11.0189 19.9763 9.89115 20.1292 8.61058 20.1292C7.57499 20.1292 6.57097 19.9986 5.5971 19.7383C4.62336 19.4782 3.76342 19.0695 3.01784 18.5123C2.27183 17.9557 1.67966 17.246 1.2412 16.3835C0.802593 15.5213 0.591853 14.4974 0.609686 13.3116H4.61006C4.61006 13.9583 4.72399 14.5065 4.95214 14.9554ZM26.8163 13.1433C26.6578 13.2865 26.4599 13.3979 26.2219 13.4784C25.9842 13.5588 25.7288 13.6258 25.4557 13.6794C25.1825 13.7329 24.8964 13.7777 24.5972 13.8132C24.2976 13.8494 23.9984 13.8938 23.6989 13.9474C23.4169 14.001 23.1396 14.0725 22.8668 14.1617C22.5934 14.2514 22.3558 14.372 22.1536 14.5237C21.9507 14.6757 21.7878 14.868 21.6647 15.0999C21.5413 15.3324 21.4798 15.6272 21.4798 15.9845C21.4798 16.3241 21.5413 16.6102 21.6647 16.8422C21.7878 17.0746 21.9554 17.2576 22.1668 17.3917C22.3781 17.5257 22.6246 17.6196 22.9064 17.6732C23.1879 17.7267 23.4784 17.7535 23.7783 17.7535C24.5181 17.7535 25.0902 17.6286 25.4955 17.3783C25.9004 17.1282 26.1998 16.8287 26.3937 16.4803C26.5873 16.1318 26.7061 15.7792 26.7504 15.4216C26.7942 15.0643 26.8163 14.7783 26.8163 14.5637V13.1433ZM18.1509 10.3288C18.2038 9.43549 18.4238 8.6939 18.8114 8.10424C19.1987 7.51458 19.6919 7.04123 20.2909 6.68363C20.8896 6.32646 21.5632 6.07163 22.312 5.91971C23.0604 5.76822 23.8134 5.69183 24.5708 5.69183C25.2577 5.69183 25.9531 5.74127 26.6578 5.83928C27.362 5.93772 28.0052 6.13 28.5864 6.41568C29.1676 6.70165 29.6431 7.09903 30.0132 7.60841C30.3829 8.11765 30.5678 8.79235 30.5678 9.63194V16.8422C30.5678 17.4679 30.6029 18.0664 30.6735 18.638C30.7439 19.2101 30.8672 19.6389 31.0435 19.9246H27.239C27.1685 19.7103 27.1111 19.4915 27.0675 19.2679C27.0232 19.0446 26.9924 18.8168 26.9749 18.5844C26.3761 19.2101 25.6714 19.6477 24.8613 19.8976C24.0511 20.1479 23.2234 20.273 22.3781 20.273C21.7263 20.273 21.1186 20.1925 20.555 20.0318C19.9913 19.871 19.4983 19.6209 19.0757 19.2813C18.653 18.942 18.3227 18.5132 18.085 17.9946C17.8473 17.4766 17.7283 16.8603 17.7283 16.1453C17.7283 15.3591 17.8645 14.7113 18.1378 14.2021C18.4106 13.6929 18.7627 13.2865 19.1944 12.9824C19.6259 12.6788 20.1192 12.451 20.6741 12.2989C21.2289 12.1474 21.7878 12.0268 22.3515 11.9371C22.9151 11.8479 23.4699 11.7763 24.016 11.7228C24.5617 11.669 25.0463 11.5887 25.4689 11.4815C25.8916 11.3743 26.2262 11.218 26.473 11.0123C26.7193 10.8072 26.8338 10.5077 26.8163 10.1145C26.8163 9.70372 26.7504 9.3774 26.6183 9.13612C26.4863 8.89483 26.31 8.70731 26.0899 8.57326C25.8694 8.43921 25.6143 8.34999 25.3238 8.30531C25.0331 8.26077 24.7202 8.23829 24.3859 8.23829C23.6463 8.23829 23.0648 8.399 22.6422 8.72071C22.2195 9.04228 21.9726 9.57847 21.9024 10.3288H18.1509ZM31.6776 8.39814V5.86763H33.9435V4.80206C33.9435 3.57677 34.3254 2.57365 35.0896 1.79213C35.8536 1.01089 37.009 0.620124 38.5551 0.620124C38.8925 0.620124 39.2303 0.633303 39.568 0.660089C39.9054 0.686732 40.2344 0.709077 40.5544 0.726553V3.55013C40.1099 3.49684 39.6481 3.4702 39.1682 3.4702C38.6525 3.4702 38.2839 3.59009 38.0621 3.82974C37.8396 4.06952 37.7288 4.47375 37.7288 5.04185V5.86763H40.3411V8.39814H37.7288V19.639H33.9435V8.39814H31.6776ZM44.7871 6.05963V8.58112H44.8406C45.018 8.16092 45.2579 7.77151 45.5602 7.41233C45.8622 7.05371 46.2087 6.74706 46.5998 6.49297C46.9905 6.23929 47.4083 6.0424 47.8528 5.902C48.2967 5.76203 48.7591 5.69183 49.239 5.69183C49.4876 5.69183 49.7629 5.7359 50.0653 5.82318V9.29031C49.8875 9.25542 49.6741 9.22477 49.4256 9.19836C49.1765 9.17209 48.9364 9.1591 48.7057 9.1591C48.0126 9.1591 47.4263 9.27308 46.9464 9.50048C46.4664 9.72817 46.0801 10.0389 45.7868 10.4328C45.4937 10.8268 45.2845 11.2865 45.1604 11.8118C45.0358 12.3371 44.9737 12.9065 44.9737 13.5192V19.639H41.1884V6.05963H44.7871Z" fill="#182346"/>
<path fill-rule="evenodd" clip-rule="evenodd" d="M88.8923 16.5742C88.5675 16.933 88.1605 17.2223 87.6714 17.4389C87.1835 17.6576 86.6123 17.7653 85.9591 17.7653C85.117 17.7653 84.4121 17.5906 83.8468 17.2409C83.2816 16.8914 82.9988 16.2998 82.9988 15.4663C82.9988 14.5587 83.4211 13.9047 84.2633 13.5087C85.1076 13.1104 86.2487 12.9125 87.6854 12.9125H89.9279V13.7646C89.9092 14.3121 89.8141 14.8273 89.6418 15.3112C89.4682 15.7928 89.2195 16.2152 88.8923 16.5742ZM95.405 17.4146H92.4073C92.2771 17.4146 92.1703 17.3105 92.1703 17.1807V11.2941C92.1703 9.40248 91.7293 7.99253 90.8473 7.06526C89.9655 6.13927 88.5287 5.69238 86.5362 5.69238H77.9639C78.324 5.95047 78.6372 6.22029 78.9443 6.53277C79.2834 6.87774 79.5895 7.25177 79.8639 7.65343H87.2539C87.9951 7.76809 88.5956 8.07126 89.0518 8.4556C89.6358 8.94886 89.9279 9.67688 89.9279 10.6412V11.0383H89.0647C88.2415 11.0383 87.3348 11.0765 86.3485 11.1528C85.3609 11.2293 84.4415 11.4181 83.5876 11.7201C82.7362 12.0234 82.0208 12.4865 81.4473 13.1104C80.8702 13.7344 80.5839 14.5958 80.5839 15.6944C80.5839 16.3369 80.7166 16.9041 80.9852 17.396C81.2538 17.8892 81.6137 18.3002 82.0642 18.6313C82.5145 18.9612 83.0423 19.2134 83.6463 19.3836C84.2502 19.5538 84.8953 19.6396 85.5861 19.6396C86.6217 19.6396 87.5072 19.4208 88.2473 18.9855C88.9439 18.5746 89.5081 18.0536 89.9408 17.4227C90.0639 18.6636 91.1324 19.6383 92.4179 19.6383H96.3516L95.405 17.4146Z" fill="#182346"/>
<path fill-rule="evenodd" clip-rule="evenodd" d="M59.7876 13.1438C59.629 13.2871 59.431 13.3985 59.1931 13.4789C58.9555 13.5594 58.6999 13.6264 58.427 13.68C58.1538 13.7335 57.8676 13.7783 57.5683 13.8138C57.2688 13.8499 56.9696 13.8943 56.6701 13.948C56.3881 14.0016 56.1108 14.0731 55.838 14.1623C55.5647 14.2519 55.327 14.3726 55.1247 14.5242C54.9219 14.6763 54.759 14.8686 54.636 15.1005C54.5125 15.333 54.451 15.6277 54.451 15.985C54.451 16.3246 54.5125 16.6107 54.636 16.8428C54.759 17.0751 54.9265 17.2582 55.1379 17.3922C55.3492 17.5263 55.5956 17.6201 55.8777 17.6737C56.1591 17.7272 56.4496 17.754 56.7495 17.754C57.4892 17.754 58.0614 17.6292 58.4666 17.3788C58.8716 17.1288 59.1708 16.8292 59.3649 16.4809C59.5586 16.1323 59.6773 15.7798 59.7216 15.4222C59.7653 15.0649 59.7876 14.7789 59.7876 14.5643V13.1438ZM51.122 10.3294C51.175 9.43604 51.3951 8.69446 51.7826 8.1048C52.1698 7.51513 52.663 7.04179 53.262 6.68419C53.8607 6.32702 54.5342 6.07218 55.2832 5.92026C56.0317 5.76878 56.7845 5.69238 57.5419 5.69238C58.2289 5.69238 58.9243 5.74182 59.629 5.83983C60.3333 5.93828 60.9764 6.13056 61.5576 6.41624C62.1388 6.7022 62.6143 7.09959 62.9843 7.60897C63.3541 8.1182 63.5391 8.7929 63.5391 9.6325V16.8428C63.5391 17.4685 63.5742 18.0669 63.6446 18.6386C63.7151 19.2107 63.8383 19.6395 64.0146 19.9252H60.2102C60.1398 19.7108 60.0824 19.492 60.0387 19.2685C59.9944 19.0452 59.9634 18.8173 59.9461 18.585C59.3473 19.2107 58.6426 19.6483 57.8325 19.8982C57.0223 20.1484 56.1945 20.2735 55.3492 20.2735C54.6975 20.2735 54.0898 20.1931 53.5263 20.0324C52.9624 19.8715 52.4694 19.6215 52.0467 19.2819C51.6241 18.9426 51.2938 18.5138 51.0562 17.9952C50.8184 17.4771 50.6993 16.8608 50.6993 16.1459C50.6993 15.3596 50.8357 14.7119 51.1091 14.2026C51.3817 13.6934 51.7339 13.2871 52.1656 12.983C52.5971 12.6794 53.0904 12.4515 53.6453 12.2995C54.1999 12.148 54.759 12.0273 55.3227 11.9377C55.8863 11.8485 56.441 11.7768 56.9872 11.7233C57.5329 11.6696 58.0175 11.5893 58.4402 11.4821C58.8628 11.3748 59.1974 11.2186 59.4442 11.0129C59.6905 10.8078 59.805 10.5083 59.7876 10.1151C59.7876 9.70428 59.7216 9.37796 59.5895 9.13667C59.4574 8.89539 59.2811 8.70786 59.061 8.57382C58.8405 8.43977 58.5855 8.35055 58.2948 8.30587C58.0043 8.26133 57.6915 8.23884 57.3572 8.23884C56.6174 8.23884 56.0361 8.39956 55.6134 8.72127C55.1907 9.04284 54.9437 9.57903 54.8736 10.3294H51.122Z" fill="#182346"/>
</svg>
