<svg width="103" height="58" viewBox="0 0 103 58" fill="none" xmlns="http://www.w3.org/2000/svg">
<path d="M96.0995 0H6.86425C3.07323 0 0 3.05732 0 6.82871V50.0772C0 53.8486 3.07323 56.9059 6.86425 56.9059H96.0995C99.8905 56.9059 102.964 53.8486 102.964 50.0772V6.82871C102.964 3.05732 99.8905 0 96.0995 0Z" fill="white"/>
<path d="M75.4756 20.6579C75.9001 19.8452 76.3039 19.0226 76.7391 18.21C76.8532 19.0417 76.9771 19.8644 77.1015 20.6961C77.9612 20.4252 78.8006 20.1061 79.67 19.8743C79.0592 20.5706 78.4688 21.2869 77.8786 22.0023C78.5206 22.4768 79.1626 22.9312 79.7948 23.405C78.9348 23.4922 78.0752 23.5312 77.2153 23.5986C77.1844 24.4502 77.1225 25.3111 77.0707 26.172C76.5732 25.5529 76.1176 24.9147 75.641 24.2857C74.9263 24.8948 74.2014 25.5047 73.5073 26.1337C73.777 25.2629 74.0462 24.392 74.3049 23.5213C73.4765 23.4241 72.6375 23.3185 71.8091 23.2121C72.6169 22.7859 73.435 22.3505 74.2429 21.9151C73.9112 21.1706 73.5696 20.4352 73.2487 19.6899C73.9838 20.0289 74.74 20.3189 75.4756 20.6579Z" fill="#182346"/>
<path fill-rule="evenodd" clip-rule="evenodd" d="M75.4756 20.6579C75.9001 19.8452 76.3039 19.0226 76.7391 18.21C76.8532 19.0417 76.9771 19.8644 77.1015 20.6961C77.9611 20.4252 78.8006 20.1061 79.67 19.8743C79.0592 20.5706 78.4688 21.2869 77.8786 22.0023C78.5206 22.4768 79.1626 22.9312 79.7948 23.405C78.9348 23.4922 78.0752 23.5312 77.2153 23.5986C77.1844 24.4502 77.1224 25.3111 77.0707 26.172C76.5732 25.5529 76.1176 24.9147 75.641 24.2857C74.9263 24.8948 74.2014 25.5047 73.5073 26.1337C73.777 25.2629 74.0462 24.392 74.3049 23.5213C73.4765 23.4241 72.6374 23.3185 71.809 23.2121C72.6169 22.7859 73.435 22.3505 74.2429 21.9151C73.9112 21.1706 73.5696 20.4352 73.2487 19.6899C73.9838 20.0289 74.74 20.3189 75.4756 20.6579ZM50.3486 25.5915C51.1171 25.5346 51.8856 25.4959 52.6433 25.4482C52.0945 27.9984 51.5453 30.539 50.9852 33.0794C50.7219 34.2298 50.1066 35.3999 48.9977 36.109C47.8228 36.8856 46.2747 37.0774 44.8361 37.0198C43.5623 36.9621 42.2228 36.5883 41.3993 35.6873C40.554 34.7379 40.51 33.4245 40.9052 32.3127C41.3227 30.9515 42.5193 29.82 44.0015 29.2831C45.7692 28.5832 47.7568 28.6977 49.6457 28.7462C49.8762 27.6914 50.1177 26.6365 50.3486 25.5915Z" stroke="white" stroke-width="0.601699"/>
<path d="M67.347 31.8547C69.5514 30.1353 71.5364 28.1869 73.4062 26.1719C72.5599 28.8365 70.9203 31.2911 68.7051 33.1821C68.1825 33.5645 67.7019 34.0132 67.1168 34.3381C65.2051 35.5227 62.9485 36.2865 60.629 36.3054L60.6812 36.2676C62.5096 35.293 64.2649 34.2141 65.9048 32.991C66.3856 32.6186 66.8978 32.265 67.347 31.8547Z" fill="white"/>
<path fill-rule="evenodd" clip-rule="evenodd" d="M67.347 31.8547C69.5514 30.1353 71.5364 28.1869 73.4062 26.1719C72.5599 28.8365 70.9203 31.2911 68.7051 33.1821C68.1825 33.5645 67.7019 34.0132 67.1168 34.3381C65.2051 35.5227 62.9485 36.2865 60.629 36.3054L60.6812 36.2676C62.5096 35.293 64.2649 34.2141 65.9048 32.991C66.3856 32.6186 66.8978 32.265 67.347 31.8547Z" fill="#182346"/>
<path fill-rule="evenodd" clip-rule="evenodd" d="M34.4639 29.1134C35.7362 28.993 37.1177 29.0833 38.2488 29.6938C39.0866 30.135 39.6957 30.9356 39.8259 31.8266C39.9998 33.0185 39.5976 34.2603 38.8687 35.2414C37.7703 36.7129 35.8778 37.5737 33.9744 37.7234C32.7237 37.8137 31.3857 37.7234 30.2762 37.1128C29.4168 36.6527 28.8079 35.8116 28.7103 34.8906C28.5687 33.5887 29.0581 32.2574 29.9498 31.2461C31.0594 30.0044 32.7453 29.2734 34.4639 29.1134ZM53.6161 30.659C54.964 29.5083 56.8978 29.031 58.7428 29.0695C59.7154 29.0896 60.7764 29.2253 61.5385 29.8007C62.3008 30.386 62.4002 31.4295 61.9803 32.2001C61.5937 32.8725 60.8312 33.3114 60.0578 33.5845C58.2125 34.1983 56.1797 34.1304 54.2682 33.8281C54.1574 34.7644 54.6215 35.7686 55.5828 36.236C57.0962 36.9486 58.8979 36.9093 60.5549 36.7535L60.4997 36.792C59.0633 37.6597 57.2294 37.9134 55.5277 37.6597C54.4114 37.5039 53.2846 37.0558 52.5884 36.246C52.0138 35.6321 51.7817 34.813 51.8592 34.0233C51.9254 32.7553 52.5555 31.5167 53.6161 30.659ZM77.9988 29.1583C79.2827 28.9908 80.6522 29.0204 81.8504 29.5422C82.8022 29.9364 83.5511 30.7636 83.7223 31.7185C83.9474 32.8908 83.5727 34.1215 82.8773 35.1161C81.8822 36.5439 80.1171 37.4404 78.3087 37.6764C77.0355 37.8337 75.688 37.7745 74.511 37.2628C73.6015 36.8687 72.885 36.1007 72.6925 35.1948C72.4462 34.0817 72.7566 32.9204 73.3556 31.9452C74.3186 30.4092 76.1158 29.4145 77.9988 29.1583Z" stroke="white" stroke-width="0.601699"/>
<path d="M22.8894 29.4102C23.9059 29.1592 24.9664 29.058 26.0158 29.0684C27.1758 29.058 28.3467 29.1282 29.4847 29.3098C29.3189 29.7129 29.1532 30.1057 29.0094 30.5089C27.3634 30.3981 25.6623 30.2969 24.0274 30.6396C23.5303 30.7606 22.8894 30.9415 22.7569 31.4753C22.7348 31.8785 23.1435 32.1103 23.5192 32.2107C24.6901 32.5031 25.9493 32.4625 27.0543 32.9365C27.5736 33.1476 28.0153 33.5603 28.1037 34.0847C28.2472 34.9005 27.9934 35.7968 27.3634 36.4111C26.6454 37.1162 25.585 37.4285 24.5798 37.5998C22.4917 37.9018 20.3377 37.7409 18.3047 37.2675C18.4152 36.8445 18.5479 36.4214 18.6582 35.9984C20.415 36.1999 22.2153 36.4517 23.972 36.1195C24.6349 35.988 25.386 35.6661 25.5077 34.9912C25.6401 34.5475 25.2093 34.1954 24.7894 34.0847C23.6739 33.7723 22.4806 33.8424 21.3869 33.4703C20.9121 33.3086 20.4481 33.0161 20.2711 32.5732C19.94 31.798 20.2493 30.8817 20.9121 30.3368C21.4863 29.8842 22.1713 29.5918 22.8894 29.4102Z" fill="#182346"/>
<path d="M62.2262 29.0674C62.9152 29.0674 63.6147 29.0769 64.3036 29.0674C65.1518 30.1454 66.0631 31.1839 67.0176 32.1728L66.9646 32.2225C66.5089 32.6513 65.9891 33.021 65.5014 33.4103C64.3142 32.033 63.2226 30.5751 62.2262 29.0674Z" fill="#182346"/>
<path fill-rule="evenodd" clip-rule="evenodd" d="M62.2262 29.0674C62.9152 29.0674 63.6147 29.0769 64.3036 29.0674C65.1518 30.1454 66.0631 31.1839 67.0176 32.1728L66.9646 32.2225C66.5089 32.6513 65.9891 33.021 65.5014 33.4103C64.3142 32.033 63.2226 30.5751 62.2262 29.0674Z" stroke="#182346" stroke-width="0.601699"/>
<path d="M48.5587 33.1561C48.427 33.7984 48.1522 34.4597 47.5813 34.9011C46.8785 35.4668 45.8575 35.5919 44.946 35.4956C44.3091 35.4478 43.6285 35.1794 43.3318 34.6523C42.9698 34.0479 43.0905 33.329 43.2769 32.6958C43.5295 31.8047 44.1664 30.9705 45.1217 30.5481C46.3956 29.9733 47.8776 29.9824 49.2723 30.1174C49.02 31.1328 48.8 32.1498 48.5587 33.1561ZM50.3486 25.5916C50.1177 26.6366 49.8762 27.6914 49.6457 28.7463C47.7568 28.6978 45.7692 28.5833 44.0015 29.2832C42.5193 29.8202 41.3227 30.9515 40.9052 32.3128C40.51 33.4246 40.554 34.738 41.3994 35.6874C42.2229 36.5884 43.5623 36.9622 44.8361 37.0199C46.2747 37.0775 47.8228 36.8857 48.9978 36.1091C50.1066 35.4001 50.722 34.2299 50.9852 33.0795C51.5454 30.539 52.0946 27.9986 52.6433 25.4482C51.8856 25.496 51.1171 25.5347 50.3486 25.5916ZM58.8422 32.4823C57.472 32.8825 55.9913 32.7846 54.5997 32.5802C54.9969 31.7704 55.6932 31.0493 56.6106 30.6791C57.3948 30.3667 58.3119 30.2402 59.1627 30.4346C59.5604 30.5225 59.9251 30.8156 59.947 31.2051C60.0465 31.819 59.4391 32.2972 58.8422 32.4823ZM61.5384 29.8006C60.7764 29.2252 59.7154 29.0895 58.7428 29.0695C56.8978 29.0309 54.964 29.5083 53.6161 30.659C52.5555 31.5167 51.9254 32.7553 51.8592 34.0232C51.7817 34.813 52.0138 35.6321 52.5884 36.2459C53.2846 37.0558 54.4114 37.5039 55.5277 37.6597C57.2294 37.9134 59.0633 37.6597 60.4997 36.792L60.5549 36.7534C58.8978 36.9093 57.0962 36.9486 55.5828 36.2359C54.6216 35.7685 54.1574 34.7644 54.2682 33.8281C56.1797 34.1304 58.2125 34.1983 60.0579 33.5845C60.8312 33.3113 61.5936 32.8725 61.9803 32.2C62.4002 31.4295 62.3008 30.386 61.5384 29.8006ZM37.3462 32.8378C37.2481 33.5791 36.9546 34.3196 36.4431 34.9104C35.7361 35.7514 34.5725 36.2622 33.4199 36.2218C32.7888 36.2218 32.1144 36.0817 31.6685 35.6517C31.3529 35.3515 31.201 34.9405 31.179 34.5303C31.1029 32.8077 32.3428 31.0061 34.2354 30.6054C35.062 30.4248 36.0194 30.4953 36.6933 31.0061C37.2481 31.4567 37.4332 32.1869 37.3462 32.8378ZM39.8258 31.8265C39.6957 30.9356 39.0866 30.1349 38.2488 29.6938C37.1177 29.0833 35.7361 28.993 34.4639 29.1133C32.7453 29.2733 31.0593 30.0043 29.9498 31.2461C29.0581 32.2574 28.5687 33.5886 28.7103 34.8905C28.8079 35.8116 29.4168 36.6526 30.2762 37.1128C31.3856 37.7234 32.7237 37.8136 33.9744 37.7234C35.8777 37.5737 37.7703 36.7128 38.8686 35.2414C39.5976 34.2602 39.9998 33.0184 39.8258 31.8265ZM78.8655 35.9627C78.02 36.2782 77.0355 36.3273 76.1799 36.0118C75.5914 35.8054 75.1746 35.2633 75.1212 34.683C74.9495 32.9001 76.2333 30.9995 78.1917 30.6063C78.9617 30.4481 79.8495 30.4879 80.5025 30.931C81.0155 31.2753 81.2724 31.8563 81.283 32.4273C81.3047 33.8947 80.3736 35.4019 78.8655 35.9627ZM83.7223 31.7184C83.551 30.7636 82.8022 29.9364 81.8504 29.5422C80.6522 29.0203 79.2827 28.9908 77.9988 29.1582C76.1158 29.4145 74.3186 30.4091 73.3557 31.9451C72.7566 32.9203 72.4462 34.0817 72.6926 35.1947C72.8851 36.1006 73.6016 36.8686 74.5111 37.2627C75.6881 37.7745 77.0355 37.8337 78.3087 37.6764C80.1171 37.4403 81.8822 36.5438 82.8772 35.116C83.5726 34.1214 83.9474 32.8907 83.7223 31.7184ZM67.0176 34.5027C67.6139 34.1957 68.1037 33.7716 68.6362 33.4103C69.946 34.629 71.2764 35.8292 72.6076 37.0294C71.681 37.0115 70.7443 37.0387 69.8177 37.0208C69.5729 36.8944 69.413 36.7052 69.211 36.5424C68.4442 35.8835 67.6991 35.2159 67.0176 34.5027Z" fill="#182346"/>
<path fill-rule="evenodd" clip-rule="evenodd" d="M67.0176 34.5025C67.6139 34.1956 68.1037 33.7714 68.6362 33.4102C69.946 34.6289 71.2764 35.8291 72.6076 37.0293C71.681 37.0114 70.7443 37.0385 69.8177 37.0207C69.5729 36.8943 69.413 36.7051 69.211 36.5423C68.4442 35.8833 67.6991 35.2157 67.0176 34.5025Z" stroke="#182346" stroke-width="0.601699"/>
</svg>
