<svg width="103" height="58" viewBox="0 0 103 58" fill="none" xmlns="http://www.w3.org/2000/svg">
<path d="M96.1333 0H6.86667C3.07431 0 0 3.1161 0 6.96V51.04C0 54.8839 3.07431 58 6.86667 58H96.1333C99.9257 58 103 54.8839 103 51.04V6.96C103 3.1161 99.9257 0 96.1333 0Z" fill="white"/>
<path d="M35.6629 49.1372H39.2813V44.5527H35.6629V49.1372Z" fill="#182346"/>
<path d="M35.6629 11.5445H39.2813V6.95996H35.6629V11.5445Z" fill="#182346"/>
<path d="M32.0444 41.461V34.3679C32.0444 31.174 33.6042 29.5637 36.6344 29.5637C39.6841 29.5637 41.1989 31.1557 41.1989 34.3679V35.2118H37.6888V33.8029C37.6888 32.8323 37.3994 32.3414 36.6163 32.3414C35.8501 32.3414 35.5582 32.8323 35.5582 33.8029V42.0458C35.5582 43.0195 35.8501 43.4815 36.6344 43.4815C37.3994 43.4815 37.6888 43.0195 37.6888 42.0458V40.2678H41.1989V41.461C41.1989 44.6711 39.6841 46.285 36.6344 46.285C33.6042 46.285 32.0444 44.6544 32.0444 41.461Z" fill="#182346"/>
<path d="M32.0635 23.814V23.3256H35.5299V23.9094C35.5299 24.9684 35.8973 25.4817 36.6709 25.4817C37.366 25.4817 37.8347 24.9684 37.8347 24.2047C37.8347 23.5396 37.3343 22.995 36.633 22.2408C35.5961 21.1297 34.3291 19.8897 33.4775 19.0079C32.6637 18.1604 32.2567 17.0214 32.2567 15.7262C32.2567 13.1127 33.9045 11.5444 36.8064 11.5444C39.6735 11.5444 41.127 12.8809 41.127 15.5518V16.1481H37.8135V15.7659C37.8135 14.7649 37.4874 14.2916 36.7101 14.2916C36.0908 14.2916 35.684 14.7649 35.684 15.4492C35.684 16.3563 36.5642 17.1293 38.0285 18.4862C39.2901 19.6503 40.3486 20.8081 40.7753 21.6117C41.127 22.2633 41.3201 23.0704 41.3201 23.9894C41.3201 26.6613 39.6153 28.2898 36.5952 28.2898C33.6338 28.2898 32.0635 26.7398 32.0635 23.814Z" fill="#182346"/>
<path d="M68.361 29.7724C71.793 29.7724 73.0801 30.5508 73.0801 33.9973V41.8483C73.0801 43.348 72.8286 44.3773 71.8118 45.2169C70.832 46.0107 69.5698 46.0537 67.7489 46.0537H64.0605V29.7724H68.361ZM67.9766 32.44H67.5367V43.3887H67.9766C69.1472 43.3887 69.5698 43.2285 69.5698 41.9302V33.9018C69.5698 32.598 69.1472 32.44 67.9766 32.44ZM68.4711 11.5444C71.5506 11.5444 73.0812 13.1575 73.0812 16.3933V23.436C73.0812 26.6784 71.5506 28.3102 68.4711 28.3102C65.415 28.3102 63.8447 26.6613 63.8447 23.436V16.3933C63.8447 13.175 65.415 11.5444 68.4711 11.5444ZM68.4521 14.349C67.6785 14.349 67.3868 14.8433 67.3868 15.8244V24.0276C67.3868 25.0092 67.6785 25.4817 68.4711 25.4817C69.2473 25.4817 69.5354 25.0092 69.5354 24.0276V15.8244C69.5354 14.8433 69.2473 14.349 68.4521 14.349Z" fill="#182346"/>
<path d="M57.7284 43.0364H62.16V46.0535H54.2566V29.7722H62.0294V32.79H57.7284V36.234H61.5265V39.2624H57.7284V43.0364Z" fill="#182346"/>
<path d="M58.3759 11.8237C61.002 11.8237 62.3045 12.9708 62.3045 15.3088V16.2015C62.3045 17.7795 61.7305 18.6738 60.3476 19.1997C61.7305 19.6275 62.2479 21.2151 62.2479 22.848V26.4501C62.2479 27.1462 62.3045 27.6744 62.5729 28.1021H59.0637C58.8529 27.7125 58.8121 27.1258 58.8121 26.3117V23.3133C58.8121 21.738 58.5478 21.2937 56.8372 21.2689V28.1021H53.4025V11.8237H58.3759ZM56.9712 14.472H56.8372V18.4526C58.2573 18.4139 58.8121 18.1422 58.8121 17.072V15.8526C58.8121 14.7609 58.3351 14.472 56.9712 14.472Z" fill="#182346"/>
<path d="M48.0973 29.7722C50.7276 29.7722 52.0312 30.9208 52.0312 33.2567V34.1547C52.0312 35.7292 51.4546 36.6239 50.0738 37.153C51.4546 37.5776 51.9746 39.1636 51.9746 40.797V44.3992C51.9746 45.0974 52.0312 45.623 52.2997 46.0535H48.7876C48.577 45.6627 48.5378 45.0808 48.5378 44.2608V41.2671C48.5378 39.688 48.2721 39.2382 46.5624 39.2204V46.0535H43.1269V29.7722H48.0973ZM46.699 32.4233H46.5624V36.4048C47.9838 36.3678 48.5378 36.0946 48.5378 35.0232V33.8027C48.5378 32.7105 48.0597 32.4233 46.699 32.4233Z" fill="#182346"/>
<path d="M47.1649 11.5444C50.2424 11.5444 51.7729 13.1575 51.7729 16.3933V23.436C51.7729 26.6784 50.2424 28.3102 47.1649 28.3102C44.1056 28.3102 42.5364 26.6613 42.5364 23.436V16.3933C42.5364 13.175 44.1056 11.5444 47.1649 11.5444ZM47.1437 14.349C46.3702 14.349 46.0808 14.8433 46.0808 15.8244V24.0276C46.0808 25.0092 46.3702 25.4817 47.1649 25.4817C47.9374 25.4817 48.2281 25.0092 48.2281 24.0276V15.8244C48.2281 14.8433 47.9374 14.349 47.1437 14.349Z" fill="#182346"/>
</svg>
