<svg width="273" height="100" viewBox="0 0 273 100" fill="none" xmlns="http://www.w3.org/2000/svg">
<rect y="97" width="273" height="3" fill="url(#paint0_linear_378_525)"/>
<path d="M103.696 53V49.892H111.886V26.288H111.592L104.2 33.176L102.142 30.95L109.912 23.684H115.414V49.892H122.974V53H103.696ZM130.896 48.086C131.792 48.086 132.436 48.324 132.828 48.8C133.248 49.248 133.458 49.836 133.458 50.564V51.152C133.458 52.3 133.122 53.56 132.45 54.932C131.778 56.332 130.84 57.55 129.636 58.586H126.822C127.662 57.69 128.334 56.836 128.838 56.024C129.37 55.24 129.748 54.358 129.972 53.378C129.412 53.238 128.992 52.972 128.712 52.58C128.46 52.188 128.334 51.712 128.334 51.152V50.564C128.334 49.836 128.53 49.248 128.922 48.8C129.342 48.324 130 48.086 130.896 48.086ZM149.227 53.504C147.547 53.504 146.077 53.294 144.817 52.874C143.557 52.426 142.493 51.824 141.625 51.068C140.785 50.312 140.141 49.416 139.693 48.38C139.273 47.344 139.063 46.224 139.063 45.02C139.063 43.004 139.609 41.408 140.701 40.232C141.793 39.056 143.221 38.23 144.985 37.754V37.418C143.445 36.886 142.213 36.032 141.289 34.856C140.393 33.652 139.945 32.21 139.945 30.53C139.945 28.29 140.757 26.512 142.381 25.196C144.005 23.852 146.287 23.18 149.227 23.18C152.167 23.18 154.449 23.852 156.073 25.196C157.697 26.512 158.509 28.29 158.509 30.53C158.509 32.21 158.047 33.652 157.123 34.856C156.227 36.032 155.009 36.886 153.469 37.418V37.754C155.233 38.23 156.661 39.056 157.753 40.232C158.845 41.408 159.391 43.004 159.391 45.02C159.391 46.224 159.167 47.344 158.719 48.38C158.299 49.416 157.655 50.312 156.787 51.068C155.947 51.824 154.897 52.426 153.637 52.874C152.377 53.294 150.907 53.504 149.227 53.504ZM149.227 50.438C151.271 50.438 152.853 49.99 153.973 49.094C155.093 48.17 155.653 46.868 155.653 45.188V44.306C155.653 42.626 155.093 41.338 153.973 40.442C152.853 39.518 151.271 39.056 149.227 39.056C147.183 39.056 145.601 39.518 144.481 40.442C143.361 41.338 142.801 42.626 142.801 44.306V45.188C142.801 46.868 143.361 48.17 144.481 49.094C145.601 49.99 147.183 50.438 149.227 50.438ZM149.227 36.116C151.075 36.116 152.475 35.724 153.427 34.94C154.379 34.156 154.855 33.008 154.855 31.496V30.866C154.855 29.354 154.379 28.206 153.427 27.422C152.475 26.638 151.075 26.246 149.227 26.246C147.379 26.246 145.979 26.638 145.027 27.422C144.075 28.206 143.599 29.354 143.599 30.866V31.496C143.599 33.008 144.075 34.156 145.027 34.94C145.979 35.724 147.379 36.116 149.227 36.116ZM174.411 53.504C172.731 53.504 171.261 53.294 170.001 52.874C168.741 52.426 167.677 51.824 166.809 51.068C165.969 50.312 165.325 49.416 164.877 48.38C164.457 47.344 164.247 46.224 164.247 45.02C164.247 43.004 164.793 41.408 165.885 40.232C166.977 39.056 168.405 38.23 170.169 37.754V37.418C168.629 36.886 167.397 36.032 166.473 34.856C165.577 33.652 165.129 32.21 165.129 30.53C165.129 28.29 165.941 26.512 167.565 25.196C169.189 23.852 171.471 23.18 174.411 23.18C177.351 23.18 179.633 23.852 181.257 25.196C182.881 26.512 183.693 28.29 183.693 30.53C183.693 32.21 183.231 33.652 182.307 34.856C181.411 36.032 180.193 36.886 178.653 37.418V37.754C180.417 38.23 181.845 39.056 182.937 40.232C184.029 41.408 184.575 43.004 184.575 45.02C184.575 46.224 184.351 47.344 183.903 48.38C183.483 49.416 182.839 50.312 181.971 51.068C181.131 51.824 180.081 52.426 178.821 52.874C177.561 53.294 176.091 53.504 174.411 53.504ZM174.411 50.438C176.455 50.438 178.037 49.99 179.157 49.094C180.277 48.17 180.837 46.868 180.837 45.188V44.306C180.837 42.626 180.277 41.338 179.157 40.442C178.037 39.518 176.455 39.056 174.411 39.056C172.367 39.056 170.785 39.518 169.665 40.442C168.545 41.338 167.985 42.626 167.985 44.306V45.188C167.985 46.868 168.545 48.17 169.665 49.094C170.785 49.99 172.367 50.438 174.411 50.438ZM174.411 36.116C176.259 36.116 177.659 35.724 178.611 34.94C179.563 34.156 180.039 33.008 180.039 31.496V30.866C180.039 29.354 179.563 28.206 178.611 27.422C177.659 26.638 176.259 26.246 174.411 26.246C172.563 26.246 171.163 26.638 170.211 27.422C169.259 28.206 168.783 29.354 168.783 30.866V31.496C168.783 33.008 169.259 34.156 170.211 34.94C171.163 35.724 172.563 36.116 174.411 36.116Z" fill="#C4AD6C"/>
<path d="M106.09 4.99H106.05L105.51 6.1L104.08 8.74L102.65 6.1L102.11 4.99H102.07V10H100.82V3.02H102.31L104.1 6.43H104.14L105.91 3.02H107.34V10H106.09V4.99ZM108.984 10V3.02H113.584V4.19H110.304V5.88H113.204V7.05H110.304V8.83H113.584V10H108.984ZM114.98 10V3.02H116.3V8.83H119.05V10H114.98ZM124.425 7.05H121.515V10H120.195V3.02H121.515V5.88H124.425V3.02H125.745V10H124.425V7.05ZM130.123 10.12C129.663 10.12 129.246 10.0433 128.873 9.89C128.499 9.73667 128.179 9.50667 127.913 9.2C127.653 8.89333 127.449 8.51667 127.303 8.07C127.156 7.62333 127.083 7.10333 127.083 6.51C127.083 5.92333 127.156 5.40667 127.303 4.96C127.449 4.50667 127.653 4.12667 127.913 3.82C128.179 3.51333 128.499 3.28333 128.873 3.13C129.246 2.97667 129.663 2.9 130.123 2.9C130.583 2.9 130.999 2.97667 131.373 3.13C131.746 3.28333 132.066 3.51333 132.333 3.82C132.599 4.12667 132.803 4.50667 132.943 4.96C133.089 5.40667 133.163 5.92333 133.163 6.51C133.163 7.10333 133.089 7.62333 132.943 8.07C132.803 8.51667 132.599 8.89333 132.333 9.2C132.066 9.50667 131.746 9.73667 131.373 9.89C130.999 10.0433 130.583 10.12 130.123 10.12ZM130.123 8.95C130.623 8.95 131.019 8.78333 131.313 8.45C131.613 8.11667 131.763 7.65 131.763 7.05V5.97C131.763 5.37 131.613 4.90333 131.313 4.57C131.019 4.23667 130.623 4.07 130.123 4.07C129.623 4.07 129.223 4.23667 128.923 4.57C128.629 4.90333 128.483 5.37 128.483 5.97V7.05C128.483 7.65 128.629 8.11667 128.923 8.45C129.223 8.78333 129.623 8.95 130.123 8.95ZM135.822 10H134.502V3.02H137.652C137.972 3.02 138.258 3.07 138.512 3.17C138.765 3.27 138.978 3.41667 139.152 3.61C139.332 3.79667 139.468 4.02333 139.562 4.29C139.662 4.55667 139.712 4.85333 139.712 5.18C139.712 5.66 139.602 6.07333 139.382 6.42C139.168 6.76667 138.845 7.01333 138.412 7.16L139.842 10H138.372L137.072 7.31H135.822V10ZM137.522 6.2C137.775 6.2 137.975 6.13333 138.122 6C138.268 5.86 138.342 5.66333 138.342 5.41V4.95C138.342 4.69667 138.268 4.50333 138.122 4.37C137.975 4.23667 137.775 4.17 137.522 4.17H135.822V6.2H137.522ZM146.246 4.19V10H144.926V4.19H142.946V3.02H148.226V4.19H146.246ZM152.972 10L152.412 8.22H149.932L149.382 10H148.042L150.382 3.02H152.022L154.342 10H152.972ZM151.192 4.22H151.142L150.252 7.09H152.092L151.192 4.22ZM160.97 10H159.43L157.83 7.32H157.8L156.22 10H154.78L157.04 6.42L154.88 3.02H156.42L157.9 5.5H157.93L159.43 3.02H160.87L158.69 6.42L160.97 10ZM166.341 10L165.781 8.22H163.301L162.751 10H161.411L163.751 3.02H165.391L167.711 10H166.341ZM164.561 4.22H164.511L163.621 7.09H165.461L164.561 4.22Z" fill="white"/>
<path d="M103.144 71.888L102.136 70.028H102.1V77H101.116V68.624H102.28L105.34 73.736L106.348 75.596H106.384V68.624H107.368V77H106.204L103.144 71.888ZM111.844 77.144C111.428 77.144 111.048 77.068 110.704 76.916C110.36 76.764 110.064 76.548 109.816 76.268C109.576 75.98 109.388 75.64 109.252 75.248C109.116 74.848 109.048 74.4 109.048 73.904C109.048 73.416 109.116 72.972 109.252 72.572C109.388 72.172 109.576 71.832 109.816 71.552C110.064 71.264 110.36 71.044 110.704 70.892C111.048 70.74 111.428 70.664 111.844 70.664C112.26 70.664 112.636 70.74 112.972 70.892C113.316 71.044 113.612 71.264 113.86 71.552C114.108 71.832 114.3 72.172 114.436 72.572C114.572 72.972 114.64 73.416 114.64 73.904C114.64 74.4 114.572 74.848 114.436 75.248C114.3 75.64 114.108 75.98 113.86 76.268C113.612 76.548 113.316 76.764 112.972 76.916C112.636 77.068 112.26 77.144 111.844 77.144ZM111.844 76.292C112.364 76.292 112.788 76.132 113.116 75.812C113.444 75.492 113.608 75.004 113.608 74.348V73.46C113.608 72.804 113.444 72.316 113.116 71.996C112.788 71.676 112.364 71.516 111.844 71.516C111.324 71.516 110.9 71.676 110.572 71.996C110.244 72.316 110.08 72.804 110.08 73.46V74.348C110.08 75.004 110.244 75.492 110.572 75.812C110.9 76.132 111.324 76.292 111.844 76.292ZM119.151 68.624H121.959C122.479 68.624 122.951 68.712 123.375 68.888C123.799 69.064 124.159 69.328 124.455 69.68C124.759 70.024 124.991 70.46 125.151 70.988C125.311 71.508 125.391 72.116 125.391 72.812C125.391 73.508 125.311 74.12 125.151 74.648C124.991 75.168 124.759 75.604 124.455 75.956C124.159 76.3 123.799 76.56 123.375 76.736C122.951 76.912 122.479 77 121.959 77H119.151V68.624ZM121.959 76.112C122.303 76.112 122.619 76.056 122.907 75.944C123.195 75.824 123.443 75.652 123.651 75.428C123.859 75.204 124.019 74.932 124.131 74.612C124.251 74.284 124.311 73.912 124.311 73.496V72.128C124.311 71.712 124.251 71.344 124.131 71.024C124.019 70.696 123.859 70.42 123.651 70.196C123.443 69.972 123.195 69.804 122.907 69.692C122.619 69.572 122.303 69.512 121.959 69.512H120.159V76.112H121.959ZM129.434 77.144C129.01 77.144 128.626 77.068 128.282 76.916C127.946 76.764 127.654 76.548 127.406 76.268C127.166 75.98 126.978 75.64 126.842 75.248C126.714 74.848 126.65 74.4 126.65 73.904C126.65 73.416 126.714 72.972 126.842 72.572C126.978 72.172 127.166 71.832 127.406 71.552C127.654 71.264 127.946 71.044 128.282 70.892C128.626 70.74 129.01 70.664 129.434 70.664C129.85 70.664 130.222 70.74 130.55 70.892C130.878 71.044 131.158 71.256 131.39 71.528C131.622 71.792 131.798 72.108 131.918 72.476C132.046 72.844 132.11 73.248 132.11 73.688V74.144H127.658V74.432C127.658 74.696 127.698 74.944 127.778 75.176C127.866 75.4 127.986 75.596 128.138 75.764C128.298 75.932 128.49 76.064 128.714 76.16C128.946 76.256 129.206 76.304 129.494 76.304C129.886 76.304 130.226 76.212 130.514 76.028C130.81 75.844 131.038 75.58 131.198 75.236L131.882 75.728C131.682 76.152 131.37 76.496 130.946 76.76C130.522 77.016 130.018 77.144 129.434 77.144ZM129.434 71.468C129.17 71.468 128.93 71.516 128.714 71.612C128.498 71.7 128.31 71.828 128.15 71.996C127.998 72.164 127.878 72.364 127.79 72.596C127.702 72.82 127.658 73.068 127.658 73.34V73.424H131.078V73.292C131.078 72.74 130.926 72.3 130.622 71.972C130.326 71.636 129.93 71.468 129.434 71.468ZM129.53 69.98L128.906 69.692L129.926 67.652L130.802 68.072L129.53 69.98ZM133.692 68.12H134.652V71.816H134.7C134.86 71.424 135.092 71.136 135.396 70.952C135.708 70.76 136.08 70.664 136.512 70.664C136.896 70.664 137.244 70.74 137.556 70.892C137.868 71.044 138.132 71.26 138.348 71.54C138.572 71.82 138.74 72.16 138.852 72.56C138.972 72.96 139.032 73.408 139.032 73.904C139.032 74.4 138.972 74.848 138.852 75.248C138.74 75.648 138.572 75.988 138.348 76.268C138.132 76.548 137.868 76.764 137.556 76.916C137.244 77.068 136.896 77.144 136.512 77.144C135.672 77.144 135.068 76.76 134.7 75.992H134.652V77H133.692V68.12ZM136.248 76.28C136.792 76.28 137.22 76.112 137.532 75.776C137.844 75.432 138 74.984 138 74.432V73.376C138 72.824 137.844 72.38 137.532 72.044C137.22 71.7 136.792 71.528 136.248 71.528C136.032 71.528 135.824 71.56 135.624 71.624C135.432 71.68 135.264 71.76 135.12 71.864C134.976 71.968 134.86 72.096 134.772 72.248C134.692 72.392 134.652 72.548 134.652 72.716V75.02C134.652 75.22 134.692 75.4 134.772 75.56C134.86 75.712 134.976 75.844 135.12 75.956C135.264 76.06 135.432 76.14 135.624 76.196C135.824 76.252 136.032 76.28 136.248 76.28ZM141.133 69.356C140.925 69.356 140.773 69.308 140.677 69.212C140.589 69.108 140.545 68.976 140.545 68.816V68.66C140.545 68.5 140.589 68.372 140.677 68.276C140.773 68.172 140.925 68.12 141.133 68.12C141.341 68.12 141.489 68.172 141.577 68.276C141.673 68.372 141.721 68.5 141.721 68.66V68.816C141.721 68.976 141.673 69.108 141.577 69.212C141.489 69.308 141.341 69.356 141.133 69.356ZM140.653 70.808H141.613V77H140.653V70.808ZM145.021 77C144.685 77 144.429 76.908 144.253 76.724C144.085 76.532 144.001 76.284 144.001 75.98V71.648H142.981V70.808H143.557C143.765 70.808 143.905 70.768 143.977 70.688C144.057 70.6 144.097 70.452 144.097 70.244V69.092H144.961V70.808H146.317V71.648H144.961V76.16H146.221V77H145.021ZM150.153 77.144C149.737 77.144 149.357 77.068 149.013 76.916C148.669 76.764 148.373 76.548 148.125 76.268C147.885 75.98 147.697 75.64 147.561 75.248C147.425 74.848 147.357 74.4 147.357 73.904C147.357 73.416 147.425 72.972 147.561 72.572C147.697 72.172 147.885 71.832 148.125 71.552C148.373 71.264 148.669 71.044 149.013 70.892C149.357 70.74 149.737 70.664 150.153 70.664C150.569 70.664 150.945 70.74 151.281 70.892C151.625 71.044 151.921 71.264 152.169 71.552C152.417 71.832 152.609 72.172 152.745 72.572C152.881 72.972 152.949 73.416 152.949 73.904C152.949 74.4 152.881 74.848 152.745 75.248C152.609 75.64 152.417 75.98 152.169 76.268C151.921 76.548 151.625 76.764 151.281 76.916C150.945 77.068 150.569 77.144 150.153 77.144ZM150.153 76.292C150.673 76.292 151.097 76.132 151.425 75.812C151.753 75.492 151.917 75.004 151.917 74.348V73.46C151.917 72.804 151.753 72.316 151.425 71.996C151.097 71.676 150.673 71.516 150.153 71.516C149.633 71.516 149.209 71.676 148.881 71.996C148.553 72.316 148.389 72.804 148.389 73.46V74.348C148.389 75.004 148.553 75.492 148.881 75.812C149.209 76.132 149.633 76.292 150.153 76.292Z" fill="white"/>
<defs>
<linearGradient id="paint0_linear_378_525" x1="273" y1="99.9995" x2="13.5" y2="99.9995" gradientUnits="userSpaceOnUse">
<stop stop-color="#C4AD6C" stop-opacity="0"/>
<stop offset="0.520833" stop-color="#C4AD6C"/>
<stop offset="1" stop-color="#C4AD6C" stop-opacity="0"/>
</linearGradient>
</defs>
</svg>
