<svg width="273" height="67" viewBox="0 0 273 67" fill="none" xmlns="http://www.w3.org/2000/svg">
<rect y="64" width="273" height="3" fill="url(#paint0_linear_401_523)"/>
<path d="M74.418 17H65.629V15.283L72.072 6.834H65.969V5.134H74.231V6.851L67.788 15.3H74.418V17ZM79.7549 17.204C79.1203 17.204 78.5536 17.0963 78.0549 16.881C77.5563 16.6657 77.1313 16.3597 76.7799 15.963C76.4286 15.555 76.1566 15.0677 75.9639 14.501C75.7826 13.923 75.6919 13.2827 75.6919 12.58C75.6919 11.8773 75.7826 11.2427 75.9639 10.676C76.1566 10.098 76.4286 9.61067 76.7799 9.214C77.1313 8.806 77.5563 8.49433 78.0549 8.279C78.5536 8.06367 79.1203 7.956 79.7549 7.956C80.4009 7.956 80.9676 8.06933 81.4549 8.296C81.9536 8.52267 82.3673 8.84 82.6959 9.248C83.0246 9.64467 83.2683 10.1093 83.4269 10.642C83.5969 11.1747 83.6819 11.747 83.6819 12.359V13.056H77.6129V13.345C77.6129 14.025 77.8113 14.586 78.2079 15.028C78.6159 15.4587 79.1939 15.674 79.9419 15.674C80.4859 15.674 80.9449 15.555 81.3189 15.317C81.6929 15.079 82.0103 14.756 82.2709 14.348L83.3589 15.419C83.0303 15.963 82.5543 16.3993 81.9309 16.728C81.3076 17.0453 80.5823 17.204 79.7549 17.204ZM79.7549 9.401C79.4376 9.401 79.1429 9.45767 78.8709 9.571C78.6103 9.68433 78.3836 9.843 78.1909 10.047C78.0096 10.251 77.8679 10.4947 77.7659 10.778C77.6639 11.0613 77.6129 11.373 77.6129 11.713V11.832H81.7269V11.662C81.7269 10.982 81.5513 10.438 81.1999 10.03C80.8486 9.61067 80.3669 9.401 79.7549 9.401ZM85.7332 17V8.16H87.5862V9.86H87.6712C87.7959 9.40667 88.0566 9.01 88.4532 8.67C88.8499 8.33 89.3996 8.16 90.1022 8.16H90.5952V9.945H89.8642C89.1276 9.945 88.5609 10.064 88.1642 10.302C87.7789 10.54 87.5862 10.8913 87.5862 11.356V17H85.7332ZM98.5852 17C98.0979 17 97.7239 16.864 97.4632 16.592C97.2026 16.3087 97.0439 15.9517 96.9872 15.521H96.9022C96.7322 16.0763 96.4206 16.4957 95.9672 16.779C95.5139 17.0623 94.9642 17.204 94.3182 17.204C93.4002 17.204 92.6919 16.966 92.1932 16.49C91.7059 16.014 91.4622 15.3737 91.4622 14.569C91.4622 13.685 91.7796 13.022 92.4142 12.58C93.0602 12.138 94.0009 11.917 95.2362 11.917H96.8342V11.169C96.8342 10.625 96.6869 10.2057 96.3922 9.911C96.0976 9.61633 95.6386 9.469 95.0152 9.469C94.4939 9.469 94.0689 9.58233 93.7402 9.809C93.4116 10.0357 93.1339 10.3247 92.9072 10.676L91.8022 9.673C92.0969 9.17433 92.5106 8.76633 93.0432 8.449C93.5759 8.12033 94.2729 7.956 95.1342 7.956C96.2789 7.956 97.1572 8.22233 97.7692 8.755C98.3812 9.28767 98.6872 10.0527 98.6872 11.05V15.487H99.6222V17H98.5852ZM94.8452 15.793C95.4232 15.793 95.8992 15.6683 96.2732 15.419C96.6472 15.1583 96.8342 14.8127 96.8342 14.382V13.107H95.2702C93.9896 13.107 93.3492 13.5037 93.3492 14.297V14.603C93.3492 14.9997 93.4796 15.3 93.7402 15.504C94.0122 15.6967 94.3806 15.793 94.8452 15.793ZM101.438 17V8.16H103.291V9.622H103.376C103.467 9.39533 103.575 9.18 103.699 8.976C103.835 8.772 103.994 8.59633 104.175 8.449C104.368 8.29033 104.589 8.17133 104.838 8.092C105.099 8.00133 105.399 7.956 105.739 7.956C106.34 7.956 106.873 8.10333 107.337 8.398C107.802 8.69267 108.142 9.146 108.357 9.758H108.408C108.567 9.25933 108.873 8.83433 109.326 8.483C109.78 8.13167 110.363 7.956 111.077 7.956C111.961 7.956 112.647 8.25633 113.134 8.857C113.622 9.44633 113.865 10.2907 113.865 11.39V17H112.012V11.611C112.012 10.931 111.882 10.421 111.621 10.081C111.361 9.72967 110.947 9.554 110.38 9.554C110.142 9.554 109.916 9.588 109.7 9.656C109.485 9.71267 109.292 9.80333 109.122 9.928C108.964 10.0527 108.833 10.2113 108.731 10.404C108.629 10.5967 108.578 10.8177 108.578 11.067V17H106.725V11.611C106.725 10.2397 106.187 9.554 105.11 9.554C104.884 9.554 104.657 9.588 104.43 9.656C104.215 9.71267 104.022 9.80333 103.852 9.928C103.682 10.0527 103.546 10.2113 103.444 10.404C103.342 10.5967 103.291 10.8177 103.291 11.067V17H101.438ZM119.898 17.204C119.286 17.204 118.725 17.0963 118.215 16.881C117.716 16.6657 117.291 16.3597 116.94 15.963C116.588 15.555 116.316 15.0677 116.124 14.501C115.931 13.923 115.835 13.2827 115.835 12.58C115.835 11.8773 115.931 11.2427 116.124 10.676C116.316 10.098 116.588 9.61067 116.94 9.214C117.291 8.806 117.716 8.49433 118.215 8.279C118.725 8.06367 119.286 7.956 119.898 7.956C120.51 7.956 121.065 8.06367 121.564 8.279C122.074 8.49433 122.504 8.806 122.856 9.214C123.207 9.61067 123.479 10.098 123.672 10.676C123.864 11.2427 123.961 11.8773 123.961 12.58C123.961 13.2827 123.864 13.923 123.672 14.501C123.479 15.0677 123.207 15.555 122.856 15.963C122.504 16.3597 122.074 16.6657 121.564 16.881C121.065 17.0963 120.51 17.204 119.898 17.204ZM119.898 15.674C120.532 15.674 121.042 15.4813 121.428 15.096C121.813 14.6993 122.006 14.11 122.006 13.328V11.832C122.006 11.05 121.813 10.4663 121.428 10.081C121.042 9.68433 120.532 9.486 119.898 9.486C119.263 9.486 118.753 9.68433 118.368 10.081C117.982 10.4663 117.79 11.05 117.79 11.832V13.328C117.79 14.11 117.982 14.6993 118.368 15.096C118.753 15.4813 119.263 15.674 119.898 15.674ZM128.83 17.204C127.992 17.204 127.289 17.0567 126.722 16.762C126.156 16.4673 125.663 16.0593 125.243 15.538L126.433 14.45C126.762 14.8467 127.125 15.1583 127.521 15.385C127.929 15.6003 128.4 15.708 128.932 15.708C129.476 15.708 129.879 15.606 130.139 15.402C130.411 15.1867 130.547 14.892 130.547 14.518C130.547 14.2347 130.451 13.9967 130.258 13.804C130.077 13.6 129.754 13.4697 129.289 13.413L128.473 13.311C127.567 13.1977 126.853 12.937 126.331 12.529C125.821 12.1097 125.566 11.492 125.566 10.676C125.566 10.2453 125.646 9.86567 125.804 9.537C125.963 9.197 126.184 8.91367 126.467 8.687C126.762 8.449 127.108 8.26767 127.504 8.143C127.912 8.01833 128.36 7.956 128.847 7.956C129.641 7.956 130.287 8.08067 130.785 8.33C131.295 8.57933 131.749 8.925 132.145 9.367L131.006 10.455C130.78 10.183 130.479 9.95067 130.105 9.758C129.743 9.554 129.323 9.452 128.847 9.452C128.337 9.452 127.958 9.554 127.708 9.758C127.47 9.962 127.351 10.2283 127.351 10.557C127.351 10.897 127.459 11.152 127.674 11.322C127.89 11.492 128.235 11.6167 128.711 11.696L129.527 11.798C130.502 11.9453 131.21 12.2343 131.652 12.665C132.106 13.0843 132.332 13.651 132.332 14.365C132.332 14.7957 132.247 15.1867 132.077 15.538C131.919 15.878 131.686 16.1727 131.38 16.422C131.074 16.6713 130.706 16.864 130.275 17C129.845 17.136 129.363 17.204 128.83 17.204Z" fill="#C4AD6C"/>
<path d="M144.682 17C144.308 17 144.036 16.9037 143.866 16.711C143.696 16.5183 143.6 16.2577 143.577 15.929V15.623H143.492C143.3 16.1103 142.982 16.4957 142.54 16.779C142.098 17.0623 141.537 17.204 140.857 17.204C139.939 17.204 139.231 16.983 138.732 16.541C138.234 16.0877 137.984 15.453 137.984 14.637C137.984 13.8663 138.256 13.2543 138.8 12.801C139.356 12.3477 140.262 12.121 141.52 12.121H143.526V11.101C143.526 9.66167 142.784 8.942 141.299 8.942C140.721 8.942 140.24 9.06667 139.854 9.316C139.469 9.554 139.157 9.89967 138.919 10.353L138.307 9.843C138.545 9.333 138.908 8.91367 139.395 8.585C139.894 8.25633 140.54 8.092 141.333 8.092C142.353 8.092 143.135 8.347 143.679 8.857C144.223 9.367 144.495 10.081 144.495 10.999V16.15H145.668V17H144.682ZM140.993 16.371C141.345 16.371 141.673 16.3257 141.979 16.235C142.285 16.1443 142.552 16.0197 142.778 15.861C143.016 15.691 143.198 15.4927 143.322 15.266C143.458 15.028 143.526 14.7617 143.526 14.467V12.852H141.486C140.614 12.852 139.979 12.9937 139.582 13.277C139.197 13.549 139.004 13.9287 139.004 14.416V14.824C139.004 15.334 139.186 15.7193 139.548 15.98C139.911 16.2407 140.393 16.371 140.993 16.371ZM155.438 6.035V17H154.418V6.035H150.44V5.134H159.416V6.035H155.438ZM166.131 17C165.757 17 165.485 16.9037 165.315 16.711C165.145 16.5183 165.049 16.2577 165.026 15.929V15.623H164.941C164.749 16.1103 164.431 16.4957 163.989 16.779C163.547 17.0623 162.986 17.204 162.306 17.204C161.388 17.204 160.68 16.983 160.181 16.541C159.683 16.0877 159.433 15.453 159.433 14.637C159.433 13.8663 159.705 13.2543 160.249 12.801C160.805 12.3477 161.711 12.121 162.969 12.121H164.975V11.101C164.975 9.66167 164.233 8.942 162.748 8.942C162.17 8.942 161.689 9.06667 161.303 9.316C160.918 9.554 160.606 9.89967 160.368 10.353L159.756 9.843C159.994 9.333 160.357 8.91367 160.844 8.585C161.343 8.25633 161.989 8.092 162.782 8.092C163.802 8.092 164.584 8.347 165.128 8.857C165.672 9.367 165.944 10.081 165.944 10.999V16.15H167.117V17H166.131ZM162.442 16.371C162.794 16.371 163.122 16.3257 163.428 16.235C163.734 16.1443 164.001 16.0197 164.227 15.861C164.465 15.691 164.647 15.4927 164.771 15.266C164.907 15.028 164.975 14.7617 164.975 14.467V12.852H162.935C162.063 12.852 161.428 12.9937 161.031 13.277C160.646 13.549 160.453 13.9287 160.453 14.416V14.824C160.453 15.334 160.635 15.7193 160.997 15.98C161.36 16.2407 161.842 16.371 162.442 16.371ZM168.04 17L171.27 12.614L168.159 8.296H169.298L171.78 11.849H171.831L174.364 8.296H175.452L172.358 12.546L175.537 17H174.398L171.831 13.328H171.797L169.128 17H168.04ZM183.546 17C183.172 17 182.9 16.9037 182.73 16.711C182.56 16.5183 182.464 16.2577 182.441 15.929V15.623H182.356C182.164 16.1103 181.846 16.4957 181.404 16.779C180.962 17.0623 180.401 17.204 179.721 17.204C178.803 17.204 178.095 16.983 177.596 16.541C177.098 16.0877 176.848 15.453 176.848 14.637C176.848 13.8663 177.12 13.2543 177.664 12.801C178.22 12.3477 179.126 12.121 180.384 12.121H182.39V11.101C182.39 9.66167 181.648 8.942 180.163 8.942C179.585 8.942 179.104 9.06667 178.718 9.316C178.333 9.554 178.021 9.89967 177.783 10.353L177.171 9.843C177.409 9.333 177.772 8.91367 178.259 8.585C178.758 8.25633 179.404 8.092 180.197 8.092C181.217 8.092 181.999 8.347 182.543 8.857C183.087 9.367 183.359 10.081 183.359 10.999V16.15H184.532V17H183.546ZM179.857 16.371C180.209 16.371 180.537 16.3257 180.843 16.235C181.149 16.1443 181.416 16.0197 181.642 15.861C181.88 15.691 182.062 15.4927 182.186 15.266C182.322 15.028 182.39 14.7617 182.39 14.467V12.852H180.35C179.478 12.852 178.843 12.9937 178.446 13.277C178.061 13.549 177.868 13.9287 177.868 14.416V14.824C177.868 15.334 178.05 15.7193 178.412 15.98C178.775 16.2407 179.257 16.371 179.857 16.371ZM72.208 37.606H72.157C71.9303 38.0933 71.596 38.4843 71.154 38.779C70.7233 39.0623 70.1737 39.204 69.505 39.204C68.383 39.204 67.5047 38.8073 66.87 38.014C66.2353 37.2207 65.918 36.0987 65.918 34.648C65.918 33.1973 66.2353 32.0753 66.87 31.282C67.5047 30.4887 68.383 30.092 69.505 30.092C70.1737 30.092 70.729 30.2393 71.171 30.534C71.613 30.8173 71.9417 31.2027 72.157 31.69H72.208V26.42H73.177V39H72.208V37.606ZM69.726 38.337C70.066 38.337 70.3833 38.2917 70.678 38.201C70.984 38.1103 71.2503 37.98 71.477 37.81C71.7037 37.6287 71.8793 37.419 72.004 37.181C72.14 36.9317 72.208 36.654 72.208 36.348V32.897C72.208 32.6137 72.14 32.353 72.004 32.115C71.8793 31.877 71.7037 31.673 71.477 31.503C71.2503 31.333 70.984 31.2027 70.678 31.112C70.3833 31.01 70.066 30.959 69.726 30.959C68.8533 30.959 68.1733 31.2367 67.686 31.792C67.1987 32.3473 66.955 33.0953 66.955 34.036V35.26C66.955 36.2007 67.1987 36.9487 67.686 37.504C68.1733 38.0593 68.8533 38.337 69.726 38.337ZM79.4537 39.204C78.8757 39.204 78.3487 39.102 77.8727 38.898C77.4081 38.694 77.0057 38.3993 76.6657 38.014C76.3371 37.6173 76.0821 37.1357 75.9007 36.569C75.7307 36.0023 75.6457 35.362 75.6457 34.648C75.6457 33.934 75.7307 33.2993 75.9007 32.744C76.0821 32.1773 76.3371 31.7013 76.6657 31.316C77.0057 30.9193 77.4081 30.619 77.8727 30.415C78.3374 30.1997 78.8587 30.092 79.4367 30.092C79.9921 30.092 80.4964 30.1997 80.9497 30.415C81.4031 30.619 81.7884 30.908 82.1057 31.282C82.4231 31.656 82.6667 32.1093 82.8367 32.642C83.0181 33.1633 83.1087 33.7413 83.1087 34.376V34.835H76.6657V35.26C76.6657 35.7133 76.7281 36.1327 76.8527 36.518C76.9887 36.892 77.1757 37.215 77.4137 37.487C77.6631 37.759 77.9634 37.9743 78.3147 38.133C78.6661 38.2803 79.0627 38.354 79.5047 38.354C80.7741 38.354 81.6524 37.7703 82.1397 36.603L82.8537 37.079C82.5817 37.725 82.1511 38.2407 81.5617 38.626C80.9837 39.0113 80.2811 39.204 79.4537 39.204ZM79.4367 30.908C79.0174 30.908 78.6377 30.9873 78.2977 31.146C77.9577 31.2933 77.6631 31.503 77.4137 31.775C77.1757 32.047 76.9887 32.3757 76.8527 32.761C76.7281 33.135 76.6657 33.5487 76.6657 34.002V34.087H82.0547V33.951C82.0547 33.4977 81.9924 33.084 81.8677 32.71C81.7431 32.3247 81.5617 32.0017 81.3237 31.741C81.0971 31.4803 80.8194 31.2763 80.4907 31.129C80.1734 30.9817 79.8221 30.908 79.4367 30.908ZM95.5748 39C95.2008 39 94.9288 38.9037 94.7588 38.711C94.5888 38.5183 94.4924 38.2577 94.4698 37.929V37.623H94.3848C94.1921 38.1103 93.8748 38.4957 93.4328 38.779C92.9908 39.0623 92.4298 39.204 91.7498 39.204C90.8318 39.204 90.1234 38.983 89.6248 38.541C89.1261 38.0877 88.8768 37.453 88.8768 36.637C88.8768 35.8663 89.1488 35.2543 89.6928 34.801C90.2481 34.3477 91.1548 34.121 92.4128 34.121H94.4188V33.101C94.4188 31.6617 93.6764 30.942 92.1918 30.942C91.6138 30.942 91.1321 31.0667 90.7468 31.316C90.3614 31.554 90.0498 31.8997 89.8118 32.353L89.1998 31.843C89.4378 31.333 89.8004 30.9137 90.2878 30.585C90.7864 30.2563 91.4324 30.092 92.2258 30.092C93.2458 30.092 94.0278 30.347 94.5718 30.857C95.1158 31.367 95.3878 32.081 95.3878 32.999V38.15H96.5608V39H95.5748ZM91.8858 38.371C92.2371 38.371 92.5658 38.3257 92.8718 38.235C93.1778 38.1443 93.4441 38.0197 93.6708 37.861C93.9088 37.691 94.0901 37.4927 94.2148 37.266C94.3508 37.028 94.4188 36.7617 94.4188 36.467V34.852H92.3788C91.5061 34.852 90.8714 34.9937 90.4748 35.277C90.0894 35.549 89.8968 35.9287 89.8968 36.416V36.824C89.8968 37.334 90.0781 37.7193 90.4408 37.98C90.8034 38.2407 91.2851 38.371 91.8858 38.371ZM98.5556 39V30.296H99.5246V31.673H99.5756C99.7683 31.2197 100.069 30.8457 100.477 30.551C100.885 30.245 101.44 30.092 102.143 30.092C103.072 30.092 103.792 30.381 104.302 30.959C104.823 31.5257 105.084 32.3417 105.084 33.407V39H104.115V33.577C104.115 32.693 103.922 32.0357 103.537 31.605C103.163 31.1743 102.613 30.959 101.888 30.959C101.582 30.959 101.287 30.9987 101.004 31.078C100.72 31.1573 100.465 31.2763 100.239 31.435C100.023 31.5937 99.8476 31.7977 99.7116 32.047C99.5869 32.285 99.5246 32.5627 99.5246 32.88V39H98.5556ZM109.631 39C109.279 39 109.013 38.9037 108.832 38.711C108.65 38.5183 108.56 38.2577 108.56 37.929V31.146H107.047V30.296H108.033C108.271 30.296 108.429 30.2507 108.509 30.16C108.599 30.058 108.645 29.8823 108.645 29.633V27.865H109.529V30.296H111.501V31.146H109.529V38.15H111.365V39H109.631ZM116.874 39.204C116.296 39.204 115.769 39.102 115.293 38.898C114.828 38.694 114.426 38.3993 114.086 38.014C113.757 37.6173 113.502 37.1357 113.321 36.569C113.151 36.0023 113.066 35.362 113.066 34.648C113.066 33.934 113.151 33.2993 113.321 32.744C113.502 32.1773 113.757 31.7013 114.086 31.316C114.426 30.9193 114.828 30.619 115.293 30.415C115.757 30.1997 116.279 30.092 116.857 30.092C117.412 30.092 117.916 30.1997 118.37 30.415C118.823 30.619 119.208 30.908 119.526 31.282C119.843 31.656 120.087 32.1093 120.257 32.642C120.438 33.1633 120.529 33.7413 120.529 34.376V34.835H114.086V35.26C114.086 35.7133 114.148 36.1327 114.273 36.518C114.409 36.892 114.596 37.215 114.834 37.487C115.083 37.759 115.383 37.9743 115.735 38.133C116.086 38.2803 116.483 38.354 116.925 38.354C118.194 38.354 119.072 37.7703 119.56 36.603L120.274 37.079C120.002 37.725 119.571 38.2407 118.982 38.626C118.404 39.0113 117.701 39.204 116.874 39.204ZM116.857 30.908C116.437 30.908 116.058 30.9873 115.718 31.146C115.378 31.2933 115.083 31.503 114.834 31.775C114.596 32.047 114.409 32.3757 114.273 32.761C114.148 33.135 114.086 33.5487 114.086 34.002V34.087H119.475V33.951C119.475 33.4977 119.412 33.084 119.288 32.71C119.163 32.3247 118.982 32.0017 118.744 31.741C118.517 31.4803 118.239 31.2763 117.911 31.129C117.593 30.9817 117.242 30.908 116.857 30.908ZM126.053 39.204C124.852 39.204 123.922 38.8073 123.265 38.014C122.619 37.2207 122.296 36.0987 122.296 34.648C122.296 33.1973 122.619 32.0753 123.265 31.282C123.922 30.4887 124.852 30.092 126.053 30.092C126.858 30.092 127.509 30.2677 128.008 30.619C128.507 30.9703 128.886 31.435 129.147 32.013L128.331 32.421C128.127 31.945 127.838 31.5823 127.464 31.333C127.101 31.0837 126.631 30.959 126.053 30.959C125.169 30.959 124.495 31.2423 124.03 31.809C123.565 32.3757 123.333 33.118 123.333 34.036V35.26C123.333 36.178 123.565 36.9203 124.03 37.487C124.495 38.0537 125.169 38.337 126.053 38.337C126.654 38.337 127.158 38.2067 127.566 37.946C127.974 37.6853 128.303 37.3113 128.552 36.824L129.266 37.3C128.983 37.878 128.575 38.3427 128.042 38.694C127.521 39.034 126.858 39.204 126.053 39.204ZM131.903 27.933C131.676 27.933 131.506 27.8763 131.393 27.763C131.291 27.6497 131.24 27.5023 131.24 27.321V27.151C131.24 26.9697 131.291 26.8223 131.393 26.709C131.506 26.5957 131.676 26.539 131.903 26.539C132.129 26.539 132.294 26.5957 132.396 26.709C132.509 26.8223 132.566 26.9697 132.566 27.151V27.321C132.566 27.5023 132.509 27.6497 132.396 27.763C132.294 27.8763 132.129 27.933 131.903 27.933ZM131.427 30.296H132.396V39H131.427V30.296ZM135.56 30.296H136.529V31.69H136.58C136.796 31.2027 137.124 30.8173 137.566 30.534C138.008 30.2393 138.564 30.092 139.232 30.092C140.354 30.092 141.233 30.4887 141.867 31.282C142.502 32.0753 142.819 33.1973 142.819 34.648C142.819 36.0987 142.502 37.2207 141.867 38.014C141.233 38.8073 140.354 39.204 139.232 39.204C138.564 39.204 138.014 39.0623 137.583 38.779C137.153 38.4843 136.818 38.0933 136.58 37.606H136.529V42.4H135.56V30.296ZM139.011 38.337C139.884 38.337 140.564 38.0593 141.051 37.504C141.539 36.9487 141.782 36.2007 141.782 35.26V34.036C141.782 33.0953 141.539 32.3473 141.051 31.792C140.564 31.2367 139.884 30.959 139.011 30.959C138.671 30.959 138.348 31.01 138.042 31.112C137.748 31.2027 137.487 31.333 137.26 31.503C137.034 31.673 136.852 31.877 136.716 32.115C136.592 32.353 136.529 32.6137 136.529 32.897V36.348C136.529 36.654 136.592 36.9317 136.716 37.181C136.852 37.419 137.034 37.6287 137.26 37.81C137.487 37.98 137.748 38.1103 138.042 38.201C138.348 38.2917 138.671 38.337 139.011 38.337ZM151.306 39C150.932 39 150.66 38.9037 150.49 38.711C150.32 38.5183 150.224 38.2577 150.201 37.929V37.623H150.116C149.924 38.1103 149.606 38.4957 149.164 38.779C148.722 39.0623 148.161 39.204 147.481 39.204C146.563 39.204 145.855 38.983 145.356 38.541C144.858 38.0877 144.608 37.453 144.608 36.637C144.608 35.8663 144.88 35.2543 145.424 34.801C145.98 34.3477 146.886 34.121 148.144 34.121H150.15V33.101C150.15 31.6617 149.408 30.942 147.923 30.942C147.345 30.942 146.864 31.0667 146.478 31.316C146.093 31.554 145.781 31.8997 145.543 32.353L144.931 31.843C145.169 31.333 145.532 30.9137 146.019 30.585C146.518 30.2563 147.164 30.092 147.957 30.092C148.977 30.092 149.759 30.347 150.303 30.857C150.847 31.367 151.119 32.081 151.119 32.999V38.15H152.292V39H151.306ZM147.617 38.371C147.969 38.371 148.297 38.3257 148.603 38.235C148.909 38.1443 149.176 38.0197 149.402 37.861C149.64 37.691 149.822 37.4927 149.946 37.266C150.082 37.028 150.15 36.7617 150.15 36.467V34.852H148.11C147.238 34.852 146.603 34.9937 146.206 35.277C145.821 35.549 145.628 35.9287 145.628 36.416V36.824C145.628 37.334 145.81 37.7193 146.172 37.98C146.535 38.2407 147.017 38.371 147.617 38.371ZM157.347 30.092C158.152 30.092 158.803 30.2677 159.302 30.619C159.801 30.9703 160.18 31.4293 160.441 31.996L159.625 32.421C159.421 31.945 159.132 31.5823 158.758 31.333C158.395 31.0837 157.925 30.959 157.347 30.959C156.463 30.959 155.789 31.2423 155.324 31.809C154.859 32.3757 154.627 33.118 154.627 34.036V35.26C154.627 36.178 154.859 36.9203 155.324 37.487C155.789 38.0537 156.463 38.337 157.347 38.337C157.948 38.337 158.452 38.2067 158.86 37.946C159.268 37.6853 159.597 37.3113 159.846 36.824L160.56 37.3C160.299 37.844 159.925 38.286 159.438 38.626C158.962 38.966 158.361 39.153 157.636 39.187L157.432 40.122L157.466 40.156C157.693 40.0993 157.897 40.071 158.078 40.071C158.407 40.071 158.679 40.1617 158.894 40.343C159.121 40.5357 159.234 40.8077 159.234 41.159C159.234 41.5783 159.07 41.9013 158.741 42.128C158.412 42.366 158.01 42.485 157.534 42.485C157.126 42.485 156.792 42.417 156.531 42.281C156.27 42.1563 156.083 42.0147 155.97 41.856L156.446 41.329C156.559 41.465 156.701 41.5783 156.871 41.669C157.052 41.7597 157.273 41.805 157.534 41.805C157.783 41.805 157.987 41.7483 158.146 41.635C158.316 41.533 158.401 41.3687 158.401 41.142C158.401 40.9607 158.322 40.8077 158.163 40.683C158.016 40.5583 157.721 40.4677 157.279 40.411L156.752 40.36L156.99 39.187C155.891 39.1077 155.046 38.677 154.457 37.895C153.879 37.1017 153.59 36.0193 153.59 34.648C153.59 33.1973 153.913 32.0753 154.559 31.282C155.216 30.4887 156.146 30.092 157.347 30.092ZM168.705 39C168.331 39 168.059 38.9037 167.889 38.711C167.719 38.5183 167.622 38.2577 167.6 37.929V37.623H167.515C167.322 38.1103 167.005 38.4957 166.563 38.779C166.121 39.0623 165.56 39.204 164.88 39.204C163.962 39.204 163.253 38.983 162.755 38.541C162.256 38.0877 162.007 37.453 162.007 36.637C162.007 35.8663 162.279 35.2543 162.823 34.801C163.378 34.3477 164.285 34.121 165.543 34.121H167.549V33.101C167.549 31.6617 166.806 30.942 165.322 30.942C164.744 30.942 164.262 31.0667 163.877 31.316C163.491 31.554 163.18 31.8997 162.942 32.353L162.33 31.843C162.568 31.333 162.93 30.9137 163.418 30.585C163.916 30.2563 164.562 30.092 165.356 30.092C166.376 30.092 167.158 30.347 167.702 30.857C168.246 31.367 168.518 32.081 168.518 32.999V38.15H169.691V39H168.705ZM165.016 38.371C165.367 38.371 165.696 38.3257 166.002 38.235C166.308 38.1443 166.574 38.0197 166.801 37.861C167.039 37.691 167.22 37.4927 167.345 37.266C167.481 37.028 167.549 36.7617 167.549 36.467V34.852H165.509C164.636 34.852 164.001 34.9937 163.605 35.277C163.219 35.549 163.027 35.9287 163.027 36.416V36.824C163.027 37.334 163.208 37.7193 163.571 37.98C163.933 38.2407 164.415 38.371 165.016 38.371ZM166.648 28.494C166.387 28.494 166.155 28.4487 165.951 28.358C165.747 28.2673 165.531 28.154 165.305 28.018C165.044 27.8593 164.823 27.7517 164.642 27.695C164.472 27.627 164.307 27.593 164.149 27.593C163.956 27.593 163.78 27.6383 163.622 27.729C163.463 27.8197 163.293 27.9443 163.112 28.103L162.687 27.61C162.868 27.3833 163.083 27.1907 163.333 27.032C163.582 26.8733 163.871 26.794 164.2 26.794C164.46 26.794 164.693 26.8393 164.897 26.93C165.101 27.0207 165.316 27.134 165.543 27.27C165.803 27.4287 166.019 27.542 166.189 27.61C166.37 27.6667 166.54 27.695 166.699 27.695C166.891 27.695 167.067 27.6497 167.226 27.559C167.384 27.4683 167.554 27.3437 167.736 27.185L168.161 27.678C167.979 27.9047 167.764 28.0973 167.515 28.256C167.265 28.4147 166.976 28.494 166.648 28.494ZM174.779 39.204C174.201 39.204 173.68 39.102 173.215 38.898C172.751 38.694 172.354 38.3993 172.025 38.014C171.697 37.6173 171.442 37.1357 171.26 36.569C171.079 36.0023 170.988 35.362 170.988 34.648C170.988 33.934 171.079 33.2993 171.26 32.744C171.442 32.1773 171.697 31.7013 172.025 31.316C172.354 30.9193 172.751 30.619 173.215 30.415C173.68 30.1997 174.201 30.092 174.779 30.092C175.357 30.092 175.879 30.1997 176.343 30.415C176.808 30.619 177.205 30.9193 177.533 31.316C177.862 31.7013 178.117 32.1773 178.298 32.744C178.48 33.2993 178.57 33.934 178.57 34.648C178.57 35.362 178.48 36.0023 178.298 36.569C178.117 37.1357 177.862 37.6173 177.533 38.014C177.205 38.3993 176.808 38.694 176.343 38.898C175.879 39.102 175.357 39.204 174.779 39.204ZM174.779 38.337C175.629 38.337 176.298 38.0707 176.785 37.538C177.284 37.0053 177.533 36.2233 177.533 35.192V34.104C177.533 33.084 177.284 32.3077 176.785 31.775C176.298 31.231 175.629 30.959 174.779 30.959C173.929 30.959 173.255 31.2253 172.756 31.758C172.269 32.2907 172.025 33.0727 172.025 34.104V35.192C172.025 36.212 172.269 36.994 172.756 37.538C173.255 38.0707 173.929 38.337 174.779 38.337ZM181.279 39.153C180.996 39.153 180.786 39.085 180.65 38.949C180.526 38.8017 180.463 38.6147 180.463 38.388V38.201C180.463 37.9743 180.526 37.793 180.65 37.657C180.786 37.5097 180.996 37.436 181.279 37.436C181.551 37.436 181.755 37.5097 181.891 37.657C182.027 37.793 182.095 37.9743 182.095 38.201V38.388C182.095 38.6147 182.027 38.8017 181.891 38.949C181.755 39.085 181.551 39.153 181.279 39.153Z" fill="white"/>
<defs>
<linearGradient id="paint0_linear_401_523" x1="273" y1="66.9995" x2="13.5" y2="66.9995" gradientUnits="userSpaceOnUse">
<stop stop-color="#C4AD6C" stop-opacity="0"/>
<stop offset="0.520833" stop-color="#C4AD6C"/>
<stop offset="1" stop-color="#C4AD6C" stop-opacity="0"/>
</linearGradient>
</defs>
</svg>
