<svg width="273" height="100" viewBox="0 0 273 100" fill="none" xmlns="http://www.w3.org/2000/svg">
<rect y="97" width="273" height="3" fill="url(#paint0_linear_376_520)"/>
<path d="M103.696 53V49.892H111.886V26.288H111.592L104.2 33.176L102.142 30.95L109.912 23.684H115.414V49.892H122.974V53H103.696ZM130.896 48.086C131.792 48.086 132.436 48.324 132.828 48.8C133.248 49.248 133.458 49.836 133.458 50.564V51.152C133.458 52.3 133.122 53.56 132.45 54.932C131.778 56.332 130.84 57.55 129.636 58.586H126.822C127.662 57.69 128.334 56.836 128.838 56.024C129.37 55.24 129.748 54.358 129.972 53.378C129.412 53.238 128.992 52.972 128.712 52.58C128.46 52.188 128.334 51.712 128.334 51.152V50.564C128.334 49.836 128.53 49.248 128.922 48.8C129.342 48.324 130 48.086 130.896 48.086ZM159.013 34.436C159.013 36.62 158.691 38.678 158.047 40.61C157.403 42.514 156.563 44.264 155.527 45.86C154.519 47.428 153.399 48.828 152.167 50.06C150.935 51.264 149.731 52.244 148.555 53H144.019C145.587 51.852 146.987 50.732 148.219 49.64C149.451 48.548 150.529 47.414 151.453 46.238C152.377 45.034 153.161 43.76 153.805 42.416C154.449 41.044 154.967 39.504 155.359 37.796L155.149 37.712C154.449 38.916 153.539 39.924 152.419 40.736C151.327 41.52 149.885 41.912 148.093 41.912C146.833 41.912 145.671 41.702 144.607 41.282C143.543 40.862 142.633 40.26 141.877 39.476C141.121 38.692 140.519 37.754 140.071 36.662C139.651 35.542 139.441 34.282 139.441 32.882C139.441 31.454 139.665 30.152 140.113 28.976C140.589 27.772 141.247 26.75 142.087 25.91C142.955 25.042 143.977 24.37 145.153 23.894C146.357 23.418 147.701 23.18 149.185 23.18C150.697 23.18 152.055 23.446 153.259 23.978C154.491 24.482 155.527 25.224 156.367 26.204C157.235 27.156 157.893 28.332 158.341 29.732C158.789 31.132 159.013 32.7 159.013 34.436ZM149.227 38.93C151.159 38.93 152.657 38.398 153.721 37.334C154.813 36.27 155.359 34.744 155.359 32.756V32.42C155.359 30.432 154.813 28.906 153.721 27.842C152.657 26.778 151.159 26.246 149.227 26.246C147.295 26.246 145.783 26.778 144.691 27.842C143.627 28.906 143.095 30.432 143.095 32.42V32.756C143.095 34.744 143.627 36.27 144.691 37.334C145.783 38.398 147.295 38.93 149.227 38.93ZM184.197 34.436C184.197 36.62 183.875 38.678 183.231 40.61C182.587 42.514 181.747 44.264 180.711 45.86C179.703 47.428 178.583 48.828 177.351 50.06C176.119 51.264 174.915 52.244 173.739 53H169.203C170.771 51.852 172.171 50.732 173.403 49.64C174.635 48.548 175.713 47.414 176.637 46.238C177.561 45.034 178.345 43.76 178.989 42.416C179.633 41.044 180.151 39.504 180.543 37.796L180.333 37.712C179.633 38.916 178.723 39.924 177.603 40.736C176.511 41.52 175.069 41.912 173.277 41.912C172.017 41.912 170.855 41.702 169.791 41.282C168.727 40.862 167.817 40.26 167.061 39.476C166.305 38.692 165.703 37.754 165.255 36.662C164.835 35.542 164.625 34.282 164.625 32.882C164.625 31.454 164.849 30.152 165.297 28.976C165.773 27.772 166.431 26.75 167.271 25.91C168.139 25.042 169.161 24.37 170.337 23.894C171.541 23.418 172.885 23.18 174.369 23.18C175.881 23.18 177.239 23.446 178.443 23.978C179.675 24.482 180.711 25.224 181.551 26.204C182.419 27.156 183.077 28.332 183.525 29.732C183.973 31.132 184.197 32.7 184.197 34.436ZM174.411 38.93C176.343 38.93 177.841 38.398 178.905 37.334C179.997 36.27 180.543 34.744 180.543 32.756V32.42C180.543 30.432 179.997 28.906 178.905 27.842C177.841 26.778 176.343 26.246 174.411 26.246C172.479 26.246 170.967 26.778 169.875 27.842C168.811 28.906 168.279 30.432 168.279 32.42V32.756C168.279 34.744 168.811 36.27 169.875 37.334C170.967 38.398 172.479 38.93 174.411 38.93Z" fill="#C4AD6C"/>
<path d="M106.09 4.99H106.05L105.51 6.1L104.08 8.74L102.65 6.1L102.11 4.99H102.07V10H100.82V3.02H102.31L104.1 6.43H104.14L105.91 3.02H107.34V10H106.09V4.99ZM108.984 10V3.02H113.584V4.19H110.304V5.88H113.204V7.05H110.304V8.83H113.584V10H108.984ZM114.98 10V3.02H116.3V8.83H119.05V10H114.98ZM124.425 7.05H121.515V10H120.195V3.02H121.515V5.88H124.425V3.02H125.745V10H124.425V7.05ZM130.123 10.12C129.663 10.12 129.246 10.0433 128.873 9.89C128.499 9.73667 128.179 9.50667 127.913 9.2C127.653 8.89333 127.449 8.51667 127.303 8.07C127.156 7.62333 127.083 7.10333 127.083 6.51C127.083 5.92333 127.156 5.40667 127.303 4.96C127.449 4.50667 127.653 4.12667 127.913 3.82C128.179 3.51333 128.499 3.28333 128.873 3.13C129.246 2.97667 129.663 2.9 130.123 2.9C130.583 2.9 130.999 2.97667 131.373 3.13C131.746 3.28333 132.066 3.51333 132.333 3.82C132.599 4.12667 132.803 4.50667 132.943 4.96C133.089 5.40667 133.163 5.92333 133.163 6.51C133.163 7.10333 133.089 7.62333 132.943 8.07C132.803 8.51667 132.599 8.89333 132.333 9.2C132.066 9.50667 131.746 9.73667 131.373 9.89C130.999 10.0433 130.583 10.12 130.123 10.12ZM130.123 8.95C130.623 8.95 131.019 8.78333 131.313 8.45C131.613 8.11667 131.763 7.65 131.763 7.05V5.97C131.763 5.37 131.613 4.90333 131.313 4.57C131.019 4.23667 130.623 4.07 130.123 4.07C129.623 4.07 129.223 4.23667 128.923 4.57C128.629 4.90333 128.483 5.37 128.483 5.97V7.05C128.483 7.65 128.629 8.11667 128.923 8.45C129.223 8.78333 129.623 8.95 130.123 8.95ZM135.822 10H134.502V3.02H137.652C137.972 3.02 138.258 3.07 138.512 3.17C138.765 3.27 138.978 3.41667 139.152 3.61C139.332 3.79667 139.468 4.02333 139.562 4.29C139.662 4.55667 139.712 4.85333 139.712 5.18C139.712 5.66 139.602 6.07333 139.382 6.42C139.168 6.76667 138.845 7.01333 138.412 7.16L139.842 10H138.372L137.072 7.31H135.822V10ZM137.522 6.2C137.775 6.2 137.975 6.13333 138.122 6C138.268 5.86 138.342 5.66333 138.342 5.41V4.95C138.342 4.69667 138.268 4.50333 138.122 4.37C137.975 4.23667 137.775 4.17 137.522 4.17H135.822V6.2H137.522ZM146.246 4.19V10H144.926V4.19H142.946V3.02H148.226V4.19H146.246ZM152.972 10L152.412 8.22H149.932L149.382 10H148.042L150.382 3.02H152.022L154.342 10H152.972ZM151.192 4.22H151.142L150.252 7.09H152.092L151.192 4.22ZM160.97 10H159.43L157.83 7.32H157.8L156.22 10H154.78L157.04 6.42L154.88 3.02H156.42L157.9 5.5H157.93L159.43 3.02H160.87L158.69 6.42L160.97 10ZM166.341 10L165.781 8.22H163.301L162.751 10H161.411L163.751 3.02H165.391L167.711 10H166.341ZM164.561 4.22H164.511L163.621 7.09H165.461L164.561 4.22Z" fill="white"/>
<path d="M103.144 71.888L102.136 70.028H102.1V77H101.116V68.624H102.28L105.34 73.736L106.348 75.596H106.384V68.624H107.368V77H106.204L103.144 71.888ZM111.844 77.144C111.428 77.144 111.048 77.068 110.704 76.916C110.36 76.764 110.064 76.548 109.816 76.268C109.576 75.98 109.388 75.64 109.252 75.248C109.116 74.848 109.048 74.4 109.048 73.904C109.048 73.416 109.116 72.972 109.252 72.572C109.388 72.172 109.576 71.832 109.816 71.552C110.064 71.264 110.36 71.044 110.704 70.892C111.048 70.74 111.428 70.664 111.844 70.664C112.26 70.664 112.636 70.74 112.972 70.892C113.316 71.044 113.612 71.264 113.86 71.552C114.108 71.832 114.3 72.172 114.436 72.572C114.572 72.972 114.64 73.416 114.64 73.904C114.64 74.4 114.572 74.848 114.436 75.248C114.3 75.64 114.108 75.98 113.86 76.268C113.612 76.548 113.316 76.764 112.972 76.916C112.636 77.068 112.26 77.144 111.844 77.144ZM111.844 76.292C112.364 76.292 112.788 76.132 113.116 75.812C113.444 75.492 113.608 75.004 113.608 74.348V73.46C113.608 72.804 113.444 72.316 113.116 71.996C112.788 71.676 112.364 71.516 111.844 71.516C111.324 71.516 110.9 71.676 110.572 71.996C110.244 72.316 110.08 72.804 110.08 73.46V74.348C110.08 75.004 110.244 75.492 110.572 75.812C110.9 76.132 111.324 76.292 111.844 76.292ZM122.103 77.144C121.039 77.144 120.211 76.784 119.619 76.064C119.027 75.336 118.731 74.268 118.731 72.86C118.731 71.452 119.027 70.372 119.619 69.62C120.211 68.86 121.039 68.48 122.103 68.48C122.807 68.48 123.395 68.64 123.867 68.96C124.347 69.28 124.719 69.732 124.983 70.316L124.167 70.808C123.999 70.376 123.743 70.032 123.399 69.776C123.055 69.512 122.623 69.38 122.103 69.38C121.743 69.38 121.419 69.448 121.131 69.584C120.851 69.72 120.611 69.916 120.411 70.172C120.219 70.42 120.071 70.72 119.967 71.072C119.863 71.416 119.811 71.804 119.811 72.236V73.484C119.811 74.348 120.011 75.024 120.411 75.512C120.811 76 121.375 76.244 122.103 76.244C122.639 76.244 123.087 76.108 123.447 75.836C123.807 75.556 124.071 75.188 124.239 74.732L125.043 75.236C124.779 75.828 124.399 76.296 123.903 76.64C123.407 76.976 122.807 77.144 122.103 77.144ZM126.508 77V70.808H127.468V71.948H127.528C127.64 71.652 127.84 71.388 128.128 71.156C128.416 70.924 128.812 70.808 129.316 70.808H129.688V71.768H129.124C128.604 71.768 128.196 71.868 127.9 72.068C127.612 72.26 127.468 72.504 127.468 72.8V77H126.508ZM133.184 77.144C132.76 77.144 132.376 77.068 132.032 76.916C131.696 76.764 131.404 76.548 131.156 76.268C130.916 75.98 130.728 75.64 130.592 75.248C130.464 74.848 130.4 74.4 130.4 73.904C130.4 73.416 130.464 72.972 130.592 72.572C130.728 72.172 130.916 71.832 131.156 71.552C131.404 71.264 131.696 71.044 132.032 70.892C132.376 70.74 132.76 70.664 133.184 70.664C133.6 70.664 133.972 70.74 134.3 70.892C134.628 71.044 134.908 71.256 135.14 71.528C135.372 71.792 135.548 72.108 135.668 72.476C135.796 72.844 135.86 73.248 135.86 73.688V74.144H131.408V74.432C131.408 74.696 131.448 74.944 131.528 75.176C131.616 75.4 131.736 75.596 131.888 75.764C132.048 75.932 132.24 76.064 132.464 76.16C132.696 76.256 132.956 76.304 133.244 76.304C133.636 76.304 133.976 76.212 134.264 76.028C134.56 75.844 134.788 75.58 134.948 75.236L135.632 75.728C135.432 76.152 135.12 76.496 134.696 76.76C134.272 77.016 133.768 77.144 133.184 77.144ZM133.184 71.468C132.92 71.468 132.68 71.516 132.464 71.612C132.248 71.7 132.06 71.828 131.9 71.996C131.748 72.164 131.628 72.364 131.54 72.596C131.452 72.82 131.408 73.068 131.408 73.34V73.424H134.828V73.292C134.828 72.74 134.676 72.3 134.372 71.972C134.076 71.636 133.68 71.468 133.184 71.468ZM133.28 69.98L132.656 69.692L133.676 67.652L134.552 68.072L133.28 69.98ZM141.402 75.992H141.354C140.978 76.76 140.374 77.144 139.542 77.144C139.158 77.144 138.81 77.068 138.498 76.916C138.186 76.764 137.918 76.548 137.694 76.268C137.478 75.988 137.31 75.648 137.19 75.248C137.078 74.848 137.022 74.4 137.022 73.904C137.022 73.408 137.078 72.96 137.19 72.56C137.31 72.16 137.478 71.82 137.694 71.54C137.918 71.26 138.186 71.044 138.498 70.892C138.81 70.74 139.158 70.664 139.542 70.664C139.974 70.664 140.342 70.76 140.646 70.952C140.958 71.136 141.194 71.424 141.354 71.816H141.402V68.12H142.362V77H141.402V75.992ZM139.806 76.28C140.022 76.28 140.226 76.252 140.418 76.196C140.618 76.14 140.79 76.06 140.934 75.956C141.078 75.844 141.19 75.712 141.27 75.56C141.358 75.4 141.402 75.22 141.402 75.02V72.716C141.402 72.548 141.358 72.392 141.27 72.248C141.19 72.096 141.078 71.968 140.934 71.864C140.79 71.76 140.618 71.68 140.418 71.624C140.226 71.56 140.022 71.528 139.806 71.528C139.262 71.528 138.834 71.7 138.522 72.044C138.21 72.38 138.054 72.824 138.054 73.376V74.432C138.054 74.984 138.21 75.432 138.522 75.776C138.834 76.112 139.262 76.28 139.806 76.28ZM144.883 69.356C144.675 69.356 144.523 69.308 144.427 69.212C144.339 69.108 144.295 68.976 144.295 68.816V68.66C144.295 68.5 144.339 68.372 144.427 68.276C144.523 68.172 144.675 68.12 144.883 68.12C145.091 68.12 145.239 68.172 145.327 68.276C145.423 68.372 145.471 68.5 145.471 68.66V68.816C145.471 68.976 145.423 69.108 145.327 69.212C145.239 69.308 145.091 69.356 144.883 69.356ZM144.403 70.808H145.363V77H144.403V70.808ZM148.771 77C148.435 77 148.179 76.908 148.003 76.724C147.835 76.532 147.751 76.284 147.751 75.98V71.648H146.731V70.808H147.307C147.515 70.808 147.655 70.768 147.727 70.688C147.807 70.6 147.847 70.452 147.847 70.244V69.092H148.711V70.808H150.067V71.648H148.711V76.16H149.971V77H148.771ZM153.903 77.144C153.487 77.144 153.107 77.068 152.763 76.916C152.419 76.764 152.123 76.548 151.875 76.268C151.635 75.98 151.447 75.64 151.311 75.248C151.175 74.848 151.107 74.4 151.107 73.904C151.107 73.416 151.175 72.972 151.311 72.572C151.447 72.172 151.635 71.832 151.875 71.552C152.123 71.264 152.419 71.044 152.763 70.892C153.107 70.74 153.487 70.664 153.903 70.664C154.319 70.664 154.695 70.74 155.031 70.892C155.375 71.044 155.671 71.264 155.919 71.552C156.167 71.832 156.359 72.172 156.495 72.572C156.631 72.972 156.699 73.416 156.699 73.904C156.699 74.4 156.631 74.848 156.495 75.248C156.359 75.64 156.167 75.98 155.919 76.268C155.671 76.548 155.375 76.764 155.031 76.916C154.695 77.068 154.319 77.144 153.903 77.144ZM153.903 76.292C154.423 76.292 154.847 76.132 155.175 75.812C155.503 75.492 155.667 75.004 155.667 74.348V73.46C155.667 72.804 155.503 72.316 155.175 71.996C154.847 71.676 154.423 71.516 153.903 71.516C153.383 71.516 152.959 71.676 152.631 71.996C152.303 72.316 152.139 72.804 152.139 73.46V74.348C152.139 75.004 152.303 75.492 152.631 75.812C152.959 76.132 153.383 76.292 153.903 76.292ZM165.614 77C165.254 77 164.994 76.904 164.834 76.712C164.682 76.52 164.586 76.28 164.546 75.992H164.486C164.35 76.376 164.126 76.664 163.814 76.856C163.502 77.048 163.13 77.144 162.698 77.144C162.042 77.144 161.53 76.976 161.162 76.64C160.802 76.304 160.622 75.848 160.622 75.272C160.622 74.688 160.834 74.24 161.258 73.928C161.69 73.616 162.358 73.46 163.262 73.46H164.486V72.848C164.486 72.408 164.366 72.072 164.126 71.84C163.886 71.608 163.518 71.492 163.022 71.492C162.646 71.492 162.33 71.576 162.074 71.744C161.826 71.912 161.618 72.136 161.45 72.416L160.874 71.876C161.042 71.54 161.31 71.256 161.678 71.024C162.046 70.784 162.51 70.664 163.07 70.664C163.822 70.664 164.406 70.848 164.822 71.216C165.238 71.584 165.446 72.096 165.446 72.752V76.16H166.154V77H165.614ZM162.854 76.328C163.094 76.328 163.314 76.3 163.514 76.244C163.714 76.188 163.886 76.108 164.03 76.004C164.174 75.9 164.286 75.78 164.366 75.644C164.446 75.508 164.486 75.36 164.486 75.2V74.18H163.214C162.662 74.18 162.258 74.26 162.002 74.42C161.754 74.58 161.63 74.812 161.63 75.116V75.368C161.63 75.672 161.738 75.908 161.954 76.076C162.178 76.244 162.478 76.328 162.854 76.328ZM172.364 77L169.58 68.624H170.66L172.04 72.848L172.964 75.992H173.024L173.972 72.848L175.364 68.624H176.408L173.588 77H172.364ZM178.152 69.356C177.944 69.356 177.792 69.308 177.696 69.212C177.608 69.108 177.564 68.976 177.564 68.816V68.66C177.564 68.5 177.608 68.372 177.696 68.276C177.792 68.172 177.944 68.12 178.152 68.12C178.36 68.12 178.508 68.172 178.596 68.276C178.692 68.372 178.74 68.5 178.74 68.66V68.816C178.74 68.976 178.692 69.108 178.596 69.212C178.508 69.308 178.36 69.356 178.152 69.356ZM177.672 70.808H178.632V77H177.672V70.808ZM182.532 77.144C181.956 77.144 181.472 77.036 181.08 76.82C180.696 76.596 180.364 76.3 180.084 75.932L180.768 75.38C181.008 75.684 181.276 75.92 181.572 76.088C181.868 76.248 182.212 76.328 182.604 76.328C183.012 76.328 183.328 76.24 183.552 76.064C183.784 75.888 183.9 75.64 183.9 75.32C183.9 75.08 183.82 74.876 183.66 74.708C183.508 74.532 183.228 74.412 182.82 74.348L182.328 74.276C182.04 74.236 181.776 74.176 181.536 74.096C181.296 74.008 181.084 73.896 180.9 73.76C180.724 73.616 180.584 73.44 180.48 73.232C180.384 73.024 180.336 72.776 180.336 72.488C180.336 72.184 180.392 71.92 180.504 71.696C180.616 71.464 180.768 71.272 180.96 71.12C181.16 70.968 181.396 70.856 181.668 70.784C181.94 70.704 182.232 70.664 182.544 70.664C183.048 70.664 183.468 70.752 183.804 70.928C184.148 71.104 184.448 71.348 184.704 71.66L184.068 72.236C183.932 72.044 183.732 71.872 183.468 71.72C183.204 71.56 182.872 71.48 182.472 71.48C182.072 71.48 181.768 71.568 181.56 71.744C181.36 71.912 181.26 72.144 181.26 72.44C181.26 72.744 181.36 72.964 181.56 73.1C181.768 73.236 182.064 73.336 182.448 73.4L182.928 73.472C183.616 73.576 184.104 73.776 184.392 74.072C184.68 74.36 184.824 74.74 184.824 75.212C184.824 75.812 184.62 76.284 184.212 76.628C183.804 76.972 183.244 77.144 182.532 77.144ZM187.806 77C187.47 77 187.214 76.908 187.038 76.724C186.87 76.532 186.786 76.284 186.786 75.98V71.648H185.766V70.808H186.342C186.55 70.808 186.69 70.768 186.762 70.688C186.842 70.6 186.882 70.452 186.882 70.244V69.092H187.746V70.808H189.102V71.648H187.746V76.16H189.006V77H187.806ZM195.145 77C194.785 77 194.525 76.904 194.365 76.712C194.213 76.52 194.117 76.28 194.077 75.992H194.017C193.881 76.376 193.657 76.664 193.345 76.856C193.033 77.048 192.661 77.144 192.229 77.144C191.573 77.144 191.061 76.976 190.693 76.64C190.333 76.304 190.153 75.848 190.153 75.272C190.153 74.688 190.365 74.24 190.789 73.928C191.221 73.616 191.889 73.46 192.793 73.46H194.017V72.848C194.017 72.408 193.897 72.072 193.657 71.84C193.417 71.608 193.049 71.492 192.553 71.492C192.177 71.492 191.861 71.576 191.605 71.744C191.357 71.912 191.149 72.136 190.981 72.416L190.405 71.876C190.573 71.54 190.841 71.256 191.209 71.024C191.577 70.784 192.041 70.664 192.601 70.664C193.353 70.664 193.937 70.848 194.353 71.216C194.769 71.584 194.977 72.096 194.977 72.752V76.16H195.685V77H195.145ZM192.385 76.328C192.625 76.328 192.845 76.3 193.045 76.244C193.245 76.188 193.417 76.108 193.561 76.004C193.705 75.9 193.817 75.78 193.897 75.644C193.977 75.508 194.017 75.36 194.017 75.2V74.18H192.745C192.193 74.18 191.789 74.26 191.533 74.42C191.285 74.58 191.161 74.812 191.161 75.116V75.368C191.161 75.672 191.269 75.908 191.485 76.076C191.709 76.244 192.009 76.328 192.385 76.328Z" fill="white"/>
<defs>
<linearGradient id="paint0_linear_376_520" x1="273" y1="99.9995" x2="13.5" y2="99.9995" gradientUnits="userSpaceOnUse">
<stop stop-color="#C4AD6C" stop-opacity="0"/>
<stop offset="0.520833" stop-color="#C4AD6C"/>
<stop offset="1" stop-color="#C4AD6C" stop-opacity="0"/>
</linearGradient>
</defs>
</svg>
