<svg width="24" height="24" viewBox="0 0 24 24" fill="none" xmlns="http://www.w3.org/2000/svg">
<path d="M14.6008 5.20487C15.6275 5.40519 16.5712 5.90735 17.3109 6.64707C18.0506 7.38679 18.5528 8.33042 18.7531 9.35718M14.6008 1C16.734 1.23698 18.7232 2.19226 20.2419 3.70899C21.7605 5.22573 22.7183 7.21376 22.958 9.34667M21.9067 17.7354V20.889C21.9079 21.1818 21.848 21.4716 21.7307 21.7398C21.6134 22.0081 21.4414 22.2489 21.2256 22.4468C21.0099 22.6447 20.7552 22.7954 20.4779 22.8892C20.2005 22.983 19.9067 23.0178 19.6151 22.9915C16.3803 22.64 13.2731 21.5346 10.5431 19.7642C8.00315 18.1503 5.84974 15.9968 4.23577 13.4569C2.45919 10.7145 1.35359 7.59218 1.00853 4.34287C0.982263 4.05217 1.01681 3.75919 1.10998 3.48258C1.20314 3.20597 1.35288 2.95178 1.54966 2.73621C1.74645 2.52064 1.98596 2.34841 2.25295 2.23047C2.51995 2.11254 2.80857 2.05149 3.10046 2.05122H6.25411C6.76427 2.0462 7.25885 2.22685 7.64567 2.55952C8.03248 2.89218 8.28514 3.35415 8.35654 3.85931C8.48965 4.86855 8.7365 5.85949 9.09239 6.81323C9.23383 7.18949 9.26444 7.5984 9.1806 7.99152C9.09676 8.38464 8.90198 8.74549 8.61935 9.0313L7.2843 10.3663C8.78077 12.9981 10.9598 15.1772 13.5916 16.6736L14.9266 15.3386C15.2125 15.056 15.5733 14.8612 15.9664 14.7774C16.3595 14.6935 16.7685 14.7241 17.1447 14.8656C18.0985 15.2214 19.0894 15.4683 20.0986 15.6014C20.6093 15.6734 21.0756 15.9307 21.409 16.3241C21.7424 16.7176 21.9195 17.2198 21.9067 17.7354Z" stroke="#C4AD6C" stroke-width="1.5" stroke-linecap="round" stroke-linejoin="round"/>
</svg>
