<svg width="20" height="18" viewBox="0 0 20 18" fill="none" xmlns="http://www.w3.org/2000/svg">
<path d="M12.1492 3.95809C12.9909 4.10378 13.7644 4.46898 14.3708 5.00696C14.9772 5.54494 15.3888 6.23121 15.5531 6.97795M12.1492 0.9C13.8979 1.07235 15.5286 1.7671 16.7735 2.87018C18.0184 3.97325 18.8035 5.41909 19 6.9703M18.1383 13.0712V15.3647C18.1392 15.5777 18.0901 15.7884 17.9939 15.9835C17.8978 16.1786 17.7568 16.3537 17.5799 16.4977C17.4031 16.6416 17.1943 16.7512 16.967 16.8194C16.7396 16.8876 16.4987 16.913 16.2597 16.8938C13.608 16.6382 11.0608 15.8343 8.82292 14.5467C6.74082 13.3729 4.97557 11.8068 3.65252 9.95958C2.19617 7.9651 1.28985 5.69431 1.00699 3.33118C0.98546 3.11976 1.01378 2.90669 1.09015 2.70551C1.16652 2.50434 1.28927 2.31948 1.45059 2.1627C1.6119 2.00592 1.80824 1.88066 2.02711 1.79489C2.24598 1.70912 2.48258 1.66472 2.72185 1.66452H5.30705C5.72525 1.66087 6.13069 1.79226 6.44778 2.03419C6.76487 2.27613 6.97198 2.61211 7.03051 2.9795C7.13963 3.71349 7.34199 4.43417 7.63373 5.1278C7.74967 5.40144 7.77476 5.69884 7.70603 5.98474C7.63731 6.27065 7.47764 6.53308 7.24595 6.74095L6.15155 7.71189C7.37827 9.6259 9.16456 11.2107 11.322 12.299L12.4164 11.3281C12.6506 11.1225 12.9465 10.9809 13.2687 10.9199C13.591 10.8589 13.9262 10.8812 14.2346 10.984C15.0164 11.2429 15.8288 11.4224 16.6561 11.5192C17.0747 11.5716 17.457 11.7587 17.7303 12.0448C18.0035 12.331 18.1488 12.6962 18.1383 13.0712Z" stroke="#C4AD6C" stroke-width="1.22727" stroke-linecap="round" stroke-linejoin="round"/>
</svg>
