<svg width="103" height="58" viewBox="0 0 103 58" fill="none" xmlns="http://www.w3.org/2000/svg">
<path d="M96.1333 0H6.86667C3.07431 0 0 3.1161 0 6.96V51.04C0 54.8839 3.07431 58 6.86667 58H96.1333C99.9257 58 103 54.8839 103 51.04V6.96C103 3.1161 99.9257 0 96.1333 0Z" fill="white"/>
<path fill-rule="evenodd" clip-rule="evenodd" d="M23.4868 19.0058H18.3111L18.7746 22.9796L22.1077 41.2447L85.3164 37.2524L85.6359 24.2154L83.5645 19.0037L23.4868 19.0058Z" fill="#182346"/>
<path d="M18.9757 28.2563C18.9435 28.4705 19.0751 28.6942 18.8962 28.9009V28.2599C18.9202 28.2346 18.9465 28.2334 18.9757 28.2563Z" fill="white"/>
<path d="M18.896 29.2632C19.0761 29.4691 18.9445 29.6932 18.9743 29.9082C18.9457 29.9299 18.9194 29.9299 18.896 29.9038V29.2632Z" fill="white"/>
<path d="M18.9757 27.5062L18.936 27.5102L18.8962 27.5098V27.1023C19.071 27.2232 18.9436 27.3718 18.9757 27.5062Z" fill="white"/>
<path d="M18.896 30.3121C18.9223 30.3115 18.9486 30.3133 18.9744 30.3186C18.9726 30.4935 18.9709 30.6678 18.9691 30.8427C18.9422 30.8753 18.9177 30.8729 18.896 30.8362V30.3121Z" fill="white"/>
<path d="M18.896 30.8164C18.9206 30.8188 18.9446 30.8206 18.9691 30.8229C18.9691 30.9676 18.9697 31.1128 18.9697 31.2575C18.9451 31.2569 18.9206 31.2551 18.896 31.2533V30.8164Z" fill="white"/>
<path d="M77.6917 31.4663C74.504 31.4587 71.3163 31.4663 68.1286 31.454C67.7972 31.4531 67.7373 31.5221 67.8324 31.8364C68.2798 33.3119 69.3675 34.0574 70.7904 34.3911C72.1844 34.7169 73.5479 34.5297 74.8743 34.0252C75.0046 33.9761 75.1325 33.9198 75.2618 33.8683C75.2718 33.864 75.2851 33.8692 75.3279 33.873C75.2404 34.8161 75.1463 35.7385 75.0745 36.6627C75.0583 36.8697 74.9261 36.9047 74.7868 36.9525C73.8774 37.2673 72.9375 37.4195 71.9776 37.473C70.2394 37.5699 68.5526 37.3775 66.9857 36.5672C64.8482 35.461 63.7205 33.6674 63.4381 31.3183C63.2565 29.806 63.4504 28.349 64.1883 27.0022C65.3469 24.8867 67.2215 23.8348 69.5672 23.5323C70.8556 23.3658 72.1335 23.4561 73.3748 23.84C75.8527 24.6063 77.2319 26.3555 77.7991 28.8118C77.9779 29.5848 78.013 30.3719 78.0506 31.1595C78.0639 31.4341 77.9298 31.4672 77.6917 31.4663ZM63.4138 37.2427C62.1996 37.2456 60.9849 37.238 59.7707 37.2503C59.5368 37.2527 59.4298 37.1869 59.3385 36.9662C58.8426 35.763 58.4889 34.515 58.1143 33.2731C58.0739 33.1403 58.0325 33.0074 57.9859 32.876C57.6584 31.9584 57.2476 31.671 56.2678 31.6705C55.8237 31.6705 55.3787 31.6918 54.9371 31.6629C54.6437 31.644 54.6014 31.7561 54.6033 32.0128C54.6138 33.6385 54.6009 35.2638 54.6152 36.8891C54.6181 37.1756 54.5496 37.2574 54.2544 37.2522C53.1576 37.2333 52.0593 37.238 50.9621 37.2493C50.7253 37.2522 50.6421 37.1978 50.6426 36.9463C50.6492 31.0715 50.6502 25.1963 50.6416 19.322C50.6412 19.0436 50.74 19.0039 50.9849 19.0062C52.0822 19.0185 53.1804 19.0232 54.2772 19.0039C54.5672 18.9987 54.6147 19.0951 54.6138 19.3551C54.6052 22.4667 54.6066 25.5783 54.6147 28.6899C54.6147 28.8118 54.4897 29.0132 54.7279 29.061C54.9318 29.1021 55.0944 29.0487 55.2309 28.8525C56.3662 27.222 57.5167 25.6024 58.6525 23.9724C58.7804 23.7894 58.9097 23.7195 59.135 23.7213C60.4657 23.7332 61.7964 23.727 63.2132 23.727C61.7185 25.6052 60.2737 27.4206 58.8018 29.2699C59.1222 29.303 59.4051 29.321 59.6846 29.3631C60.4353 29.4756 60.9554 29.9025 61.2982 30.5624C61.621 31.1841 61.786 31.8615 61.9866 32.5262C62.4658 34.1103 62.8975 35.711 63.691 37.1841C63.593 37.2777 63.497 37.2427 63.4138 37.2427ZM49.7916 24.6389C49.4417 25.5338 49.1141 26.4373 48.7727 27.3534C48.0748 26.9856 47.3565 26.7365 46.5701 26.7341C44.2173 26.728 42.7777 28.1963 42.8366 30.543C42.8956 32.8925 44.5643 34.3826 46.9314 34.2309C47.7206 34.1798 48.469 34.0011 49.2491 33.6626C49.1336 34.732 49.0219 35.7333 48.9211 36.7355C48.9011 36.934 48.7566 36.9747 48.6206 37.0281C47.6736 37.3964 46.6871 37.5458 45.6749 37.5216C44.386 37.4904 43.1542 37.221 42.0184 36.5927C40.6264 35.8217 39.6518 34.6861 39.1208 33.1946C38.4832 31.4072 38.4566 29.5942 39.0951 27.8077C39.9518 25.4133 41.7427 24.0802 44.2025 23.6164C46.0571 23.2661 47.869 23.4741 49.6166 24.2097C49.8662 24.3151 49.881 24.4092 49.7916 24.6389ZM37.4116 36.9326C37.4121 37.1652 37.3641 37.2536 37.1069 37.2508C35.9635 37.2366 34.8187 37.2366 33.6753 37.2508C33.4224 37.2536 33.37 37.1747 33.3715 36.9383C33.38 34.7793 33.3767 32.6198 33.3767 30.4608C33.3767 28.3367 33.3815 26.2122 33.37 24.0882C33.3686 23.814 33.4124 23.7128 33.7209 23.7185C34.8534 23.7398 35.9858 23.7336 37.1183 23.7218C37.3489 23.719 37.4121 23.7838 37.4121 24.0121C37.4054 28.3192 37.4059 32.6255 37.4116 36.9326ZM33.372 19.2823C33.3691 19.0752 33.4162 18.9996 33.6401 19.0062C34.222 19.0223 34.8049 19.0114 35.3877 19.0114C35.9706 19.0114 36.5535 19.0209 37.1354 19.0067C37.3527 19.0015 37.414 19.071 37.4116 19.2818C37.4012 20.0926 37.4012 20.9038 37.4116 21.715C37.414 21.9249 37.3531 21.9921 37.1359 21.9902C35.9711 21.9802 34.8054 21.9793 33.6401 21.9906C33.4171 21.993 33.3691 21.9226 33.372 21.715C33.3834 20.9043 33.3829 20.0926 33.372 19.2823ZM28.7463 15.2181C25.3388 14.9109 22.4316 12.4573 21.1879 15.2181C20.6915 16.321 20.2437 17.4429 19.8724 18.594C19.7397 19.0048 19.8068 19.0875 20.2432 19.1017C20.3716 19.1055 20.4999 19.1031 20.6283 19.1031H31.8026C32.3655 19.1031 32.3698 19.105 32.2885 19.6695C32.1744 20.4627 32.0769 21.2574 31.9581 22.0497C31.8896 22.5059 31.8829 22.5196 31.4085 22.5201C29.9841 22.5225 28.5593 22.5173 27.1349 22.5234C26.6937 22.5253 26.6295 22.5957 26.6177 23.0293C26.6143 23.1574 26.6167 23.285 26.6167 23.4126C26.6167 27.778 26.6167 32.1442 26.6162 36.5095C26.6162 36.6253 26.6138 36.7416 26.6143 36.8574C26.6158 37.0607 26.5183 37.1567 26.3148 37.1515C26.2449 37.1496 26.1746 37.1529 26.1047 37.1529C25.0887 37.1529 24.0732 37.1539 23.0572 37.1529C22.4872 37.1524 22.4801 37.1439 22.4786 36.5629C22.4782 36.4698 22.4786 36.3771 22.4786 36.284V23.4661C22.4786 23.3384 22.4801 23.2108 22.4777 23.0831C22.4696 22.5858 22.4111 22.5244 21.9058 22.5225C21.0538 22.5182 20.2014 22.5163 19.3489 22.5234C18.9372 22.5267 18.854 22.5901 18.7746 22.9796C18.6021 23.822 18.4979 24.6744 18.4152 25.5296C18.3629 26.0699 18.4052 26.6155 18.3111 27.1525V27.3615C18.3876 27.526 18.3292 27.6999 18.3472 27.8687C18.3273 28.1174 18.3881 28.3698 18.3111 28.6161V29.5219C18.3876 29.7729 18.3287 30.0306 18.3472 30.2844V30.6943V31.0347C18.3401 31.4984 18.3563 31.9636 18.399 32.4231C18.5645 34.2167 18.8883 35.9838 19.3475 37.7273C20.4148 41.7825 20.0183 37.8485 22.4786 41.2447C23.9833 43.3224 75.1111 45.3122 78.9648 41.2447C82.9446 37.0444 83.6568 43.1217 85.1287 37.5372C85.1876 37.3122 85.1658 37.2352 84.9062 37.2394C83.9957 37.2536 83.0787 37.1799 82.1758 37.2649C81.4061 37.3373 81.0324 37.0342 80.6702 36.397C79.599 34.5122 78.9368 32.5271 78.924 30.3539C78.9068 27.5562 78.914 24.7581 78.9125 21.9599C78.9125 21.5661 78.7932 21.0981 78.9648 20.7984C79.1379 20.4958 79.6532 20.4717 80.0136 20.3138C80.035 20.3048 80.055 20.2916 80.0768 20.2831C81.022 19.9049 81.9681 19.5267 82.9546 19.1324V19.5196C82.9546 20.866 82.9707 22.2133 82.9441 23.5592C82.937 23.9303 83.0544 24.0007 83.3934 23.988C84.0694 23.9624 84.7474 23.9856 85.4249 23.9771C85.6098 23.9747 85.674 24.0215 85.6359 24.2154C85.4738 25.0573 85.3122 25.9002 85.1734 26.7469C85.1396 26.9516 85.0512 26.9852 84.8757 26.9828C84.3152 26.9762 83.7542 26.9908 83.1947 26.9752C82.966 26.9686 82.898 27.0348 82.9013 27.2646C82.9142 28.1472 82.9265 29.0298 82.9027 29.9114C82.8348 32.4609 83.6777 34.7098 85.1387 36.7624C85.1734 36.8121 85.1919 36.8953 85.2879 36.8693C85.8423 34.5944 86.1342 32.2851 86.1941 29.9502C86.2592 27.3908 86.0505 24.8507 85.5218 22.3414C83.8465 14.3908 82.8654 20.0983 28.7463 15.2181Z" fill="white"/>
<path d="M70.7518 29.0215C69.8552 29.0215 68.9581 29.0206 68.0615 29.0227C67.9126 29.0231 67.8215 29.0332 67.8752 28.8287C68.39 26.8755 71.0154 26.0315 72.6931 27.2899C73.207 27.6759 73.4656 28.1997 73.6069 28.786C73.6547 28.9838 73.5829 29.0286 73.3758 29.0261C72.5013 29.0156 71.6263 29.0215 70.7518 29.0215Z" fill="white"/>
</svg>
