<svg width="103" height="58" viewBox="0 0 103 58" fill="none" xmlns="http://www.w3.org/2000/svg">
<path d="M96.1333 0H6.86667C3.07431 0 0 3.1161 0 6.96V51.04C0 54.8839 3.07431 58 6.86667 58H96.1333C99.9257 58 103 54.8839 103 51.04V6.96C103 3.1161 99.9257 0 96.1333 0Z" fill="white"/>
<path d="M48.2369 29.1289C48.2369 31.7957 47.661 33.8424 44.7097 33.8424C41.4056 33.8424 41.0529 31.4382 41.0529 29.4865V14.2043L36.8202 15.1492V30.103C36.8202 35.7905 40.7325 37.9684 44.5153 37.9684C49.4535 37.9684 52.4696 34.7507 52.4696 30.7195V14.2043L48.2369 15.1492V29.1289Z" fill="#182346"/>
<path d="M63.1485 20.4318C61.4425 20.4318 59.8876 20.9535 58.5703 21.8838V19.4541L54.4852 20.4537V43.2984L58.5595 42.3536V36.5056C59.8732 37.4286 61.4533 37.9648 63.1485 37.9648C67.7376 37.9648 71.4592 34.0394 71.4592 29.1983C71.4592 24.3572 67.7376 20.4318 63.1485 20.4318ZM62.8858 34.1999C60.1612 34.1999 58.1708 31.8907 58.1708 29.1947C58.1708 26.495 60.1612 24.1894 62.8858 24.1894C65.6104 24.1894 67.6008 26.4987 67.6008 29.1947C67.6008 31.8907 65.614 34.1999 62.8858 34.1999Z" fill="#182346"/>
</svg>
