<svg width="103" height="58" viewBox="0 0 103 58" fill="none" xmlns="http://www.w3.org/2000/svg">
<path d="M96.1333 0H6.86667C3.07431 0 0 3.1161 0 6.96V51.04C0 54.8839 3.07431 58 6.86667 58H96.1333C99.9257 58 103 54.8839 103 51.04V6.96C103 3.1161 99.9257 0 96.1333 0Z" fill="white"/>
<path fill-rule="evenodd" clip-rule="evenodd" d="M20.6 13.9199H27.6328L29.6843 29.1674L35.643 14.1173H41.0149L34.9174 29.3471C31.0896 29.6112 27.278 29.9229 23.4788 30.275L23.49 30.3416L20.6 13.9199ZM56.6334 14.0016H63.4033L61.5626 28.3062C59.3709 28.3225 57.1841 28.3577 55.0036 28.4093L56.6334 14.0016ZM62.2832 28.3011C62.7087 25.6535 63.7679 23.4885 65.4573 21.8177C67.257 20.035 69.5393 19.1411 72.3077 19.1411C74.5515 19.1411 76.2744 19.5434 77.4676 20.343C78.667 21.1363 79.5105 22.2967 79.9954 23.8066C80.5834 25.6396 80.4928 26.9082 80.2795 28.5991C74.2352 28.3602 68.2381 28.2659 62.2832 28.3011ZM73.8693 26.6504C74.038 22.3294 69.9225 23.0196 69.1436 26.6504H73.8693ZM53.7372 28.4407C53.8042 27.9014 53.8637 27.3532 53.9096 26.7912C54.1502 24.7332 53.9704 23.0787 53.2634 21.9321C51.543 19.1424 44.4966 19.4931 41.9092 20.5366C39.8701 21.3588 38.3531 22.8625 37.4018 25.1078L43.0677 25.9992C44.1443 23.0774 47.8567 23.1491 47.7562 25.8018C44.5164 26.2091 41.867 26.873 39.9544 27.8574C39.2995 28.1943 38.6992 28.628 38.182 29.1334C43.3369 28.8141 48.5215 28.5802 53.7372 28.4407Z" fill="#182346"/>
<path fill-rule="evenodd" clip-rule="evenodd" d="M68.8459 32.3531C69.2614 32.9138 69.863 33.2872 70.6854 33.2872C71.6131 33.2872 72.3201 33.218 72.9304 32.827C74.9906 33.0848 77.067 33.3764 79.1607 33.7008C78.1014 35.2987 76.9466 36.4629 75.6889 37.1946C74.3059 37.9942 72.4206 38.3965 70.0255 38.3965C67.9491 38.3965 66.359 38.0533 65.2514 37.3668C64.1487 36.6804 63.3003 35.5841 62.7111 34.0868C62.4271 33.3651 62.2398 32.5831 62.1517 31.7395C64.367 31.9093 66.5972 32.1129 68.8459 32.3531ZM23.6922 31.3611C27.1912 31.2191 30.7039 31.1059 34.2401 31.0393L31.5399 37.7817H24.7998L23.6736 31.3875L23.6922 31.3611ZM46.8756 37.7817H53.029C52.8392 35.2924 53.0662 33.2268 53.3477 31.2165C51.3272 31.1323 49.3191 31.0707 47.3209 31.0317C47.3172 31.7094 47.2105 32.2651 46.9922 32.6938C46.7702 33.125 46.3968 33.4946 45.8697 33.8001C45.3376 34.0993 44.7695 34.2489 44.1555 34.2489C43.5688 34.2489 43.1248 34.1081 42.8196 33.8315C42.5195 33.5512 42.3669 33.1941 42.3669 32.7541C42.3669 32.3707 42.5195 32.0274 42.8296 31.7232C43.0751 31.4831 43.6048 31.2354 44.4147 30.9877C41.8695 30.9613 39.3405 30.9664 36.825 30.9978C36.18 32.3279 36.0225 33.8705 36.6018 35.4169C37.6536 38.2242 40.7979 38.8201 43.3877 38.0998C44.8067 37.705 45.9825 36.869 46.9723 35.701L46.8756 37.7817ZM61.1309 31.6616L60.3384 37.8244H53.9381L54.6786 31.2769C56.8158 31.3762 58.9665 31.5032 61.1309 31.6616Z" fill="#182346"/>
<path fill-rule="evenodd" clip-rule="evenodd" d="M54.0349 39.2425H55.888L55.8259 40.1162C56.1199 39.7504 56.4064 39.4926 56.6892 39.3367C56.972 39.1834 57.3044 39.1054 57.689 39.1054C58.102 39.1054 58.422 39.1897 58.6502 39.3594C58.8797 39.5291 59.0583 39.7805 59.1873 40.1162C59.5259 39.7252 59.8298 39.4574 60.0977 39.3179C60.3644 39.1771 60.6856 39.1067 61.0639 39.1067C61.6196 39.1067 62.0413 39.2978 62.3254 39.68C62.6107 40.0609 62.7235 40.6581 62.6652 41.4702L62.3986 45.2318H60.409L60.6509 41.821C60.6695 41.5494 60.6397 41.347 60.5579 41.2163C60.44 41.0101 60.28 40.907 60.0828 40.907C59.8496 40.907 59.6524 41.0051 59.4961 41.1999C59.3386 41.3961 59.2468 41.7104 59.2158 42.1428L58.9963 45.2318H57.0055L57.2399 41.9329C57.2585 41.6689 57.2585 41.4916 57.2399 41.3973C57.2077 41.2477 57.1432 41.1258 57.0465 41.034C56.9485 40.9409 56.8294 40.8957 56.6905 40.8957C56.4622 40.8957 56.2687 40.9963 56.1087 41.1936C55.9487 41.3935 55.852 41.7217 55.8197 42.1755L55.6027 45.2318H53.6132L54.0349 39.2425ZM65.3791 41.1811L63.5 40.9497C63.5992 40.5663 63.7233 40.2646 63.8746 40.0446C64.0247 39.8245 64.2318 39.6347 64.4972 39.4725C64.687 39.3556 64.945 39.2651 65.2675 39.201C65.59 39.1368 65.9373 39.1042 66.3082 39.1042C66.9023 39.1042 67.3786 39.1431 67.7333 39.2198C68.0893 39.2965 68.3783 39.4587 68.6016 39.7026C68.7591 39.8723 68.8757 40.1112 68.9513 40.4205C69.0258 40.7322 69.053 41.0264 69.032 41.3093L68.8434 43.9545C68.8236 44.2361 68.8248 44.4574 68.8434 44.617C68.8633 44.7767 68.9154 44.9804 69.0034 45.2293H67.1404C67.0759 45.0747 67.0362 44.9577 67.0189 44.8773C67.0015 44.7968 66.9891 44.6698 66.9779 44.4963C66.6976 44.7867 66.4235 44.9929 66.1581 45.1161C65.7946 45.2821 65.3816 45.3651 64.9165 45.3651C64.2988 45.3651 63.8411 45.1991 63.5434 44.8685C63.247 44.5391 63.1167 44.1317 63.1515 43.6465C63.1837 43.1901 63.3251 42.8167 63.5769 42.5238C63.8287 42.2296 64.269 42.0121 64.9004 41.8688C65.6582 41.6953 66.1494 41.5746 66.3764 41.5054C66.6009 41.4363 66.8427 41.3433 67.097 41.2326C67.1169 40.9497 67.0809 40.7536 66.9891 40.6392C66.8961 40.5273 66.7224 40.4695 66.4682 40.4695C66.1432 40.4695 65.8964 40.5311 65.7252 40.6505C65.5912 40.7461 65.4759 40.9233 65.3791 41.1811ZM67.0152 42.388C66.7336 42.5011 66.4421 42.6017 66.1419 42.6885C65.7301 42.8117 65.4647 42.9349 65.3506 43.0543C65.2303 43.18 65.1645 43.3196 65.1534 43.478C65.1397 43.659 65.1844 43.8049 65.2849 43.9205C65.3866 44.0337 65.5429 44.0915 65.7537 44.0915C65.9757 44.0915 66.1841 44.0299 66.3851 43.9067C66.5835 43.7822 66.7299 43.6301 66.8217 43.4528C66.9147 43.2743 66.9693 43.0405 66.9891 42.7564L67.0152 42.388ZM70.3046 36.9631H72.2904L72.1787 38.5258H70.1929L70.3046 36.9631ZM70.1421 39.2425H72.1279L71.7024 45.2305H69.7166L70.1421 39.2425ZM72.4355 43.5735L74.4213 43.3586C74.4833 43.6301 74.5825 43.825 74.7215 43.9394C74.8604 44.0563 75.0501 44.1141 75.2945 44.1141C75.5612 44.1141 75.772 44.0488 75.9283 43.9155C76.0486 43.8187 76.1131 43.6967 76.1243 43.5497C76.1355 43.3837 76.0697 43.2567 75.9283 43.1662C75.8254 43.1021 75.545 43.0241 75.0911 42.9299C74.4114 42.789 73.9413 42.6621 73.682 42.5426C73.4228 42.4232 73.2107 42.2233 73.047 41.9417C72.882 41.6601 72.8126 41.3395 72.8386 40.9774C72.8659 40.5826 72.9899 40.2419 73.2095 39.9578C73.4278 39.6712 73.7155 39.4574 74.074 39.3166C74.4324 39.1758 74.9025 39.1054 75.4892 39.1054C76.1069 39.1054 76.5584 39.1607 76.8462 39.2689C77.1327 39.3782 77.3659 39.548 77.5457 39.7768C77.7256 40.0056 77.867 40.3161 77.9699 40.7071L76.0722 40.9221C76.0362 40.7297 75.9668 40.5889 75.8576 40.4984C75.71 40.3777 75.5264 40.3174 75.3044 40.3174C75.0812 40.3174 74.9137 40.3639 74.8058 40.4557C74.6966 40.5474 74.6383 40.6593 74.6284 40.7901C74.6185 40.9384 74.6756 41.0478 74.7996 41.1232C74.9236 41.1987 75.2027 41.2653 75.6343 41.3269C76.2868 41.4137 76.7705 41.5331 77.0806 41.6865C77.3932 41.8411 77.6239 42.0599 77.7727 42.3465C77.924 42.6319 77.9861 42.9449 77.9625 43.2882C77.9377 43.6351 77.8236 43.9721 77.6189 44.299C77.4155 44.6258 77.1128 44.8861 76.711 45.0784C76.3079 45.2733 75.772 45.3688 75.1022 45.3688C74.1558 45.3688 73.4935 45.2129 73.114 44.9012C72.7369 44.5919 72.5099 44.1468 72.4355 43.5735Z" fill="#182346"/>
</svg>
