<svg width="103" height="58" viewBox="0 0 103 58" fill="none" xmlns="http://www.w3.org/2000/svg">
<path d="M96.1333 0H6.86667C3.07431 0 0 3.1161 0 6.96V51.04C0 54.8839 3.07431 58 6.86667 58H96.1333C99.9257 58 103 54.8839 103 51.04V6.96C103 3.1161 99.9257 0 96.1333 0Z" fill="white"/>
<path fill-rule="evenodd" clip-rule="evenodd" d="M18.4781 18.9442L18.3111 19.27V19.5821C19.8451 19.8362 23.0049 20.8631 24.0421 21.6356C24.7923 22.1944 24.9054 23.2339 25.1901 24.3567L28.4006 36.9386C28.6503 37.943 28.893 39.1415 29.2129 40.0905L34.916 40.1159C35.3862 39.1959 38.8419 30.6575 39.3075 29.5164L42.5801 21.5797C42.8096 21.0096 43.5632 19.4329 43.644 18.9469L38.0156 18.9346L32.4232 33.2056C32.1507 32.7664 30.4388 22.7719 30.1521 21.2806C29.6621 18.7322 28.0346 18.9318 25.4916 18.9335C24.7445 18.9341 23.9789 18.9248 23.2077 18.9156C22.458 18.9065 21.7028 18.8975 20.9543 18.8975C20.115 18.8975 19.2842 18.9088 18.4781 18.9442Z" fill="#182346"/>
<mask id="mask0_173_2126" style="mask-type:alpha" maskUnits="userSpaceOnUse" x="50" y="18" width="18" height="23">
<path d="M61.7559 18.5601C61.7464 18.5601 61.737 18.5601 61.7275 18.5601C58.5946 18.5722 54.9302 19.8166 53.497 22.7426C51.7668 26.2752 53.4664 29.1426 56.6779 30.871C57.8344 31.4935 59.9633 32.367 60.2838 33.4805C60.8482 35.4418 58.2635 36.0833 56.6346 36.0105C53.5551 35.8728 53.383 35.223 51.625 34.7024C51.4307 35.0508 50.6365 38.8273 50.6365 39.352C54.6239 41.0553 61.8361 41.1338 64.7782 37.1376C65.6421 35.9642 66.3046 34.0071 65.9157 32.0751C65.2119 28.5778 61.3594 27.7142 59.3196 26.1609C57.1539 24.5115 59.3014 22.2816 63.6642 23.2043C64.6525 23.4134 65.2512 23.7371 66.0896 23.986L67.0258 19.4623C65.0784 18.953 64.1119 18.5656 61.8552 18.5601H61.7559Z" fill="white"/>
</mask>
<g mask="url(#mask0_173_2126)">
<path fill-rule="evenodd" clip-rule="evenodd" d="M61.7559 18.5601C61.7464 18.5601 61.737 18.5601 61.7275 18.5601C58.5946 18.5722 54.9302 19.8166 53.497 22.7426C51.7668 26.2752 53.4664 29.1426 56.6779 30.871C57.8344 31.4935 59.9633 32.367 60.2838 33.4805C60.8482 35.4418 58.2635 36.0833 56.6346 36.0105C53.5551 35.8728 53.383 35.223 51.625 34.7024C51.4307 35.0508 50.6365 38.8273 50.6365 39.352C54.6239 41.0553 61.8361 41.1338 64.7782 37.1376C65.6421 35.9642 66.3046 34.0071 65.9157 32.0751C65.2119 28.5778 61.3594 27.7142 59.3196 26.1609C57.1539 24.5115 59.3014 22.2816 63.6642 23.2043C64.6525 23.4134 65.2512 23.7371 66.0896 23.986L67.0258 19.4623C65.0784 18.953 64.1119 18.5656 61.8552 18.5601H61.7559Z" fill="#182346"/>
</g>
<mask id="mask1_173_2126" style="mask-type:alpha" maskUnits="userSpaceOnUse" x="41" y="18" width="11" height="23">
<path d="M41.5058 40.1058L46.9076 40.1125L51.3818 18.9434L45.9961 18.9365L41.5058 40.1058Z" fill="white"/>
</mask>
<g mask="url(#mask1_173_2126)">
<path fill-rule="evenodd" clip-rule="evenodd" d="M41.5058 40.1058L46.9076 40.1125L51.3818 18.9434L45.9961 18.9365L41.5058 40.1058Z" fill="#182346"/>
</g>
<mask id="mask2_173_2126" style="mask-type:alpha" maskUnits="userSpaceOnUse" x="65" y="18" width="21" height="23">
<path d="M76.2517 18.9329C74.7154 18.9482 74.1584 19.6831 73.6683 20.8426C73.1765 22.0059 65.799 39.7472 65.7512 40.1153L71.4027 40.1151L72.5453 36.9563L79.4012 36.9585C79.5915 37.4697 79.6966 38.2637 79.8123 38.813C80.1301 40.3203 79.924 40.132 80.6751 40.1193C81.2925 40.1089 81.9175 40.1152 82.5431 40.1214C83.4023 40.13 84.2628 40.1387 85.106 40.1041V39.9653L80.7149 18.9471C80.1858 18.908 79.5905 18.8955 78.9795 18.8955C78.0483 18.8955 77.0802 18.9245 76.2517 18.9329ZM74.1132 32.5857C74.2345 32.1417 76.7193 25.1023 76.9298 24.8039L78.5111 32.6044L74.1132 32.5857Z" fill="white"/>
</mask>
<g mask="url(#mask2_173_2126)">
<path fill-rule="evenodd" clip-rule="evenodd" d="M76.2517 18.9329C74.7154 18.9482 74.1584 19.6831 73.6683 20.8426C73.1765 22.0059 65.799 39.7472 65.7512 40.1153L71.4027 40.1151L72.5453 36.9563L79.4012 36.9585C79.5915 37.4697 79.6966 38.2637 79.8123 38.813C80.1301 40.3203 79.924 40.132 80.6751 40.1193C81.2925 40.1089 81.9175 40.1152 82.5431 40.1214C83.4023 40.13 84.2628 40.1387 85.106 40.1041V39.9653L80.7149 18.9471C80.1858 18.908 79.5905 18.8955 78.9795 18.8955C78.0483 18.8955 77.0802 18.9245 76.2517 18.9329ZM74.1132 32.5857C74.2345 32.1417 76.7193 25.1023 76.9298 24.8039L78.5111 32.6044L74.1132 32.5857Z" fill="#182346"/>
</g>
</svg>
