<svg width="103" height="58" viewBox="0 0 103 58" fill="none" xmlns="http://www.w3.org/2000/svg">
<path d="M96.1333 0H6.86667C3.07431 0 0 3.1161 0 6.96V51.04C0 54.8839 3.07431 58 6.86667 58H96.1333C99.9257 58 103 54.8839 103 51.04V6.96C103 3.1161 99.9257 0 96.1333 0Z" fill="white"/>
<path d="M62.6773 15.9614C68.9133 15.9614 72.1459 19.087 72.1459 23.9841C72.1459 26.7397 70.8151 29.2402 67.6981 30.6931C69.0066 34.3228 70.2978 37.8446 71.9917 41.4814H61.9024L57.4395 27.02C57.9405 27.0966 58.0998 27.1732 58.6769 27.1732C60.4479 27.1732 62.9076 26.9948 62.9076 24.9016C62.9076 23.0999 61.5312 22.5706 59.5239 22.5706H57.2985C54.4777 28.8722 51.8091 35.1869 49.1567 41.4794H38.4152C35.3368 33.369 34.5974 31.0248 30.9459 22.5262H40.529L43.9543 33.4829H44.0304L49.9904 15.9614H62.6773Z" fill="#182346"/>
</svg>
